<?xml version="1.0" encoding="UTF-8"?>
<svg width="403px" height="56px" viewBox="0 0 403 56" version="1.1" xmlns="http://www.w3.org/2000/svg" xmlns:xlink="http://www.w3.org/1999/xlink">
    <!-- Generator: Sketch 54.1 (76490) - https://sketchapp.com -->
    <title>american_university</title>
    <desc>Created with Sketch.</desc>
    <g id="Page-1" stroke="none" stroke-width="1" fill="none" fill-rule="evenodd">
        <path d="M79.9648912,6.26190231 C79.6055354,6.68647923 79.0503525,7.27514746 78.2663789,7.50279231 C78.36485,8.02584038 78.1694219,8.64546692 77.7128738,9.82067538 L74.3837815,18.6349946 C73.0128584,22.2912669 72.0974092,24.4131285 71.5103676,25.9143915 C71.0525407,27.0897023 70.3347499,27.4474723 69.5520961,27.5129492 L68.475103,27.6108577 C68.2781607,27.77322 68.3433819,28.2977822 68.5390453,28.4281222 C69.4201703,28.3953838 70.5954299,28.3302138 71.6722184,28.3302138 C73.2068338,28.3629522 74.2199869,28.3626453 75.0691407,28.4281222 C75.3632753,28.2977822 75.3619965,27.77322 75.133083,27.6108577 L74.0560899,27.5129492 C73.2721572,27.4476769 73.1089458,27.2528626 73.1089458,26.8615357 C73.1089458,26.5022311 73.3385038,25.6213618 73.8282916,24.1520188 L74.969227,20.7230742 C75.1981405,20.0376638 75.3942029,19.939786 76.210117,19.939786 L81.1397109,19.939786 C82.119307,19.939786 82.2508747,20.0376126 82.4785093,20.7550555 L83.9152162,25.1970509 C84.1761009,25.9797048 84.3408367,26.5680763 84.3408367,26.9274832 C84.3408367,27.2535378 83.8833269,27.4474723 83.1978552,27.5129492 L82.250711,27.6108577 C82.0217975,27.7733223 82.0557637,28.2976799 82.3166483,28.4281222 C83.2629945,28.3953838 84.5026568,28.3302138 86.0692945,28.3302138 C87.5386375,28.3302138 88.6820283,28.3626453 90.0197014,28.4281222 C90.1833937,28.2976799 90.2486149,27.7733223 90.0197014,27.6108577 L89.1384945,27.5129492 C87.7343215,27.3504846 87.3093353,26.8604205 86.3629892,24.0520846 L81.892143,10.9301 C81.4020892,9.49216538 80.8792969,7.99172077 80.4547199,6.55552538 C80.3902661,6.327901 80.1610969,6.2618 79.9656892,6.2618 L79.9648912,6.26190231 Z M173.09456,7.96440462 C169.961387,7.96440462 167.159487,8.80660154 164.959871,10.5241431 C162.670737,12.3017392 161.163335,15.1627738 161.163335,18.5069054 C161.163335,22.39337 163.032087,25.1360346 165.441433,26.7934192 C167.641049,28.2692077 170.232196,28.8116431 172.94468,28.8116431 C174.871952,28.8116431 177.04067,28.360016 177.704443,28.1182629 C178.035664,27.9981537 178.398856,27.8788936 178.75944,27.8185321 C179.212151,27.245609 179.993168,25.2568498 180.204127,23.6902121 C180.083915,23.4789467 179.632554,23.4194138 179.422823,23.5703177 C178.729699,25.3479138 177.010919,27.8783923 173.124557,27.8783923 C168.183095,27.8783923 164.176624,24.3816177 164.176624,18.0552169 C164.176624,11.8182331 168.093985,8.89745077 172.702947,8.89745077 C177.071485,8.89745077 178.427881,11.2467423 178.879365,13.2954538 C179.090374,13.4769988 179.541725,13.4465214 179.692629,13.2355077 C179.450927,11.3978569 179.301701,9.49861691 179.271009,8.80548229 C178.999893,8.8361746 178.789682,8.77510918 178.427768,8.68558791 C177.012034,8.29298214 174.722593,7.96423683 173.094571,7.96423683 L173.09456,7.96440462 Z M189.841307,7.96440462 C189.511364,8.35573154 188.999263,8.89636631 188.276715,9.10738615 C188.366234,9.58951115 188.185252,10.1609508 187.763182,11.2454123 L184.689961,19.3820454 C183.425233,22.7569715 182.582627,24.7137085 182.040396,26.0999777 C181.618377,27.1844392 180.954605,27.5163254 180.232005,27.5766869 L179.238905,27.6666052 C179.058536,27.817509 179.118529,28.2996135 179.298857,28.4199274 C180.112203,28.3892351 181.195335,28.3300092 182.190277,28.3300092 C183.606011,28.3607015 184.539466,28.3595658 185.32345,28.4199274 C185.594617,28.2996135 185.594412,27.817509 185.383402,27.6666052 L184.390291,27.5766869 C183.666464,27.5166323 183.51508,27.3350975 183.51508,26.9732352 C183.51509,26.6420652 183.725772,25.8291283 184.178484,24.4734491 L185.233481,21.3102998 C185.44449,20.677271 185.626485,20.5869538 186.378406,20.5869538 L190.928336,20.5869538 C191.83248,20.5869538 191.952231,20.6765548 192.16319,21.340276 L193.490018,25.4386198 C193.730452,26.1611168 193.879667,26.7019152 193.879667,27.0331875 C193.879667,27.3349952 193.457648,27.5163356 192.82467,27.5766972 L191.951464,27.6666154 C191.740506,27.8175192 191.770983,28.2997261 192.011416,28.4199376 C192.886147,28.3892453 194.030663,28.3300194 195.478317,28.3300194 C196.81998,28.3300194 197.868532,28.3606912 199.089063,28.4199376 C199.093155,28.420134 199.097247,28.4197402 199.101033,28.4199376 C199.108194,28.4202998 199.11556,28.4195744 199.123029,28.4199376 C199.123622,28.419465 199.124052,28.418403 199.125075,28.4178915 C200.161656,28.3589725 200.972752,28.3299682 202.222236,28.3299682 C203.337389,28.3299682 204.391466,28.3595249 205.747043,28.4198865 C205.958052,28.2689826 205.989307,27.9083173 205.808939,27.6665642 L204.873785,27.576646 C204.120545,27.5165914 203.548184,27.3363355 203.337123,27.0051655 C202.854947,26.1009701 202.795619,22.1824832 202.795619,20.7667493 L202.795619,14.1986978 C202.795619,13.2945535 202.823958,12.6010608 202.945479,12.2404262 L203.005432,12.2404262 C203.638461,12.9028685 205.686916,15.3752362 206.500262,16.3087939 L213.489924,24.2615801 C216.111559,27.2438493 216.985778,28.2999716 217.346412,28.8115101 C217.678912,28.8115101 217.859741,28.6614042 217.919898,28.4798081 C217.830379,27.6971542 217.82997,24.1106558 217.82997,23.2065627 L217.82997,16.0070681 C217.82997,14.6207988 217.770017,10.8851358 218.281566,9.80067423 C218.401778,9.55897231 219.003787,9.31815023 219.968006,9.16724638 L220.389626,9.10730022 C220.571171,8.92570406 220.571386,8.50360298 220.329674,8.35397798 C219.305369,8.41413491 218.521897,8.44389724 217.226477,8.44389724 C216.080631,8.44389724 215.057963,8.41413491 213.671694,8.35397798 C213.43122,8.44349722 213.400016,8.92570406 213.609696,9.10730022 L214.123229,9.16724638 C215.327902,9.31815023 215.809976,9.49958269 215.991572,9.77069808 C216.563216,10.6748423 216.595024,14.5901065 216.595024,16.0070681 L216.595024,22.4532712 C216.595024,23.0863 216.592978,23.5692435 216.473134,23.7201473 L216.413182,23.7201473 C214.997448,22.2737212 213.490354,20.6163365 211.441642,18.267045 L208.520246,14.9839912 C207.555996,13.8688373 203.969191,9.88988654 203.366905,8.35394115 C202.975578,8.41409808 202.463007,8.44386041 201.982171,8.44386041 C201.43994,8.44386041 199.843326,8.44346079 198.577268,8.35394115 C198.336794,8.47415269 198.335004,8.92566723 198.51527,9.10726338 L199.028814,9.16720955 C199.751362,9.25672878 200.476365,9.4685364 200.897157,9.89055563 C201.530185,10.5836902 201.560561,11.2177933 201.560561,12.0606041 L201.560561,20.7667841 C201.560561,22.2132102 201.5889,25.8887164 201.166911,26.9731779 C201.017286,27.3044502 200.535243,27.5162681 199.842129,27.5766296 L199.076816,27.6605526 L198.309509,27.5766296 C197.014089,27.4258281 196.622557,26.9744568 195.747826,24.3835042 L191.614596,12.2702735 C191.161884,10.9453889 190.679125,9.5600404 190.287767,8.23392809 C190.22761,8.02414617 190.015772,7.9641734 189.834176,7.9641734 L189.841307,7.96440462 Z M91.3588989,8.35399231 C91.1171969,8.47420385 91.0873845,8.92571838 91.2370095,9.10731454 L91.720577,9.16726071 C93.5582278,9.46778955 93.7988555,9.86111148 93.7388009,11.7589192 C93.6786951,13.4163038 93.5587189,15.9774746 93.4090939,18.4788976 C93.2274977,21.4611669 93.0771565,23.1176307 92.8955604,25.1049576 C92.7152431,27.2150538 92.2933057,27.4258076 91.0272173,27.5767115 L90.3638133,27.6666297 C90.183496,27.8175336 90.2434381,28.2690481 90.4237554,28.4199519 C91.44806,28.3595904 92.5327262,28.3300337 93.4969762,28.3300337 C94.6428223,28.3300337 95.8176215,28.3595904 96.8419262,28.4199519 C97.0529358,28.3291027 97.0829119,27.8468959 96.8719023,27.6666297 L95.7289208,27.5767115 C94.55361,27.4872946 94.3721162,27.0035531 94.3721162,24.7732761 C94.3721162,22.2131284 94.4924095,19.5313369 94.5819288,17.6936861 C94.6727269,15.9467822 94.7634431,14.1989576 94.8836546,12.3305122 L94.9435967,12.3305122 C95.606039,13.7167815 96.2388121,15.2843399 96.8718921,16.6706092 L99.5834552,22.4853692 C100.27659,23.9612599 101.723527,26.9126322 102.235066,28.5099622 C102.296451,28.5993792 102.44672,28.6318516 102.506826,28.6318516 C102.628316,28.6318516 102.748446,28.5989699 102.808552,28.5099622 C103.350782,27.123693 104.706052,24.2910999 106.061629,21.6402053 L108.743216,16.3690061 C109.345553,15.1950253 110.490427,12.7837353 110.701488,12.4525653 L110.76144,12.4525653 L110.851369,25.0149269 C110.851369,26.9435292 110.852392,27.4257053 109.376706,27.5766092 L108.501494,27.6665274 C108.319898,27.8468959 108.352432,28.2689458 108.56339,28.4198496 C109.798755,28.3594881 111.153002,28.3299314 112.208102,28.3299314 C113.292563,28.3299314 114.527519,28.3594881 115.762885,28.4198496 C115.972615,28.2995358 116.003144,27.8468959 115.822837,27.6665274 L114.859712,27.5766092 C113.442751,27.4257053 113.473852,26.643297 113.383003,25.1367753 C113.14258,20.7988269 113.111407,15.2238761 113.051301,12.0301369 C113.021837,9.92137071 113.261584,9.37770763 115.159351,9.16674917 L115.792789,9.106803 C115.943693,8.98531262 115.94313,8.47369231 115.762813,8.35348077 C114.827977,8.41363769 113.834518,8.44340002 113.081226,8.44340002 C112.47889,8.44340002 111.845656,8.44300041 110.821249,8.35348077 C110.761092,9.73852231 109.917586,11.3964185 108.531296,14.1382646 L105.707604,19.8926631 C104.954363,21.4285062 104.201021,22.9956554 103.387675,24.4126169 L103.327722,24.4126169 C102.603895,23.0865046 101.942681,21.7000308 101.249546,20.2842969 L97.8150769,13.3246115 C96.8815192,11.3961115 96.1282277,9.52705231 96.2485415,8.35307154 C95.2548781,8.44259077 94.4399462,8.44299079 93.7468115,8.44299079 C92.9935712,8.44299079 92.2697954,8.41322846 91.36693,8.35307154 L91.3588989,8.35399231 Z M117.087237,8.35399231 C116.905641,8.44351154 116.845699,8.98582415 117.027285,9.10731454 L117.510842,9.16726071 C119.288438,9.37827032 119.347163,9.83066471 119.347163,12.9637969 L119.347163,23.8104584 C119.347163,26.9743238 119.196331,27.4261146 117.47882,27.5770184 L116.485719,27.6669366 C116.304123,27.8472028 116.364065,28.329205 116.545672,28.4202589 C118.323268,28.3598973 119.348493,28.3283456 120.644015,28.3283456 L123.353532,28.3283456 C126.035222,28.3283456 128.717115,28.3598973 131.428269,28.4202589 C131.819596,27.6069127 132.574013,25.2869835 132.785074,24.2319866 C132.664862,23.9605642 132.242761,23.8706051 132.031752,24.0201789 C131.247819,25.5868166 130.43391,26.6417112 129.891679,26.9435189 C129.229237,27.2747912 128.356962,27.3951153 126.037135,27.3951153 C123.386138,27.3951153 122.752342,27.0636077 122.390377,26.7017454 C121.908252,26.1902069 121.816901,25.1658 121.816901,23.5685723 L121.816901,19.32045 C121.816901,18.5377962 121.907853,18.5071857 122.811997,18.5071857 L124.55839,18.5071857 C125.7337,18.5071857 126.457527,18.5388397 126.878319,18.6590512 C127.481934,18.8099551 127.693271,19.2617868 127.813483,19.8039766 L128.085232,20.9788782 C128.236136,21.1591955 128.746314,21.1599116 128.866526,20.948902 C128.866526,20.2864597 128.746641,19.1399997 128.746641,18.0555382 C128.746631,16.909692 128.866526,15.7361205 128.866526,15.0122936 C128.746314,14.8012328 128.236136,14.8027265 128.085232,14.9843185 L127.843449,16.2191724 C127.693824,16.9724128 127.482016,17.1520139 127.120103,17.2722255 C126.758189,17.392437 125.824478,17.4540569 124.55842,17.4540569 L122.812028,17.4540569 C121.907884,17.4540569 121.816932,17.4548559 121.816932,16.6108165 L121.816932,10.5842795 C121.816932,9.43976338 121.817955,9.37940185 122.72211,9.37940185 L124.890112,9.37940185 C126.216224,9.37940185 127.180474,9.40833548 127.813452,9.55923831 C129.379987,9.95056523 129.651921,11.0069945 130.103405,12.422626 C130.254309,12.6028922 130.736506,12.540996 130.856727,12.3606818 C130.736506,11.0345695 130.554756,8.86585099 130.37316,8.35431253 C130.012525,8.44383176 128.235338,8.44423178 126.306838,8.44423178 L120.643903,8.44423178 C119.408537,8.44423178 118.382596,8.41446945 117.087074,8.35431253 L117.087237,8.35399231 Z M139.896737,8.35399231 C136.943933,8.35399231 134.865654,8.44487018 133.178805,8.59577608 C132.937103,8.71598762 132.937819,9.19819446 133.148829,9.34909831 L134.111964,9.46899269 C135.347329,9.61989654 135.438792,10.1317522 135.438792,12.9937996 L135.438792,23.8097688 C135.438792,26.9736342 135.378635,27.3652681 133.630401,27.5763288 L132.877079,27.6662471 C132.696762,27.8773078 132.756714,28.3285155 132.937031,28.4195693 C134.353993,28.3592078 135.438864,28.3296511 136.703591,28.3296511 C137.909595,28.3296511 138.932774,28.3592078 140.288351,28.4195693 C140.468678,28.3287201 140.52862,27.8171509 140.348303,27.6662471 L139.71687,27.5763288 C137.969966,27.3359058 137.908479,26.9735933 137.908479,23.8097688 L137.908479,20.0132327 C137.908479,19.380255 137.969659,19.3518339 139.325236,19.3518339 C140.529909,19.3518339 141.010551,19.6512476 141.463262,20.3149688 C142.39682,21.6705457 143.633925,23.7497449 144.416579,24.8648988 C146.556037,27.9085526 148.091471,28.6614349 150.652949,28.6614349 C151.225872,28.6614349 151.708662,28.5985771 151.979777,28.5095694 C152.015176,28.4808516 152.037581,28.4457192 152.053746,28.4076607 C153.278573,28.3612642 154.269935,28.3297329 155.378746,28.3297329 C156.583419,28.3297329 157.608849,28.3592896 159.115432,28.4196512 C159.295749,28.3288019 159.35697,27.7865405 159.175384,27.6663289 L158.422062,27.5764107 C156.644466,27.3654522 156.583695,26.9445277 156.583695,23.7498984 L156.583695,13.0239599 C156.583695,9.83073223 156.644466,9.31837531 158.422062,9.16747146 L159.175384,9.10752529 C159.35698,8.98603491 159.295759,8.44372229 159.115432,8.35420306 C157.608951,8.41435998 156.583521,8.44412232 155.378746,8.44412232 C154.112688,8.44412232 153.089918,8.41435998 151.582209,8.35420306 C151.401892,8.44372229 151.34194,8.98603491 151.522257,9.10752529 L152.275579,9.16747146 C154.053175,9.31837531 154.113946,9.83071177 154.113946,13.0239599 L154.113946,23.7498984 C154.113946,26.9445584 154.053175,27.3654522 152.275579,27.5764107 L151.522257,27.6663289 C151.446345,27.7422822 151.419949,27.8728472 151.420359,28.0040262 C150.81481,27.8694506 150.268988,27.5971382 149.869783,27.2447087 C147.822402,25.5272695 146.223844,23.1176164 143.81327,19.2299241 C143.662366,18.989501 143.513775,18.6868953 143.6634,18.506578 C145.16988,17.9042415 147.428016,16.3391895 147.428016,13.4771318 C147.428016,11.3683657 146.374656,10.0101288 144.92823,9.25693954 C143.54196,8.50369915 141.763853,8.353757 139.896737,8.353757 L139.896737,8.35399231 Z M139.866761,9.289146 C143.210995,9.289146 144.686374,11.5490206 144.686374,13.9290045 C144.686374,15.977716 143.994365,17.0318945 143.179791,17.6636445 C142.306339,18.3273656 141.163102,18.4469326 140.07864,18.4469326 C138.541467,18.4469326 138.089267,18.3879215 137.99852,18.2970723 C137.909001,18.1768608 137.908592,17.8441971 137.908592,17.3019663 L137.908592,10.2523525 C137.908592,9.408314 137.998418,9.28921762 139.866863,9.28921762 L139.866761,9.289146 Z M78.8535227,10.2442804 L78.917465,10.2442804 C79.1131285,10.6356073 79.4079076,11.5164765 79.6687922,12.3004604 L81.4331907,17.6216881 C81.7260465,18.5028131 81.660191,18.6347695 80.7138449,18.6347695 L76.6974495,18.6347695 C75.7843533,18.6347695 75.7511852,18.6001588 76.0120698,17.8494762 L78.0682498,12.1705808 C78.4276055,11.1909846 78.755072,10.4066938 78.8535432,10.2443315 L78.8535227,10.2442804 Z M188.81383,11.6390412 L188.873783,11.6390412 C189.0541,11.9996758 189.325461,12.8135335 189.567163,13.5373604 L191.193651,18.4469019 C191.464766,19.2602481 191.404977,19.3820556 190.530247,19.3820556 L186.825583,19.3820556 C185.981544,19.3820556 185.951732,19.3518442 186.192155,18.6587095 L188.090474,13.4174865 C188.422974,12.5133422 188.723073,11.788748 188.81382,11.6390718 L188.81383,11.6390412 Z M233.085635,6.64568915 C232.888693,6.74410915 232.824035,7.298535 233.019698,7.42897731 L233.836963,7.49491462 C235.729655,7.65870923 235.795234,8.21191762 235.795234,11.6071723 L235.795234,19.3102254 C235.795234,23.19536 236.610657,25.5792315 238.340956,27.0152223 C239.940844,28.3861454 242.192125,28.8116431 244.445452,28.8116431 C246.861141,28.8116431 249.276933,27.9624074 250.679878,26.4277715 C252.508628,24.4699092 252.965841,21.4658485 252.965841,18.62681 L252.965841,14.9361623 C252.965841,13.10731 252.933624,9.35497077 253.423433,8.27818231 C253.585846,7.85360538 254.240053,7.56037108 255.055956,7.49489415 L255.83725,7.42895685 C256.000942,7.23334454 256.035471,6.809361 255.773307,6.64566869 C254.597997,6.71012254 253.717332,6.74357715 252.346409,6.74357715 C251.073906,6.74357715 249.86422,6.71114562 248.623739,6.64566869 C248.428075,6.776111 248.364133,7.20009454 248.559797,7.42895685 L249.375066,7.49489415 C250.19097,7.56016646 250.778728,7.78894692 251.00759,8.18027385 C251.562609,9.15987 251.629027,12.9116977 251.629027,14.9361623 L251.629027,18.6907523 C251.629027,23.6526754 249.83322,27.3749362 245.098932,27.3749362 C240.105089,27.3749362 238.470928,23.91489 238.470928,18.6588323 L238.470928,11.6071723 C238.470928,8.21188692 238.537193,7.65860692 240.431143,7.49491462 L241.214432,7.42897731 C241.410095,7.298535 241.345437,6.74390454 241.148494,6.64568915 C239.549937,6.710143 238.471818,6.74359762 237.134145,6.74359762 C235.828494,6.74359762 234.717637,6.71116608 233.08583,6.64568915 L233.085635,6.64568915 Z M366.382328,7.41299685 C366.261799,7.41688454 366.140012,7.43876815 366.094587,7.46894892 C365.884856,8.673622 365.433741,10.6033497 364.951606,11.9589266 C365.071817,12.2006797 365.493192,12.3503354 365.734894,12.1687392 C366.066115,11.4154477 366.365846,10.7530054 367.089652,10.0906654 C367.842893,9.39783769 369.498794,9.33933815 370.794316,9.33933815 L372.452826,9.33933815 C373.35697,9.33933815 373.356009,9.36758531 373.356009,10.302473 L373.356009,23.7682115 C373.356009,26.9320768 373.205187,27.3838676 371.487666,27.5347715 L370.40259,27.6266847 C370.162167,27.7775885 370.222273,28.2889531 370.40259,28.3800069 C372.33109,28.3196454 373.386087,28.2880937 374.590863,28.2880937 C375.795536,28.2880937 376.821784,28.3196454 378.539326,28.3800069 C378.719694,28.28926 378.780864,27.7468962 378.599278,27.6266847 L377.634148,27.5347715 C375.887347,27.3545053 375.827803,26.9320359 375.827803,23.7682115 L375.827803,10.3618115 C375.827803,9.36717608 375.796907,9.33668838 376.70101,9.33668838 L378.841082,9.33668838 C380.498467,9.33668838 381.642778,9.57724446 382.335913,10.0900106 C382.787346,10.4212829 382.998386,11.5347998 383.089225,12.2879891 C383.23885,12.4693806 383.750317,12.4698001 383.870528,12.228047 C383.808121,11.6079498 383.894468,10.2712078 384.058355,9.08883777 L384.775706,9.21672238 C385.67985,9.36762623 386.13118,9.51799808 387.155587,11.5066755 L390.71037,18.4363847 C391.583771,20.1244616 391.6755,20.5155839 391.6755,22.1729685 L391.6755,23.7096301 C391.6755,26.9323224 391.614013,27.3539324 389.86711,27.5341985 L388.931956,27.6261118 C388.75169,27.8063779 388.813586,28.2883802 388.993954,28.379434 C390.591182,28.3190725 391.674314,28.2875208 392.940371,28.2875208 C394.145044,28.2875208 395.169554,28.3190725 397.036669,28.379434 C397.218265,28.2886871 397.278923,27.8063779 397.098565,27.6261118 L395.95364,27.5341985 C394.32572,27.413987 394.145249,26.9323428 394.145249,23.7096301 L394.145249,22.1410485 C394.145249,19.8212216 394.206429,19.5211532 395.562006,17.2614832 L397.458279,13.9784293 C398.96476,11.3875893 399.87008,9.45837315 401.436718,9.21672238 L402.279959,9.06686208 C402.490917,8.88526592 402.460429,8.46444369 402.220006,8.31353985 C401.195702,8.37287831 400.352072,8.40345808 399.418515,8.40345808 C398.484957,8.40345808 397.609612,8.37390138 396.525151,8.31353985 C396.284677,8.43375138 396.254189,8.85580131 396.465199,9.06686208 L397.006713,9.12680415 C397.73054,9.21632338 398.273589,9.42877554 398.273589,9.61037169 C398.273589,9.97110862 397.159356,12.0188994 396.315318,13.5867648 C395.412452,15.3336686 394.417408,17.0822094 393.48385,18.6782094 C392.308539,16.5988055 391.192056,14.2192309 390.076902,11.9902532 C389.927277,11.6884455 389.143743,9.970904 389.143743,9.670324 C389.143743,9.42867323 389.355551,9.30718285 390.410619,9.12681438 L390.802263,9.06687231 C390.982529,8.88527615 390.981455,8.40255777 390.710391,8.31355008 C389.957151,8.37288854 388.872331,8.40346831 387.487289,8.40346831 C386.131303,8.40346831 385.106282,8.37442315 384.188276,8.32154031 C384.23237,8.08850385 384.274009,7.83535369 384.324161,7.64815108 C384.264004,7.52845108 383.932834,7.49884323 383.780651,7.56022785 C383.329218,8.34257477 383.057458,8.40346831 381.430746,8.40346831 L369.227484,8.40346831 C367.842443,8.40346831 366.848114,8.43256462 366.667746,7.46831462 C366.622321,7.42278769 366.502529,7.408526 366.38201,7.41236254 L366.382328,7.41299685 Z M350.103128,7.92254031 C346.187301,7.92254031 343.956686,10.2405257 343.956686,13.1039134 C343.956696,15.5734165 345.705329,17.2903442 347.211708,18.2852865 L350.073151,20.1536295 C352.272767,21.5705911 352.544905,23.0455611 352.544905,24.3717757 C352.544905,26.1787342 351.309131,27.8366303 348.778345,27.8366303 C345.28331,27.8366303 344.048456,24.882598 343.596972,23.3466526 C343.475482,23.165568 343.02453,23.2276074 342.873626,23.4385658 C342.935011,24.8555274 343.324977,26.9929397 343.68689,27.656712 C344.258535,27.987882 345.855814,28.7697174 348.386701,28.7697174 C352.302528,28.7697174 354.804872,26.510252 354.804872,23.1967105 C354.804872,20.3346528 352.93612,18.5859074 351.038312,17.4119266 L348.628454,15.9052412 C347.5133,15.181312 346.066772,13.9474812 346.066772,12.2005774 C346.066772,10.8142058 346.698686,8.85562738 349.651531,8.85562738 C352.544281,8.85562738 353.358548,10.8141035 353.749875,12.2605297 C353.900779,12.4405912 354.382986,12.3501103 354.503197,12.1686165 C354.503197,10.9037865 354.230803,9.216528 353.959688,8.49392877 C353.717986,8.49392877 353.297245,8.4031 352.904691,8.31409231 C352.122037,8.07244154 351.038087,7.92244823 350.103199,7.92244823 L350.103128,7.92254031 Z M256.711551,8.31418438 C256.469849,8.43439592 256.471291,8.88591046 256.651609,9.06750662 L257.163147,9.12744869 C257.885695,9.21696792 258.609471,9.42867323 259.03149,9.85079477 C259.66324,10.5439294 259.694894,11.1759863 259.694894,12.0187971 L259.694894,20.7269209 C259.694894,22.1733471 259.725269,25.8488532 259.30325,26.9333148 C259.152346,27.2644848 258.669577,27.4744099 257.976422,27.5347715 L257.163157,27.6266847 C256.98284,27.8069508 257.01209,28.2291031 257.223099,28.3800069 C258.278096,28.3196454 259.091442,28.2880937 260.356272,28.2880937 C261.471426,28.2880937 262.526219,28.3196454 263.883126,28.3800069 C264.094135,28.2291031 264.123385,27.8683355 263.943068,27.6266847 L263.007914,27.5347715 C262.254674,27.4747168 261.682313,27.2944609 261.471252,26.9632909 C260.989127,26.0590955 260.929738,22.1426548 260.929738,20.7269209 L260.929738,14.1588694 C260.929738,13.2547763 260.958108,12.5612325 261.079598,12.2005978 L261.141545,12.2005978 C261.774574,12.8629378 263.821802,15.3333617 264.636376,16.2669194 L271.624094,24.2217517 C274.245728,27.2040209 275.120664,28.2580971 275.482628,28.7696355 C275.81385,28.7696355 275.992724,28.6215349 276.054109,28.4399388 C275.96326,27.6572849 275.964181,24.0708888 275.964181,23.1666934 L275.964181,15.9651526 C275.964181,14.5788834 275.904228,10.8451642 276.415777,9.76070262 C276.535988,9.51894954 277.140003,9.27817862 278.104263,9.12727477 L278.523878,9.06733269 C278.705474,8.88573654 278.705638,8.46491431 278.463926,8.31401046 C277.439621,8.37334892 276.656149,8.40193369 275.360729,8.40193369 C274.214883,8.40193369 273.190885,8.374372 271.805946,8.31401046 C271.564244,8.40352969 271.534994,8.88573654 271.746004,9.06733269 L272.257542,9.12727477 C273.462215,9.27817862 273.944289,9.45761608 274.125885,9.72873146 C274.697529,10.6328245 274.729337,14.5481399 274.729337,15.9651015 L274.729337,22.4132484 C274.729337,23.0462261 274.7277,23.5271745 274.607448,23.6780784 L274.547505,23.6780784 C273.136682,22.2314476 271.630713,20.5730399 269.582513,18.2240553 L266.661117,14.9410015 C265.696867,13.8259499 262.111392,9.848943 261.507776,8.31299762 C261.116449,8.37233608 260.605146,8.40092085 260.123042,8.40092085 C259.580811,8.40092085 257.982867,8.40204623 256.718139,8.31299762 L256.711551,8.31418438 Z M280.214697,8.31418438 C280.03438,8.40370362 279.972432,8.94596508 280.152801,9.06750662 L280.906123,9.12744869 C282.683719,9.27835254 282.74449,9.79063785 282.74449,12.9839372 L282.74449,23.7098756 C282.74449,26.9018756 282.683719,27.3247133 280.906123,27.5344441 L280.152801,27.6263573 C279.972483,27.8066235 280.034431,28.2886257 280.214697,28.3796795 C281.721178,28.319318 282.745175,28.2877663 284.011233,28.2877663 C285.215906,28.2877663 286.239392,28.319318 287.745873,28.3796795 C287.92619,28.2889326 287.986132,27.7465688 287.805825,27.6263573 L287.052503,27.5344441 C285.274907,27.3247133 285.216182,26.9018961 285.216182,23.7098756 L285.216182,12.9839372 C285.216182,9.79060715 285.274907,9.27835254 287.052503,9.12744869 L287.805825,9.06750662 C287.986143,8.94596508 287.926201,8.40319208 287.745873,8.31418438 C286.239392,8.37352285 285.215906,8.40210762 284.011233,8.40210762 C282.745175,8.40210762 281.721178,8.37454592 280.214697,8.31418438 Z M288.559117,8.31418438 C288.317415,8.46508823 288.28616,8.88591046 288.497221,9.06750662 L289.04073,9.12744869 C290.33615,9.27835254 290.78743,9.90914085 291.480564,11.5972587 L296.780103,24.6732048 C297.322333,25.9392625 297.835611,27.4147441 298.166883,28.6795741 C298.317787,28.7409587 298.468845,28.7694923 298.61847,28.7694923 C298.73996,28.7694923 298.859373,28.7409587 298.950172,28.6795741 C299.46171,27.0835741 300.877444,23.5879248 302.083345,20.8167164 L303.711878,17.1101087 C305.067455,14.0369902 306.240822,11.597361 307.084861,10.1803995 C307.476188,9.54864946 307.92762,9.18770792 308.651396,9.12734638 L309.100998,9.09737023 L309.340776,9.12734638 C311.118372,9.33840715 311.179143,9.78874515 311.179143,12.9219387 L311.179143,12.9239848 L311.179143,23.7686002 C311.179143,26.9324656 311.028311,27.3842564 309.3108,27.5351602 L308.317699,27.6270735 C308.136103,27.8073396 308.196045,28.2893418 308.377651,28.3803957 C310.155248,28.3200342 311.178529,28.2884825 312.473949,28.2884825 L315.185512,28.2884825 C317.867201,28.2884825 320.547765,28.3200342 323.260249,28.3803957 C323.651576,27.5670495 324.405993,25.2471203 324.617054,24.1921234 C324.495563,23.9207011 324.074741,23.8307419 323.863732,23.9803158 C323.079799,25.5481812 322.26589,26.6011319 321.723659,26.9017119 C321.061217,27.2342119 320.186998,27.3553033 317.867171,27.3553033 C315.216174,27.3553033 314.584424,27.0237855 314.222459,26.6619232 C313.740344,26.1490547 313.650979,25.1259778 313.650979,23.5287501 L313.650979,19.2806278 C313.650979,18.4979739 313.739986,18.4673635 314.644079,18.4673635 L316.390472,18.4673635 C317.565783,18.4673635 318.288382,18.4990175 318.710401,18.619229 C319.314016,18.7688028 319.524075,19.2199695 319.645565,19.7622105 L319.91532,20.9371121 C320.067502,21.1171736 320.578396,21.1188719 320.698608,20.9091412 C320.698608,20.2454712 320.578724,19.1002388 320.578724,18.0157773 C320.578724,16.8699312 320.698608,15.6963596 320.698608,14.9725327 C320.578396,14.7612673 320.067502,14.7609604 319.91532,14.9425565 L319.675531,16.1774104 C319.524627,16.9305996 319.314098,17.1122469 318.952185,17.2324073 C318.590271,17.3526188 317.65656,17.4122438 316.390502,17.4122438 L314.64411,17.4122438 C313.739966,17.4122438 313.651009,17.4130428 313.651009,16.5690033 L313.651009,10.5424664 C313.651009,9.39815485 313.648963,9.33758869 314.552197,9.33758869 L316.722245,9.33758869 C318.048358,9.33758869 319.012608,9.36851631 319.645585,9.51942015 C321.212121,9.91074708 321.484055,10.9652325 321.935538,12.380864 C322.086442,12.5610278 322.566644,12.5012904 322.686855,12.3209219 C322.566644,10.9948096 322.386889,8.82609115 322.205293,8.31455269 C321.844659,8.40356038 320.067472,8.40247592 318.138972,8.40247592 L312.474092,8.40247592 C311.442831,8.40247592 310.524312,8.370249 309.50676,8.32853815 C309.501645,8.325162 309.499599,8.31747869 309.49479,8.31455269 C309.406396,8.31987269 309.322535,8.31772423 309.235021,8.32253269 C309.123904,8.31762192 309.034365,8.31987269 308.919309,8.31455269 C308.913171,8.31741731 308.911125,8.32876323 308.905293,8.33253838 C308.127253,8.37034108 307.366585,8.40247592 306.573394,8.40247592 C305.428775,8.40247592 304.284259,8.37491423 303.440221,8.31455269 C303.229211,8.43476423 303.169269,8.88627877 303.380269,9.06787492 L303.921783,9.127817 C304.975552,9.24802854 305.278588,9.48956677 305.278588,9.69929754 C305.278588,9.910256 305.247282,10.2412623 305.006828,10.8741991 C304.494011,12.1697214 303.109532,15.573396 302.205336,17.6221075 C301.542894,19.2193352 300.246758,22.3247829 299.311972,24.3121098 C297.805492,20.8783568 296.420143,17.4125814 295.033874,13.9176483 C294.100316,11.627286 293.587346,10.0013098 293.527189,9.69950215 C293.556653,9.45907908 293.799348,9.27892546 294.943946,9.12802162 L295.395532,9.06807954 C295.606541,8.88648338 295.546599,8.43496885 295.335579,8.31475731 C294.069522,8.37409577 293.015752,8.40268054 291.690868,8.40268054 C290.395448,8.40268054 289.431096,8.37511885 288.557695,8.31475731 L288.559117,8.31418438 Z M331.428086,8.31418438 C328.475281,8.31418438 326.398231,8.40305908 324.710154,8.55397315 C324.469741,8.67418469 324.469178,9.15628923 324.680178,9.30729538 L325.645307,9.42718977 C326.879343,9.57819592 326.97009,10.0919545 326.97009,12.9540428 L326.97009,23.7679659 C326.97009,26.9318313 326.909933,27.3247952 325.161699,27.5345259 L324.408377,27.6264392 C324.226781,27.8373976 324.286733,28.2887075 324.468329,28.3797614 C325.884063,28.3193998 326.968831,28.2878482 328.234889,28.2878482 C329.439562,28.2878482 330.464071,28.3193998 331.819648,28.3797614 C331.999966,28.2890145 332.061197,27.777343 331.879601,27.6264392 L331.246173,27.5345259 C329.499269,27.2941028 329.439828,26.9317904 329.439828,23.7679659 L329.439828,19.9733736 C329.439828,19.3406005 329.501008,19.3099696 330.856585,19.3099696 C332.062588,19.3099696 332.54323,19.6119922 332.994611,20.2731045 C333.929448,21.6300114 335.164046,23.7092106 335.947927,24.8230345 C338.086158,27.8666883 339.62282,28.6195706 342.184297,28.6195706 C342.755942,28.6195706 343.237964,28.5597411 343.50908,28.4697103 C343.659943,28.3481688 343.630734,28.1084516 343.48115,28.0480901 C342.666525,27.9879332 341.912568,27.6555662 341.40103,27.2028546 C339.352318,25.4866431 337.75509,23.0757623 335.344517,19.18807 C335.194892,18.9476469 335.043742,18.6469851 335.194646,18.4667189 C336.701127,17.8643312 338.961206,16.2973866 338.961206,13.4352266 C338.961206,11.3264605 337.9058,9.970372 336.459476,9.21708046 C335.074435,8.46511892 333.296429,8.31389792 331.427984,8.31389792 L331.428086,8.31418438 Z M357.088901,8.31418438 C356.908533,8.40370362 356.848642,8.94596508 357.028949,9.06750662 L357.782271,9.12744869 C359.559765,9.27835254 359.618592,9.79063785 359.618592,12.9839372 L359.618592,23.7098756 C359.618592,26.9018756 359.559868,27.3247133 357.782271,27.5344441 L357.028949,27.6263573 C356.848683,27.8066235 356.908574,28.2886257 357.088901,28.3796795 C358.595382,28.319318 359.61938,28.2877663 360.885438,28.2877663 C362.090111,28.2877663 363.113597,28.319318 364.620078,28.3796795 C364.801725,28.2889326 364.862342,27.7465688 364.682076,27.6263573 L363.928754,27.5344441 C362.15126,27.3247133 362.090387,26.9018961 362.090387,23.7098756 L362.090387,12.9839372 C362.090387,9.79060715 362.151158,9.27835254 363.928754,9.12744869 L364.682076,9.06750662 C364.862342,8.94596508 364.801725,8.40319208 364.620078,8.31418438 C363.113597,8.37352285 362.090111,8.40210762 360.885438,8.40210762 C359.61938,8.40210762 358.595382,8.37454592 357.088901,8.31418438 Z M331.398417,9.24734308 C334.742651,9.24734308 336.220076,11.50732 336.220076,13.8872015 C336.220076,15.9359131 335.526788,16.9900915 334.713493,17.6218415 C333.838762,18.2855115 332.694041,18.4071349 331.60825,18.4071349 C330.072407,18.4071349 329.619593,18.3463232 329.530176,18.2552694 C329.439327,18.1350578 329.440248,17.8043994 329.440248,17.2621686 L329.440248,10.2125548 C329.440248,9.36851631 329.531404,9.24742492 331.398519,9.24742492 L331.398417,9.24734308 Z M136.83743,40.0876245 C135.322765,40.0876245 133.704605,40.9084903 133.704605,42.623423 C133.704605,44.1957285 134.959006,44.6811581 136.204309,45.0080311 C137.435838,45.3371141 138.693333,45.4880281 138.693333,46.392776 C138.693333,47.2490914 137.704942,47.4394328 137.060404,47.4394328 C136.075181,47.4394328 135.204501,47.0033565 135.204501,45.8892257 L133.420511,45.8892257 C133.397492,47.9541428 135.135444,48.8708606 136.988492,48.8708606 C139.267396,48.8708606 140.477286,47.718168 140.477286,46.1805571 C140.477286,44.2791686 138.598365,43.892998 137.988263,43.7419919 C135.886699,43.2009479 135.488559,43.1168816 135.488559,42.4723432 C135.488559,41.7679547 136.167626,41.5228091 136.754616,41.5228091 C137.636253,41.5228091 138.35158,41.7806245 138.409128,42.7888668 L140.19671,42.7888668 C140.19671,40.8528574 138.5868,40.0876982 136.837375,40.0876982 L136.83743,40.0876245 Z M228.174055,40.0876245 C225.579696,40.0876245 224.055823,42.0267645 224.055823,44.5152354 C224.055823,46.9344645 225.579843,48.8708422 228.174055,48.8708422 C228.984332,48.8708422 229.829138,48.5531768 230.475978,47.7198807 L230.663005,48.6694147 L231.835549,48.6694147 L231.835549,44.1410717 L228.314343,44.1410717 L228.314343,45.5150251 L230.170246,45.5150251 C230.064357,46.6774042 229.371055,47.3205983 228.174018,47.3205983 C226.518935,47.3205983 225.897324,45.9123002 225.897324,44.5151986 C225.897324,43.0465717 226.518991,41.6377948 228.174018,41.6377948 C229.041843,41.6377948 229.73544,42.1223404 229.947217,43.0477134 L231.709625,43.0477134 C231.509357,41.146325 229.888951,40.0876245 228.174055,40.0876245 L228.174055,40.0876245 Z M275.251144,40.0876245 C272.656785,40.0876245 271.129229,42.0267645 271.129229,44.5152354 C271.129229,46.9344645 272.65684,48.8708422 275.251144,48.8708422 C277.845448,48.8708422 279.369377,46.9344645 279.369377,44.5152354 C279.369377,42.0267645 277.845356,40.0876245 275.251144,40.0876245 L275.251144,40.0876245 Z M385.793173,40.0876245 C383.196604,40.0876245 381.671258,42.0267645 381.671258,44.5152354 C381.671258,46.9344645 383.196567,48.8708422 385.793173,48.8708422 C387.846489,48.8708422 389.291176,47.5332776 389.479933,45.4431867 L387.695943,45.4431867 C387.555618,46.5458999 386.918888,47.3206351 385.793266,47.3206351 C384.135881,47.3206351 383.512888,45.912337 383.512888,44.5152354 C383.512888,43.0466085 384.135844,41.6378316 385.793266,41.6378316 C386.707129,41.6378316 387.506541,42.2720206 387.624013,43.1053168 L389.408021,43.1053168 C389.184716,41.1693074 387.634804,40.0875877 385.793266,40.0875877 L385.793173,40.0876245 Z M83.265235,40.289052 L85.484473,48.6695252 L87.3512405,48.6695252 L88.7503678,42.9649915 L88.7719506,42.9649915 L90.1926607,48.6695252 L92.0234078,48.6695252 L94.2785558,40.289052 L92.4693916,40.289052 L91.0954381,46.0654057 L91.0702643,46.0654057 L89.6387628,40.289052 L87.9123205,40.289052 L86.4592361,45.9935857 L86.4340623,45.9935857 L85.1104565,40.289052 L83.265235,40.289052 L83.265235,40.289052 Z M112.696703,40.289052 L109.517102,48.6695252 L111.38387,48.6695252 L112.042073,46.8064408 L115.174898,46.8064408 L115.807927,48.6695252 L117.721469,48.6695252 L114.588644,40.289052 L112.696832,40.289052 L112.696703,40.289052 Z M157.063047,40.289052 L157.063047,48.6695252 L158.908269,48.6695252 L158.908269,45.0547694 L162.300014,45.0547694 L162.300014,48.6695252 L164.145236,48.6695252 L164.145236,40.289052 L162.300014,40.289052 L162.300014,43.5080612 L158.908269,43.5080612 L158.908269,40.289052 L157.063047,40.289052 L157.063047,40.289052 Z M181.259021,40.289052 L181.259021,48.6695252 L183.104243,48.6695252 L183.104243,40.289052 L181.259021,40.289052 L181.259021,40.289052 Z M200.221343,40.289052 L200.221343,48.6695252 L201.947785,48.6695252 L201.947785,43.0585417 L201.969331,43.0585417 L205.454627,48.6695252 L207.299848,48.6695252 L207.299848,40.289052 L205.573406,40.289052 L205.573406,45.9107165 L205.548177,45.9107165 L202.0522,40.289052 L200.221453,40.289052 L200.221343,40.289052 Z M248.165797,40.289052 L248.165797,41.8392591 L250.676366,41.8392591 L250.676366,48.6695252 L252.517904,48.6695252 L252.517904,41.8392591 L255.031973,41.8392591 L255.031973,40.289052 L248.165797,40.289052 L248.165797,40.289052 Z M296.1213,40.289052 L296.1213,48.6695252 L297.847742,48.6695252 L297.847742,43.0585417 L297.872971,43.0585417 L301.358267,48.6695252 L303.199805,48.6695252 L303.199805,40.289052 L301.473363,40.289052 L301.473363,45.9107165 L301.451817,45.9107165 L297.952157,40.289052 L296.121392,40.289052 L296.1213,40.289052 Z M357.83862,40.289052 L357.83862,48.6695252 L361.453375,48.6695252 C364.013114,48.6695252 365.255047,46.8633811 365.255047,44.4325135 C365.255047,41.6517905 363.626299,40.289052 361.453375,40.289052 L357.83862,40.289052 Z M275.249303,41.6378316 C276.904385,41.6378316 277.525997,43.0466085 277.525997,44.5152354 C277.525997,45.9124107 276.90433,47.3206351 275.249303,47.3206351 C273.59422,47.3206351 272.968926,45.912337 272.968926,44.5152354 C272.968926,43.0466085 273.594183,41.6378316 275.249303,41.6378316 L275.249303,41.6378316 Z M359.680158,41.8392591 L360.996563,41.8392591 C362.828894,41.8392591 363.413583,42.9191556 363.413583,44.6087488 C363.413583,46.4640988 362.391971,47.1193182 361.323805,47.1193182 L359.680084,47.1193182 L359.680084,41.8392591 L359.680158,41.8392591 Z M113.613789,42.3571918 L113.635372,42.3571918 L114.696411,45.4323768 L112.523948,45.4323768 L113.61377,42.3571918 L113.613789,42.3571918 Z M320.215989,46.8639888 L320.215989,48.6695621 L321.061218,48.6695621 C321.084237,49.1875868 320.719392,49.6908977 320.22678,49.7737669 L320.22678,50.6189963 C321.235023,50.4670693 322.061118,49.7514659 322.061118,48.6695436 L322.061118,46.8639704 L320.215897,46.8639704 L320.215989,46.8639888 Z" id="Shape" fill="#FFFFFF" fill-rule="nonzero"></path>
        <path d="M56.6514962,0.365384615 L56.6514962,56" id="Line" stroke="#FFFFFF" stroke-width="0.730769231" stroke-linecap="square"></path>
        <path d="M21.0080077,8.65879615 L14.1399462,26.0328346 C11.9092731,31.55745 10.8661731,34.5674885 7.48453846,34.8722192 L7.48453846,35.4445577 L17.6283462,35.4445577 L17.6283462,34.8722192 C12.7243,34.1199654 12.7006231,32.9904885 14.9764577,27.1362962 L14.9764577,27.1889115 C18.4850269,27.6848846 18.5155,28.6141308 18.6031923,31.8075923 L18.6031923,38.7513615 C18.6031923,41.2313731 17.6667846,48.1753615 26.7300769,48.1753615 C33.2201846,48.1753615 34.8277308,44.1146231 34.9154231,40.1157077 L35.0909831,33.3275923 C35.2079062,29.2352846 35.3840288,27.4984654 38.0440215,27.1888385 L38.0440215,26.7235577 L29.5656369,26.7235577 L29.5656369,27.1888385 C33.6579446,27.5916385 33.9502523,29.3896231 33.9502523,33.3275923 L33.9502523,34.7163462 C31.4029369,34.0468885 30.6221831,31.8046692 29.6398831,29.2727 L21.5122677,8.63577692 L21.0070065,8.63577692 L21.0080077,8.65879615 Z M20.0731346,14.18385 L24.9801038,26.72385 L15.1388346,26.72385 C15.3597023,26.1600615 15.5717131,25.6181962 15.8296381,24.9668615 L20.0729227,14.1836308 L20.0731346,14.18385 Z M25.1756577,27.2251577 L25.8279277,28.8908 C26.7633123,31.2913769 28.41792,34.3391231 23.3473315,34.8725846 L23.3473315,35.4449231 L33.9507931,35.4449231 L33.9507931,36.5824385 C33.9507931,40.3651192 34.5649827,46.7503615 28.2502085,46.7503615 C20.2395162,46.7503615 21.1751931,38.7528231 21.1751931,38.1638231 L21.1751931,31.8081038 C21.1751931,28.4660769 21.5565669,27.8048038 25.1758623,27.2250846 L25.1756577,27.2251577 Z" id="Shape" fill="#FFFFFF" fill-rule="nonzero"></path>
        <rect id="Rectangle" stroke="#FFFFFF" stroke-width="2.92307692" x="1.52423846" y="10.0472577" width="36.9338077" height="37.9305769"></rect>
    </g>
</svg>