<svg width="544" height="127" viewBox="0 0 544 127" fill="none" xmlns="http://www.w3.org/2000/svg">
<g clip-path="url(#clip0_501_25)">
<path d="M111.808 9.8V35H116.128V9.8H111.808ZM119.944 35C122.512 35 124.768 34.484 126.712 33.452C128.656 32.396 130.168 30.932 131.248 29.06C132.352 27.164 132.904 24.944 132.904 22.4C132.904 19.856 132.352 17.648 131.248 15.776C130.168 13.88 128.656 12.416 126.712 11.384C124.768 10.328 122.512 9.8 119.944 9.8H114.436V13.796H119.836C121.084 13.796 122.236 13.976 123.292 14.336C124.348 14.696 125.26 15.236 126.028 15.956C126.82 16.676 127.432 17.576 127.864 18.656C128.32 19.736 128.548 20.984 128.548 22.4C128.548 23.816 128.32 25.064 127.864 26.144C127.432 27.224 126.82 28.124 126.028 28.844C125.26 29.564 124.348 30.104 123.292 30.464C122.236 30.824 121.084 31.004 119.836 31.004H114.436V35H119.944ZM143.926 35.36C145.846 35.36 147.49 34.988 148.858 34.244C150.226 33.5 151.342 32.384 152.206 30.896L148.858 29.528C148.33 30.416 147.67 31.076 146.878 31.508C146.086 31.94 145.162 32.156 144.106 32.156C143.098 32.156 142.234 31.94 141.514 31.508C140.818 31.076 140.29 30.452 139.93 29.636C139.57 28.796 139.39 27.776 139.39 26.576C139.414 25.376 139.606 24.368 139.966 23.552C140.326 22.736 140.854 22.112 141.55 21.68C142.246 21.248 143.086 21.032 144.07 21.032C144.886 21.032 145.594 21.212 146.194 21.572C146.818 21.932 147.298 22.436 147.634 23.084C147.994 23.732 148.174 24.5 148.174 25.388C148.174 25.556 148.126 25.772 148.03 26.036C147.958 26.276 147.886 26.468 147.814 26.612L149.002 24.956H137.77V27.62H152.314C152.338 27.524 152.35 27.368 152.35 27.152C152.374 26.936 152.386 26.732 152.386 26.54C152.386 24.764 152.05 23.252 151.378 22.004C150.73 20.732 149.794 19.76 148.57 19.088C147.346 18.416 145.858 18.08 144.106 18.08C142.354 18.08 140.83 18.44 139.534 19.16C138.238 19.856 137.23 20.852 136.51 22.148C135.814 23.444 135.466 24.968 135.466 26.72C135.466 28.448 135.814 29.96 136.51 31.256C137.206 32.552 138.19 33.56 139.462 34.28C140.758 35 142.246 35.36 143.926 35.36ZM160.093 28.52V18.44H156.097V28.952C156.097 30.92 156.589 32.48 157.573 33.632C158.581 34.784 160.009 35.36 161.857 35.36C163.009 35.36 163.993 35.12 164.809 34.64C165.649 34.136 166.333 33.404 166.861 32.444V35H170.749V18.44H166.861V28.52C166.861 29.264 166.705 29.924 166.393 30.5C166.081 31.052 165.649 31.484 165.097 31.796C164.545 32.084 163.897 32.228 163.153 32.228C162.121 32.228 161.353 31.904 160.849 31.256C160.345 30.608 160.093 29.696 160.093 28.52ZM173.41 18.44V21.86H182.806V18.44H173.41ZM176.182 12.68V35H180.034V12.68H176.182ZM186.244 29.564L183.976 31.832C184.456 32.456 185.044 33.056 185.74 33.632C186.46 34.184 187.288 34.64 188.224 35C189.184 35.336 190.228 35.504 191.356 35.504C193.18 35.504 194.62 35.036 195.676 34.1C196.756 33.14 197.296 31.88 197.296 30.32C197.296 29.312 197.056 28.496 196.576 27.872C196.12 27.248 195.508 26.72 194.74 26.288C193.972 25.856 193.132 25.46 192.22 25.1C191.548 24.836 190.936 24.584 190.384 24.344C189.856 24.104 189.424 23.84 189.088 23.552C188.776 23.24 188.62 22.892 188.62 22.508C188.62 22.052 188.8 21.704 189.16 21.464C189.52 21.224 189.976 21.104 190.528 21.104C191.344 21.104 192.136 21.308 192.904 21.716C193.672 22.124 194.332 22.652 194.884 23.3L197.044 20.996C196.588 20.444 196.036 19.952 195.388 19.52C194.74 19.088 194.008 18.74 193.192 18.476C192.4 18.212 191.548 18.08 190.636 18.08C189.628 18.08 188.68 18.248 187.792 18.584C186.928 18.896 186.232 19.388 185.704 20.06C185.2 20.732 184.948 21.572 184.948 22.58C184.948 23.564 185.176 24.38 185.632 25.028C186.112 25.676 186.712 26.204 187.432 26.612C188.176 26.996 188.92 27.332 189.664 27.62C190.408 27.884 191.056 28.148 191.608 28.412C192.16 28.652 192.592 28.952 192.904 29.312C193.216 29.648 193.372 30.056 193.372 30.536C193.372 31.088 193.168 31.52 192.76 31.832C192.376 32.144 191.836 32.3 191.14 32.3C190.588 32.3 190.036 32.204 189.484 32.012C188.932 31.796 188.38 31.484 187.828 31.076C187.3 30.644 186.772 30.14 186.244 29.564ZM203.338 26.72C203.338 25.688 203.566 24.776 204.022 23.984C204.478 23.192 205.09 22.568 205.858 22.112C206.65 21.656 207.526 21.428 208.486 21.428C209.254 21.428 209.998 21.548 210.718 21.788C211.438 22.028 212.074 22.364 212.626 22.796C213.202 23.204 213.622 23.684 213.886 24.236V19.952C213.31 19.376 212.53 18.92 211.546 18.584C210.562 18.248 209.482 18.08 208.306 18.08C206.602 18.08 205.066 18.452 203.698 19.196C202.354 19.916 201.286 20.924 200.494 22.22C199.726 23.516 199.342 25.016 199.342 26.72C199.342 28.4 199.726 29.9 200.494 31.22C201.286 32.516 202.354 33.536 203.698 34.28C205.066 35 206.602 35.36 208.306 35.36C209.482 35.36 210.562 35.192 211.546 34.856C212.53 34.52 213.31 34.064 213.886 33.488V29.204C213.622 29.732 213.214 30.212 212.662 30.644C212.11 31.076 211.474 31.412 210.754 31.652C210.034 31.892 209.278 32.012 208.486 32.012C207.526 32.012 206.65 31.784 205.858 31.328C205.09 30.872 204.478 30.26 204.022 29.492C203.566 28.7 203.338 27.776 203.338 26.72ZM222.071 6.92H218.183V35H222.071V6.92ZM228.839 24.92V35H232.763V24.38C232.763 22.964 232.547 21.788 232.115 20.852C231.683 19.892 231.035 19.172 230.171 18.692C229.331 18.212 228.299 17.972 227.075 17.972C225.827 17.972 224.759 18.284 223.871 18.908C223.007 19.532 222.335 20.36 221.855 21.392C221.375 22.424 221.135 23.6 221.135 24.92H222.071C222.071 24.176 222.227 23.528 222.539 22.976C222.851 22.424 223.283 21.992 223.835 21.68C224.387 21.368 225.023 21.212 225.743 21.212C226.823 21.212 227.603 21.524 228.083 22.148C228.587 22.772 228.839 23.696 228.839 24.92ZM244.895 35.36C246.815 35.36 248.459 34.988 249.827 34.244C251.195 33.5 252.311 32.384 253.175 30.896L249.827 29.528C249.299 30.416 248.639 31.076 247.847 31.508C247.055 31.94 246.131 32.156 245.075 32.156C244.067 32.156 243.203 31.94 242.483 31.508C241.787 31.076 241.259 30.452 240.899 29.636C240.539 28.796 240.359 27.776 240.359 26.576C240.383 25.376 240.575 24.368 240.935 23.552C241.295 22.736 241.823 22.112 242.519 21.68C243.215 21.248 244.055 21.032 245.039 21.032C245.855 21.032 246.563 21.212 247.163 21.572C247.787 21.932 248.267 22.436 248.603 23.084C248.963 23.732 249.143 24.5 249.143 25.388C249.143 25.556 249.095 25.772 248.999 26.036C248.927 26.276 248.855 26.468 248.783 26.612L249.971 24.956H238.739V27.62H253.283C253.307 27.524 253.319 27.368 253.319 27.152C253.343 26.936 253.355 26.732 253.355 26.54C253.355 24.764 253.019 23.252 252.347 22.004C251.699 20.732 250.763 19.76 249.539 19.088C248.315 18.416 246.827 18.08 245.075 18.08C243.323 18.08 241.799 18.44 240.503 19.16C239.207 19.856 238.199 20.852 237.479 22.148C236.783 23.444 236.435 24.968 236.435 26.72C236.435 28.448 236.783 29.96 237.479 31.256C238.175 32.552 239.159 33.56 240.431 34.28C241.727 35 243.215 35.36 244.895 35.36ZM280.171 25.424H287.911C287.695 26.264 287.371 27.056 286.939 27.8C286.507 28.544 285.967 29.204 285.319 29.78C284.671 30.356 283.903 30.8 283.015 31.112C282.127 31.424 281.119 31.58 279.991 31.58C278.335 31.58 276.847 31.196 275.527 30.428C274.207 29.66 273.151 28.592 272.359 27.224C271.591 25.832 271.207 24.224 271.207 22.4C271.207 20.552 271.603 18.956 272.395 17.612C273.187 16.244 274.243 15.188 275.563 14.444C276.883 13.676 278.359 13.292 279.991 13.292C281.743 13.292 283.231 13.652 284.455 14.372C285.703 15.092 286.675 16.052 287.371 17.252L290.827 14.948C290.083 13.772 289.171 12.776 288.091 11.96C287.035 11.12 285.835 10.484 284.491 10.052C283.147 9.596 281.647 9.368 279.991 9.368C278.095 9.368 276.331 9.68 274.699 10.304C273.091 10.928 271.687 11.828 270.487 13.004C269.311 14.156 268.387 15.536 267.715 17.144C267.067 18.728 266.743 20.48 266.743 22.4C266.743 24.32 267.067 26.084 267.715 27.692C268.363 29.3 269.275 30.692 270.451 31.868C271.651 33.044 273.055 33.956 274.663 34.604C276.271 35.228 278.023 35.54 279.919 35.54C281.911 35.54 283.687 35.18 285.247 34.46C286.831 33.716 288.151 32.708 289.207 31.436C290.263 30.164 291.055 28.712 291.583 27.08C292.111 25.424 292.351 23.672 292.303 21.824H280.171V25.424ZM303.536 35.36C305.456 35.36 307.1 34.988 308.468 34.244C309.836 33.5 310.952 32.384 311.816 30.896L308.468 29.528C307.94 30.416 307.28 31.076 306.488 31.508C305.696 31.94 304.772 32.156 303.716 32.156C302.708 32.156 301.844 31.94 301.124 31.508C300.428 31.076 299.9 30.452 299.54 29.636C299.18 28.796 299 27.776 299 26.576C299.024 25.376 299.216 24.368 299.576 23.552C299.936 22.736 300.464 22.112 301.16 21.68C301.856 21.248 302.696 21.032 303.68 21.032C304.496 21.032 305.204 21.212 305.804 21.572C306.428 21.932 306.908 22.436 307.244 23.084C307.604 23.732 307.784 24.5 307.784 25.388C307.784 25.556 307.736 25.772 307.64 26.036C307.568 26.276 307.496 26.468 307.424 26.612L308.612 24.956H297.38V27.62H311.924C311.948 27.524 311.96 27.368 311.96 27.152C311.984 26.936 311.996 26.732 311.996 26.54C311.996 24.764 311.66 23.252 310.988 22.004C310.34 20.732 309.404 19.76 308.18 19.088C306.956 18.416 305.468 18.08 303.716 18.08C301.964 18.08 300.44 18.44 299.144 19.16C297.848 19.856 296.84 20.852 296.12 22.148C295.424 23.444 295.076 24.968 295.076 26.72C295.076 28.448 295.424 29.96 296.12 31.256C296.816 32.552 297.8 33.56 299.072 34.28C300.368 35 301.856 35.36 303.536 35.36ZM316.463 29.564L314.195 31.832C314.675 32.456 315.263 33.056 315.959 33.632C316.679 34.184 317.507 34.64 318.443 35C319.403 35.336 320.447 35.504 321.575 35.504C323.399 35.504 324.839 35.036 325.895 34.1C326.975 33.14 327.515 31.88 327.515 30.32C327.515 29.312 327.275 28.496 326.795 27.872C326.339 27.248 325.727 26.72 324.959 26.288C324.191 25.856 323.351 25.46 322.439 25.1C321.767 24.836 321.155 24.584 320.603 24.344C320.075 24.104 319.643 23.84 319.307 23.552C318.995 23.24 318.839 22.892 318.839 22.508C318.839 22.052 319.019 21.704 319.379 21.464C319.739 21.224 320.195 21.104 320.747 21.104C321.563 21.104 322.355 21.308 323.123 21.716C323.891 22.124 324.551 22.652 325.103 23.3L327.263 20.996C326.807 20.444 326.255 19.952 325.607 19.52C324.959 19.088 324.227 18.74 323.411 18.476C322.619 18.212 321.767 18.08 320.855 18.08C319.847 18.08 318.899 18.248 318.011 18.584C317.147 18.896 316.451 19.388 315.923 20.06C315.419 20.732 315.167 21.572 315.167 22.58C315.167 23.564 315.395 24.38 315.851 25.028C316.331 25.676 316.931 26.204 317.651 26.612C318.395 26.996 319.139 27.332 319.883 27.62C320.627 27.884 321.275 28.148 321.827 28.412C322.379 28.652 322.811 28.952 323.123 29.312C323.435 29.648 323.591 30.056 323.591 30.536C323.591 31.088 323.387 31.52 322.979 31.832C322.595 32.144 322.055 32.3 321.359 32.3C320.807 32.3 320.255 32.204 319.703 32.012C319.151 31.796 318.599 31.484 318.047 31.076C317.519 30.644 316.991 30.14 316.463 29.564ZM338.164 35.36C340.084 35.36 341.728 34.988 343.096 34.244C344.464 33.5 345.58 32.384 346.444 30.896L343.096 29.528C342.568 30.416 341.908 31.076 341.116 31.508C340.324 31.94 339.4 32.156 338.344 32.156C337.336 32.156 336.472 31.94 335.752 31.508C335.056 31.076 334.528 30.452 334.168 29.636C333.808 28.796 333.628 27.776 333.628 26.576C333.652 25.376 333.844 24.368 334.204 23.552C334.564 22.736 335.092 22.112 335.788 21.68C336.484 21.248 337.324 21.032 338.308 21.032C339.124 21.032 339.832 21.212 340.432 21.572C341.056 21.932 341.536 22.436 341.872 23.084C342.232 23.732 342.412 24.5 342.412 25.388C342.412 25.556 342.364 25.772 342.268 26.036C342.196 26.276 342.124 26.468 342.052 26.612L343.24 24.956H332.008V27.62H346.552C346.576 27.524 346.588 27.368 346.588 27.152C346.612 26.936 346.624 26.732 346.624 26.54C346.624 24.764 346.288 23.252 345.616 22.004C344.968 20.732 344.032 19.76 342.808 19.088C341.584 18.416 340.096 18.08 338.344 18.08C336.592 18.08 335.068 18.44 333.772 19.16C332.476 19.856 331.468 20.852 330.748 22.148C330.052 23.444 329.704 24.968 329.704 26.72C329.704 28.448 330.052 29.96 330.748 31.256C331.444 32.552 332.428 33.56 333.7 34.28C334.996 35 336.484 35.36 338.164 35.36ZM350.336 6.92V35H354.224V6.92H350.336ZM359.195 6.92V35H363.083V6.92H359.195ZM368.81 29.564L366.542 31.832C367.022 32.456 367.61 33.056 368.306 33.632C369.026 34.184 369.854 34.64 370.79 35C371.75 35.336 372.794 35.504 373.922 35.504C375.746 35.504 377.186 35.036 378.242 34.1C379.322 33.14 379.862 31.88 379.862 30.32C379.862 29.312 379.622 28.496 379.142 27.872C378.686 27.248 378.074 26.72 377.306 26.288C376.538 25.856 375.698 25.46 374.786 25.1C374.114 24.836 373.502 24.584 372.95 24.344C372.422 24.104 371.99 23.84 371.654 23.552C371.342 23.24 371.186 22.892 371.186 22.508C371.186 22.052 371.366 21.704 371.726 21.464C372.086 21.224 372.542 21.104 373.094 21.104C373.91 21.104 374.702 21.308 375.47 21.716C376.238 22.124 376.898 22.652 377.45 23.3L379.61 20.996C379.154 20.444 378.602 19.952 377.954 19.52C377.306 19.088 376.574 18.74 375.758 18.476C374.966 18.212 374.114 18.08 373.202 18.08C372.194 18.08 371.246 18.248 370.358 18.584C369.494 18.896 368.798 19.388 368.27 20.06C367.766 20.732 367.514 21.572 367.514 22.58C367.514 23.564 367.742 24.38 368.198 25.028C368.678 25.676 369.278 26.204 369.998 26.612C370.742 26.996 371.486 27.332 372.23 27.62C372.974 27.884 373.622 28.148 374.174 28.412C374.726 28.652 375.158 28.952 375.47 29.312C375.782 29.648 375.938 30.056 375.938 30.536C375.938 31.088 375.734 31.52 375.326 31.832C374.942 32.144 374.402 32.3 373.706 32.3C373.154 32.3 372.602 32.204 372.05 32.012C371.498 31.796 370.946 31.484 370.394 31.076C369.866 30.644 369.338 30.14 368.81 29.564ZM385.904 26.72C385.904 25.688 386.132 24.776 386.588 23.984C387.044 23.192 387.656 22.568 388.424 22.112C389.216 21.656 390.092 21.428 391.052 21.428C391.82 21.428 392.564 21.548 393.284 21.788C394.004 22.028 394.64 22.364 395.192 22.796C395.768 23.204 396.188 23.684 396.452 24.236V19.952C395.876 19.376 395.096 18.92 394.112 18.584C393.128 18.248 392.048 18.08 390.872 18.08C389.168 18.08 387.632 18.452 386.264 19.196C384.92 19.916 383.852 20.924 383.06 22.22C382.292 23.516 381.908 25.016 381.908 26.72C381.908 28.4 382.292 29.9 383.06 31.22C383.852 32.516 384.92 33.536 386.264 34.28C387.632 35 389.168 35.36 390.872 35.36C392.048 35.36 393.128 35.192 394.112 34.856C395.096 34.52 395.876 34.064 396.452 33.488V29.204C396.188 29.732 395.78 30.212 395.228 30.644C394.676 31.076 394.04 31.412 393.32 31.652C392.6 31.892 391.844 32.012 391.052 32.012C390.092 32.012 389.216 31.784 388.424 31.328C387.656 30.872 387.044 30.26 386.588 29.492C386.132 28.7 385.904 27.776 385.904 26.72ZM404.638 6.92H400.75V35H404.638V6.92ZM411.406 24.92V35H415.33V24.38C415.33 22.964 415.114 21.788 414.682 20.852C414.25 19.892 413.602 19.172 412.738 18.692C411.898 18.212 410.866 17.972 409.642 17.972C408.394 17.972 407.326 18.284 406.438 18.908C405.574 19.532 404.902 20.36 404.422 21.392C403.942 22.424 403.702 23.6 403.702 24.92H404.638C404.638 24.176 404.794 23.528 405.106 22.976C405.418 22.424 405.85 21.992 406.402 21.68C406.954 21.368 407.59 21.212 408.31 21.212C409.39 21.212 410.17 21.524 410.65 22.148C411.154 22.772 411.406 23.696 411.406 24.92ZM422.709 29.852C422.709 29.324 422.829 28.88 423.069 28.52C423.333 28.16 423.717 27.884 424.221 27.692C424.725 27.476 425.385 27.368 426.201 27.368C427.137 27.368 428.025 27.488 428.865 27.728C429.705 27.968 430.497 28.352 431.241 28.88V26.9C431.025 26.636 430.653 26.348 430.125 26.036C429.597 25.7 428.925 25.412 428.109 25.172C427.317 24.932 426.369 24.812 425.265 24.812C423.201 24.812 421.605 25.292 420.477 26.252C419.349 27.188 418.785 28.46 418.785 30.068C418.785 31.196 419.049 32.156 419.577 32.948C420.105 33.74 420.813 34.34 421.701 34.748C422.589 35.156 423.549 35.36 424.581 35.36C425.541 35.36 426.477 35.192 427.389 34.856C428.325 34.496 429.093 33.968 429.693 33.272C430.317 32.552 430.629 31.664 430.629 30.608L430.053 28.448C430.053 29.264 429.849 29.984 429.441 30.608C429.057 31.208 428.541 31.664 427.893 31.976C427.269 32.288 426.573 32.444 425.805 32.444C425.205 32.444 424.665 32.348 424.185 32.156C423.729 31.964 423.369 31.676 423.105 31.292C422.841 30.884 422.709 30.404 422.709 29.852ZM421.485 22.76C421.725 22.592 422.085 22.388 422.565 22.148C423.069 21.884 423.657 21.668 424.329 21.5C425.025 21.308 425.757 21.212 426.525 21.212C427.029 21.212 427.497 21.26 427.929 21.356C428.361 21.452 428.733 21.608 429.045 21.824C429.357 22.04 429.597 22.316 429.765 22.652C429.957 22.988 430.053 23.42 430.053 23.948V35H433.869V23.192C433.869 22.088 433.569 21.164 432.969 20.42C432.369 19.652 431.541 19.064 430.485 18.656C429.453 18.248 428.253 18.044 426.885 18.044C425.349 18.044 423.981 18.26 422.781 18.692C421.605 19.124 420.645 19.568 419.901 20.024L421.485 22.76ZM437.034 18.44V21.86H446.538V18.44H437.034ZM446.106 11.096L447.942 8.072C447.75 7.832 447.474 7.592 447.114 7.352C446.778 7.112 446.37 6.908 445.89 6.74C445.41 6.572 444.846 6.488 444.198 6.488C443.046 6.488 442.074 6.716 441.282 7.172C440.49 7.604 439.878 8.252 439.446 9.116C439.038 9.956 438.834 11.024 438.834 12.32V35H442.65V13.076C442.65 12.38 442.722 11.816 442.866 11.384C443.01 10.952 443.202 10.64 443.442 10.448C443.706 10.256 444.018 10.16 444.378 10.16C444.69 10.16 444.99 10.22 445.278 10.34C445.59 10.46 445.866 10.712 446.106 11.096ZM447.207 18.44V21.86H456.603V18.44H447.207ZM449.979 12.68V35H453.831V12.68H449.979ZM110.116 60.44V63.86H119.62V60.44H110.116ZM119.188 53.096L121.024 50.072C120.832 49.832 120.556 49.592 120.196 49.352C119.86 49.112 119.452 48.908 118.972 48.74C118.492 48.572 117.928 48.488 117.28 48.488C116.128 48.488 115.156 48.716 114.364 49.172C113.572 49.604 112.96 50.252 112.528 51.116C112.12 51.956 111.916 53.024 111.916 54.32V77H115.732V55.076C115.732 54.38 115.804 53.816 115.948 53.384C116.092 52.952 116.284 52.64 116.524 52.448C116.788 52.256 117.1 52.16 117.46 52.16C117.772 52.16 118.072 52.22 118.36 52.34C118.672 52.46 118.948 52.712 119.188 53.096ZM133.357 77H137.245V60.44H133.357V77ZM126.589 70.52V60.44H122.593V70.952C122.593 73.064 123.097 74.66 124.105 75.74C125.113 76.82 126.529 77.36 128.353 77.36C129.601 77.36 130.681 77.06 131.593 76.46C132.529 75.836 133.249 75.008 133.753 73.976C134.281 72.92 134.545 71.744 134.545 70.448L133.357 70.52C133.357 71.264 133.201 71.912 132.889 72.464C132.577 73.016 132.145 73.448 131.593 73.76C131.041 74.072 130.393 74.228 129.649 74.228C128.593 74.228 127.813 73.916 127.309 73.292C126.829 72.668 126.589 71.744 126.589 70.52ZM131.377 55.004C131.377 55.676 131.617 56.24 132.097 56.696C132.577 57.152 133.153 57.38 133.825 57.38C134.497 57.38 135.073 57.152 135.553 56.696C136.057 56.24 136.309 55.676 136.309 55.004C136.309 54.332 136.057 53.768 135.553 53.312C135.073 52.856 134.497 52.628 133.825 52.628C133.153 52.628 132.577 52.856 132.097 53.312C131.617 53.768 131.377 54.332 131.377 55.004ZM123.565 55.004C123.565 55.676 123.805 56.24 124.285 56.696C124.765 57.152 125.329 57.38 125.977 57.38C126.673 57.38 127.261 57.152 127.741 56.696C128.221 56.24 128.461 55.676 128.461 55.004C128.461 54.332 128.221 53.768 127.741 53.312C127.261 52.856 126.673 52.628 125.977 52.628C125.329 52.628 124.765 52.856 124.285 53.312C123.805 53.768 123.565 54.332 123.565 55.004ZM146.063 60.44H142.211V77H146.063V60.44ZM150.995 64.58L152.867 61.304C152.507 60.848 152.063 60.536 151.535 60.368C151.007 60.176 150.443 60.08 149.843 60.08C149.003 60.08 148.187 60.38 147.395 60.98C146.627 61.58 145.991 62.396 145.487 63.428C145.007 64.436 144.767 65.6 144.767 66.92L146.063 67.676C146.063 66.884 146.147 66.2 146.315 65.624C146.507 65.024 146.807 64.556 147.215 64.22C147.623 63.884 148.151 63.716 148.799 63.716C149.279 63.716 149.675 63.788 149.987 63.932C150.299 64.076 150.635 64.292 150.995 64.58ZM166.652 51.8V77H171.008V51.8H166.652ZM180.368 51.8L169.712 63.716L180.8 77H186.02L174.86 63.608L185.48 51.8H180.368ZM191.065 71.852C191.065 71.324 191.185 70.88 191.425 70.52C191.689 70.16 192.073 69.884 192.577 69.692C193.081 69.476 193.741 69.368 194.557 69.368C195.493 69.368 196.381 69.488 197.221 69.728C198.061 69.968 198.853 70.352 199.597 70.88V68.9C199.381 68.636 199.009 68.348 198.481 68.036C197.953 67.7 197.281 67.412 196.465 67.172C195.673 66.932 194.725 66.812 193.621 66.812C191.557 66.812 189.961 67.292 188.833 68.252C187.705 69.188 187.141 70.46 187.141 72.068C187.141 73.196 187.405 74.156 187.933 74.948C188.461 75.74 189.169 76.34 190.057 76.748C190.945 77.156 191.905 77.36 192.937 77.36C193.897 77.36 194.833 77.192 195.745 76.856C196.681 76.496 197.449 75.968 198.049 75.272C198.673 74.552 198.985 73.664 198.985 72.608L198.409 70.448C198.409 71.264 198.205 71.984 197.797 72.608C197.413 73.208 196.897 73.664 196.249 73.976C195.625 74.288 194.929 74.444 194.161 74.444C193.561 74.444 193.021 74.348 192.541 74.156C192.085 73.964 191.725 73.676 191.461 73.292C191.197 72.884 191.065 72.404 191.065 71.852ZM189.841 64.76C190.081 64.592 190.441 64.388 190.921 64.148C191.425 63.884 192.013 63.668 192.685 63.5C193.381 63.308 194.113 63.212 194.881 63.212C195.385 63.212 195.853 63.26 196.285 63.356C196.717 63.452 197.089 63.608 197.401 63.824C197.713 64.04 197.953 64.316 198.121 64.652C198.313 64.988 198.409 65.42 198.409 65.948V77H202.225V65.192C202.225 64.088 201.925 63.164 201.325 62.42C200.725 61.652 199.897 61.064 198.841 60.656C197.809 60.248 196.609 60.044 195.241 60.044C193.705 60.044 192.337 60.26 191.137 60.692C189.961 61.124 189.001 61.568 188.257 62.024L189.841 64.76ZM210.609 60.44H206.757V77H210.609V60.44ZM215.541 64.58L217.413 61.304C217.053 60.848 216.609 60.536 216.081 60.368C215.553 60.176 214.989 60.08 214.389 60.08C213.549 60.08 212.733 60.38 211.941 60.98C211.173 61.58 210.537 62.396 210.033 63.428C209.553 64.436 209.313 65.6 209.313 66.92L210.609 67.676C210.609 66.884 210.693 66.2 210.861 65.624C211.053 65.024 211.353 64.556 211.761 64.22C212.169 63.884 212.697 63.716 213.345 63.716C213.825 63.716 214.221 63.788 214.533 63.932C214.845 64.076 215.181 64.292 215.541 64.58ZM217.778 60.44V63.86H227.174V60.44H217.778ZM220.55 54.68V77H224.402V54.68H220.55ZM228.595 68.72C228.595 70.4 228.979 71.9 229.747 73.22C230.539 74.516 231.607 75.536 232.951 76.28C234.295 77 235.819 77.36 237.523 77.36C239.227 77.36 240.739 77 242.059 76.28C243.403 75.536 244.471 74.516 245.263 73.22C246.055 71.9 246.451 70.4 246.451 68.72C246.451 67.016 246.055 65.516 245.263 64.22C244.471 62.924 243.403 61.916 242.059 61.196C240.739 60.452 239.227 60.08 237.523 60.08C235.819 60.08 234.295 60.452 232.951 61.196C231.607 61.916 230.539 62.924 229.747 64.22C228.979 65.516 228.595 67.016 228.595 68.72ZM232.591 68.72C232.591 67.688 232.807 66.776 233.239 65.984C233.671 65.192 234.259 64.58 235.003 64.148C235.747 63.716 236.587 63.5 237.523 63.5C238.435 63.5 239.263 63.716 240.007 64.148C240.775 64.58 241.375 65.192 241.807 65.984C242.239 66.776 242.455 67.688 242.455 68.72C242.455 69.752 242.239 70.664 241.807 71.456C241.375 72.224 240.775 72.836 240.007 73.292C239.263 73.724 238.435 73.94 237.523 73.94C236.587 73.94 235.747 73.724 235.003 73.292C234.259 72.836 233.671 72.224 233.239 71.456C232.807 70.664 232.591 69.752 232.591 68.72ZM249.204 78.116C249.252 79.556 249.612 80.828 250.284 81.932C250.98 83.036 251.964 83.888 253.236 84.488C254.508 85.112 256.044 85.424 257.844 85.424C259.356 85.424 260.76 85.1 262.056 84.452C263.352 83.828 264.396 82.868 265.188 81.572C266.004 80.276 266.412 78.632 266.412 76.64V60.44H262.596V76.64C262.596 77.888 262.356 78.908 261.876 79.7C261.42 80.492 260.82 81.08 260.076 81.464C259.332 81.848 258.552 82.04 257.736 82.04C256.824 82.04 256.02 81.872 255.324 81.536C254.628 81.2 254.076 80.732 253.668 80.132C253.284 79.532 253.08 78.86 253.056 78.116H249.204ZM248.88 68.648C248.88 70.448 249.252 71.984 249.996 73.256C250.74 74.528 251.724 75.5 252.948 76.172C254.196 76.844 255.528 77.18 256.944 77.18C258.336 77.18 259.548 76.844 260.58 76.172C261.636 75.476 262.464 74.492 263.064 73.22C263.688 71.948 264 70.424 264 68.648C264 66.848 263.688 65.312 263.064 64.04C262.464 62.768 261.636 61.796 260.58 61.124C259.548 60.428 258.336 60.08 256.944 60.08C255.528 60.08 254.196 60.416 252.948 61.088C251.724 61.76 250.74 62.732 249.996 64.004C249.252 65.252 248.88 66.8 248.88 68.648ZM252.912 68.648C252.912 67.52 253.14 66.572 253.596 65.804C254.052 65.036 254.652 64.46 255.396 64.076C256.164 63.668 256.992 63.464 257.88 63.464C258.432 63.464 258.984 63.572 259.536 63.788C260.112 64.004 260.628 64.34 261.084 64.796C261.54 65.228 261.9 65.768 262.164 66.416C262.452 67.04 262.596 67.784 262.596 68.648C262.596 69.752 262.356 70.7 261.876 71.492C261.42 72.26 260.82 72.836 260.076 73.22C259.356 73.604 258.624 73.796 257.88 73.796C256.992 73.796 256.164 73.604 255.396 73.22C254.652 72.812 254.052 72.224 253.596 71.456C253.14 70.688 252.912 69.752 252.912 68.648ZM275.086 60.44H271.234V77H275.086V60.44ZM280.018 64.58L281.89 61.304C281.53 60.848 281.086 60.536 280.558 60.368C280.03 60.176 279.466 60.08 278.866 60.08C278.026 60.08 277.21 60.38 276.418 60.98C275.65 61.58 275.014 62.396 274.51 63.428C274.03 64.436 273.79 65.6 273.79 66.92L275.086 67.676C275.086 66.884 275.17 66.2 275.338 65.624C275.53 65.024 275.83 64.556 276.238 64.22C276.646 63.884 277.174 63.716 277.822 63.716C278.302 63.716 278.698 63.788 279.01 63.932C279.322 64.076 279.658 64.292 280.018 64.58ZM287.006 71.852C287.006 71.324 287.126 70.88 287.366 70.52C287.63 70.16 288.014 69.884 288.518 69.692C289.022 69.476 289.682 69.368 290.498 69.368C291.434 69.368 292.322 69.488 293.162 69.728C294.002 69.968 294.794 70.352 295.538 70.88V68.9C295.322 68.636 294.95 68.348 294.422 68.036C293.894 67.7 293.222 67.412 292.406 67.172C291.614 66.932 290.666 66.812 289.562 66.812C287.498 66.812 285.902 67.292 284.774 68.252C283.646 69.188 283.082 70.46 283.082 72.068C283.082 73.196 283.346 74.156 283.874 74.948C284.402 75.74 285.11 76.34 285.998 76.748C286.886 77.156 287.846 77.36 288.878 77.36C289.838 77.36 290.774 77.192 291.686 76.856C292.622 76.496 293.39 75.968 293.99 75.272C294.614 74.552 294.926 73.664 294.926 72.608L294.35 70.448C294.35 71.264 294.146 71.984 293.738 72.608C293.354 73.208 292.838 73.664 292.19 73.976C291.566 74.288 290.87 74.444 290.102 74.444C289.502 74.444 288.962 74.348 288.482 74.156C288.026 73.964 287.666 73.676 287.402 73.292C287.138 72.884 287.006 72.404 287.006 71.852ZM285.782 64.76C286.022 64.592 286.382 64.388 286.862 64.148C287.366 63.884 287.954 63.668 288.626 63.5C289.322 63.308 290.054 63.212 290.822 63.212C291.326 63.212 291.794 63.26 292.226 63.356C292.658 63.452 293.03 63.608 293.342 63.824C293.654 64.04 293.894 64.316 294.062 64.652C294.254 64.988 294.35 65.42 294.35 65.948V77H298.166V65.192C298.166 64.088 297.866 63.164 297.266 62.42C296.666 61.652 295.838 61.064 294.782 60.656C293.75 60.248 292.55 60.044 291.182 60.044C289.646 60.044 288.278 60.26 287.078 60.692C285.902 61.124 284.942 61.568 284.198 62.024L285.782 64.76ZM306.479 84.92V60.44H302.555V84.92H306.479ZM320.195 68.72C320.195 66.872 319.823 65.3 319.079 64.004C318.335 62.708 317.351 61.724 316.127 61.052C314.903 60.356 313.571 60.008 312.131 60.008C310.715 60.008 309.479 60.368 308.423 61.088C307.391 61.784 306.587 62.78 306.011 64.076C305.459 65.372 305.183 66.92 305.183 68.72C305.183 70.496 305.459 72.044 306.011 73.364C306.587 74.66 307.391 75.668 308.423 76.388C309.479 77.084 310.715 77.432 312.131 77.432C313.571 77.432 314.903 77.096 316.127 76.424C317.351 75.728 318.335 74.732 319.079 73.436C319.823 72.116 320.195 70.544 320.195 68.72ZM316.163 68.72C316.163 69.824 315.935 70.772 315.479 71.564C315.023 72.332 314.411 72.92 313.643 73.328C312.899 73.712 312.071 73.904 311.159 73.904C310.415 73.904 309.683 73.712 308.963 73.328C308.243 72.92 307.643 72.332 307.163 71.564C306.707 70.796 306.479 69.848 306.479 68.72C306.479 67.592 306.707 66.644 307.163 65.876C307.643 65.108 308.243 64.532 308.963 64.148C309.683 63.74 310.415 63.536 311.159 63.536C312.071 63.536 312.899 63.74 313.643 64.148C314.411 64.532 315.023 65.12 315.479 65.912C315.935 66.68 316.163 67.616 316.163 68.72ZM327.786 48.92H323.898V77H327.786V48.92ZM334.554 66.92V77H338.478V66.38C338.478 64.964 338.262 63.788 337.83 62.852C337.398 61.892 336.75 61.172 335.886 60.692C335.046 60.212 334.014 59.972 332.79 59.972C331.542 59.972 330.474 60.284 329.586 60.908C328.722 61.532 328.05 62.36 327.57 63.392C327.09 64.424 326.85 65.6 326.85 66.92H327.786C327.786 66.176 327.942 65.528 328.254 64.976C328.566 64.424 328.998 63.992 329.55 63.68C330.102 63.368 330.738 63.212 331.458 63.212C332.538 63.212 333.318 63.524 333.798 64.148C334.302 64.772 334.554 65.696 334.554 66.92ZM343.266 53.852C343.266 54.5 343.506 55.064 343.986 55.544C344.49 56 345.066 56.228 345.714 56.228C346.41 56.228 346.986 56 347.442 55.544C347.922 55.064 348.162 54.5 348.162 53.852C348.162 53.18 347.922 52.616 347.442 52.16C346.986 51.704 346.41 51.476 345.714 51.476C345.066 51.476 344.49 51.704 343.986 52.16C343.506 52.616 343.266 53.18 343.266 53.852ZM343.806 60.44V77H347.622V60.44H343.806ZM360.172 77.36C362.092 77.36 363.736 76.988 365.104 76.244C366.472 75.5 367.588 74.384 368.452 72.896L365.104 71.528C364.576 72.416 363.916 73.076 363.124 73.508C362.332 73.94 361.408 74.156 360.352 74.156C359.344 74.156 358.48 73.94 357.76 73.508C357.064 73.076 356.536 72.452 356.176 71.636C355.816 70.796 355.636 69.776 355.636 68.576C355.66 67.376 355.852 66.368 356.212 65.552C356.572 64.736 357.1 64.112 357.796 63.68C358.492 63.248 359.332 63.032 360.316 63.032C361.132 63.032 361.84 63.212 362.44 63.572C363.064 63.932 363.544 64.436 363.88 65.084C364.24 65.732 364.42 66.5 364.42 67.388C364.42 67.556 364.372 67.772 364.276 68.036C364.204 68.276 364.132 68.468 364.06 68.612L365.248 66.956H354.016V69.62H368.56C368.584 69.524 368.596 69.368 368.596 69.152C368.62 68.936 368.632 68.732 368.632 68.54C368.632 66.764 368.296 65.252 367.624 64.004C366.976 62.732 366.04 61.76 364.816 61.088C363.592 60.416 362.104 60.08 360.352 60.08C358.6 60.08 357.076 60.44 355.78 61.16C354.484 61.856 353.476 62.852 352.756 64.148C352.06 65.444 351.712 66.968 351.712 68.72C351.712 70.448 352.06 71.96 352.756 73.256C353.452 74.552 354.436 75.56 355.708 76.28C357.004 77 358.492 77.36 360.172 77.36ZM390.336 77.36C392.256 77.36 393.9 76.988 395.268 76.244C396.636 75.5 397.752 74.384 398.616 72.896L395.268 71.528C394.74 72.416 394.08 73.076 393.288 73.508C392.496 73.94 391.572 74.156 390.516 74.156C389.508 74.156 388.644 73.94 387.924 73.508C387.228 73.076 386.7 72.452 386.34 71.636C385.98 70.796 385.8 69.776 385.8 68.576C385.824 67.376 386.016 66.368 386.376 65.552C386.736 64.736 387.264 64.112 387.96 63.68C388.656 63.248 389.496 63.032 390.48 63.032C391.296 63.032 392.004 63.212 392.604 63.572C393.228 63.932 393.708 64.436 394.044 65.084C394.404 65.732 394.584 66.5 394.584 67.388C394.584 67.556 394.536 67.772 394.44 68.036C394.368 68.276 394.296 68.468 394.224 68.612L395.412 66.956H384.18V69.62H398.724C398.748 69.524 398.76 69.368 398.76 69.152C398.784 68.936 398.796 68.732 398.796 68.54C398.796 66.764 398.46 65.252 397.788 64.004C397.14 62.732 396.204 61.76 394.98 61.088C393.756 60.416 392.268 60.08 390.516 60.08C388.764 60.08 387.24 60.44 385.944 61.16C384.648 61.856 383.64 62.852 382.92 64.148C382.224 65.444 381.876 66.968 381.876 68.72C381.876 70.448 382.224 71.96 382.92 73.256C383.616 74.552 384.6 75.56 385.872 76.28C387.168 77 388.656 77.36 390.336 77.36ZM401.254 75.164C401.254 75.836 401.494 76.424 401.974 76.928C402.478 77.432 403.078 77.684 403.774 77.684C404.518 77.684 405.13 77.432 405.61 76.928C406.09 76.424 406.33 75.836 406.33 75.164C406.33 74.468 406.09 73.88 405.61 73.4C405.13 72.896 404.518 72.644 403.774 72.644C403.078 72.644 402.478 72.896 401.974 73.4C401.494 73.88 401.254 74.468 401.254 75.164ZM421.76 69.512L414.344 51.8H409.448L421.76 78.404L434.072 51.8H429.176L421.76 69.512ZM433.633 75.164C433.633 75.836 433.873 76.424 434.353 76.928C434.857 77.432 435.457 77.684 436.153 77.684C436.897 77.684 437.509 77.432 437.989 76.928C438.469 76.424 438.709 75.836 438.709 75.164C438.709 74.468 438.469 73.88 437.989 73.4C437.509 72.896 436.897 72.644 436.153 72.644C435.457 72.644 434.857 72.896 434.353 73.4C433.873 73.88 433.633 74.468 433.633 75.164ZM121.15 108.75H128.14C127.96 109.57 127.67 110.34 127.27 111.06C126.89 111.78 126.4 112.42 125.8 112.98C125.2 113.54 124.48 113.98 123.64 114.3C122.82 114.6 121.89 114.75 120.85 114.75C119.37 114.75 118.03 114.4 116.83 113.7C115.63 113 114.67 112.03 113.95 110.79C113.25 109.55 112.9 108.12 112.9 106.5C112.9 104.86 113.25 103.43 113.95 102.21C114.67 100.97 115.63 100 116.83 99.3C118.03 98.6 119.37 98.25 120.85 98.25C122.45 98.25 123.84 98.57 125.02 99.21C126.2 99.83 127.12 100.7 127.78 101.82L129.58 100.17C128.98 99.19 128.24 98.37 127.36 97.71C126.5 97.05 125.52 96.55 124.42 96.21C123.34 95.87 122.15 95.7 120.85 95.7C119.33 95.7 117.92 95.97 116.62 96.51C115.32 97.03 114.19 97.78 113.23 98.76C112.27 99.72 111.52 100.86 110.98 102.18C110.46 103.5 110.2 104.94 110.2 106.5C110.2 108.06 110.46 109.5 110.98 110.82C111.52 112.14 112.27 113.29 113.23 114.27C114.19 115.23 115.32 115.98 116.62 116.52C117.92 117.04 119.33 117.3 120.85 117.3C122.45 117.3 123.87 117.01 125.11 116.43C126.37 115.83 127.43 115.02 128.29 114C129.15 112.98 129.8 111.82 130.24 110.52C130.68 109.2 130.9 107.81 130.9 106.35H121.15V108.75ZM139.852 117.3C141.332 117.3 142.612 117.01 143.692 116.43C144.792 115.83 145.702 114.95 146.422 113.79L144.472 112.56C143.972 113.4 143.362 114.03 142.642 114.45C141.922 114.85 141.092 115.05 140.152 115.05C139.212 115.05 138.412 114.85 137.752 114.45C137.092 114.05 136.592 113.47 136.252 112.71C135.912 111.95 135.742 111.03 135.742 109.95C135.762 108.89 135.942 108 136.282 107.28C136.642 106.54 137.142 105.98 137.782 105.6C138.442 105.2 139.232 105 140.152 105C140.932 105 141.612 105.17 142.192 105.51C142.772 105.85 143.222 106.32 143.542 106.92C143.882 107.52 144.052 108.23 144.052 109.05C144.052 109.19 144.022 109.37 143.962 109.59C143.902 109.79 143.842 109.94 143.782 110.04L144.742 108.66H134.842V110.7H146.632C146.632 110.66 146.632 110.57 146.632 110.43C146.652 110.27 146.662 110.12 146.662 109.98C146.662 108.52 146.402 107.26 145.882 106.2C145.362 105.14 144.612 104.33 143.632 103.77C142.672 103.19 141.512 102.9 140.152 102.9C138.792 102.9 137.592 103.2 136.552 103.8C135.532 104.4 134.732 105.24 134.152 106.32C133.592 107.4 133.312 108.66 133.312 110.1C133.312 111.52 133.582 112.77 134.122 113.85C134.682 114.93 135.452 115.78 136.432 116.4C137.432 117 138.572 117.3 139.852 117.3ZM152.351 103.2H149.951V117H152.351V103.2ZM156.521 105.84L157.841 103.86C157.481 103.48 157.081 103.23 156.641 103.11C156.221 102.97 155.761 102.9 155.261 102.9C154.621 102.9 153.991 103.15 153.371 103.65C152.751 104.15 152.241 104.83 151.841 105.69C151.461 106.53 151.271 107.5 151.271 108.6H152.351C152.351 107.94 152.411 107.35 152.531 106.83C152.671 106.31 152.911 105.9 153.251 105.6C153.591 105.3 154.061 105.15 154.661 105.15C155.061 105.15 155.391 105.21 155.651 105.33C155.911 105.43 156.201 105.6 156.521 105.84ZM179.134 108.3C179.134 107.16 178.954 106.19 178.594 105.39C178.254 104.57 177.754 103.95 177.094 103.53C176.434 103.11 175.634 102.9 174.694 102.9C173.774 102.9 172.954 103.12 172.234 103.56C171.514 103.98 170.914 104.62 170.434 105.48C170.114 104.66 169.604 104.03 168.904 103.59C168.224 103.13 167.404 102.9 166.444 102.9C165.584 102.9 164.834 103.09 164.194 103.47C163.574 103.85 163.054 104.43 162.634 105.21V103.2H160.234V117H162.634V108.6C162.634 107.88 162.764 107.26 163.024 106.74C163.284 106.22 163.654 105.83 164.134 105.57C164.614 105.29 165.184 105.15 165.844 105.15C166.744 105.15 167.404 105.43 167.824 105.99C168.264 106.55 168.484 107.42 168.484 108.6V117H170.884V108.6C170.884 107.88 171.014 107.26 171.274 106.74C171.534 106.22 171.904 105.83 172.384 105.57C172.864 105.29 173.434 105.15 174.094 105.15C174.994 105.15 175.654 105.43 176.074 105.99C176.514 106.55 176.734 107.42 176.734 108.6V117H179.134V108.3ZM184.723 112.74C184.723 112.24 184.843 111.81 185.083 111.45C185.323 111.09 185.683 110.81 186.163 110.61C186.663 110.41 187.303 110.31 188.083 110.31C188.923 110.31 189.713 110.42 190.453 110.64C191.193 110.84 191.913 111.18 192.613 111.66V110.25C192.473 110.07 192.203 109.84 191.803 109.56C191.403 109.26 190.863 109 190.183 108.78C189.523 108.54 188.693 108.42 187.693 108.42C185.993 108.42 184.663 108.83 183.703 109.65C182.763 110.45 182.293 111.52 182.293 112.86C182.293 113.8 182.513 114.6 182.953 115.26C183.393 115.92 183.973 116.43 184.693 116.79C185.433 117.13 186.223 117.3 187.063 117.3C187.823 117.3 188.583 117.16 189.343 116.88C190.123 116.6 190.773 116.17 191.293 115.59C191.833 115.01 192.103 114.28 192.103 113.4L191.623 111.6C191.623 112.32 191.443 112.96 191.083 113.52C190.743 114.06 190.273 114.48 189.673 114.78C189.093 115.08 188.433 115.23 187.693 115.23C187.113 115.23 186.593 115.14 186.133 114.96C185.693 114.76 185.343 114.47 185.083 114.09C184.843 113.71 184.723 113.26 184.723 112.74ZM184.363 106.38C184.583 106.22 184.883 106.03 185.263 105.81C185.643 105.59 186.103 105.4 186.643 105.24C187.203 105.08 187.823 105 188.503 105C188.923 105 189.323 105.04 189.703 105.12C190.083 105.2 190.413 105.33 190.693 105.51C190.993 105.69 191.223 105.94 191.383 106.26C191.543 106.56 191.623 106.95 191.623 107.43V117H194.023V107.1C194.023 106.2 193.793 105.44 193.333 104.82C192.893 104.2 192.263 103.73 191.443 103.41C190.643 103.07 189.703 102.9 188.623 102.9C187.343 102.9 186.243 103.09 185.323 103.47C184.423 103.85 183.713 104.23 183.193 104.61L184.363 106.38ZM206.936 108.6V117H209.336V108.3C209.336 106.64 208.906 105.33 208.046 104.37C207.206 103.39 206.056 102.9 204.596 102.9C203.696 102.9 202.896 103.1 202.196 103.5C201.516 103.9 200.946 104.52 200.486 105.36V103.2H198.086V117H200.486V108.6C200.486 107.92 200.626 107.32 200.906 106.8C201.206 106.28 201.616 105.88 202.136 105.6C202.676 105.3 203.296 105.15 203.996 105.15C204.956 105.15 205.686 105.44 206.186 106.02C206.686 106.6 206.936 107.46 206.936 108.6ZM224.492 106.5C224.492 104.86 224.852 103.43 225.572 102.21C226.312 100.97 227.272 100 228.452 99.3C229.632 98.6 230.912 98.25 232.292 98.25C233.292 98.25 234.202 98.38 235.022 98.64C235.862 98.9 236.622 99.27 237.302 99.75C237.982 100.21 238.562 100.75 239.042 101.37V98.01C238.162 97.23 237.202 96.65 236.162 96.27C235.122 95.89 233.832 95.7 232.292 95.7C230.832 95.7 229.462 95.97 228.182 96.51C226.922 97.03 225.812 97.78 224.852 98.76C223.892 99.72 223.142 100.86 222.602 102.18C222.062 103.5 221.792 104.94 221.792 106.5C221.792 108.06 222.062 109.5 222.602 110.82C223.142 112.14 223.892 113.29 224.852 114.27C225.812 115.23 226.922 115.98 228.182 116.52C229.462 117.04 230.832 117.3 232.292 117.3C233.832 117.3 235.122 117.11 236.162 116.73C237.202 116.35 238.162 115.77 239.042 114.99V111.63C238.562 112.25 237.982 112.8 237.302 113.28C236.622 113.74 235.862 114.1 235.022 114.36C234.202 114.62 233.292 114.75 232.292 114.75C230.912 114.75 229.632 114.4 228.452 113.7C227.272 113 226.312 112.03 225.572 110.79C224.852 109.55 224.492 108.12 224.492 106.5ZM244.459 112.74C244.459 112.24 244.579 111.81 244.819 111.45C245.059 111.09 245.419 110.81 245.899 110.61C246.399 110.41 247.039 110.31 247.819 110.31C248.659 110.31 249.449 110.42 250.189 110.64C250.929 110.84 251.649 111.18 252.349 111.66V110.25C252.209 110.07 251.939 109.84 251.539 109.56C251.139 109.26 250.599 109 249.919 108.78C249.259 108.54 248.429 108.42 247.429 108.42C245.729 108.42 244.399 108.83 243.439 109.65C242.499 110.45 242.029 111.52 242.029 112.86C242.029 113.8 242.249 114.6 242.689 115.26C243.129 115.92 243.709 116.43 244.429 116.79C245.169 117.13 245.959 117.3 246.799 117.3C247.559 117.3 248.319 117.16 249.079 116.88C249.859 116.6 250.509 116.17 251.029 115.59C251.569 115.01 251.839 114.28 251.839 113.4L251.359 111.6C251.359 112.32 251.179 112.96 250.819 113.52C250.479 114.06 250.009 114.48 249.409 114.78C248.829 115.08 248.169 115.23 247.429 115.23C246.849 115.23 246.329 115.14 245.869 114.96C245.429 114.76 245.079 114.47 244.819 114.09C244.579 113.71 244.459 113.26 244.459 112.74ZM244.099 106.38C244.319 106.22 244.619 106.03 244.999 105.81C245.379 105.59 245.839 105.4 246.379 105.24C246.939 105.08 247.559 105 248.239 105C248.659 105 249.059 105.04 249.439 105.12C249.819 105.2 250.149 105.33 250.429 105.51C250.729 105.69 250.959 105.94 251.119 106.26C251.279 106.56 251.359 106.95 251.359 107.43V117H253.759V107.1C253.759 106.2 253.529 105.44 253.069 104.82C252.629 104.2 251.999 103.73 251.179 103.41C250.379 103.07 249.439 102.9 248.359 102.9C247.079 102.9 245.979 103.09 245.059 103.47C244.159 103.85 243.449 104.23 242.929 104.61L244.099 106.38ZM260.222 103.2H257.822V117H260.222V103.2ZM264.392 105.84L265.712 103.86C265.352 103.48 264.952 103.23 264.512 103.11C264.092 102.97 263.632 102.9 263.132 102.9C262.492 102.9 261.862 103.15 261.242 103.65C260.622 104.15 260.112 104.83 259.712 105.69C259.332 106.53 259.142 107.5 259.142 108.6H260.222C260.222 107.94 260.282 107.35 260.402 106.83C260.542 106.31 260.782 105.9 261.122 105.6C261.462 105.3 261.932 105.15 262.532 105.15C262.932 105.15 263.262 105.21 263.522 105.33C263.782 105.43 264.072 105.6 264.392 105.84ZM266.005 103.2V105.45H272.905V103.2H266.005ZM268.255 98.4V117H270.655V98.4H268.255ZM274.113 110.1C274.113 111.48 274.422 112.72 275.042 113.82C275.683 114.9 276.543 115.75 277.623 116.37C278.703 116.99 279.913 117.3 281.253 117.3C282.613 117.3 283.823 116.99 284.883 116.37C285.963 115.75 286.813 114.9 287.433 113.82C288.073 112.72 288.393 111.48 288.393 110.1C288.393 108.7 288.073 107.46 287.433 106.38C286.813 105.3 285.963 104.45 284.883 103.83C283.823 103.21 282.613 102.9 281.253 102.9C279.913 102.9 278.703 103.21 277.623 103.83C276.543 104.45 275.683 105.3 275.042 106.38C274.422 107.46 274.113 108.7 274.113 110.1ZM276.543 110.1C276.543 109.14 276.743 108.29 277.143 107.55C277.563 106.79 278.123 106.2 278.823 105.78C279.543 105.36 280.353 105.15 281.253 105.15C282.153 105.15 282.953 105.36 283.653 105.78C284.373 106.2 284.933 106.79 285.333 107.55C285.753 108.29 285.963 109.14 285.963 110.1C285.963 111.06 285.753 111.91 285.333 112.65C284.933 113.39 284.373 113.98 283.653 114.42C282.953 114.84 282.153 115.05 281.253 115.05C280.353 115.05 279.543 114.84 278.823 114.42C278.123 113.98 277.563 113.39 277.143 112.65C276.743 111.91 276.543 111.06 276.543 110.1ZM290.759 117.9C290.759 119.08 291.049 120.12 291.629 121.02C292.209 121.94 293.009 122.65 294.029 123.15C295.069 123.65 296.259 123.9 297.599 123.9C298.759 123.9 299.859 123.63 300.899 123.09C301.939 122.55 302.789 121.74 303.449 120.66C304.109 119.6 304.439 118.28 304.439 116.7V103.2H302.039V116.7C302.039 117.86 301.809 118.8 301.349 119.52C300.909 120.26 300.349 120.8 299.669 121.14C298.989 121.48 298.299 121.65 297.599 121.65C296.699 121.65 295.919 121.47 295.259 121.11C294.599 120.77 294.089 120.31 293.729 119.73C293.369 119.17 293.189 118.56 293.189 117.9H290.759ZM290.489 110.1C290.489 111.58 290.799 112.86 291.419 113.94C292.039 115.02 292.869 115.85 293.909 116.43C294.949 117.01 296.089 117.3 297.329 117.3C298.489 117.3 299.499 117.01 300.359 116.43C301.219 115.85 301.889 115.02 302.369 113.94C302.869 112.86 303.119 111.58 303.119 110.1C303.119 108.6 302.869 107.32 302.369 106.26C301.889 105.18 301.219 104.35 300.359 103.77C299.499 103.19 298.489 102.9 297.329 102.9C296.089 102.9 294.949 103.19 293.909 103.77C292.869 104.35 292.039 105.18 291.419 106.26C290.799 107.32 290.489 108.6 290.489 110.1ZM292.919 110.1C292.919 109.04 293.129 108.14 293.549 107.4C293.989 106.66 294.569 106.1 295.289 105.72C296.009 105.34 296.789 105.15 297.629 105.15C298.149 105.15 298.669 105.26 299.189 105.48C299.709 105.7 300.179 106.02 300.599 106.44C301.039 106.86 301.389 107.38 301.649 108C301.909 108.6 302.039 109.3 302.039 110.1C302.039 111.16 301.819 112.06 301.379 112.8C300.939 113.54 300.379 114.1 299.699 114.48C299.019 114.86 298.329 115.05 297.629 115.05C296.789 115.05 296.009 114.86 295.289 114.48C294.569 114.1 293.989 113.54 293.549 112.8C293.129 112.06 292.919 111.16 292.919 110.1ZM311.199 103.2H308.799V117H311.199V103.2ZM315.369 105.84L316.689 103.86C316.329 103.48 315.929 103.23 315.489 103.11C315.069 102.97 314.609 102.9 314.109 102.9C313.469 102.9 312.839 103.15 312.219 103.65C311.599 104.15 311.089 104.83 310.689 105.69C310.309 106.53 310.119 107.5 310.119 108.6H311.199C311.199 107.94 311.259 107.35 311.379 106.83C311.519 106.31 311.759 105.9 312.099 105.6C312.439 105.3 312.909 105.15 313.509 105.15C313.909 105.15 314.239 105.21 314.499 105.33C314.759 105.43 315.049 105.6 315.369 105.84ZM320.162 112.74C320.162 112.24 320.282 111.81 320.522 111.45C320.762 111.09 321.122 110.81 321.602 110.61C322.102 110.41 322.742 110.31 323.522 110.31C324.362 110.31 325.152 110.42 325.892 110.64C326.632 110.84 327.352 111.18 328.052 111.66V110.25C327.912 110.07 327.642 109.84 327.242 109.56C326.842 109.26 326.302 109 325.622 108.78C324.962 108.54 324.132 108.42 323.132 108.42C321.432 108.42 320.102 108.83 319.142 109.65C318.202 110.45 317.732 111.52 317.732 112.86C317.732 113.8 317.952 114.6 318.392 115.26C318.832 115.92 319.412 116.43 320.132 116.79C320.872 117.13 321.662 117.3 322.502 117.3C323.262 117.3 324.022 117.16 324.782 116.88C325.562 116.6 326.212 116.17 326.732 115.59C327.272 115.01 327.542 114.28 327.542 113.4L327.062 111.6C327.062 112.32 326.882 112.96 326.522 113.52C326.182 114.06 325.712 114.48 325.112 114.78C324.532 115.08 323.872 115.23 323.132 115.23C322.552 115.23 322.032 115.14 321.572 114.96C321.132 114.76 320.782 114.47 320.522 114.09C320.282 113.71 320.162 113.26 320.162 112.74ZM319.802 106.38C320.022 106.22 320.322 106.03 320.702 105.81C321.082 105.59 321.542 105.4 322.082 105.24C322.642 105.08 323.262 105 323.942 105C324.362 105 324.762 105.04 325.142 105.12C325.522 105.2 325.852 105.33 326.132 105.51C326.432 105.69 326.662 105.94 326.822 106.26C326.982 106.56 327.062 106.95 327.062 107.43V117H329.462V107.1C329.462 106.2 329.232 105.44 328.772 104.82C328.332 104.2 327.702 103.73 326.882 103.41C326.082 103.07 325.142 102.9 324.062 102.9C322.782 102.9 321.682 103.09 320.762 103.47C319.862 103.85 319.152 104.23 318.632 104.61L319.802 106.38ZM335.775 123.6V103.2H333.375V123.6H335.775ZM347.325 110.1C347.325 108.6 347.015 107.32 346.395 106.26C345.775 105.18 344.945 104.35 343.905 103.77C342.885 103.19 341.745 102.9 340.485 102.9C339.345 102.9 338.335 103.19 337.455 103.77C336.595 104.35 335.915 105.18 335.415 106.26C334.935 107.32 334.695 108.6 334.695 110.1C334.695 111.58 334.935 112.86 335.415 113.94C335.915 115.02 336.595 115.85 337.455 116.43C338.335 117.01 339.345 117.3 340.485 117.3C341.745 117.3 342.885 117.01 343.905 116.43C344.945 115.85 345.775 115.02 346.395 113.94C347.015 112.86 347.325 111.58 347.325 110.1ZM344.895 110.1C344.895 111.16 344.675 112.06 344.235 112.8C343.815 113.54 343.245 114.1 342.525 114.48C341.825 114.86 341.045 115.05 340.185 115.05C339.485 115.05 338.795 114.86 338.115 114.48C337.435 114.1 336.875 113.54 336.435 112.8C335.995 112.06 335.775 111.16 335.775 110.1C335.775 109.04 335.995 108.14 336.435 107.4C336.875 106.66 337.435 106.1 338.115 105.72C338.795 105.34 339.485 105.15 340.185 105.15C341.045 105.15 341.825 105.34 342.525 105.72C343.245 106.1 343.815 106.66 344.235 107.4C344.675 108.14 344.895 109.04 344.895 110.1ZM353.035 93.6H350.635V117H353.035V93.6ZM359.485 108.6V117H361.885V108.3C361.885 107.1 361.685 106.1 361.285 105.3C360.905 104.5 360.355 103.9 359.635 103.5C358.935 103.1 358.105 102.9 357.145 102.9C356.185 102.9 355.335 103.15 354.595 103.65C353.875 104.15 353.305 104.83 352.885 105.69C352.465 106.53 352.255 107.5 352.255 108.6H353.035C353.035 107.94 353.175 107.35 353.455 106.83C353.755 106.31 354.165 105.9 354.685 105.6C355.225 105.3 355.845 105.15 356.545 105.15C357.525 105.15 358.255 105.44 358.735 106.02C359.235 106.6 359.485 107.46 359.485 108.6ZM366.396 97.5C366.396 97.94 366.556 98.33 366.876 98.67C367.216 98.99 367.606 99.15 368.046 99.15C368.506 99.15 368.896 98.99 369.216 98.67C369.536 98.33 369.696 97.94 369.696 97.5C369.696 97.04 369.536 96.65 369.216 96.33C368.896 96.01 368.506 95.85 368.046 95.85C367.606 95.85 367.216 96.01 366.876 96.33C366.556 96.65 366.396 97.04 366.396 97.5ZM366.846 103.2V117H369.246V103.2H366.846ZM375.269 110.1C375.269 109.14 375.469 108.29 375.869 107.55C376.289 106.79 376.849 106.2 377.549 105.78C378.269 105.36 379.079 105.15 379.979 105.15C380.719 105.15 381.409 105.27 382.049 105.51C382.709 105.73 383.279 106.03 383.759 106.41C384.239 106.79 384.579 107.21 384.779 107.67V104.67C384.299 104.11 383.609 103.68 382.709 103.38C381.829 103.06 380.919 102.9 379.979 102.9C378.639 102.9 377.429 103.21 376.349 103.83C375.269 104.45 374.409 105.3 373.769 106.38C373.149 107.46 372.839 108.7 372.839 110.1C372.839 111.48 373.149 112.72 373.769 113.82C374.409 114.9 375.269 115.75 376.349 116.37C377.429 116.99 378.639 117.3 379.979 117.3C380.919 117.3 381.829 117.15 382.709 116.85C383.609 116.53 384.299 116.09 384.779 115.53V112.53C384.579 112.97 384.239 113.39 383.759 113.79C383.279 114.17 382.709 114.48 382.049 114.72C381.409 114.94 380.719 115.05 379.979 115.05C379.079 115.05 378.269 114.84 377.549 114.42C376.849 113.98 376.289 113.39 375.869 112.65C375.469 111.91 375.269 111.06 375.269 110.1ZM398.44 110.64L396.4 112.02C396.86 112.94 397.45 113.81 398.17 114.63C398.91 115.43 399.76 116.08 400.72 116.58C401.7 117.06 402.76 117.3 403.9 117.3C404.74 117.3 405.54 117.16 406.3 116.88C407.08 116.6 407.77 116.2 408.37 115.68C408.99 115.16 409.47 114.53 409.81 113.79C410.17 113.05 410.35 112.22 410.35 111.3C410.35 110.34 410.18 109.52 409.84 108.84C409.5 108.14 409.06 107.55 408.52 107.07C408 106.57 407.43 106.16 406.81 105.84C406.19 105.52 405.6 105.26 405.04 105.06C403.82 104.64 402.85 104.22 402.13 103.8C401.43 103.36 400.93 102.9 400.63 102.42C400.33 101.92 400.18 101.38 400.18 100.8C400.18 100.12 400.44 99.51 400.96 98.97C401.48 98.41 402.31 98.13 403.45 98.13C404.27 98.13 404.96 98.29 405.52 98.61C406.1 98.93 406.59 99.34 406.99 99.84C407.39 100.34 407.72 100.85 407.98 101.37L410.17 100.11C409.83 99.37 409.36 98.67 408.76 98.01C408.16 97.33 407.43 96.78 406.57 96.36C405.73 95.92 404.74 95.7 403.6 95.7C402.42 95.7 401.37 95.94 400.45 96.42C399.53 96.88 398.81 97.52 398.29 98.34C397.77 99.16 397.51 100.09 397.51 101.13C397.51 102.09 397.69 102.9 398.05 103.56C398.43 104.22 398.91 104.78 399.49 105.24C400.07 105.68 400.68 106.05 401.32 106.35C401.96 106.63 402.54 106.86 403.06 107.04C403.86 107.32 404.61 107.64 405.31 108C406.03 108.34 406.61 108.79 407.05 109.35C407.49 109.91 407.71 110.66 407.71 111.6C407.71 112.56 407.37 113.35 406.69 113.97C406.01 114.59 405.11 114.9 403.99 114.9C403.15 114.9 402.4 114.72 401.74 114.36C401.08 114 400.48 113.5 399.94 112.86C399.42 112.22 398.92 111.48 398.44 110.64ZM412.745 110.1C412.745 111.48 413.055 112.72 413.675 113.82C414.315 114.9 415.175 115.75 416.255 116.37C417.335 116.99 418.545 117.3 419.885 117.3C421.245 117.3 422.455 116.99 423.515 116.37C424.595 115.75 425.445 114.9 426.065 113.82C426.705 112.72 427.025 111.48 427.025 110.1C427.025 108.7 426.705 107.46 426.065 106.38C425.445 105.3 424.595 104.45 423.515 103.83C422.455 103.21 421.245 102.9 419.885 102.9C418.545 102.9 417.335 103.21 416.255 103.83C415.175 104.45 414.315 105.3 413.675 106.38C413.055 107.46 412.745 108.7 412.745 110.1ZM415.175 110.1C415.175 109.14 415.375 108.29 415.775 107.55C416.195 106.79 416.755 106.2 417.455 105.78C418.175 105.36 418.985 105.15 419.885 105.15C420.785 105.15 421.585 105.36 422.285 105.78C423.005 106.2 423.565 106.79 423.965 107.55C424.385 108.29 424.595 109.14 424.595 110.1C424.595 111.06 424.385 111.91 423.965 112.65C423.565 113.39 423.005 113.98 422.285 114.42C421.585 114.84 420.785 115.05 419.885 115.05C418.985 115.05 418.175 114.84 417.455 114.42C416.755 113.98 416.195 113.39 415.775 112.65C415.375 111.91 415.175 111.06 415.175 110.1ZM431.402 110.1C431.402 109.14 431.602 108.29 432.002 107.55C432.422 106.79 432.982 106.2 433.682 105.78C434.402 105.36 435.212 105.15 436.112 105.15C436.852 105.15 437.542 105.27 438.182 105.51C438.842 105.73 439.412 106.03 439.892 106.41C440.372 106.79 440.712 107.21 440.912 107.67V104.67C440.432 104.11 439.742 103.68 438.842 103.38C437.962 103.06 437.052 102.9 436.112 102.9C434.772 102.9 433.562 103.21 432.482 103.83C431.402 104.45 430.542 105.3 429.902 106.38C429.282 107.46 428.972 108.7 428.972 110.1C428.972 111.48 429.282 112.72 429.902 113.82C430.542 114.9 431.402 115.75 432.482 116.37C433.562 116.99 434.772 117.3 436.112 117.3C437.052 117.3 437.962 117.15 438.842 116.85C439.742 116.53 440.432 116.09 440.912 115.53V112.53C440.712 112.97 440.372 113.39 439.892 113.79C439.412 114.17 438.842 114.48 438.182 114.72C437.542 114.94 436.852 115.05 436.112 115.05C435.212 115.05 434.402 114.84 433.682 114.42C432.982 113.98 432.422 113.39 432.002 112.65C431.602 111.91 431.402 111.06 431.402 110.1ZM444.648 97.5C444.648 97.94 444.808 98.33 445.128 98.67C445.468 98.99 445.858 99.15 446.298 99.15C446.758 99.15 447.148 98.99 447.468 98.67C447.788 98.33 447.948 97.94 447.948 97.5C447.948 97.04 447.788 96.65 447.468 96.33C447.148 96.01 446.758 95.85 446.298 95.85C445.858 95.85 445.468 96.01 445.128 96.33C444.808 96.65 444.648 97.04 444.648 97.5ZM445.098 103.2V117H447.498V103.2H445.098ZM457.781 117.3C459.261 117.3 460.541 117.01 461.621 116.43C462.721 115.83 463.631 114.95 464.351 113.79L462.401 112.56C461.901 113.4 461.291 114.03 460.571 114.45C459.851 114.85 459.021 115.05 458.081 115.05C457.141 115.05 456.341 114.85 455.681 114.45C455.021 114.05 454.521 113.47 454.181 112.71C453.841 111.95 453.671 111.03 453.671 109.95C453.691 108.89 453.871 108 454.211 107.28C454.571 106.54 455.071 105.98 455.711 105.6C456.371 105.2 457.161 105 458.081 105C458.861 105 459.541 105.17 460.121 105.51C460.701 105.85 461.151 106.32 461.471 106.92C461.811 107.52 461.981 108.23 461.981 109.05C461.981 109.19 461.951 109.37 461.891 109.59C461.831 109.79 461.771 109.94 461.711 110.04L462.671 108.66H452.771V110.7H464.561C464.561 110.66 464.561 110.57 464.561 110.43C464.581 110.27 464.591 110.12 464.591 109.98C464.591 108.52 464.331 107.26 463.811 106.2C463.291 105.14 462.541 104.33 461.561 103.77C460.601 103.19 459.441 102.9 458.081 102.9C456.721 102.9 455.521 103.2 454.481 103.8C453.461 104.4 452.661 105.24 452.081 106.32C451.521 107.4 451.241 108.66 451.241 110.1C451.241 111.52 451.511 112.77 452.051 113.85C452.611 114.93 453.381 115.78 454.361 116.4C455.361 117 456.501 117.3 457.781 117.3ZM465.781 103.2V105.45H472.681V103.2H465.781ZM468.031 98.4V117H470.431V98.4H468.031ZM486.038 103.2H483.338L479.078 113.88L480.068 114L475.688 103.2H472.838L478.118 115.05L474.338 123.6H477.038L486.038 103.2ZM502.635 117.3C504.115 117.3 505.395 117.01 506.475 116.43C507.575 115.83 508.485 114.95 509.205 113.79L507.255 112.56C506.755 113.4 506.145 114.03 505.425 114.45C504.705 114.85 503.875 115.05 502.935 115.05C501.995 115.05 501.195 114.85 500.535 114.45C499.875 114.05 499.375 113.47 499.035 112.71C498.695 111.95 498.525 111.03 498.525 109.95C498.545 108.89 498.725 108 499.065 107.28C499.425 106.54 499.925 105.98 500.565 105.6C501.225 105.2 502.015 105 502.935 105C503.715 105 504.395 105.17 504.975 105.51C505.555 105.85 506.005 106.32 506.325 106.92C506.665 107.52 506.835 108.23 506.835 109.05C506.835 109.19 506.805 109.37 506.745 109.59C506.685 109.79 506.625 109.94 506.565 110.04L507.525 108.66H497.625V110.7H509.415C509.415 110.66 509.415 110.57 509.415 110.43C509.435 110.27 509.445 110.12 509.445 109.98C509.445 108.52 509.185 107.26 508.665 106.2C508.145 105.14 507.395 104.33 506.415 103.77C505.455 103.19 504.295 102.9 502.935 102.9C501.575 102.9 500.375 103.2 499.335 103.8C498.315 104.4 497.515 105.24 496.935 106.32C496.375 107.4 496.095 108.66 496.095 110.1C496.095 111.52 496.365 112.77 496.905 113.85C497.465 114.93 498.235 115.78 499.215 116.4C500.215 117 501.355 117.3 502.635 117.3ZM511.84 115.8C511.84 116.24 512 116.63 512.32 116.97C512.66 117.29 513.05 117.45 513.49 117.45C513.95 117.45 514.34 117.29 514.66 116.97C514.98 116.63 515.14 116.24 515.14 115.8C515.14 115.34 514.98 114.95 514.66 114.63C514.34 114.31 513.95 114.15 513.49 114.15C513.05 114.15 512.66 114.31 512.32 114.63C512 114.95 511.84 115.34 511.84 115.8ZM527.884 112.26L520.984 96H518.134L527.884 118.05L537.634 96H534.784L527.884 112.26ZM537.651 115.8C537.651 116.24 537.811 116.63 538.131 116.97C538.471 117.29 538.861 117.45 539.301 117.45C539.761 117.45 540.151 117.29 540.471 116.97C540.791 116.63 540.951 116.24 540.951 115.8C540.951 115.34 540.791 114.95 540.471 114.63C540.151 114.31 539.761 114.15 539.301 114.15C538.861 114.15 538.471 114.31 538.131 114.63C537.811 114.95 537.651 115.34 537.651 115.8Z" fill="white"/>
<path fill-rule="evenodd" clip-rule="evenodd" d="M44.7348 4.35563C22.3361 4.50487 4.25339 22.7046 4.25339 45.1137C4.25339 67.5229 22.3361 85.7226 44.7348 85.8718V4.35563ZM45.29 4.35563V85.8718C67.6639 85.7224 85.7714 67.5227 85.7714 45.1137C85.7714 22.6797 67.664 4.50483 45.29 4.35563ZM3.69824 45.1137C3.69824 22.3057 22.1789 3.79956 45.0124 3.79956C67.8204 3.79956 86.3266 22.2802 86.3266 45.1137C86.3266 67.9219 67.8205 86.4279 45.0124 86.4279C22.1789 86.4279 3.69824 67.9218 3.69824 45.1137Z" fill="white"/>
<path fill-rule="evenodd" clip-rule="evenodd" d="M0 0H90V127.345H0V0ZM0.923008 0.923008V126.422H89.077V0.923008H0.923008Z" fill="white"/>
<path fill-rule="evenodd" clip-rule="evenodd" d="M5.8343 44.19H16.9988C17.3294 33.9961 23.1114 25.1702 31.5325 20.5479C26.0573 21.89 21.1607 24.0252 17.148 26.7359C10.3677 31.3161 6.18676 37.4756 5.8343 44.19ZM44.9873 17.1104C33.7532 17.1104 23.5424 20.1866 16.1137 25.2048C8.69062 30.2193 3.9624 37.2427 3.9624 45.1138C3.9624 52.9849 8.69062 60.0083 16.1137 65.0228C23.5424 70.041 33.7532 73.1172 44.9873 73.1172C56.2214 73.1172 66.4323 70.041 73.8609 65.0228C81.284 60.0083 86.0122 52.9849 86.0122 45.1138C86.0122 37.2303 81.2843 30.2068 73.8607 25.1952C66.4318 20.18 56.221 17.1104 44.9873 17.1104ZM44.0888 18.9732C30.3553 19.4365 19.3237 30.4812 18.8476 44.19H44.0888V18.9732ZM45.9364 44.19V18.9749C59.6251 19.4635 70.6513 30.4767 71.1271 44.19H45.9364ZM72.9758 44.19C72.6451 33.9789 66.8509 25.1586 58.4296 20.5421C63.91 21.8819 68.8111 24.0156 72.8269 26.7266C79.6072 31.3039 83.7885 37.4637 84.1404 44.19H72.9758ZM71.127 46.0376H45.9364V71.2526C59.6241 70.7631 70.6505 59.7285 71.127 46.0376ZM44.0888 71.2544V46.0376H18.8476C19.3247 59.7454 30.3777 70.7903 44.0888 71.2544ZM16.9989 46.0376H5.8343C6.18676 52.752 10.3677 58.9115 17.148 63.4917C21.1657 66.2057 26.0694 68.3429 31.5528 69.6846C23.1275 65.0638 17.3302 56.2355 16.9989 46.0376ZM58.4218 69.6846C66.8471 65.0638 72.6444 56.2355 72.9758 46.0376H84.1403C83.7879 52.752 79.607 58.9115 72.8267 63.4917C68.809 66.2057 63.9052 68.3429 58.4218 69.6846Z" fill="white"/>
<path d="M60.8657 90.752V96.3146C60.8657 96.3146 59.9301 95.5055 58.6912 95.5308C57.9579 95.5561 57.1236 95.8848 57.0224 96.5421V103.47H60.7645V108.906H57.0224V124.608H51.5863V119.273C51.5863 119.273 53.0022 117.478 53.432 116.264C53.9883 114.671 54.4687 111.814 54.4181 111.055V105.088H47.9453V103.47H51.5863V96.5421C51.5863 96.5421 51.7633 93.5333 53.255 92.1174C54.7721 90.7014 56.542 89.8923 57.604 89.9429C58.6659 89.9935 59.9048 89.8165 60.8657 90.752Z" fill="white"/>
<path d="M61.9277 90.6003H67.3639V101.043L78.312 90.6003H86.2261L70.044 106.15L87.819 124.608H80.2337L67.3639 111.334V124.608H61.9277V90.6003Z" fill="white"/>
<path fill-rule="evenodd" clip-rule="evenodd" d="M16.6181 123.925H2.83813V90.6511H15.8849C17.1238 90.904 21.9532 91.0051 25.3918 94.2668C28.8558 97.5285 30.2212 100.234 30.3223 106.201C30.4234 112.168 30.0442 115.607 26.2262 119.804C22.6105 123.799 17.3008 123.9 16.6181 123.925ZM22.8887 115.43C24.8356 113.104 24.9367 110.575 24.9367 106.302C24.9367 102.029 24.0012 100.234 21.5739 98.287C19.1466 96.3401 16.2642 96.2137 15.4298 96.1378H8.27428V118.515H16.9468C19.5511 118.186 20.9418 117.756 22.8887 115.43Z" fill="white"/>
<path d="M27.0351 94.1909C26.2766 93.4323 24.9365 92.3957 24.9365 92.3957C26.934 91.2579 30.8784 89.4121 35.6824 89.4121C40.9921 89.4121 46.6558 90.7016 51.2576 96.871L46.934 100.284C46.934 100.284 44.8354 97.4778 42.4081 96.2895C39.9808 95.1264 39.6773 94.9241 35.5813 94.9241C32.4207 94.9241 29.7911 95.9355 28.8556 96.3653C28.8556 96.3653 27.8189 94.9747 27.0351 94.1909Z" fill="white"/>
<path d="M20.0061 116.416C22.1806 114.949 23.1919 113.483 23.6218 110.6C23.4195 109.842 23.0908 108.148 23.0908 106.58C23.0908 105.215 23.3689 103.748 23.5206 103.091C23.1161 101.498 21.9277 99.6017 19.5004 98.2869C18.9189 99.5511 17.6799 102.863 17.6799 106.58C17.6799 111.005 19.2981 115.05 20.0061 116.416Z" fill="white"/>
<path d="M29.0328 118.211C30.297 118.792 33.2553 119.804 36.3147 119.804C40.1326 119.804 43.6472 118.514 45.3412 116.744C47.01 114.974 47.4398 112.8 47.5915 111.713H38.742V106.226H53.2553L53.23 111.561C53.23 111.561 53.1036 116.896 48.6788 121.144C44.254 125.417 35.5815 125.291 35.5815 125.291C31.182 125.366 26.7066 123.217 25.2148 122.332C26.1504 121.599 27.5916 120.309 29.0328 118.211Z" fill="white"/>
</g>
<defs>
<clipPath id="clip0_501_25">
<rect width="544" height="127" fill="white"/>
</clipPath>
</defs>
</svg>
