<?xml version="1.0" encoding="UTF-8"?>
<svg width="438px" height="78px" viewBox="0 0 438 78" version="1.1" xmlns="http://www.w3.org/2000/svg" xmlns:xlink="http://www.w3.org/1999/xlink">
    <!-- Generator: Sketch 49 (51002) - http://www.bohemiancoding.com/sketch -->
    <title>FHP_logo</title>
    <desc>Created with Sketch.</desc>
    <defs></defs>
    <g id="Page-1" stroke="none" stroke-width="1" fill="none" fill-rule="evenodd">
        <g id="FHP_logo" fill="#FFFFFF" fill-rule="nonzero">
            <g id="Group">
                <g transform="translate(112.000000, 9.000000)">
                    <path d="M18.3,48.2 C18.3,56.4 16.4,62.6 9,68.4 L0.9,61.6 C5.1,57.6 6.5,54.6 6.6,49.7 L0.1,49.7 L0.1,31.3 L18.3,31.3 L18.3,48.2 Z" id="Shape"></path>
                    <rect id="Rectangle-path" x="0.3" y="0.8" width="18" height="18.3"></rect>
                </g>
                <polygon id="Shape" points="0 58.7 0 0.7 43.6 0.7 43.6 14.5 17.5 14.5 17.5 24.7 41.6 24.7 41.6 38.5 17.5 38.5 17.5 58.7"></polygon>
                <polygon id="Shape" points="84.3 58.7 84.3 36 67.3 36 67.3 58.7 49.4 58.7 49.4 0.7 67.3 0.7 67.3 21.1 84.2 21.1 84.2 0.7 102.2 0.7 102.2 58.7"></polygon>
                <path d="M140.5,58.7 L140.5,0.7 L165.3,0.7 C176.7,0.7 181.6,1.9 185.1,4.2 C190.2,7.6 192.7,13.1 192.7,20.3 C192.7,27 190.1,32.8 185.4,36.2 C181.4,39.1 176.1,40.5 167.1,40.5 L158.3,40.5 L158.3,58.7 L140.5,58.7 Z M165.1,27 C168.6,27 171.1,26.5 172.5,25.4 C173.8,24.3 174.3,22.7 174.3,20.8 C174.3,19 173.8,17.4 172.5,16.2 C171.2,15 169.1,14.6 165.4,14.6 L158.3,14.6 L158.3,27 L165.1,27 Z" id="Shape"></path>
            </g>
            <g id="Group" transform="translate(219.000000, 0.000000)">
                <polygon id="Shape" points="4.8 2.8 4.8 6.6 8.6 6.6 8.6 8.6 4.8 8.6 4.8 14.3 2.1 14.3 2.1 0.7 9.1 0.7 9.1 2.8"></polygon>
                <path d="M16.6,14.3 L16.4,13.3 C15.5,14 14.6,14.6 13.3,14.6 C11.3,14.6 10.2,13.6 10.2,11.7 C10.2,9.6 11.9,8.2 15.4,8.2 L16,8.2 L16,7.4 C16,6.4 15.4,5.9 14.1,5.9 C13.1,5.9 11.9,6.2 11,6.5 L10.7,4.9 C11.9,4.4 13.2,4 14.8,4 C17.4,4 18.6,5.2 18.6,7.1 L18.6,14.3 L16.6,14.3 Z M16,9.7 L15.2,9.7 C13.2,9.7 12.7,10.3 12.7,11.3 C12.7,12.1 13.2,12.6 14.1,12.6 C14.7,12.6 15.4,12.3 16,11.7 L16,9.7 Z" id="Shape"></path>
                <path d="M24.9,14.5 C22.2,14.5 20.9,12.8 20.9,9.4 C20.9,6.2 22.5,4 25.1,4 C26.4,4 27.4,4.5 28.1,5.3 L27.2,6.6 C26.7,6.2 26.2,5.9 25.5,5.9 C24.3,5.9 23.6,7 23.6,9.1 C23.6,11.6 24.3,12.5 25.4,12.5 C26.2,12.5 26.9,12.2 27.5,11.7 L28.3,13 C27.6,13.8 26.5,14.5 24.9,14.5 Z" id="Shape"></path>
                <path d="M38.5,14.3 L35.9,14.3 C35.9,12.2 36,10.1 36,9 C36,6.6 35.5,6 34.6,6 C34.1,6 33.4,6.3 32.7,6.8 L32.7,14.2 L30.1,14.2 L30.1,0 L32.7,0 L32.7,5.1 C33.4,4.5 34.4,4 35.5,4 C37.5,4 38.6,5.3 38.6,8.6 C38.6,9.8 38.5,12.1 38.5,14.3 Z" id="Shape"></path>
                <path d="M49.8,14.3 L47.2,14.3 C47.2,12.2 47.3,10.1 47.3,9 C47.3,6.6 46.8,6 45.9,6 C45.4,6 44.7,6.3 44,6.8 L44,14.2 L41.4,14.2 L41.4,0 L44,0 L44,5.1 C44.7,4.5 45.7,4 46.8,4 C48.8,4 49.9,5.3 49.9,8.6 C49.9,9.8 49.8,12.1 49.8,14.3 Z" id="Shape"></path>
                <path d="M56.6,14.5 C53.7,14.5 52.1,13 52.1,9.4 C52.1,5.7 54,3.9 57,3.9 C59.9,3.9 61.5,5.4 61.5,9 C61.5,12.8 59.6,14.5 56.6,14.5 Z M56.8,5.9 C55.6,5.9 54.8,6.7 54.8,9 C54.8,11.8 55.5,12.6 56.8,12.6 C58,12.6 58.8,11.8 58.8,9.5 C58.9,6.6 58.1,5.9 56.8,5.9 Z" id="Shape"></path>
                <path d="M67.4,14.5 C64.7,14.5 63.4,12.8 63.4,9.4 C63.4,6.2 65,4 67.6,4 C68.9,4 69.9,4.5 70.6,5.3 L69.7,6.6 C69.2,6.2 68.7,5.9 68,5.9 C66.8,5.9 66.1,7 66.1,9.1 C66.1,11.6 66.8,12.5 67.9,12.5 C68.7,12.5 69.4,12.2 70,11.7 L70.8,13 C70,13.8 68.9,14.5 67.4,14.5 Z" id="Shape"></path>
                <path d="M80.9,14.3 L78.3,14.3 C78.3,12.2 78.4,10.1 78.4,9 C78.4,6.6 77.9,6 77,6 C76.5,6 75.8,6.3 75.1,6.8 L75.1,14.2 L72.5,14.2 L72.5,0 L75.1,0 L75.1,5.1 C75.8,4.5 76.8,4 77.9,4 C79.9,4 81,5.3 81,8.6 C81,9.8 80.9,12.1 80.9,14.3 Z" id="Shape"></path>
                <path d="M86.2,14.5 C85.1,14.5 84,14.2 83.1,13.7 L83.3,12.3 C84.5,12.6 85.1,12.6 85.8,12.6 C87.1,12.6 87.6,12.1 87.6,11.5 C87.6,10.8 87.3,10.5 85.8,10 C83.9,9.3 83.1,8.5 83.1,7 C83.1,5.2 84.6,3.9 86.8,3.9 C87.7,3.9 88.6,4.1 89.6,4.6 L89.3,6 C88.5,5.8 87.9,5.7 87.3,5.7 C86.3,5.7 85.8,6.2 85.8,6.7 C85.8,7.3 86.1,7.6 87.6,8.1 C89.6,8.8 90.3,9.7 90.3,11.2 C90.3,13.1 88.8,14.5 86.2,14.5 Z" id="Shape"></path>
                <path d="M96,14.5 C93.3,14.5 92,12.8 92,9.4 C92,6.2 93.6,4 96.2,4 C97.5,4 98.5,4.5 99.2,5.3 L98.3,6.6 C97.8,6.2 97.3,5.9 96.6,5.9 C95.4,5.9 94.7,7 94.7,9.1 C94.7,11.6 95.4,12.5 96.5,12.5 C97.3,12.5 98,12.2 98.6,11.7 L99.4,13 C98.6,13.8 97.5,14.5 96,14.5 Z" id="Shape"></path>
                <path d="M109.5,14.3 L106.9,14.3 C106.9,12.2 107,10.1 107,9 C107,6.6 106.5,6 105.6,6 C105.1,6 104.4,6.3 103.7,6.8 L103.7,14.2 L101.1,14.2 L101.1,0 L103.7,0 L103.7,5.1 C104.4,4.5 105.4,4 106.5,4 C108.5,4 109.6,5.3 109.6,8.6 C109.6,9.8 109.5,12.1 109.5,14.3 Z" id="Shape"></path>
                <path d="M118.7,14.3 L118.5,13.2 C117.6,14 116.6,14.5 115.5,14.5 C113.4,14.5 112.4,13.2 112.4,9.9 C112.4,8.6 112.5,6.4 112.5,4.2 L115.1,4.2 C115.1,6.2 115,8.3 115,9.5 C115,11.9 115.5,12.4 116.4,12.4 C117,12.4 117.6,12.1 118.3,11.6 L118.3,4.2 L120.9,4.2 L120.9,14.3 L118.7,14.3 Z" id="Shape"></path>
                <path d="M125.7,14.5 C124.4,14.5 123.7,14.1 123.7,12.5 L123.7,0 L126.3,0 L126.3,11.4 C126.3,12.5 126.4,12.7 127,12.7 C127.2,12.7 127.4,12.7 127.5,12.7 L127.6,14.2 C127.1,14.4 126.5,14.5 125.7,14.5 Z" id="Shape"></path>
                <path d="M131.5,9.8 L131.5,9.9 C131.5,11.8 132.3,12.5 133.8,12.5 C134.7,12.5 135.9,12.3 137.1,11.9 L137.5,13.4 C136.3,14 134.8,14.5 133.3,14.5 C130.7,14.5 128.9,13.2 128.9,9.5 C128.9,5.9 130.7,4 133.5,4 C136.1,4 137.8,5.5 137.5,9.8 L131.5,9.8 Z M134.9,8.1 C134.9,6.5 134.4,5.7 133.3,5.7 C132.2,5.7 131.6,6.7 131.5,8.1 L134.9,8.1 Z" id="Shape"></path>
                <path d="M148.6,9.7 L148,9.7 L148,14.3 L145.3,14.3 L145.3,0.7 C146.6,0.7 147.9,0.7 149.3,0.7 C153,0.7 154.3,2.4 154.3,5 C154.3,7.7 152.8,9.7 148.6,9.7 Z M148.8,2.6 L148,2.6 L148,7.7 L148.8,7.7 C150.6,7.7 151.4,6.8 151.4,5.2 C151.4,3.5 150.7,2.6 148.8,2.6 Z" id="Shape"></path>
                <path d="M160.1,14.5 C157.2,14.5 155.6,13 155.6,9.4 C155.6,5.7 157.5,3.9 160.5,3.9 C163.4,3.9 165,5.4 165,9 C165,12.8 163.1,14.5 160.1,14.5 Z M160.3,5.9 C159.1,5.9 158.3,6.7 158.3,9 C158.3,11.8 159,12.6 160.3,12.6 C161.5,12.6 162.3,11.8 162.3,9.5 C162.3,6.6 161.6,5.9 160.3,5.9 Z" id="Shape"></path>
                <path d="M170,14.5 C168.1,14.5 167.4,13.8 167.4,11.9 L167.4,6 L166.1,6 L166.1,4.2 L167.5,4.2 C167.7,3.3 167.9,2.4 168.1,1.3 L170,1.3 L170,4.2 L172.2,4.2 L172.2,6 L170,6 L170,11.2 C170,12.2 170.2,12.6 170.9,12.6 C171.2,12.6 171.6,12.6 172.3,12.4 L172.5,13.9 C171.6,14.3 170.8,14.5 170,14.5 Z" id="Shape"></path>
                <path d="M176.9,14.5 C175.8,14.5 174.7,14.2 173.8,13.7 L174,12.3 C175.2,12.6 175.8,12.6 176.5,12.6 C177.8,12.6 178.3,12.1 178.3,11.5 C178.3,10.8 178,10.5 176.5,10 C174.6,9.3 173.8,8.5 173.8,7 C173.8,5.2 175.3,3.9 177.5,3.9 C178.4,3.9 179.3,4.1 180.3,4.6 L180.1,6 C179.3,5.8 178.7,5.7 178.1,5.7 C177.1,5.7 176.6,6.2 176.6,6.7 C176.6,7.3 176.9,7.6 178.4,8.1 C180.4,8.8 181.1,9.7 181.1,11.2 C181.1,13.1 179.5,14.5 176.9,14.5 Z" id="Shape"></path>
                <path d="M189.3,14.3 L189.1,13.3 C188.3,14 187.3,14.6 186.3,14.6 C183.9,14.6 182.8,12.4 182.8,9.7 C182.8,5.6 185,4 187.8,4 C188.2,4 188.7,4 188.9,4.1 L188.9,0 L191.5,0 L191.5,14.3 L189.3,14.3 Z M188.8,6 C188.4,5.9 188,5.8 187.6,5.8 C186.3,5.8 185.4,6.9 185.4,9.3 C185.4,11.4 186,12.5 187.1,12.5 C187.6,12.5 188.2,12.2 188.9,11.7 L188.9,6 L188.8,6 Z" id="Shape"></path>
                <path d="M200.1,14.3 L199.9,13.3 C199,14 198.1,14.6 196.8,14.6 C194.8,14.6 193.7,13.6 193.7,11.7 C193.7,9.6 195.4,8.2 198.9,8.2 L199.5,8.2 L199.5,7.4 C199.5,6.4 198.9,5.9 197.6,5.9 C196.6,5.9 195.4,6.2 194.5,6.5 L194.2,4.9 C195.4,4.4 196.7,4 198.3,4 C200.9,4 202.1,5.2 202.1,7.1 L202.1,14.3 L200.1,14.3 Z M199.5,9.7 L198.7,9.7 C196.7,9.7 196.2,10.3 196.2,11.3 C196.2,12.1 196.7,12.6 197.6,12.6 C198.2,12.6 198.9,12.3 199.5,11.7 L199.5,9.7 Z" id="Shape"></path>
                <path d="M218.9,14.3 L216.3,14.3 C216.3,12.3 216.4,10.2 216.4,9 C216.4,6.6 216,6 215.1,6 C214.6,6 213.8,6.4 213.2,6.9 C213.3,7.2 213.3,7.7 213.3,8.4 L213.3,14.2 L210.7,14.2 L210.7,9 C210.7,6.6 210.3,6 209.4,6 C208.9,6 208.2,6.3 207.6,6.8 L207.6,14.2 L205,14.2 L205,4.2 L207.1,4.2 L207.3,5.3 C208.1,4.6 209.1,4 210.3,4 C211.5,4 212.4,4.6 212.8,5.5 C213.8,4.6 214.8,4 216,4 C218,4 219,5.3 219,8.6 C219,9.8 218.9,12.1 218.9,14.3 Z" id="Shape"></path>
                <path d="M6.9,36.7 C3.7,36.7 2,35.3 2,31.9 L2,22.9 L4.7,22.9 L4.7,31.6 C4.7,33.9 5.4,34.7 7.1,34.7 C8.6,34.7 9.5,34 9.5,31.7 L9.5,22.8 L12.2,22.8 L12.2,31.5 C12.2,35.3 10,36.7 6.9,36.7 Z" id="Shape"></path>
                <path d="M23.7,36.5 L21.1,36.5 C21.1,34.5 21.2,32.4 21.2,31.2 C21.2,28.8 20.7,28.3 19.8,28.3 C19.3,28.3 18.6,28.6 17.9,29.1 L17.9,36.5 L15.3,36.5 L15.3,26.4 L17.4,26.4 L17.6,27.5 C18.5,26.7 19.5,26.2 20.7,26.2 C22.7,26.2 23.8,27.5 23.8,30.8 C23.8,32 23.7,34.3 23.7,36.5 Z" id="Shape"></path>
                <path d="M28,25.1 C26.8,25.1 26.4,24.8 26.4,23.7 C26.4,22.7 26.7,22.3 28,22.3 C29.3,22.3 29.5,22.6 29.5,23.7 C29.5,24.7 29.2,25.1 28,25.1 Z M26.6,36.5 L26.6,26.4 L29.2,26.4 L29.2,36.5 L26.6,36.5 Z" id="Shape"></path>
                <path d="M37.4,36.5 L34,36.5 L31.1,26.4 L33.9,26.4 L35.5,32.1 L35.9,34.1 C36.7,31.4 37.3,28.9 37.6,26.4 L40.3,26.4 C39.8,29.9 38.8,33.3 37.4,36.5 Z" id="Shape"></path>
                <path d="M44.2,31.9 L44.2,32 C44.2,33.9 45,34.6 46.5,34.6 C47.4,34.6 48.6,34.4 49.8,34 L50.2,35.5 C49,36.1 47.5,36.6 46,36.6 C43.4,36.6 41.6,35.3 41.6,31.6 C41.6,28 43.4,26.1 46.2,26.1 C48.8,26.1 50.5,27.6 50.2,31.9 L44.2,31.9 Z M47.7,30.3 C47.7,28.7 47.2,27.9 46.1,27.9 C45,27.9 44.4,28.9 44.3,30.3 L47.7,30.3 Z" id="Shape"></path>
                <path d="M58.2,28.7 C57.8,28.6 57.5,28.6 57.3,28.6 C56.7,28.6 56.3,29 55.3,30.1 L55.3,36.5 L52.7,36.5 L52.7,26.4 L54.8,26.4 L55,28 C56,26.6 56.7,26.2 57.4,26.2 C57.7,26.2 58,26.3 58.4,26.4 L58.2,28.7 Z" id="Shape"></path>
                <path d="M62.7,36.7 C61.6,36.7 60.5,36.4 59.6,35.9 L59.8,34.5 C60.9,34.8 61.6,34.8 62.3,34.8 C63.6,34.8 64.1,34.3 64.1,33.7 C64.1,33 63.8,32.7 62.3,32.2 C60.4,31.5 59.6,30.7 59.6,29.2 C59.6,27.4 61.1,26.1 63.3,26.1 C64.2,26.1 65.1,26.3 66.1,26.8 L65.8,28.1 C65,27.9 64.4,27.8 63.8,27.8 C62.8,27.8 62.3,28.3 62.3,28.8 C62.3,29.4 62.6,29.7 64.1,30.2 C66.1,30.9 66.8,31.8 66.8,33.3 C66.8,35.3 65.3,36.7 62.7,36.7 Z" id="Shape"></path>
                <path d="M70.3,25.1 C69.1,25.1 68.7,24.8 68.7,23.7 C68.7,22.7 69,22.3 70.3,22.3 C71.6,22.3 71.8,22.6 71.8,23.7 C71.8,24.7 71.5,25.1 70.3,25.1 Z M68.9,36.5 L68.9,26.4 L71.5,26.4 L71.5,36.5 L68.9,36.5 Z" id="Shape"></path>
                <path d="M77.2,36.7 C75.3,36.7 74.6,36 74.6,34.1 L74.6,28.3 L73.3,28.3 L73.3,26.5 L74.7,26.5 C74.9,25.6 75.1,24.7 75.3,23.6 L77.2,23.6 L77.2,26.5 L79.4,26.5 L79.4,28.3 L77.2,28.3 L77.2,33.5 C77.2,34.5 77.4,34.9 78.1,34.9 C78.4,34.9 78.8,34.9 79.5,34.7 L79.7,36.2 C78.8,36.5 78,36.7 77.2,36.7 Z" id="Shape"></path>
                <path d="M82.1,40.1 C81.7,40.1 81.1,40 80.6,39.7 L80.6,38.2 C80.9,38.2 81.4,38.3 81.6,38.3 C82.2,38.3 82.7,38.2 83.1,37.9 C83.5,37.5 83.7,37.2 83.7,36.7 C83.7,36.3 83.6,35.7 83.2,34.7 L80.7,26.5 L83.5,26.5 L85,32 C85.3,33 85.5,33.9 85.4,34.5 C86.2,32.1 86.9,29 87.1,26.3 L89.8,26.3 C88.2,36.9 84.9,40.1 82.1,40.1 Z" id="Shape"></path>
                <path d="M100,36.7 C97.1,36.7 95.5,35.2 95.5,31.6 C95.5,27.9 97.4,26.1 100.4,26.1 C103.3,26.1 104.9,27.6 104.9,31.2 C104.9,35 103,36.7 100,36.7 Z M100.2,28.1 C99,28.1 98.2,28.9 98.2,31.2 C98.2,34 98.9,34.8 100.2,34.8 C101.4,34.8 102.2,34 102.2,31.7 C102.2,28.8 101.5,28.1 100.2,28.1 Z" id="Shape"></path>
                <path d="M112.3,24.1 C111.9,23.9 111.5,23.9 111.1,23.9 C110.3,23.9 110,24.3 110,25.2 L110,26.5 L111.8,26.5 L111.8,28.3 L110,28.3 L110,36.6 L107.4,36.6 L107.4,28.3 L106.1,28.3 L106.1,26.5 L107.4,26.5 L107.4,25.3 C107.4,23.3 108.2,22.1 110.2,22.1 C111.2,22.1 112,22.4 112.6,22.7 L112.3,24.1 Z" id="Shape"></path>
                <path d="M9,58.7 C8.8,57.9 8.6,56.8 8.4,56 L3.9,56 C3.7,56.8 3.5,57.8 3.3,58.7 L0.7,58.7 C1.7,54.2 3,49.5 4.5,45.1 L8.1,45.1 C9.7,49.8 10.9,54.1 11.9,58.7 L9,58.7 Z M6.1,47.5 C5.5,49.4 4.9,51.9 4.3,54 L7.9,54 C7.4,51.9 6.8,49.6 6.1,47.5 Z" id="Shape"></path>
                <path d="M17.4,58.9 C17.1,58.9 16.7,58.9 16.3,58.8 L16.3,62.1 L13.7,62.1 L13.7,48.6 L15.8,48.6 L16,49.6 C16.8,48.9 17.8,48.3 18.8,48.3 C21.2,48.3 22.4,50.5 22.4,53.2 C22.5,57.2 20.3,58.9 17.4,58.9 Z M18.2,50.3 C17.7,50.3 17.1,50.6 16.4,51.1 L16.4,56.7 C16.7,56.8 17.2,56.9 17.6,56.9 C18.9,56.9 19.8,55.8 19.8,53.4 C19.8,51.5 19.2,50.3 18.2,50.3 Z" id="Shape"></path>
                <path d="M28.5,58.9 C28.2,58.9 27.8,58.9 27.4,58.8 L27.4,62.1 L24.8,62.1 L24.8,48.6 L26.9,48.6 L27.1,49.6 C27.9,48.9 28.9,48.3 29.9,48.3 C32.3,48.3 33.5,50.5 33.5,53.2 C33.5,57.2 31.4,58.9 28.5,58.9 Z M29.2,50.3 C28.7,50.3 28.1,50.6 27.4,51.1 L27.4,56.7 C27.7,56.8 28.2,56.9 28.6,56.9 C29.9,56.9 30.8,55.8 30.8,53.4 C30.9,51.5 30.3,50.3 29.2,50.3 Z" id="Shape"></path>
                <path d="M37.9,58.8 C36.6,58.8 35.9,58.4 35.9,56.8 L35.9,44.4 L38.5,44.4 L38.5,55.8 C38.5,56.9 38.6,57.1 39.2,57.1 C39.4,57.1 39.6,57.1 39.7,57.1 L39.8,58.6 C39.3,58.7 38.7,58.8 37.9,58.8 Z" id="Shape"></path>
                <path d="M43.1,47.3 C41.9,47.3 41.5,47 41.5,45.9 C41.5,44.9 41.8,44.5 43.1,44.5 C44.4,44.5 44.6,44.8 44.6,45.9 C44.6,46.9 44.3,47.3 43.1,47.3 Z M41.8,58.7 L41.8,48.6 L44.4,48.6 L44.4,58.7 L41.8,58.7 Z" id="Shape"></path>
                <path d="M49.4,54.1 L49.4,54.2 C49.4,56.1 50.2,56.8 51.7,56.8 C52.6,56.8 53.8,56.6 55,56.2 L55.4,57.7 C54.2,58.3 52.7,58.8 51.2,58.8 C48.6,58.8 46.8,57.5 46.8,53.8 C46.8,50.2 48.6,48.3 51.4,48.3 C54,48.3 55.7,49.8 55.4,54.1 L49.4,54.1 Z M52.8,52.5 C52.8,50.9 52.3,50.1 51.2,50.1 C50.1,50.1 49.5,51.1 49.4,52.5 L52.8,52.5 Z" id="Shape"></path>
                <path d="M63.9,58.7 L63.7,57.7 C62.9,58.4 61.9,59 60.9,59 C58.5,59 57.4,56.8 57.4,54.1 C57.4,50 59.6,48.4 62.4,48.4 C62.8,48.4 63.3,48.4 63.5,48.5 L63.5,44.5 L66.1,44.5 L66.1,58.8 L63.9,58.8 L63.9,58.7 Z M63.4,50.4 C63,50.3 62.6,50.2 62.2,50.2 C60.9,50.2 60,51.3 60,53.7 C60,55.8 60.6,56.9 61.7,56.9 C62.2,56.9 62.8,56.6 63.5,56.1 L63.5,50.4 L63.4,50.4 Z" id="Shape"></path>
                <path d="M77.6,58.9 C76,58.9 74.7,58.4 73.5,57.6 L74.1,56.2 C75.2,56.6 76.3,56.9 77,56.9 C78.4,56.9 79.3,56.3 79.3,55.1 C79.3,52.4 73.6,53 73.6,48.7 C73.6,46.4 75.4,44.9 78,44.9 C79.3,44.9 80.5,45.2 81.6,46 L81,47.4 C80.1,47.1 79.2,46.9 78.5,46.9 C77.1,46.9 76.5,47.5 76.5,48.5 C76.5,51.2 82.3,50.7 82.3,54.9 C82.3,57.1 80.6,58.9 77.6,58.9 Z" id="Shape"></path>
                <path d="M88,58.9 C85.3,58.9 84,57.2 84,53.8 C84,50.6 85.6,48.4 88.2,48.4 C89.5,48.4 90.5,48.9 91.2,49.7 L90.3,51 C89.8,50.6 89.3,50.3 88.6,50.3 C87.4,50.3 86.7,51.4 86.7,53.5 C86.7,56 87.4,56.9 88.5,56.9 C89.3,56.9 90,56.6 90.6,56.1 L91.4,57.4 C90.7,58.2 89.6,58.9 88,58.9 Z" id="Shape"></path>
                <path d="M94.7,47.3 C93.5,47.3 93.1,47 93.1,45.9 C93.1,44.9 93.4,44.5 94.7,44.5 C96,44.5 96.2,44.8 96.2,45.9 C96.3,46.9 96,47.3 94.7,47.3 Z M93.4,58.7 L93.4,48.6 L96,48.6 L96,58.7 L93.4,58.7 Z" id="Shape"></path>
                <path d="M101,54.1 L101,54.2 C101,56.1 101.8,56.8 103.3,56.8 C104.2,56.8 105.4,56.6 106.6,56.2 L107,57.7 C105.8,58.3 104.3,58.8 102.8,58.8 C100.2,58.8 98.4,57.5 98.4,53.8 C98.4,50.2 100.2,48.3 103,48.3 C105.6,48.3 107.3,49.8 107,54.1 L101,54.1 Z M104.5,52.5 C104.5,50.9 104,50.1 102.9,50.1 C101.8,50.1 101.2,51.1 101.1,52.5 L104.5,52.5 Z" id="Shape"></path>
                <path d="M117.9,58.7 L115.3,58.7 C115.3,56.7 115.4,54.6 115.4,53.4 C115.4,51 114.9,50.5 114,50.5 C113.5,50.5 112.8,50.8 112.1,51.3 L112.1,58.7 L109.5,58.7 L109.5,48.6 L111.6,48.6 L111.8,49.7 C112.7,48.9 113.7,48.4 114.9,48.4 C116.9,48.4 118,49.7 118,53 C118,54.2 117.9,56.5 117.9,58.7 Z" id="Shape"></path>
                <path d="M124.3,58.9 C121.6,58.9 120.3,57.2 120.3,53.8 C120.3,50.6 121.9,48.4 124.5,48.4 C125.8,48.4 126.8,48.9 127.5,49.7 L126.6,51 C126.1,50.6 125.6,50.3 124.9,50.3 C123.7,50.3 123,51.4 123,53.5 C123,56 123.7,56.9 124.8,56.9 C125.6,56.9 126.3,56.6 126.9,56.1 L127.7,57.4 C126.9,58.2 125.8,58.9 124.3,58.9 Z" id="Shape"></path>
                <path d="M131.4,54.1 L131.4,54.2 C131.4,56.1 132.2,56.8 133.7,56.8 C134.6,56.8 135.8,56.6 137,56.2 L137.4,57.7 C136.2,58.3 134.7,58.8 133.2,58.8 C130.6,58.8 128.8,57.5 128.8,53.8 C128.8,50.2 130.6,48.3 133.4,48.3 C136,48.3 137.7,49.8 137.4,54.1 L131.4,54.1 Z M134.9,52.5 C134.9,50.9 134.4,50.1 133.3,50.1 C132.2,50.1 131.6,51.1 131.5,52.5 L134.9,52.5 Z" id="Shape"></path>
                <path d="M142.3,58.9 C141.2,58.9 140.1,58.6 139.2,58.1 L139.4,56.7 C140.5,57 141.2,57 141.9,57 C143.2,57 143.7,56.5 143.7,55.9 C143.7,55.2 143.4,54.9 141.9,54.4 C140,53.7 139.2,52.9 139.2,51.4 C139.2,49.6 140.7,48.3 142.9,48.3 C143.8,48.3 144.7,48.5 145.7,49 L145.4,50.3 C144.6,50.1 144,50 143.4,50 C142.4,50 141.9,50.5 141.9,51 C141.9,51.6 142.2,51.9 143.7,52.4 C145.7,53.1 146.4,54 146.4,55.5 C146.4,57.5 144.9,58.9 142.3,58.9 Z" id="Shape"></path>
            </g>
        </g>
    </g>
</svg>