<svg width="439" height="136" viewBox="0 0 439 136" fill="none" xmlns="http://www.w3.org/2000/svg">
<g clip-path="url(#clip0_513_2)">
<path d="M0.325439 22.6772V32.0556H9.697V22.6772H0.325439ZM11.0029 22.6772V32.0556H14.0755V22.6772H11.0029ZM16.6873 22.6772V32.0556H19.8367V22.6772H16.6873ZM23.2166 22.6772V32.0556H26.2893V22.6772H23.2166ZM30.4373 22.6772V32.0556H33.5868V22.6772H30.4373ZM38.503 22.6772V32.0556H41.6525V22.6772H38.503ZM46.7991 22.6772V32.0556H49.9486V22.6772H46.7991ZM55.4025 22.6772V32.0556H58.4752V22.6772H55.4025ZM63.9291 22.6772V32.0556H67.0786V22.6772H63.9291ZM72.2253 22.6772V32.0556H75.3747V22.6772H72.2253ZM80.2909 22.6772V32.0556H83.4404V22.6772H80.2909ZM87.5885 22.6772V32.0556H90.7379V22.6772H87.5885ZM94.041 22.6772V32.0556H97.1905V22.6772H94.041ZM99.8022 22.6772V32.0556H102.875V22.6772H99.8022ZM104.181 22.6772V32.0556H113.552V22.6772H104.181ZM0.325439 33.3624V36.4373H9.697V33.3624H0.325439ZM11.0029 33.3624V36.4373H14.0755V33.3624H11.0029ZM16.6873 33.3624V36.4373H19.8367V33.3624H16.6873ZM23.2166 33.3624V36.4373H26.2893V33.3624H23.2166ZM30.4373 33.3624V36.4373H33.5868V33.3624H30.4373ZM38.503 33.3624V36.4373H41.6525V33.3624H38.503ZM46.7991 33.3624V36.4373H49.9486V33.3624H46.7991ZM55.4025 33.3624V36.4373H58.4752V33.3624H55.4025ZM63.9291 33.3624V36.4373H67.0786V33.3624H63.9291ZM72.2253 33.3624V36.4373H75.3747V33.3624H72.2253ZM80.2909 33.3624V36.4373H83.4404V33.3624H80.2909ZM87.5885 33.3624V36.4373H90.7379V33.3624H87.5885ZM94.041 33.3624V36.4373H97.1905V33.3624H94.041ZM99.8022 33.3624V36.4373H102.875V33.3624H99.8022ZM104.181 33.3624V36.4373H113.552V33.3624H104.181ZM0.325439 39.0509V42.2027H9.697V39.0509H0.325439ZM11.0029 39.0509V42.2027H14.0755V39.0509H11.0029ZM16.6873 39.0509V42.2027H19.8367V39.0509H16.6873ZM23.2166 39.0509V42.2027H26.2893V39.0509H23.2166ZM30.4373 39.0509V42.2027H33.5868V39.0509H30.4373ZM38.503 39.0509V42.2027H41.6525V39.0509H38.503ZM46.7991 39.0509V42.2027H49.9486V39.0509H46.7991ZM55.4025 39.0509V42.2027H58.4752V39.0509H55.4025ZM63.9291 39.0509V42.2027H67.0786V39.0509H63.9291ZM72.2253 39.0509V42.2027H75.3747V39.0509H72.2253ZM80.2909 39.0509V42.2027H83.4404V39.0509H80.2909ZM87.5885 39.0509V42.2027H90.7379V39.0509H87.5885ZM94.041 39.0509V42.2027H97.1905V39.0509H94.041ZM99.8022 39.0509V42.2027H102.875V39.0509H99.8022ZM104.181 39.0509V42.2027H113.552V39.0509H104.181ZM0.325439 45.585V48.6599H9.697V45.585H0.325439ZM11.0029 45.585V48.6599H14.0755V45.585H11.0029ZM16.6873 45.585V48.6599H19.8367V45.585H16.6873ZM23.2166 45.585V48.6599H26.2893V45.585H23.2166ZM30.4373 45.585V48.6599H33.5868V45.585H30.4373ZM38.503 45.585V48.6599H41.6525V45.585H38.503ZM46.7991 45.585V48.6599H49.9486V45.585H46.7991ZM55.4025 45.585V48.6599H58.4752V45.585H55.4025ZM63.9291 45.585V48.6599H67.0786V45.585H63.9291ZM72.2253 45.585V48.6599H75.3747V45.585H72.2253ZM80.2909 45.585V48.6599H83.4404V45.585H80.2909ZM87.5885 45.585V48.6599H90.7379V45.585H87.5885ZM94.041 45.585V48.6599H97.1905V45.585H94.041ZM99.8022 45.585V48.6599H102.875V45.585H99.8022ZM104.181 45.585V48.6599H113.552V45.585H104.181ZM0.325439 52.811V55.9627H9.697V52.811H0.325439ZM11.0029 52.811V55.9627H14.0755V52.811H11.0029ZM16.6873 52.811V55.9627H19.8367V52.811H16.6873ZM23.2166 52.811V55.9627H26.2893V52.811H23.2166ZM30.4373 52.811V55.9627H33.5868V52.811H30.4373ZM38.503 52.811V55.9627H41.6525V52.811H38.503ZM46.7991 52.811V55.9627H49.9486V52.811H46.7991ZM55.4025 52.811V55.9627H58.4752V52.811H55.4025ZM63.9291 52.811V55.9627H67.0786V52.811H63.9291ZM72.2253 52.811V55.9627H75.3747V52.811H72.2253ZM80.2909 52.811V55.9627H83.4404V52.811H80.2909ZM87.5885 52.811V55.9627H90.7379V52.811H87.5885ZM94.041 52.811V55.9627H97.1905V52.811H94.041ZM99.8022 52.811V55.9627H102.875V52.811H99.8022ZM104.181 52.811V55.9627H113.552V52.811H104.181ZM0.325439 60.8825V64.0343H9.697V60.8825H0.325439ZM11.0029 60.8825V64.0343H14.0755V60.8825H11.0029ZM16.6873 60.8825V64.0343H19.8367V60.8825H16.6873ZM23.2166 60.8825V64.0343H26.2893V60.8825H23.2166ZM30.4373 60.8825V64.0343H33.5868V60.8825H30.4373ZM38.503 60.8825V64.0343H41.6525V60.8825H38.503ZM46.7991 60.8825V64.0343H49.9486V60.8825H46.7991ZM55.4025 60.8825V64.0343H58.4752V60.8825H55.4025ZM63.9291 60.8825V64.0343H67.0786V60.8825H63.9291ZM72.2253 60.8825V64.0343H75.3747V60.8825H72.2253ZM80.2909 60.8825V64.0343H83.4404V60.8825H80.2909ZM87.5885 60.8825V64.0343H90.7379V60.8825H87.5885ZM94.041 60.8825V64.0343H97.1905V60.8825H94.041ZM99.8022 60.8825V64.0343H102.875V60.8825H99.8022ZM104.181 60.8825V64.0343H113.552V60.8825H104.181ZM0.325439 69.1847V72.3364H9.697V69.1847H0.325439ZM11.0029 69.1847V72.3364H14.0755V69.1847H11.0029ZM16.6873 69.1847V72.3364H19.8367V69.1847H16.6873ZM23.2166 69.1847V72.3364H26.2893V69.1847H23.2166ZM30.4373 69.1847V72.3364H33.5868V69.1847H30.4373ZM38.503 69.1847V72.3364H41.6525V69.1847H38.503ZM46.7991 69.1847V72.3364H49.9486V69.1847H46.7991ZM55.4025 69.1847V72.3364H58.4752V69.1847H55.4025ZM63.9291 69.1847V72.3364H67.0786V69.1847H63.9291ZM72.2253 69.1847V72.3364H75.3747V69.1847H72.2253ZM80.2909 69.1847V72.3364H83.4404V69.1847H80.2909ZM87.5885 69.1847V72.3364H90.7379V69.1847H87.5885ZM94.041 69.1847V72.3364H97.1905V69.1847H94.041ZM99.8022 69.1847V72.3364H102.875V69.1847H99.8022ZM104.181 69.1847V72.3364H113.552V69.1847H104.181ZM0.325439 77.7943V80.8692H9.697V77.7943H0.325439ZM11.0029 77.7943V80.8692H14.0755V77.7943H11.0029ZM16.6873 77.7943V80.8692H19.8367V77.7943H16.6873ZM23.2166 77.7943V80.8692H26.2893V77.7943H23.2166ZM30.4373 77.7943V80.8692H33.5868V77.7943H30.4373ZM38.503 77.7943V80.8692H41.6525V77.7943H38.503ZM46.7991 77.7943V80.8692H49.9486V77.7943H46.7991ZM55.4025 77.7943V80.8692H58.4752V77.7943H55.4025ZM63.9291 77.7943V80.8692H67.0786V77.7943H63.9291ZM72.2253 77.7943V80.8692H75.3747V77.7943H72.2253ZM80.2909 77.7943V80.8692H83.4404V77.7943H80.2909ZM87.5885 77.7943V80.8692H90.7379V77.7943H87.5885ZM94.041 77.7943V80.8692H97.1905V77.7943H94.041ZM99.8022 77.7943V80.8692H102.875V77.7943H99.8022ZM104.181 77.7943V80.8692H113.552V77.7943H104.181ZM0.325439 86.3271V89.4788H9.697V86.3271H0.325439ZM11.0029 86.3271V89.4788H14.0755V86.3271H11.0029ZM16.6873 86.3271V89.4788H19.8367V86.3271H16.6873ZM23.2166 86.3271V89.4788H26.2893V86.3271H23.2166ZM30.4373 86.3271V89.4788H33.5868V86.3271H30.4373ZM38.503 86.3271V89.4788H41.6525V86.3271H38.503ZM46.7991 86.3271V89.4788H49.9486V86.3271H46.7991ZM55.4025 86.3271V89.4788H58.4752V86.3271H55.4025ZM63.9291 86.3271V89.4788H67.0786V86.3271H63.9291ZM72.2253 86.3271V89.4788H75.3747V86.3271H72.2253ZM80.2909 86.3271V89.4788H83.4404V86.3271H80.2909ZM87.5885 86.3271V89.4788H90.7379V86.3271H87.5885ZM94.041 86.3271V89.4788H97.1905V86.3271H94.041ZM99.8022 86.3271V89.4788H102.875V86.3271H99.8022ZM104.181 86.3271V89.4788H113.552V86.3271H104.181ZM0.325439 94.7061V97.781H9.697V94.7061H0.325439ZM11.0029 94.7061V97.781H14.0755V94.7061H11.0029ZM16.6873 94.7061V97.781H19.8367V94.7061H16.6873ZM23.2166 94.7061V97.781H26.2893V94.7061H23.2166ZM30.4373 94.7061V97.781H33.5868V94.7061H30.4373ZM38.503 94.7061V97.781H41.6525V94.7061H38.503ZM46.7991 94.7061V97.781H49.9486V94.7061H46.7991ZM55.4025 94.7061V97.781H58.4752V94.7061H55.4025ZM63.9291 94.7061V97.781H67.0786V94.7061H63.9291ZM72.2253 94.7061V97.781H75.3747V94.7061H72.2253ZM80.2909 94.7061V97.781H83.4404V94.7061H80.2909ZM87.5885 94.7061V97.781H90.7379V94.7061H87.5885ZM94.041 94.7061V97.781H97.1905V94.7061H94.041ZM99.8022 94.7061V97.781H102.875V94.7061H99.8022ZM104.181 94.7061V97.781H113.552V94.7061H104.181ZM0.325439 102.701V105.853H9.697V102.701H0.325439ZM11.0029 102.701V105.853H14.0755V102.701H11.0029ZM16.6873 102.701V105.853H19.8367V102.701H16.6873ZM23.2166 102.701V105.853H26.2893V102.701H23.2166ZM30.4373 102.701V105.853H33.5868V102.701H30.4373ZM38.503 102.701V105.853H41.6525V102.701H38.503ZM46.7991 102.701V105.853H49.9486V102.701H46.7991ZM55.4025 102.701V105.853H58.4752V102.701H55.4025ZM63.9291 102.701V105.853H67.0786V102.701H63.9291ZM72.2253 102.701V105.853H75.3747V102.701H72.2253ZM80.2909 102.701V105.853H83.4404V102.701H80.2909ZM87.5885 102.701V105.853H90.7379V102.701H87.5885ZM94.041 102.701V105.853H97.1905V102.701H94.041ZM99.8022 102.701V105.853H102.875V102.701H99.8022ZM104.181 102.701V105.853H113.552V102.701H104.181ZM0.325439 110.004V113.155H9.697V110.004H0.325439ZM11.0029 110.004V113.155H14.0755V110.004H11.0029ZM16.6873 110.004V113.155H19.8367V110.004H16.6873ZM23.2166 110.004V113.155H26.2893V110.004H23.2166ZM30.4373 110.004V113.155H33.5868V110.004H30.4373ZM38.503 110.004V113.155H41.6525V110.004H38.503ZM46.7991 110.004V113.155H49.9486V110.004H46.7991ZM55.4025 110.004V113.155H58.4752V110.004H55.4025ZM63.9291 110.004V113.155H67.0786V110.004H63.9291ZM72.2253 110.004V113.155H75.3747V110.004H72.2253ZM80.2909 110.004V113.155H83.4404V110.004H80.2909ZM87.5885 110.004V113.155H90.7379V110.004H87.5885ZM94.041 110.004V113.155H97.1905V110.004H94.041ZM99.8022 110.004V113.155H102.875V110.004H99.8022ZM104.181 110.004V113.155H113.552V110.004H104.181ZM0.325439 116.538V119.613H9.697V116.538H0.325439ZM11.0029 116.538V119.613H14.0755V116.538H11.0029ZM16.6873 116.538V119.613H19.8367V116.538H16.6873ZM23.2166 116.538V119.613H26.2893V116.538H23.2166ZM30.4373 116.538V119.613H33.5868V116.538H30.4373ZM38.503 116.538V119.613H41.6525V116.538H38.503ZM46.7991 116.538V119.613H49.9486V116.538H46.7991ZM55.4025 116.538V119.613H58.4752V116.538H55.4025ZM63.9291 116.538V119.613H67.0786V116.538H63.9291ZM72.2253 116.538V119.613H75.3747V116.538H72.2253ZM80.2909 116.538V119.613H83.4404V116.538H80.2909ZM87.5885 116.538V119.613H90.7379V116.538H87.5885ZM94.041 116.538V119.613H97.1905V116.538H94.041ZM99.8022 116.538V119.613H102.875V116.538H99.8022ZM104.181 116.538V119.613H113.552V116.538H104.181ZM0.325439 122.226V125.378H9.697V122.226H0.325439ZM11.0029 122.226V125.378H14.0755V122.226H11.0029ZM16.6873 122.226V125.378H19.8367V122.226H16.6873ZM23.2166 122.226V125.378H26.2893V122.226H23.2166ZM30.4373 122.226V125.378H33.5868V122.226H30.4373ZM38.503 122.226V125.378H41.6525V122.226H38.503ZM46.7991 122.226V125.378H49.9486V122.226H46.7991ZM55.4025 122.226V125.378H58.4752V122.226H55.4025ZM63.9291 122.226V125.378H67.0786V122.226H63.9291ZM72.2253 122.226V125.378H75.3747V122.226H72.2253ZM80.2909 122.226V125.378H83.4404V122.226H80.2909ZM87.5885 122.226V125.378H90.7379V122.226H87.5885ZM94.041 122.226V125.378H97.1905V122.226H94.041ZM99.8022 122.226V125.378H102.875V122.226H99.8022ZM104.181 122.226V125.378H113.552V122.226H104.181ZM0.325439 126.608V135.986H9.697V126.608H0.325439ZM11.0029 126.608V135.986H14.0755V126.608H11.0029ZM16.6873 126.608V135.986H19.8367V126.608H16.6873ZM23.2166 126.608V135.986H26.2893V126.608H23.2166ZM30.4373 126.608V135.986H33.5868V126.608H30.4373ZM38.503 126.608V135.986H41.6525V126.608H38.503ZM46.7991 126.608V135.986H49.9486V126.608H46.7991ZM55.4025 126.608V135.986H58.4752V126.608H55.4025ZM63.9291 126.608V135.986H67.0786V126.608H63.9291ZM72.2253 126.608V135.986H75.3747V126.608H72.2253ZM80.2909 126.608V135.986H83.4404V126.608H80.2909ZM87.5885 126.608V135.986H90.7379V126.608H87.5885ZM94.041 126.608V135.986H97.1905V126.608H94.041ZM99.8022 126.608V135.986H102.875V126.608H99.8022ZM104.181 126.608V135.986H113.552V126.608H104.181Z" fill="white"/>
<path d="M129.53 3.01211e-05C127.238 -0.0614673 124.906 0.0584527 122.924 0.307517V2.76741C123.821 2.82891 124.869 2.95191 125.612 3.0749V22.6772H129.53V15.2206C129.53 12.5209 131.125 10.224 133.14 10.224C134.628 10.224 135.061 11.2264 135.061 12.8376V22.6772H138.978V11.8383C138.978 9.14162 137.838 6.91849 134.369 6.91849C131.977 6.91849 130.208 8.05633 129.3 9.76275C129.518 8.86181 129.53 7.61649 129.53 6.68787V3.01211e-05ZM178.155 3.01211e-05C175.862 -0.0614673 173.53 0.0584527 171.548 0.307517V2.76741C172.446 2.82891 173.493 2.95191 174.237 3.0749V22.6772H178.155V15.2206C178.155 12.5209 179.752 10.224 181.765 10.224C183.252 10.224 183.685 11.2264 183.685 12.8376V22.6772H187.603V11.8383C187.603 9.14162 186.463 6.91849 182.994 6.91849C180.601 6.91849 178.83 8.05633 177.924 9.76275C178.139 8.86181 178.155 7.61649 178.155 6.68787V3.01211e-05ZM222.631 3.01211e-05C220.339 -0.0614673 217.933 0.0584527 215.948 0.307517V2.76741C216.848 2.82891 217.893 2.95191 218.637 3.0749V22.6772H222.631V15.2206C222.631 12.5209 224.149 10.224 226.165 10.224C227.652 10.224 228.085 11.2264 228.085 12.8376V22.6772H232.079V11.8383C232.079 9.14162 230.943 6.91849 227.47 6.91849C225.052 6.91849 223.301 8.10232 222.401 9.83962L222.324 9.76275C222.542 8.86181 222.631 7.61649 222.631 6.68787V3.01211e-05ZM260.348 3.01211e-05C258.052 -0.0614673 255.65 0.0584527 253.665 0.307517V2.76741C254.565 2.82891 255.607 2.95191 256.353 3.0749V22.6772H260.348V3.01211e-05ZM375.034 3.01211e-05C372.739 -0.0614673 370.336 0.0584527 368.351 0.307517V2.76741C369.251 2.82891 370.293 2.95191 371.04 3.0749V22.6772H375.034V15.2206C375.034 12.5209 376.552 10.224 378.568 10.224C380.055 10.224 380.488 11.2264 380.488 12.8376V22.6772H384.406V11.8383C384.406 9.14162 383.345 6.91849 379.873 6.91849C377.455 6.91849 375.701 8.10232 374.804 9.83962L374.727 9.76275C374.945 8.86181 375.034 7.61649 375.034 6.68787V3.01211e-05ZM408.679 0.461261C407.346 0.461261 406.221 1.54362 406.221 2.84429C406.221 4.17878 407.346 5.30418 408.679 5.30418C410.041 5.30418 411.138 4.17878 411.138 2.84429C411.138 1.51287 410.041 0.461261 408.679 0.461261ZM197.743 6.91849C193.404 6.91849 191.213 9.14162 191.213 11.8383C191.213 17.0809 197.435 15.565 197.435 18.2955C197.435 19.3194 196.418 19.9098 194.9 19.9098C193.724 19.9098 192.556 19.6977 191.597 19.4486L191.521 22.7541C192.513 22.9078 193.631 22.9847 194.747 22.9847C198.962 22.9847 201.583 20.9522 201.583 17.9112C201.583 12.9176 195.285 14.043 195.285 11.5308C195.285 10.5714 196.04 9.91649 197.589 9.91649C198.551 9.91649 199.565 10.1287 200.431 10.3777L200.508 7.22598C199.577 7.07223 198.64 6.91849 197.743 6.91849ZM270.948 6.91849C266.33 6.91849 263.728 10.43 263.728 15.1438C263.728 20.5709 266.438 22.9847 271.332 22.9847C273.256 22.9847 275.219 22.6342 276.863 21.9854L276.479 18.9105C275.146 19.5316 273.542 19.9098 272.024 19.9098C269.172 19.9098 267.691 18.4892 267.722 15.605H277.324C277.416 14.9531 277.401 14.3628 277.401 13.8369C277.401 10.021 275.444 6.91849 270.948 6.91849ZM297.527 6.91849C295.234 6.91849 293.385 8.17919 292.457 10.0702C292.58 9.17237 292.61 7.9701 292.61 7.22598C290.567 7.16448 288.186 7.28747 286.235 7.53346V9.99336C287.132 10.0549 288.18 10.1779 288.923 10.3008V22.6772H292.841V15.2975C292.841 12.4133 294.546 10.224 296.374 10.224C297.892 10.224 298.218 11.3955 298.218 12.9145V22.6772H302.059V15.2975C302.059 12.2872 303.856 10.224 305.592 10.224C307.049 10.224 307.436 11.2725 307.436 12.9145V22.6772H311.43V12.0689C311.43 8.56355 309.796 6.91849 306.821 6.91849C304.219 6.91849 302.464 8.55125 301.752 10.0702C301.38 8.582 300.255 6.91849 297.527 6.91849ZM321.493 6.91849C319.508 6.91849 317.514 7.36127 315.962 7.91782L316.347 11.2233C317.649 10.4761 319.484 9.99336 320.879 9.99336C323.109 9.99336 323.875 10.839 323.875 12.4533V13.2988C318.639 13.2988 314.964 15.2206 314.964 18.9105C314.964 21.3919 316.629 22.9847 319.419 22.9847C321.711 22.9847 323.589 21.8009 324.335 20.0636C324.209 20.8692 324.182 21.8531 324.182 22.7541C326.197 22.8156 328.603 22.6926 330.558 22.4466V19.9867C329.66 19.9252 328.61 19.8022 327.869 19.6792V12.2995C327.869 8.92023 326.452 6.91849 321.493 6.91849ZM342.925 6.91849C340.415 6.91849 338.629 8.24068 337.701 10.0702L337.625 9.99336C337.778 9.18775 337.855 7.9701 337.855 7.22598C335.778 7.16448 333.434 7.28747 331.479 7.53346V9.99336C332.38 10.0549 333.424 10.1779 334.168 10.3008V22.6772H338.086V15.2206C338.086 12.5209 339.68 10.224 341.696 10.224C343.152 10.224 343.539 11.2264 343.539 12.8376V22.6772H347.534V11.8383C347.534 9.14162 346.397 6.91849 342.925 6.91849ZM361.822 6.91849C359.337 6.91849 357.46 8.19434 356.521 9.99336C356.678 9.18775 356.752 7.9701 356.752 7.22598C354.675 7.16448 352.25 7.28747 350.299 7.53346V9.99336C351.196 10.0549 352.244 10.1779 352.988 10.3008V22.6772H356.982V15.2206C356.982 12.5209 358.503 10.224 360.516 10.224C361.972 10.224 362.436 11.2264 362.436 12.8376V22.6772H366.354V11.8383C366.354 9.14162 365.291 6.91849 361.822 6.91849ZM395.083 6.91849C390.468 6.91849 387.862 10.43 387.862 15.1438C387.862 20.5709 390.569 22.9847 395.467 22.9847C397.387 22.9847 399.354 22.6342 400.998 21.9854L400.614 18.9105C399.28 19.5316 397.679 19.9098 396.158 19.9098C393.307 19.9098 391.9 18.4892 391.934 15.605H401.459C401.548 14.9531 401.612 14.3628 401.612 13.8369C401.612 10.021 399.578 6.91849 395.083 6.91849ZM424.811 6.91849C422.519 6.91849 420.672 8.17919 419.741 10.0702H419.664C419.79 9.17237 419.895 7.9701 419.895 7.22598C417.851 7.16448 415.393 7.28747 413.442 7.53346V9.99336C414.342 10.0549 415.384 10.1779 416.131 10.3008V22.6772H420.048V15.2975C420.048 12.4133 421.757 10.224 423.582 10.224C425.103 10.224 425.425 11.3955 425.425 12.9145V22.6772H429.343V15.2975C429.343 12.2872 431.14 10.224 432.876 10.224C434.333 10.224 434.72 11.2725 434.72 12.9145V22.6772H438.638V12.0689C438.638 8.56355 437.006 6.91849 434.029 6.91849C431.426 6.91849 429.752 8.55125 429.036 10.0702C428.664 8.582 427.539 6.91849 424.811 6.91849ZM150.117 6.99536C145.437 6.99536 142.205 10.4115 142.205 15.2206C142.205 20.7093 145.056 22.9847 149.425 22.9847C154.044 22.9847 157.261 19.5224 157.261 14.6825C157.261 9.37839 154.486 6.99536 150.117 6.99536ZM167.631 6.99536C162.177 6.99536 159.642 10.7221 159.642 15.5281C159.642 20.7708 162.278 22.9847 166.555 22.9847C168.199 22.9847 169.726 22.6957 170.78 22.2928L170.473 18.9105C169.637 19.344 168.528 19.5255 167.477 19.5255C164.841 19.5255 163.79 17.7051 163.79 15.0669C163.79 12.1519 165.044 10.3008 167.554 10.3008C168.546 10.3008 169.48 10.5284 170.319 10.839L170.78 7.45659C169.788 7.17678 168.685 6.99536 167.631 6.99536ZM212.03 6.99536C206.576 6.99536 204.042 10.7221 204.042 15.5281C204.042 20.7708 206.755 22.9847 211.032 22.9847C212.673 22.9847 214.203 22.6957 215.257 22.2928L214.949 18.9105C214.114 19.344 212.931 19.5255 211.877 19.5255C209.244 19.5255 208.19 17.7051 208.19 15.0669C208.19 12.1519 209.52 10.3008 212.03 10.3008C213.023 10.3008 213.96 10.5284 214.796 10.839L215.18 7.45659C214.187 7.17678 213.084 6.99536 212.03 6.99536ZM241.451 7.22598C239.312 7.16448 236.888 7.28747 234.845 7.53346V9.99336C235.742 10.0549 236.713 10.1779 237.457 10.3008V18.0649C237.457 20.7616 238.563 23.0616 242.065 23.0616C244.576 23.0616 246.389 21.7394 247.289 19.9098L247.366 19.9867C247.209 20.8538 247.212 22.0407 247.212 22.7541C249.259 22.8156 251.634 22.6926 253.588 22.4466V19.9867C252.688 19.9252 251.643 19.8022 250.899 19.6792V7.30285H246.905V14.6825C246.905 17.3823 245.387 19.6792 243.371 19.6792C241.915 19.6792 241.451 18.7537 241.451 17.1424V7.22598ZM410.677 7.22598C408.384 7.16448 405.945 7.28747 403.994 7.53346V9.99336C404.891 10.0549 406.015 10.1779 406.759 10.3008V22.6772H410.677V7.22598ZM270.795 9.83962C272.469 9.83962 273.545 10.9927 273.483 12.9145H267.799C268.017 11.0542 269.151 9.83962 270.795 9.83962ZM395.006 9.83962C396.681 9.83962 397.679 10.9927 397.618 12.9145H391.934C392.149 11.0542 393.362 9.83962 395.006 9.83962ZM149.809 10.3008C152.135 10.3008 153.189 11.9336 153.189 14.9132C153.189 18.0434 151.687 19.6023 149.733 19.6023C147.44 19.6023 146.276 17.9973 146.276 14.8363C146.276 11.6722 148.043 10.3008 149.809 10.3008ZM323.875 15.8356V16.22C323.875 18.0833 322.526 19.9867 320.571 19.9867C319.425 19.9867 318.805 19.2887 318.805 18.2955C318.805 17.0563 319.693 15.8356 323.875 15.8356Z" fill="white"/>
</g>
<defs>
<clipPath id="clip0_513_2">
<rect width="439" height="136" fill="white"/>
</clipPath>
</defs>
</svg>
