<?xml version="1.0" encoding="UTF-8"?>
<svg width="400px" height="57px" viewBox="0 0 400 57" version="1.1" xmlns="http://www.w3.org/2000/svg" xmlns:xlink="http://www.w3.org/1999/xlink">
    <!-- Generator: Sketch 49.3 (51167) - http://www.bohemiancoding.com/sketch -->
    <title>hcu-vert</title>
    <desc>Created with Sketch.</desc>
    <defs>
        <polygon id="path-1" points="0.00784342359 0.110069378 69.078829 0.110069378 69.078829 27.1546715 0.00784342359 27.1546715"></polygon>
    </defs>
    <g id="Page-1" stroke="none" stroke-width="1" fill="none" fill-rule="evenodd">
        <g id="Group-3">
            <g id="Group-2" transform="translate(0.672269, 0.336134)">
                <g id="Group-5" transform="translate(0.000000, 0.336134)">
                    <mask id="mask-2" fill="white">
                        <use xlink:href="#path-1"></use>
                    </mask>
                    <g id="Clip-2"></g>
                    <path d="M15.8438464,15.2467004 C12.1072394,15.2467004 8.47795656,15.2467004 4.78187391,15.2467004 C4.78187391,19.0508916 4.78187391,22.8239705 4.78187391,26.6369201 C3.17828596,26.6369201 1.64136711,26.6369201 0.104317534,26.6370509 C-0.0134645438,26.1908908 -0.0441846196,1.36606294 0.0781727884,0.611002698 C1.60842473,0.611002698 3.14521286,0.611002698 4.75991233,0.611002698 C4.79743004,2.34845175 4.77180819,4.07557362 4.77651424,5.80178043 C4.78108957,7.53295474 4.77742931,9.26399832 4.77742931,11.0338669 C8.46671432,11.0338669 12.0948206,11.0338669 15.803322,11.0338669 C15.8450229,9.30177748 15.8162637,7.5751785 15.8214926,5.84936387 C15.8267216,4.11766666 15.8226691,2.38583873 15.8226691,0.613486448 C17.4156685,0.613486448 18.952718,0.613486448 20.4888525,0.613486448 C20.615916,1.06160738 20.6474204,25.8795069 20.5169581,26.6400575 C18.9864448,26.6400575 17.4493952,26.6400575 15.8438464,26.6400575 C15.8438464,22.8600502 15.8438464,19.0874942 15.8438464,15.2467004" id="Fill-1" fill="#FFFFFF" mask="url(#mask-2)"></path>
                    <path d="M48.7051767,0.594792956 C50.3290269,0.594792956 51.849736,0.594792956 53.4483564,0.594792956 C53.4572456,0.85349521 53.4725403,1.09507266 53.472671,1.3366501 C53.474109,6.08309789 53.4768542,10.8296764 53.4716253,15.5762549 C53.470318,16.8143393 53.5160713,18.0513779 53.89334,19.2362578 C54.1066811,19.9066091 54.3825082,20.5777447 54.7515413,21.1734527 C55.5945786,22.5342867 56.8831223,23.2020235 58.4694548,23.2672546 C58.98699,23.2886933 59.5164211,23.2506527 60.0272894,23.1633293 C61.5295665,22.9065879 62.616665,22.0592367 63.3293707,20.7223251 C63.9624658,19.5350922 64.1900558,18.2434111 64.2790786,16.9208792 C64.3113674,16.441646 64.3083607,15.9596676 64.3086222,15.4788657 C64.310583,10.7950346 64.3097987,6.11133421 64.3097987,1.42750309 C64.3097987,1.17821295 64.3097987,0.929053524 64.3097987,0.606819538 C65.8987456,0.537274516 67.4505669,0.586557361 69.0453964,0.572177751 C69.0584688,0.838984877 69.0770315,1.0418681 69.0771623,1.24475132 C69.078731,6.13760968 69.0797767,11.0305988 69.0775544,15.9234571 C69.0769008,17.607048 68.8529711,19.2584808 68.3031471,20.8550097 C67.1544777,24.1913407 64.8273339,26.1980806 61.3804107,26.8783669 C59.2815106,27.2924996 57.1784272,27.25825 55.1095935,26.6588817 C52.7232319,25.9677454 51.0055222,24.4827238 49.9448298,22.2359752 C49.173952,20.6033665 48.8544632,18.8634337 48.7396878,17.0797085 C48.6968104,16.4128868 48.7068761,15.742274 48.706484,15.0733607 C48.7040002,10.5150244 48.7051767,5.95668804 48.7051767,1.3983517 C48.7051767,1.15089169 48.7051767,0.903431674 48.7051767,0.594792956" id="Fill-3" fill="#FFFFFF" mask="url(#mask-2)"></path>
                    <path d="M44.8926193,1.29756371 C44.5418875,2.60898413 44.2191306,3.8159563 43.8808176,5.0809698 C43.654927,5.00397353 43.4643318,4.94057252 43.2747824,4.87429559 C41.0792774,4.10707804 38.8340974,3.85543487 36.5447328,4.32068061 C33.4497179,4.94946173 31.2963059,6.72769658 30.2607125,9.73525736 C29.3984588,12.2397932 29.3686538,14.7967493 30.1527348,17.3219395 C31.1977402,20.6878141 33.5838404,22.5165083 37.0209593,23.0122126 C39.2329355,23.3311785 41.3985048,23.0511683 43.5147912,22.3553259 C43.5941405,22.3294426 43.6717904,22.2972846 43.7525776,22.2780682 C43.790749,22.2690483 43.8344107,22.2836893 43.9272245,22.2924478 C44.1740309,23.4803343 44.423844,24.6829926 44.6889517,25.9587254 C44.4191379,26.0698406 44.1637038,26.1971655 43.8949358,26.2823974 C41.5735438,27.0174569 39.1890123,27.2263534 36.7694469,27.0973291 C35.4921454,27.029222 34.2356289,26.8224171 33.0134928,26.4306381 C29.0323017,25.1543823 26.3957349,22.5274891 25.2145153,18.5183231 C24.2871611,15.3707572 24.3058546,12.1869808 25.3156954,9.06307596 C26.627508,5.00449642 29.3800268,2.29459357 33.4112851,0.949446425 C36.756636,-0.166672751 40.1544071,-0.121834513 43.5448576,0.800290654 C43.9825207,0.919249245 44.3997908,1.1135047 44.8926193,1.29756371" id="Fill-4" fill="#FFFFFF" mask="url(#mask-2)"></path>
                </g>
                <path d="M80.7411175,55.4814156 C80.4850297,55.4814156 80.22136,55.4814156 79.9599125,55.4814156 C79.838078,55.0267585 79.8095802,2.03397421 79.9344214,1.29002549 C80.1905092,1.29002549 80.4533946,1.29002549 80.7145806,1.29002549 C80.8421669,1.74154524 80.8726256,54.7574676 80.7411175,55.4814156" id="Fill-6" fill="#FFFFFF"></path>
                <path d="M101.006563,11.7509303 C100.399351,11.7509303 99.8245593,11.7509303 99.1772154,11.7509303 C99.1772154,10.2415941 99.1772154,8.74885987 99.1772154,7.21037233 C97.6966384,7.21037233 96.286783,7.21037233 94.8369262,7.21037233 C94.6868554,7.6730036 94.7850289,8.17289113 94.7689499,8.66284366 C94.7516943,9.18469278 94.7650281,9.70758768 94.7650281,10.2300904 C94.7650281,10.7256641 94.7650281,11.221107 94.7650281,11.7498845 C94.1155927,11.7498845 93.5409312,11.7498845 92.9707143,11.7498845 C92.8410363,11.2668603 92.8154145,2.1297947 92.9430008,1.40349368 C93.5134792,1.40349368 94.0907552,1.40349368 94.7514329,1.40349368 C94.7514329,2.75151675 94.7514329,4.09640245 94.7514329,5.47462269 C96.2449515,5.47462269 97.6554605,5.47462269 99.1274096,5.47462269 C99.1274096,4.129737 99.1274096,2.80158394 99.1274096,1.42153355 C99.7777602,1.42153355 100.369546,1.42153355 101.006563,1.42153355 C101.006563,4.83590657 101.006563,8.2536784 101.006563,11.7509303" id="Fill-7" fill="#FFFFFF"></path>
                <path d="M162.58502,1.40153282 C163.203344,1.40153282 163.779835,1.40153282 164.430839,1.40153282 C164.430839,1.65657482 164.430839,1.87985094 164.430839,2.10338851 C164.430839,3.8184838 164.409924,5.53397127 164.442604,7.24841294 C164.45437,7.84686616 164.517117,8.46754241 164.694901,9.03475266 C165.051777,10.172572 166.097567,10.6597793 167.244014,10.3273489 C167.959073,10.120021 168.39569,9.62261726 168.561709,8.94050085 C168.70812,8.33760303 168.776096,7.70398513 168.786554,7.08226308 C168.81662,5.43043807 168.797012,3.777698 168.797012,2.1253501 C168.797012,1.8994595 168.797012,1.6735689 168.797012,1.40924552 C169.446709,1.40924552 170.038887,1.40924552 170.665054,1.40924552 C170.676819,1.62690053 170.693813,1.81030592 170.69512,1.99358058 C170.696428,3.81325485 170.727801,5.63384419 170.679433,7.45221123 C170.661132,8.15236751 170.539559,8.87200162 170.329094,9.54013059 C169.942152,10.7689336 169.059767,11.5288306 167.798283,11.8215211 C166.951193,12.0181295 166.098874,12.0220513 165.250477,11.8207367 C164.130175,11.5547139 163.330146,10.8826633 162.948432,9.80393107 C162.735353,9.20181758 162.577177,8.54832968 162.562797,7.91418888 C162.51443,5.82378577 162.543189,3.73155253 162.544496,1.6399729 C162.544496,1.57983999 162.564105,1.51970707 162.58502,1.40153282" id="Fill-9" fill="#FFFFFF"></path>
                <path d="M140.337149,1.65918929 C140.198582,2.16522083 140.074395,2.62170809 139.941056,3.111007 C139.547578,3.01675519 139.193317,2.87858021 138.831212,2.85622645 C138.211582,2.81818585 137.572343,2.76733432 136.968399,2.87361271 C135.602336,3.11362147 134.757861,3.97744386 134.397063,5.31082587 C134.168297,6.15556259 134.166989,7.0057897 134.390527,7.85091859 C134.83368,9.51947624 136.180135,10.4538894 138.037719,10.3465653 C138.657349,10.3108777 139.273058,10.1788467 139.950207,10.0822419 C140.045635,10.5123229 140.1476,10.9739084 140.26133,11.4849075 C140.061322,11.5634724 139.897918,11.6462205 139.725362,11.6926275 C138.535776,12.012247 137.327889,12.0692425 136.125231,11.820606 C134.130387,11.4085648 132.874132,10.1981938 132.385225,8.21642213 C132.104169,7.0757269 132.132928,5.93071778 132.481961,4.81106906 C133.017928,3.08564659 134.183984,1.96259906 135.901693,1.4349981 C137.127882,1.05864449 138.373679,1.06086679 139.614247,1.38466946 C139.84955,1.44610962 140.07178,1.55683261 140.337149,1.65918929" id="Fill-11" fill="#FFFFFF"></path>
                <path d="M151.391148,15.1450411 C151.235586,14.5684187 151.10617,14.0898392 150.970217,13.5821082 C151.148002,13.494654 151.29049,13.4205337 151.436901,13.3537339 C152.017314,13.0875804 152.502299,12.7092659 152.886627,12.1908156 C153.189906,11.7821732 153.236967,11.3920936 153.035652,10.9090695 C152.206864,8.92376822 151.408142,6.92539461 150.601576,4.93107344 C150.525757,4.74453068 150.464316,4.55262825 150.38196,4.32386173 C151.114013,4.32386173 151.775475,4.32386173 152.476155,4.32386173 C153.059182,6.0515065 153.638289,7.76738613 154.269684,9.64366378 C154.826567,7.78424949 155.341619,6.06235657 155.860592,4.3269991 C156.52859,4.3269991 157.149528,4.3269991 157.813604,4.3269991 C157.800532,4.44948723 157.81099,4.57210609 157.770465,4.67590073 C156.950828,6.84421518 156.146877,9.01958871 155.286715,11.1722163 C154.995201,11.9041385 154.592572,12.599458 154.178177,13.2733388 C153.719337,14.0204249 153.048724,14.5574379 152.234316,14.8947051 C151.989862,14.996016 151.724493,15.0477826 151.391148,15.1450411" id="Fill-13" fill="#FFFFFF"></path>
                <path d="M107.170579,8.02687273 C106.623762,8.10413045 106.164137,8.13628849 105.722814,8.24335122 C105.447902,8.31002032 105.173121,8.45420859 104.946838,8.62715608 C104.555451,8.92625197 104.500155,9.36835961 104.594145,9.82249384 C104.672579,10.2017234 104.917817,10.4482683 105.2977,10.5442195 C106.14832,10.7592601 107.047568,10.1831606 107.161951,9.31607012 C107.212934,8.93017368 107.170579,8.53198921 107.170579,8.02687273 Z M103.16442,4.74270055 C103.632019,4.57511273 104.028373,4.36020293 104.44695,4.29954712 C105.144884,4.19836695 105.862035,4.12176285 106.562452,4.1677776 C107.897664,4.25549322 108.785409,5.15199654 108.974305,6.47727368 C108.997835,6.64263919 109.02398,6.80970411 109.024372,6.97611542 C109.028294,8.54244711 109.026725,10.1085174 109.026725,11.7304066 C108.560042,11.7304066 108.031918,11.7304066 107.469283,11.7304066 C107.411895,11.5352361 107.348756,11.3200648 107.271629,11.0566565 C107.108224,11.1821513 106.966911,11.2950966 106.820893,11.4018979 C106.040995,11.972507 105.167499,12.089374 104.256747,11.8557707 C103.438809,11.6460898 102.902842,11.0831935 102.730025,10.2669545 C102.532893,9.33567868 102.717606,8.47237919 103.478026,7.81470812 C104.136481,7.24501412 104.939125,7.02369885 105.778241,6.91245296 C106.190935,6.85767972 106.607421,6.83323438 107.01907,6.79545523 C107.146526,6.11739126 106.815272,5.65214552 106.102043,5.52978811 C105.449601,5.41775787 104.810754,5.50573494 104.189294,5.72391284 C104.012425,5.78600661 103.840392,5.86169565 103.588749,5.96183002 C103.45894,5.58913668 103.333315,5.22807775 103.16442,4.74270055 Z" id="Fill-15" fill="#FFFFFF"></path>
                <path d="M226.644875,8.09772499 C225.970341,8.06242958 225.354632,8.12164743 224.779448,8.39616726 C224.596434,8.48362143 224.416036,8.61526022 224.287926,8.77069073 C223.791176,9.37228132 224.040859,10.3281332 224.732387,10.534546 C225.559868,10.7813524 226.502386,10.2227699 226.634417,9.36286922 C226.695858,8.96010941 226.644875,8.53996336 226.644875,8.09772499 Z M226.563827,6.78839615 C226.545525,6.01333517 226.247475,5.63894242 225.570326,5.52730436 C224.916708,5.41998018 224.278776,5.50743435 223.657838,5.72914179 C223.481361,5.79215063 223.308806,5.86574808 223.06566,5.96143785 C222.93755,5.58403845 222.813363,5.21971143 222.665645,4.79028399 C222.944087,4.65982171 223.193769,4.51837864 223.459138,4.42295031 C224.323222,4.11300436 225.219987,4.06006125 226.120673,4.16516313 C227.423989,4.31693337 228.275,5.18389313 228.458013,6.49113039 C228.477622,6.63597228 228.503767,6.78199068 228.503767,6.92748619 C228.507688,8.51447223 228.506381,10.1013275 228.506381,11.7372043 C228.051463,11.7372043 227.540333,11.7372043 226.965148,11.7372043 C226.905015,11.5524916 226.83181,11.3271239 226.742918,11.0524734 C226.60958,11.1583596 226.497157,11.24333 226.388657,11.3319607 C225.635688,11.9491074 224.757225,12.0816613 223.844773,11.8871444 C222.974153,11.7017781 222.389818,11.1260708 222.209419,10.2533592 C222.010719,9.29476215 222.21857,8.41878246 223.017292,7.76516383 C223.672218,7.22998089 224.455253,7.01637832 225.273583,6.91075355 C225.685363,6.85767972 226.101065,6.83140425 226.563827,6.78839615 Z" id="Fill-16" fill="#FFFFFF"></path>
                <path d="M123.80099,11.7407338 C123.80099,9.23279911 123.80099,6.79702391 123.80099,4.32935213 C124.329245,4.32935213 124.822465,4.32935213 125.35791,4.32935213 C125.412814,4.63053959 125.467195,4.92767462 125.532949,5.28834138 C125.694915,5.1352639 125.810867,5.02558669 125.926689,4.91564804 C126.724888,4.15810405 127.680217,3.97417576 128.716594,4.21444597 C129.551658,4.40804781 130.102397,4.97133635 130.39195,5.76496009 C130.519536,6.11425389 130.627645,6.49309125 130.633527,6.86016347 C130.65941,8.46610445 130.644639,10.0728298 130.644639,11.7522375 C130.032852,11.8109324 129.442503,11.7956378 128.806663,11.7565514 C128.78993,11.5479163 128.763786,11.3672561 128.763001,11.1865959 C128.75908,10.1211976 128.7664,9.05579918 128.757642,7.99040081 C128.755027,7.65731676 128.73568,7.32135678 128.68692,6.99219444 C128.563648,6.15843851 128.080362,5.69240842 127.349486,5.67162335 C126.6441,5.65136117 125.959892,6.16458252 125.789167,6.88395519 C125.717923,7.18488121 125.704589,7.50450072 125.702105,7.81601536 C125.692301,8.98586199 125.698968,10.1557086 125.696223,11.3255552 C125.695831,11.4490892 125.674261,11.5726231 125.655568,11.7697545 C125.040643,11.7883172 124.434608,11.8143313 123.80099,11.7407338" id="Fill-17" fill="#FFFFFF"></path>
                <path d="M174.722718,11.7649177 C174.05472,11.7649177 173.49653,11.7649177 172.846833,11.7649177 C172.846833,9.29515432 172.846833,6.84473807 172.846833,4.34530042 C173.303059,4.34530042 173.814188,4.34530042 174.385451,4.34530042 C174.42859,4.62805584 174.475651,4.9297662 174.530554,5.2917402 C174.64167,5.19291306 174.734483,5.12336804 174.812918,5.03983558 C175.564579,4.23248585 176.507097,4.00097413 177.556809,4.17130714 C178.65881,4.34987575 179.443152,5.28428895 179.613093,6.5622441 C179.640545,6.76865686 179.647081,6.97899134 179.647081,7.18749568 C179.649696,8.54558448 179.649696,9.90367327 179.647081,11.2616313 C179.647081,11.4060811 179.630087,11.5505308 179.618322,11.7398187 C179.014378,11.7398187 178.423507,11.7398187 177.78819,11.7398187 C177.777732,11.5141896 177.758123,11.3111756 177.758123,11.108031 C177.754202,9.9798852 177.764659,8.851478 177.751587,7.72346296 C177.747665,7.39247049 177.713677,7.05507255 177.640472,6.73296929 C177.381639,5.60416991 176.133227,5.39043661 175.359343,6.02144004 C174.908346,6.38955806 174.718797,6.87676538 174.721411,7.45600222 C174.727947,8.66768044 174.722718,9.87948938 174.722718,11.0912983 C174.722718,11.2952273 174.722718,11.4992871 174.722718,11.7649177" id="Fill-19" fill="#FFFFFF"></path>
                <path d="M194.698611,7.15272317 C195.782311,7.15272317 196.833329,7.15272317 197.884348,7.15272317 C197.90265,6.15164087 197.396749,5.51318619 196.54443,5.42913084 C195.616292,5.33775495 194.910383,5.96797404 194.698611,7.15272317 Z M199.664805,8.54140132 C197.977162,8.54140132 196.352266,8.54140132 194.731292,8.54140132 C194.711683,9.39816462 195.132614,10.0030233 195.928721,10.2825106 C196.62025,10.524611 197.328772,10.4699685 198.03468,10.3655202 C198.358875,10.3174139 198.679148,10.2330971 199.041253,10.1563622 C199.137989,10.5779463 199.225574,10.9587445 199.322309,11.3850345 C199.166748,11.457194 199.026874,11.5422952 198.875234,11.5879178 C197.903957,11.8793009 196.9183,12.0072795 195.907805,11.8432212 C194.170487,11.5607272 193.149535,10.5580762 192.868479,8.82154226 C192.707689,7.82412023 192.859328,6.86212433 193.333855,5.96627463 C194.36788,4.01077841 196.513056,3.83913815 197.860818,4.37196806 C198.425544,4.59511346 198.853011,4.98806898 199.164133,5.50076744 C199.718402,6.41596425 199.820367,7.41103325 199.664805,8.54140132 Z" id="Fill-20" fill="#FFFFFF"></path>
                <path d="M120.382695,7.15324607 C120.38178,6.08575612 119.828427,5.44612492 118.934407,5.42259465 C118.009275,5.39841076 117.313172,6.09438388 117.231992,7.15324607 C118.269023,7.15324607 119.303963,7.15324607 120.382695,7.15324607 Z M122.102235,8.53486513 C120.494595,8.53486513 118.870353,8.53486513 117.249771,8.53486513 C117.197612,9.39372001 117.63253,10.0147884 118.466286,10.2937529 C119.159383,10.5256568 119.867644,10.4691841 120.572637,10.3572846 C120.877354,10.3089168 121.177365,10.2311362 121.541169,10.1534863 C121.636597,10.5797764 121.725097,10.974562 121.819872,11.3978455 C121.622741,11.4820315 121.479075,11.5619037 121.325213,11.6060884 C120.309882,11.8972101 119.280433,12.0199597 118.232029,11.8158999 C116.756681,11.5288306 115.782266,10.6778192 115.44892,9.19933383 C115.168387,7.95432106 115.309961,6.74865613 116.022405,5.65109973 C117.131988,3.94136411 119.252981,3.86894316 120.46845,4.41536834 C120.54427,4.44948723 120.617606,4.49040376 120.689504,4.53262752 C121.888371,5.23762058 122.575324,7.14069659 122.102235,8.53486513 Z" id="Fill-21" fill="#FFFFFF"></path>
                <path d="M111.241054,5.78299997 C110.880126,5.75646305 110.594103,5.73541653 110.261934,5.71097119 C110.261934,5.24781703 110.261934,4.80427143 110.261934,4.32124726 C110.562337,4.30085435 110.84823,4.28137652 111.174516,4.25928421 C111.195432,4.12529239 111.2204,3.98881682 111.237525,3.85129546 C111.273605,3.56187313 111.285893,3.26787547 111.342496,2.9826363 C111.651919,1.42558599 112.76843,0.566338936 114.349534,0.661244362 C114.515422,0.671310088 114.680526,0.704121744 114.844454,0.73484182 C114.984459,0.761117289 115.122111,0.799550064 115.321203,0.846872053 C115.284601,1.3193076 115.249828,1.76729781 115.212311,2.25215211 C114.599608,2.25058343 113.952265,2.01632651 113.504274,2.5892886 C113.134849,3.06172415 113.099684,3.62082953 113.150405,4.27235658 C113.669248,4.27235658 114.179201,4.27235658 114.72445,4.27235658 C114.72445,4.78008754 114.72445,5.21003787 114.72445,5.72927251 C114.215934,5.72927251 113.708988,5.72927251 113.147006,5.72927251 C113.147006,7.77392232 113.147006,9.73164085 113.147006,11.7370735 C112.500578,11.7370735 111.909837,11.7370735 111.241054,11.7370735 C111.241054,9.74719697 111.241054,7.77405304 111.241054,5.78299997" id="Fill-27" fill="#FFFFFF"></path>
                <path d="M189.463126,11.7676629 C188.797742,11.7676629 188.214714,11.7676629 187.568939,11.7676629 C186.648644,9.31855387 185.725734,6.86434663 184.779295,4.34438536 C185.502197,4.34438536 186.153201,4.34438536 186.861724,4.34438536 C187.430372,6.12262021 188.001634,7.90726052 188.599042,9.77334172 C189.183377,7.91902566 189.748103,6.12994074 190.316752,4.32595331 C190.975599,4.32595331 191.599151,4.32595331 192.322054,4.32595331 C191.392608,6.83009701 190.420023,9.27946748 189.463126,11.7676629" id="Fill-29" fill="#FFFFFF"></path>
                <path d="M149.617227,4.28882777 C149.617227,4.78492431 149.617227,5.21500537 149.617227,5.71384711 C149.057729,5.71384711 148.504768,5.71384711 148.005403,5.71384711 C147.926969,5.81411221 147.878601,5.84640097 147.878601,5.87895118 C147.873372,7.04775202 147.847227,8.21746792 147.879908,9.3853537 C147.902131,10.1278645 148.276001,10.4231694 149.018512,10.3984626 C149.162308,10.3937565 149.306104,10.3744094 149.486503,10.3585918 C149.676052,10.7992615 149.570166,11.2539186 149.598925,11.7518453 C148.728305,12.0134235 147.882523,12.0976096 147.044584,11.7016474 C146.56352,11.473796 146.262856,11.0663301 146.139976,10.5601678 C146.047162,10.178716 145.997487,9.77909356 145.989643,9.38613804 C145.968727,8.40505647 145.983107,7.42319056 145.983107,6.44171682 C145.983107,6.23700347 145.983107,6.03242084 145.983107,5.78966688 C145.604008,5.75881608 145.281121,5.73254061 144.922938,5.70325849 C144.922938,5.24402604 144.922938,4.81616728 144.922938,4.32242377 C145.247132,4.3016387 145.57002,4.2807229 145.955655,4.25588539 C145.955655,3.8140392 145.955655,3.38448103 145.955655,2.89884239 C146.589665,2.71975088 147.180536,2.55281668 147.857685,2.36143715 C147.857685,3.03701737 147.857685,3.63102598 147.857685,4.28882777 C148.477316,4.28882777 149.031584,4.28882777 149.617227,4.28882777" id="Fill-30" fill="#FFFFFF"></path>
                <path d="M219.425004,4.28490606 C220.081237,4.28490606 220.622433,4.28490606 221.218533,4.28490606 C221.218533,4.76230911 221.218533,5.20572399 221.218533,5.73227916 C220.6525,5.73227916 220.07993,5.73227916 219.434155,5.73227916 C219.434155,6.07817414 219.434155,6.34367403 219.434155,6.60904319 C219.434155,7.3605739 219.434155,8.1121046 219.435462,8.86350458 C219.435462,8.96795284 219.438076,9.07240109 219.447227,9.17632646 C219.526968,10.1864287 219.842013,10.4565039 220.845971,10.3780697 C220.928327,10.3716642 221.010683,10.3683961 221.140099,10.3609449 C221.140099,10.8254063 221.140099,11.274573 221.140099,11.7697545 C220.426348,12.0142078 219.69168,12.042052 218.957013,11.8302796 C218.219731,11.6174613 217.824945,11.0678988 217.682457,10.3440815 C217.60533,9.95805434 217.577878,9.55738612 217.573956,9.16286191 C217.559576,8.0586386 217.568727,6.95441528 217.568727,5.7920199 C217.215773,5.76234562 216.8955,5.73567798 216.542546,5.70600369 C216.542546,5.245464 216.542546,4.81499077 216.542546,4.31902495 C216.860204,4.29980856 217.181785,4.28046145 217.547811,4.25823842 C217.547811,3.80933314 217.547811,3.39820702 217.547811,2.91230693 C218.160905,2.7336076 218.749162,2.56196734 219.425004,2.36496669 C219.425004,3.02433717 219.425004,3.6162542 219.425004,4.28490606" id="Fill-31" fill="#FFFFFF"></path>
                <path d="M229.727341,4.31092008 C230.059379,4.29497179 230.363965,4.28059218 230.729992,4.2630752 C230.729992,3.80214334 230.729992,3.37310807 230.729992,2.90171831 C231.353544,2.72432621 231.930036,2.56066011 232.591498,2.37228722 C232.591498,3.01832387 232.591498,3.60775716 232.591498,4.27444816 C233.234658,4.27444816 233.805921,4.27444816 234.413786,4.27444816 C234.413786,4.78204839 234.413786,5.21147583 234.413786,5.72208271 C233.841216,5.72208271 233.268646,5.72208271 232.612413,5.72208271 C232.612413,6.02483886 232.612413,6.24733064 232.612413,6.4696917 C232.612413,7.263054 232.612413,8.05615485 232.612413,8.84951714 C232.612413,8.93291888 232.615028,9.01658206 232.620257,9.09985308 C232.684311,10.1869516 232.998048,10.4605563 234.072597,10.3721871 C234.134038,10.3670889 234.195478,10.3715335 234.311822,10.3715335 C234.311822,10.8191315 234.311822,11.2652916 234.311822,11.7800816 C233.527479,12.0105476 232.715685,12.0829685 231.914349,11.7476622 C231.282953,11.4834695 230.966602,10.9465872 230.84895,10.2967595 C230.786203,9.9495573 230.756136,9.59268153 230.750908,9.23946602 C230.737835,8.30021604 230.748293,7.36070462 230.745679,6.42132392 C230.744371,6.2179178 230.72607,6.01438096 230.714305,5.7793397 C230.374423,5.75659377 230.069837,5.73633159 229.727341,5.71345494 C229.727341,5.23971216 229.727341,4.79590511 229.727341,4.31092008" id="Fill-32" fill="#FFFFFF"></path>
                <path d="M206.318643,11.3577133 C206.446752,10.8959971 206.561789,10.48108 206.678133,10.0653785 C207.231095,10.2209398 207.721309,10.4085283 208.227209,10.4836944 C208.584085,10.5367683 208.986714,10.5060482 209.32921,10.3914035 C209.926618,10.1913962 210.028582,9.47672958 209.526603,9.09410123 C209.266463,8.89644696 208.935732,8.79278304 208.636375,8.64676464 C208.224595,8.44610372 207.780134,8.29354913 207.407572,8.03602339 C206.276811,7.25377261 206.199684,5.78770602 207.212793,4.85499223 C207.335674,4.7424391 207.467705,4.63341551 207.614115,4.55654996 C208.855991,3.90306205 210.095251,4.02646525 211.401182,4.54360831 C211.262614,5.00820044 211.141041,5.41775787 211.026004,5.80600734 C210.504417,5.69280059 210.045576,5.56599858 209.577586,5.50298974 C209.339668,5.47096243 209.067763,5.50678073 208.842918,5.5942349 C208.267734,5.81855682 208.1893,6.47949598 208.699122,6.8266982 C208.972335,7.01193372 209.29653,7.12056513 209.599809,7.25887084 C209.940997,7.41482424 210.300488,7.53796599 210.624683,7.72372441 C211.385495,8.16034166 211.720147,8.83513753 211.669165,9.71255518 C211.618183,10.5691878 211.181566,11.1630657 210.435133,11.5364126 C209.803738,11.8521104 209.118745,11.9419176 208.421988,11.9071451 C207.712158,11.871719 207.014093,11.7668785 206.318643,11.3577133" id="Fill-33" fill="#FFFFFF"></path>
                <path d="M110.562468,27.1833891 C110.296445,27.1833891 110.100098,27.1833891 109.830545,27.1833891 C109.830545,24.7136257 109.830545,22.2595492 109.830545,19.7663863 C109.991205,19.7567127 110.171734,19.7458626 110.415796,19.7310909 C110.448477,20.1032613 110.478674,20.4473262 110.51593,20.8703481 C110.656719,20.721846 110.773848,20.6205351 110.864439,20.4993542 C111.781074,19.2734271 114.163514,19.0762957 114.992695,20.8927019 C115.009558,20.929566 115.039755,20.9604168 115.098712,21.0432956 C115.204206,20.9104803 115.304079,20.7943976 115.393624,20.670733 C116.066852,19.7399801 116.995251,19.4288576 118.092677,19.6083413 C118.769565,19.719195 119.310238,20.1075752 119.591425,20.7302123 C119.802021,21.196896 119.984772,21.7187451 120.001897,22.2221622 C120.055755,23.8090175 120.026212,25.398618 120.02595,26.9871727 C120.02595,27.0454755 119.993008,27.1037783 119.967517,27.1882258 C119.76751,27.1882258 119.570901,27.1882258 119.297558,27.1882258 C119.297558,26.9318766 119.298604,26.7078161 119.297558,26.4836249 C119.291152,25.1459291 119.303963,23.8077103 119.265923,22.4709294 C119.254419,22.0629407 119.159121,21.6357356 119.004214,21.2575518 C118.587466,20.2402598 117.451216,19.8708345 116.49654,20.4245802 C115.706577,20.8827669 115.333099,21.5945576 115.333491,22.5059634 C115.333753,23.8228742 115.332315,25.139785 115.331661,26.4568266 C115.331661,26.6831094 115.331661,26.9093921 115.331661,27.1826047 C115.077534,27.1980301 114.881187,27.209926 114.62876,27.2252206 C114.616341,26.9803751 114.597517,26.7777533 114.596994,26.5751316 C114.594249,25.3418839 114.605752,24.1085056 114.589935,22.8752579 C114.584706,22.4596872 114.560391,22.03392 114.464179,21.6320753 C114.121029,20.1989511 112.606072,19.713051 111.477534,20.6647197 C110.868623,21.1780718 110.564036,21.843717 110.565213,22.6466221 C110.567304,23.9218321 110.563644,25.1969113 110.562468,26.4719905 C110.562337,26.6969661 110.562468,26.9216802 110.562468,27.1833891" id="Fill-37" fill="#FFFFFF"></path>
                <path d="M148.890403,23.3361898 C148.908704,23.3346211 148.927005,23.3331831 148.945307,23.3316145 C148.894324,22.8360408 148.920469,22.3158911 148.774059,21.8499917 C148.491695,20.9485209 147.853764,20.3566039 146.892944,20.220259 C145.851076,20.0724105 144.95954,20.4023572 144.413115,21.3218679 C143.631387,22.6404781 143.597399,24.0291563 144.330759,25.3826697 C144.857576,26.3572151 145.942583,26.7790606 147.011903,26.5166981 C148.068151,26.2576036 148.821119,25.3646299 148.886481,24.2760934 C148.90609,23.9639251 148.890403,23.6495346 148.890403,23.3361898 Z M148.972759,20.7895609 C149.000211,20.4052331 149.022434,20.0977709 149.047271,19.7649483 C149.26558,19.7649483 149.444671,19.7649483 149.61069,19.7649483 C149.643371,19.8210288 149.682589,19.8560627 149.682589,19.8908353 C149.670823,22.1042494 149.673438,24.317925 149.630299,26.5306855 C149.619841,27.1292694 149.523106,27.7383113 149.375388,28.319509 C149.117862,29.3286961 148.44202,29.9752557 147.443291,30.2717371 C146.162199,30.6516202 144.937317,30.5300472 143.733352,29.8697616 C143.776491,29.7365542 143.798714,29.6399493 143.837931,29.5505343 C143.877148,29.4594199 143.933359,29.3753645 143.956889,29.3332715 C144.555604,29.5039966 145.102029,29.7259655 145.666756,29.8012624 C146.151741,29.8657092 146.673328,29.8260999 147.151777,29.7175992 C147.916511,29.544521 148.41849,29.0256785 148.679938,28.280684 C148.938771,27.5409184 148.927005,26.7842895 148.862951,25.9217744 C148.745299,26.0489686 148.694317,26.1043954 148.643335,26.1602144 C147.128247,27.8209287 144.564755,27.5098062 143.558182,25.5034584 C142.822207,24.0372611 142.895413,22.5398208 143.718972,21.1274817 C144.505929,19.7789357 146.085072,19.2217912 147.517804,19.7279535 C147.788402,19.8235125 148.047235,19.97659 148.28123,20.1457465 C148.511304,20.31255 148.702161,20.5334731 148.972759,20.7895609 Z" id="Fill-38" fill="#FFFFFF"></path>
                <path d="M128.420113,23.7640485 C128.387563,22.6542041 128.237623,21.8824112 127.761004,21.2107527 C127.327132,20.5993578 126.742274,20.2355537 125.978324,20.1979053 C124.58128,20.1290139 123.385942,21.1676139 123.267637,22.5905417 C123.2194,23.170955 123.229597,23.7585581 123.248944,24.3418474 C123.287769,25.5188838 124.098387,26.4966973 125.192544,26.7219343 C126.402392,26.9712244 127.531322,26.4291132 128.011863,25.2790058 C128.248734,24.7121877 128.337365,24.0835373 128.420113,23.7640485 Z M122.502773,16.2539705 C122.767227,16.2539705 122.963705,16.2539705 123.221623,16.2539705 C123.221623,17.8013472 123.221623,19.3187882 123.221623,20.979241 C123.412871,20.7804102 123.514313,20.6946554 123.591832,20.5911223 C124.568731,19.2883296 127.223599,19.0460985 128.433185,20.838713 C129.398972,22.2701378 129.386684,24.6519241 128.395014,26.062956 C127.130262,27.8624988 124.454347,27.7653711 123.422676,26.2804803 C123.377837,26.2156413 123.315351,26.1632211 123.189595,26.0284449 C123.150901,26.4478066 123.119789,26.7850739 123.082925,27.1850885 C122.879126,27.1950235 122.687747,27.2043049 122.502773,27.2131941 C122.502773,23.5331904 122.502773,19.909398 122.502773,16.2539705 Z" id="Fill-43" fill="#FFFFFF"></path>
                <path d="M99.5257248,21.3670983 C99.5257248,19.8191986 99.5257248,18.3624134 99.5257248,16.8571297 C99.7808975,16.8571297 99.9917549,16.8571297 100.237516,16.8571297 C100.237516,20.2967324 100.237516,23.7148964 100.237516,27.1841734 C100.017246,27.1978994 99.8210297,27.2100567 99.5503009,27.2267893 C99.5503009,25.4794053 99.5503009,23.7764673 99.5503009,22.0289525 C97.5929745,22.0289525 95.7067619,22.0289525 93.7434222,22.0289525 C93.7434222,23.7547672 93.7434222,25.4570515 93.7434222,27.1891409 C93.4700789,27.1891409 93.2734704,27.1891409 93.042743,27.1891409 C93.042743,23.7380345 93.042743,20.3188247 93.042743,16.8537309 C93.2598752,16.8537309 93.4707325,16.8537309 93.7286504,16.8537309 C93.7286504,18.3426742 93.7286504,19.8008973 93.7286504,21.3491891 C95.6625773,21.3838309 97.5515351,21.3576862 99.5257248,21.3670983" id="Fill-48" fill="#FFFFFF"></path>
                <path d="M205.506849,4.19705972 C205.506849,4.7551193 205.506849,5.31121804 205.506849,5.90914836 C205.336908,5.90914836 205.194419,5.90692606 205.05193,5.90940981 C203.964309,5.92888764 203.283238,6.55910673 203.230949,7.6471203 C203.194346,8.41917463 203.215262,9.19397416 203.212647,9.96759717 C203.21134,10.5478798 203.212647,11.1282931 203.212647,11.7462242 C202.570794,11.7462242 201.995609,11.7462242 201.335455,11.7462242 C201.335455,9.28822597 201.335455,6.83571813 201.335455,4.29719409 C201.535462,4.29719409 201.778608,4.29719409 202.021754,4.29719409 C202.271436,4.29719409 202.521119,4.29719409 202.838777,4.29719409 C202.891067,4.67760013 202.939435,5.03918196 202.990417,5.41448978 C203.340757,5.07617678 203.655801,4.70256837 204.038821,4.42072801 C204.454523,4.11365798 204.956502,4.0416292 205.506849,4.19705972" id="Fill-49" fill="#FFFFFF"></path>
                <path d="M106.578139,23.2620694 C105.756933,23.2023287 105.030501,23.2761876 104.332044,23.5001173 C104.001836,23.6060036 103.665092,23.7714998 103.403252,23.9946452 C102.521913,24.745653 102.725319,26.2549892 103.737643,26.6611478 C104.849971,27.1073078 106.38689,26.2923761 106.562975,25.1069734 C106.650168,24.520416 106.578139,23.9100669 106.578139,23.2620694 Z M107.384966,27.2192074 C107.180906,27.2087495 107.002076,27.1997295 106.795271,27.1892716 C106.750694,26.8921366 106.711216,26.6289897 106.66141,26.2979973 C106.506895,26.4259758 106.381531,26.5194433 106.267801,26.6254602 C105.53797,27.3050928 104.662775,27.5120285 103.709015,27.3457479 C102.92781,27.2094031 102.381254,26.744811 102.168436,25.9587692 C101.930649,25.0804365 102.120591,24.296617 102.78153,23.659731 C103.396324,23.0671604 104.183803,22.8488517 105.000042,22.7310697 C105.512218,22.6572108 106.030407,22.6257063 106.564805,22.5735476 C106.641671,22.0933993 106.58193,21.6446248 106.405715,21.2161124 C106.152503,20.6007958 105.686603,20.2585611 105.01769,20.2035264 C104.266029,20.1415634 103.560774,20.2833986 102.868069,20.7247219 C102.779046,20.5558268 102.698782,20.403403 102.620348,20.2543779 C102.68754,20.1760744 102.717998,20.1158108 102.76702,20.0869208 C103.595024,19.5982756 104.49741,19.4691205 105.429731,19.612263 C106.205577,19.7313523 106.783506,20.1686232 107.06783,20.9138791 C107.199992,21.2608199 107.314244,21.6382193 107.323264,22.0046379 C107.365227,23.7145043 107.36758,25.4254164 107.384966,27.2192074 Z" id="Fill-64" fill="#FFFFFF"></path>
                <path d="M183.524347,4.33889496 C183.524347,6.81166497 183.524347,9.24613293 183.524347,11.7640026 C182.924325,11.7996902 182.334761,11.8026968 181.700751,11.7524989 C181.700751,9.27763735 181.700751,6.82918195 181.700751,4.33889496 C182.294237,4.33889496 182.866807,4.33889496 183.524347,4.33889496" id="Fill-70" fill="#FFFFFF"></path>
                <path d="M143.555567,11.7643948 C142.928094,11.7643948 142.368596,11.7643948 141.816942,11.7643948 C141.679682,11.3017635 141.6287,5.53737008 141.750273,4.34699983 C142.333301,4.34699983 142.922865,4.34699983 143.555567,4.34699983 C143.555567,6.80839688 143.555567,9.25672155 143.555567,11.7643948" id="Fill-71" fill="#FFFFFF"></path>
                <path d="M213.279681,11.7399495 C213.279681,9.26430353 213.279681,6.81506379 213.279681,4.33144371 C213.890161,4.33144371 214.465346,4.33144371 215.087591,4.33144371 C215.087591,6.79754681 215.087591,9.24587148 215.087591,11.7399495 C214.492798,11.7399495 213.901926,11.7399495 213.279681,11.7399495" id="Fill-72" fill="#FFFFFF"></path>
                <path d="M130.999554,19.7735761 C131.215248,19.7735761 131.413948,19.7735761 131.66363,19.7735761 C131.674088,19.9845642 131.693697,20.1873167 131.693697,20.3899384 C131.696311,21.5604387 131.671474,22.7315926 131.706769,23.901047 C131.722456,24.4379294 131.790432,24.9897142 131.943379,25.5025434 C132.203519,26.3756472 132.837529,26.7704328 133.748674,26.7406278 C134.891199,26.7031101 135.922609,25.7424214 135.963133,24.5882616 C136.010194,23.2521344 135.984049,21.9135235 135.989278,20.5759583 C135.990585,20.328629 135.989278,20.081169 135.989278,19.7831189 C136.235039,19.762726 136.431124,19.7463855 136.71218,19.7228553 C136.71218,22.2209857 136.71218,24.6754544 136.71218,27.1905789 C136.56577,27.1984223 136.369684,27.2087495 136.118695,27.2219526 C136.093857,26.8312193 136.072941,26.4861087 136.044182,26.0423016 C135.880777,26.2144648 135.77097,26.3234884 135.667698,26.4374795 C134.94741,27.2316261 134.041495,27.5162117 133.002241,27.3543757 C132.200905,27.2296653 131.60219,26.769387 131.318519,26.0128888 C131.130277,25.5123477 130.989096,24.9655303 130.972102,24.434792 C130.925041,22.9733007 130.955107,21.5093257 130.957722,20.0462658 C130.957722,19.9663936 130.981252,19.8866521 130.999554,19.7735761" id="Fill-75" fill="#FFFFFF"></path>
                <path d="M139.258679,19.7684778 C139.442999,19.7684778 139.618169,19.7684778 139.832556,19.7684778 C139.857393,20.1775124 139.880924,20.5601407 139.913604,21.0907483 C140.500554,20.1092746 141.148944,19.4526493 142.32415,19.5952689 C142.337222,19.7980214 142.350295,19.9937148 142.363367,20.2040493 C142.245716,20.2342465 142.168589,20.2712413 142.091462,20.2716335 C141.142407,20.2755552 140.563301,20.8149213 140.269173,21.6409645 C140.091389,22.1420285 140.011647,22.6966893 139.992039,23.2312186 C139.950207,24.3368799 139.980274,25.4451557 139.977659,26.5523856 C139.976352,26.7564454 139.959358,26.9605051 139.947593,27.1897945 C139.707061,27.1897945 139.509668,27.1897945 139.258679,27.1897945 C139.258679,24.7060437 139.258679,22.253013 139.258679,19.7684778" id="Fill-83" fill="#FFFFFF"></path>
                <path d="M182.63804,3.15558379 C182.017102,3.14460299 181.61578,2.74315043 181.617088,2.13423931 C181.618395,1.50349733 182.045862,1.1066201 182.707324,1.1193003 C183.319111,1.13119616 183.741348,1.54559037 183.74527,2.13881464 C183.750499,2.73870582 183.283815,3.16695675 182.63804,3.15558379" id="Fill-90" fill="#FFFFFF"></path>
                <path d="M214.248344,3.15571451 C213.631328,3.16408083 213.188175,2.76759577 213.16203,2.18339143 C213.134578,1.5755261 213.581653,1.12583649 214.218278,1.11916958 C214.881047,1.11224122 215.294134,1.51121003 215.290212,2.15227919 C215.287598,2.75020951 214.874511,3.14708674 214.248344,3.15571451" id="Fill-91" fill="#FFFFFF"></path>
                <path d="M142.709785,3.15571451 C142.092769,3.16408083 141.649616,2.76759577 141.623471,2.18339143 C141.596019,1.5755261 142.043094,1.12583649 142.681026,1.11916958 C143.342488,1.11224122 143.756882,1.51134075 143.75296,2.15240991 C143.749039,2.75020951 143.335952,3.14708674 142.709785,3.15571451" id="Fill-92" fill="#FFFFFF"></path>
                <path d="M227.107637,1.16322347 C227.629225,1.15956321 228.048848,1.58663762 228.050155,2.12221273 C228.050155,2.65661132 227.637068,3.07035192 227.102408,3.07022119 C226.553369,3.06995975 226.170348,2.6790958 226.171655,2.12090549 C226.17427,1.57918637 226.576899,1.16701446 227.107637,1.16322347" id="Fill-93" fill="#FFFFFF"></path>
                <path d="M224.017328,1.1628313 C224.541531,1.14452998 224.949389,1.55447958 224.954617,2.10665661 C224.961154,2.6713831 224.589898,3.0614627 224.039551,3.06734527 C223.507506,3.07296639 223.082654,2.66092521 223.077425,2.13410859 C223.072196,1.61565829 223.493126,1.18126335 224.017328,1.1628313" id="Fill-94" fill="#FFFFFF"></path>
            </g>
            <g id="Group" transform="translate(255.462185, 0.806721)" fill="#FFFFFF">
                <path d="M100.288841,7.64939372 C100.284919,7.64939372 100.280997,7.64939372 100.277076,7.64939372 C100.277076,7.85829023 100.270539,8.06757892 100.278383,8.27608326 C100.3176,9.17781553 100.87579,9.84411436 101.720265,10.0018979 C102.515066,10.1505308 103.30333,9.7269859 103.640597,8.92499584 C103.993551,8.08248142 104.011852,7.21604456 103.682429,6.35849692 C103.363463,5.52722474 102.636639,5.07269835 101.827459,5.17283272 C101.018279,5.27296709 100.377733,5.95678291 100.292762,6.83524635 C100.266618,7.10414505 100.288841,7.37788054 100.288841,7.64939372 Z M100.067918,10.357205 C100.003863,10.7123814 99.9528807,10.9923916 99.8979767,11.2967164 C99.3855397,11.2967164 98.8900968,11.2967164 98.3802743,11.2967164 C98.3802743,7.66442695 98.3802743,4.04690926 98.3802743,0.396972096 C99.0260495,0.396972096 99.6025411,0.396972096 100.24178,0.396972096 C100.24178,1.81676249 100.24178,3.22779439 100.24178,4.74157515 C100.407799,4.63176722 100.491462,4.59137358 100.556824,4.53071778 C102.146425,3.04386611 104.583115,3.5121185 105.448506,5.50944632 C106.040685,6.87943097 106.006696,8.28837129 105.379223,9.64136186 C104.715146,11.0752704 103.201365,11.7830087 101.686277,11.4444342 C101.205214,11.3365871 100.789513,11.1131803 100.443095,10.7620564 C100.329365,10.6468888 100.222172,10.5249235 100.067918,10.357205 Z" id="Fill-8"></path>
                <path d="M35.8292326,1.25504264 C35.6654358,1.79989913 35.5290909,2.25364118 35.391831,2.71038988 C34.8515499,2.57626734 34.3591136,2.39900597 33.8533435,2.34449417 C33.4073141,2.29638784 32.9331792,2.32802298 32.4956469,2.42907242 C32.0260872,2.53731167 31.6916959,2.86608184 31.619275,3.38387852 C31.548292,3.89108658 31.7316974,4.30600369 32.1632164,4.5611764 C32.6100301,4.82536905 33.0941001,5.02642215 33.5584308,5.26172485 C34.0596255,5.51572105 34.5976844,5.7209573 35.0486812,6.04606721 C36.7627307,7.28075281 36.6082153,9.87169707 34.7837042,10.944416 C34.2130952,11.2799838 33.5886279,11.4365908 32.938931,11.4990767 C31.7518289,11.6131986 30.6171469,11.4271787 29.4841644,10.8840216 C29.6244309,10.3581201 29.7563312,9.8630693 29.900258,9.32331104 C30.0864086,9.39560126 30.2349107,9.44972088 30.380537,9.51024596 C31.1037006,9.81091054 31.8528783,9.98856408 32.6386586,9.92516307 C32.925205,9.90202497 33.2248238,9.84712101 33.4853562,9.7319534 C34.4111416,9.32318031 34.6000374,8.16313796 33.8172637,7.52246098 C33.4388185,7.21251502 32.952657,7.03172411 32.5092421,6.80426483 C31.9722291,6.52882993 31.3924693,6.32032559 30.8957192,5.98658792 C29.8027381,5.25257419 29.4163188,4.14063818 29.7607758,2.92752199 C29.9645741,2.20984874 30.3962238,1.6487825 31.0477509,1.29883509 C32.5987879,0.465732776 34.1683877,0.591227554 35.8292326,1.25504264" id="Fill-10"></path>
                <path d="M8.31450266,9.60319053 C8.41463703,10.1009865 8.50745088,10.563487 8.60889249,11.0686035 C8.37241327,11.152136 8.18443255,11.2373678 7.98756262,11.2845591 C6.85614876,11.5552879 5.71506136,11.624833 4.56613052,11.408093 C2.37441653,10.9946139 0.864949656,9.34527262 0.64585669,7.09878538 C0.562454953,6.24293714 0.577618905,5.38591239 0.807300493,4.54548956 C1.38575298,2.42881098 3.15248415,0.941436417 5.39413461,0.781692023 C6.17782335,0.725611545 6.97628387,0.826007367 7.76389432,0.899212653 C8.0635131,0.927187531 8.35149747,1.0796114 8.70144489,1.19373321 C8.56326991,1.70460153 8.44025888,2.15965082 8.31045022,2.63979907 C7.78664025,2.53587371 7.30583838,2.38789445 6.81771599,2.35782799 C6.28161799,2.32475489 5.72133609,2.324232 5.20249362,2.44384421 C3.93172828,2.7369268 3.13052256,3.57185924 2.78711133,4.82445399 C2.56239724,5.64383031 2.55507672,6.47732479 2.74802494,7.30755117 C3.11026038,8.86577799 4.25879904,9.83313357 5.86539364,9.91248287 C6.2601793,9.93209143 6.66150114,9.91784254 7.05367232,9.86895187 C7.44584349,9.8200612 7.83004053,9.70829241 8.31450266,9.60319053" id="Fill-12"></path>
                <path d="M19.315035,13.0978279 C20.1125804,12.7935031 20.7484206,12.3796318 21.2153658,11.7228758 C21.4957682,11.3287437 21.5440052,10.9565733 21.3528871,10.4956414 C20.5290662,8.5087715 19.7340045,6.50987499 18.9299229,4.51476948 C18.8538417,4.32600442 18.7878262,4.13318692 18.7035094,3.90572764 C19.4303333,3.90572764 20.0936255,3.90572764 20.796527,3.90572764 C21.3764174,5.63598688 21.9521247,7.3539581 22.5734546,9.20827416 C23.1198797,7.37278231 23.6329704,5.64879781 24.1485448,3.91657771 C24.8185038,3.91657771 25.4543441,3.91657771 26.130055,3.91657771 C26.0892692,4.0795902 26.0707064,4.20116326 26.0284827,4.31423928 C25.3064955,6.25130346 24.6105224,8.19882554 23.8443506,10.1185035 C23.4823766,11.0255954 23.0366087,11.90968 22.5352832,12.7484034 C21.9214046,13.7752383 20.9913053,14.4274189 19.7414558,14.6869055 C19.54354,14.1625727 19.380789,13.6435995 19.315035,13.0978279" id="Fill-14"></path>
                <path d="M94.4964724,7.67776077 C93.7291241,7.6922711 93.0624331,7.73070388 92.4676401,8.0928086 C92.0310229,8.35896211 91.8597748,8.77152619 91.9277511,9.27219806 C91.9918058,9.73862031 92.274169,10.0323565 92.7212442,10.1335367 C93.4964359,10.3089679 94.3958151,9.7120834 94.4886289,8.92499584 C94.5343823,8.53805361 94.4964724,8.14117638 94.4964724,7.67776077 Z M94.4271888,6.3859489 C94.3853572,5.52068856 94.0363249,5.1313933 93.2336812,5.04420057 C92.6388882,4.97975378 92.0676255,5.10237263 91.5120497,5.30211849 C91.3368799,5.36486587 91.1695535,5.44682965 90.9316363,5.54840199 C90.8048343,5.13374633 90.687183,4.75033364 90.555152,4.32103692 C91.9852696,3.64715611 93.3866279,3.3991732 94.8402758,3.97553411 C95.640305,4.29280059 96.0730005,4.96053739 96.2481703,5.78004443 C96.3318335,6.1650258 96.3632072,6.56687054 96.3671289,6.96165619 C96.3802013,8.38249238 96.3723578,9.80359001 96.3723578,11.2746241 C95.916132,11.2746241 95.3840865,11.2746241 94.8023659,11.2746241 C94.7461547,11.0938332 94.6794856,10.8815379 94.5984369,10.6181295 C94.4546408,10.7306827 94.3343749,10.8297713 94.2088802,10.9225851 C93.3774773,11.540124 92.4611039,11.7108492 91.4819832,11.378288 C90.6571165,11.0981471 90.1721315,10.4815233 90.0466367,9.62933528 C89.9093768,8.69113109 90.2074269,7.89018682 90.9760824,7.30467525 C91.5904839,6.83589997 92.3120789,6.62661128 93.0689693,6.53013717 C93.5212734,6.47235728 93.9761919,6.43314017 94.4271888,6.3859489 Z" id="Fill-18"></path>
                <path d="M77.0108667,6.76844653 C76.9167456,5.53990494 76.3847001,4.96563561 75.4330313,4.99727075 C74.5349593,5.02694504 73.877419,5.7550762 73.8538887,6.76844653 C74.8931423,6.76844653 75.932396,6.76844653 77.0108667,6.76844653 Z M78.7586429,8.15921625 C77.0723069,8.15921625 75.4513327,8.15921625 73.8303584,8.15921625 C73.8617321,9.08657037 74.3441027,9.67770306 75.2134155,9.91352866 C75.9833782,10.1222945 76.7468048,10.0181076 77.5089241,9.86568378 C77.6906301,9.82934258 77.8697216,9.77587658 78.1350908,9.70868458 C78.2252901,10.1324909 78.3102606,10.5274073 78.4083034,10.9882084 C78.0945664,11.0912187 77.8095887,11.2407667 77.5128458,11.2707024 C76.7271962,11.3501824 75.9297815,11.4656115 75.1480536,11.4087466 C73.2917767,11.273709 72.053823,9.91588169 71.9453223,8.00679239 C71.9034907,7.2663732 72.0198348,6.54817705 72.3061198,5.86292327 C73.029022,4.13384054 74.8434673,3.27367842 76.6356896,3.81121438 C77.3023806,4.01109096 77.8305045,4.40548445 78.2004526,4.9953099 C78.7913239,5.94031172 78.9168186,6.97237554 78.7586429,8.15921625 Z" id="Fill-22"></path>
                <path d="M50.2229607,6.74962231 C51.3053531,6.74962231 52.3576791,6.74962231 53.4126196,6.74962231 C53.3341854,5.60278306 52.8492003,5.02786011 51.9707369,4.9975322 C51.039984,4.96537417 50.4072811,5.57872989 50.2229607,6.74962231 Z M50.2308041,8.12522808 C50.2752502,9.0983355 50.7550063,9.6812326 51.6256263,9.91522807 C52.395589,10.1221637 53.1590156,10.0173233 53.9211349,9.86385364 C54.1028409,9.82712028 54.2819324,9.77443862 54.5420726,9.7093382 C54.632272,10.1370662 54.7159352,10.5332898 54.813978,10.9900385 C54.4740963,11.0974935 54.1682027,11.2445576 53.8492369,11.2848206 C53.189082,11.368353 52.5197766,11.4520162 51.8570073,11.4346299 C49.8477836,11.3819483 48.4974075,10.0659525 48.3549186,8.06182707 C48.296093,7.23604529 48.4346601,6.43784622 48.7928431,5.6856619 C49.574571,4.04625564 51.3824801,3.2708025 53.1067261,3.83369887 C53.6819105,4.02115669 54.1538231,4.35384857 54.5015483,4.84733064 C55.1891551,5.82200675 55.3224933,6.91093539 55.1695465,8.12522808 C53.5198131,8.12522808 51.9001461,8.12522808 50.2308041,8.12522808 Z" id="Fill-23"></path>
                <path d="M61.7161907,11.2771079 C61.7161907,10.0294806 61.7214197,8.83963325 61.7135762,7.64991661 C61.7109618,7.29591676 61.6952749,6.93917171 61.6482144,6.58883212 C61.5292558,5.72304888 61.0847951,5.27492795 60.3475133,5.24538439 C59.5474841,5.21335707 58.8925582,5.71703559 58.7265391,6.51758769 C58.6729424,6.780996 58.6585628,7.05643089 58.6572555,7.32650611 C58.6494121,8.43334391 58.654641,9.54044315 58.6520266,10.6472809 C58.6520266,10.8506871 58.6337252,11.0539625 58.6219601,11.2895266 C58.0075586,11.2895266 57.431067,11.2895266 56.7879062,11.2895266 C56.7879062,8.85231345 56.7879062,6.4195449 56.7879062,3.93239528 C57.2663551,3.93239528 57.7931717,3.93239528 58.3330607,3.93239528 C58.378814,4.2250857 58.4245673,4.50601099 58.4690134,4.78693628 C58.5199956,4.82197024 58.5722851,4.85713492 58.6245746,4.89216888 C58.7252319,4.73804561 58.7971299,4.55189502 58.9304681,4.43502801 C59.7854013,3.68585033 60.7762871,3.47211704 61.8495289,3.8305615 C62.8652523,4.16992029 63.3567735,4.96681213 63.5254071,5.98528068 C63.5737749,6.27248071 63.6090703,6.56517113 63.6116848,6.85550853 C63.6208354,8.15045776 63.6156065,9.445407 63.6156065,10.740487 C63.6156065,10.9036302 63.6156065,11.0667734 63.6156065,11.2771079 C62.973753,11.2771079 62.384189,11.2771079 61.7161907,11.2771079" id="Fill-24"></path>
                <path d="M1.73831487,47.7721656 C1.47111558,47.7721656 1.27333058,47.7721656 0.989660091,47.7721656 C1.24051892,44.309817 1.48902473,40.8825024 1.73962211,37.4239447 C2.05335905,37.4239447 2.31637519,37.4239447 2.6365176,37.4239447 C3.75472835,40.4666702 4.87516141,43.5158011 5.99010408,46.5496374 C7.13602826,43.5354097 8.29110311,40.4971288 9.45728947,37.4295658 C9.76017635,37.4295658 10.0441083,37.4295658 10.3953629,37.4295658 C10.6245216,40.8614558 10.8535496,44.2909928 11.085192,47.759224 C10.9208723,47.7796169 10.8236139,47.8005327 10.7263554,47.8010556 C10.6239987,47.8018399 10.5216421,47.7830157 10.3417662,47.7652373 C10.1577072,44.7121847 9.97377892,41.6625308 9.78985063,38.612877 C9.75952273,38.6072559 9.7290641,38.6017655 9.69860547,38.5962751 C9.64448585,38.7451694 9.59219636,38.8947174 9.53611588,39.0430888 C8.48692725,41.8163927 7.43525487,44.5890429 6.39051085,47.3641769 C6.27638904,47.666933 6.1489334,47.9056346 5.65179107,47.7345172 C4.56586908,44.7554542 3.45288727,41.7022708 2.31781315,38.5884317 C2.12329625,41.672858 1.93165526,44.7095702 1.73831487,47.7721656" id="Fill-25"></path>
                <path d="M31.4992706,47.7210527 C30.4099498,44.7291787 29.2998439,41.6807014 28.171306,38.5813726 C27.9774427,41.6669754 27.787109,44.6980665 27.59403,47.7711199 C27.3414718,47.7827543 27.1436868,47.7919049 26.8538723,47.8053695 C27.0733574,44.3232816 27.3512761,40.897797 27.5914155,37.4306116 C27.8897271,37.4306116 28.1518282,37.4306116 28.4940629,37.4306116 C29.6042995,40.4554279 30.7247325,43.5073041 31.8425511,46.5527747 C32.9931814,43.5278277 34.1533544,40.4777817 35.3171878,37.4183236 C35.6314476,37.4183236 35.8977318,37.4183236 36.2476793,37.4183236 C36.4774916,40.8491678 36.7071732,44.2770054 36.9407765,47.7643222 C36.6886104,47.7802705 36.4925248,47.7926893 36.218005,47.8099448 C35.9868854,44.7201588 35.8219121,41.6650146 35.5747135,38.5893467 C35.5096131,38.7539279 35.4426825,38.9178555 35.3798044,39.083221 C34.3283935,41.8558712 33.2743681,44.6276064 32.230147,47.4030018 C32.1073974,47.7292883 31.9450385,47.9047195 31.4992706,47.7210527" id="Fill-26"></path>
                <path d="M83.0973634,0.941697865 C83.7091505,0.941697865 84.2843349,0.941697865 84.9340318,0.941697865 C84.9340318,3.8559219 84.9340318,6.74936086 84.9340318,9.72646301 C86.3916013,9.72646301 87.7798873,9.72646301 89.1969325,9.72646301 C89.1969325,10.2825617 89.1969325,10.7543437 89.1969325,11.2228575 C88.736785,11.3469143 84.0202729,11.3832555 83.0973634,11.2674343 C83.0973634,7.84064253 83.0973634,4.40809892 83.0973634,0.941697865" id="Fill-28"></path>
                <path d="M14.3504093,5.32028908 C13.9598068,5.29793533 13.6728682,5.28159486 13.3430522,5.26263992 C13.3430522,4.81922504 13.3430522,4.39332714 13.3430522,3.91618554 C13.6445012,3.89461612 13.9467344,3.87291598 14.3135452,3.84650979 C14.3365526,3.38963037 14.359037,2.94307812 14.3834824,2.4570473 C14.9776217,2.28998238 15.5517603,2.12853858 16.2159676,1.94173437 C16.2159676,2.62005979 16.2159676,3.21354551 16.2159676,3.86598763 C16.8420035,3.86598763 17.3981022,3.86598763 17.996294,3.86598763 C17.996294,4.35280278 17.996294,4.77843924 17.996294,5.26839176 C17.4263386,5.26839176 16.8722007,5.26839176 16.3676071,5.26839176 C16.2930946,5.36368936 16.2459033,5.3958474 16.2457726,5.42826688 C16.2408051,6.57536758 16.2363605,7.72246828 16.2430274,8.86943826 C16.2440732,9.03336581 16.2866891,9.20199942 16.3371485,9.35991368 C16.449048,9.71051471 16.6838278,9.92660103 17.0664561,9.93849689 C17.3343091,9.94699393 17.6025541,9.9401963 17.9607372,9.9401963 C17.9607372,10.1904015 17.9607372,10.4122397 17.9607372,10.6339471 C17.9607372,10.8583998 17.9607372,11.0828524 17.9607372,11.3203774 C17.2994058,11.5214305 16.6897104,11.6023485 16.0621058,11.4746314 C15.1309607,11.285082 14.5947319,10.7472846 14.4443996,9.80385145 C14.3790378,9.39390185 14.3591678,8.97388651 14.3545924,8.55792362 C14.3423044,7.49710058 14.3504093,6.43601609 14.3504093,5.32028908" id="Fill-34"></path>
                <path d="M70.9322134,9.7633271 C71.0119549,10.1879178 71.0916964,10.6115934 71.1818958,11.0929181 C70.8459358,11.1856012 70.5544219,11.3190702 70.2550645,11.3382866 C69.5517709,11.3837784 68.8236397,11.4886188 68.1412619,11.3670458 C65.6379025,10.9208857 64.9895128,8.80002396 65.1986708,7.11564874 C65.513715,4.57189575 67.6000656,3.52126916 69.7779229,3.69330158 C70.2276125,3.72885844 70.670766,3.85840565 71.1962754,3.95984726 C71.0773168,4.47790539 70.974045,4.93047093 70.8773095,5.35571521 C70.3465711,5.28708526 69.8746585,5.17636226 69.4027458,5.17466285 C68.0144599,5.16956463 67.1163879,6.15195343 67.1333819,7.60547055 C67.150376,9.03258147 68.0340684,9.94960841 69.4262761,9.93562097 C69.899496,9.93091492 70.3714086,9.83051909 70.9322134,9.7633271" id="Fill-35"></path>
                <path d="M43.5338276,3.96638345 C43.4017966,4.51673034 43.3011394,4.93818363 43.1900242,5.39976911 C42.8932813,5.33061626 42.6370628,5.25466577 42.3769226,5.21387997 C41.4357118,5.06655433 40.5559411,5.18891174 39.9467685,6.00345128 C39.3166802,6.848188 39.2853065,7.79802659 39.7075441,8.73897598 C40.0435041,9.48593135 40.670978,9.90542379 41.4893085,9.92607814 C42.0631857,9.94058847 42.6396773,9.83901614 43.2645367,9.78489651 C43.3364348,10.1770677 43.4135618,10.602312 43.5024539,11.0939639 C43.1730301,11.1853398 42.8828234,11.2867814 42.5847733,11.3444306 C41.7533704,11.5046979 40.9180458,11.5269209 40.0984081,11.2947556 C38.8316952,10.9360496 37.9741475,10.1263469 37.6576654,8.84107121 C37.2988287,7.38193297 37.4708612,5.99769943 38.5597898,4.86720065 C39.5310671,3.85853637 40.7847076,3.59133708 42.1298548,3.69774619 C42.5782372,3.73330304 43.0200834,3.86507256 43.5338276,3.96638345" id="Fill-36"></path>
                <g id="Group-42" transform="translate(82.527408, 23.159241)">
                    <path d="M16.0136565,0.999905784 C15.2410793,3.21462716 14.4998757,5.33836482 13.757365,7.4649784 C13.5037609,7.4649784 13.3011392,7.4649784 13.0566858,7.4649784 C12.3089461,5.0220134 11.5664353,2.5922515 10.7977798,0.0810487104 C11.0709924,0.0679763378 11.2840721,0.0577798871 11.5638208,0.0443153433 C12.1808368,2.16256261 12.7926239,4.2600248 13.4449353,6.49605414 C13.8371064,5.34594679 14.1900605,4.3030329 14.5495508,3.26247204 C14.9116555,2.21668223 15.2789892,1.17324545 15.6567807,0.0908529899 C15.8777038,0.0908529899 16.0986269,0.0908529899 16.4097494,0.0908529899 C17.1012779,2.15759511 17.8045715,4.26185493 18.5418534,6.46454972 C19.2190023,4.28211711 19.8647775,2.20138755 20.5197033,0.0883692391 C20.7536988,0.0883692391 20.9733147,0.0883692391 21.2896661,0.0883692391 C20.47395,2.56113925 19.6673846,5.00266629 18.8555903,7.4622332 C18.6242093,7.4622332 18.4228948,7.4622332 18.170598,7.4622332 C17.4594609,5.33143646 16.7496311,3.20351564 16.0136565,0.999905784" id="Fill-39"></path>
                    <path d="M0.77911341,21.0146234 C0.797414732,21.0163228 0.815716053,21.0180222 0.834017375,21.0197216 C0.834017375,21.312412 0.814408816,21.6065404 0.83663185,21.8976621 C0.918987797,22.9442363 1.67979989,23.8521126 2.68114363,24.1183968 C3.70340317,24.3904329 4.74396403,24.0191775 5.34529318,23.1686889 C6.19107569,21.9699524 6.20022635,19.8480448 5.35705831,18.6489161 C4.92567001,18.0330766 4.34656391,17.6607754 3.57921563,17.6211662 C2.33472576,17.5567194 1.2627912,18.33714 0.947747017,19.5903884 C0.832710138,20.0504052 0.8314029,20.5390505 0.77911341,21.0146234 Z M0.951668729,18.3066814 C1.01703059,18.2282471 1.08892864,18.1543882 1.14775432,18.0705943 C2.10726647,16.6769487 5.00802596,16.3821667 6.14270791,18.4808054 C7.01071345,20.0866156 6.99241213,21.7513823 6.07080986,23.3263418 C4.90998317,25.3111201 2.104652,25.2256268 1.05363324,23.7400823 C1.00657269,23.674459 0.945132542,23.620078 0.801336443,23.4659547 C0.746432478,23.8893688 0.703293648,24.2191848 0.653618632,24.6010288 C0.488906737,24.6158006 0.313736944,24.6314874 0.0941210831,24.6512267 C0.0941210831,20.9837726 0.0941210831,17.3598494 0.0941210831,13.6869049 C0.328116553,13.6696494 0.52550938,13.6550083 0.811794341,13.6339618 C0.840553561,15.2066989 0.810487104,16.7398268 0.828788426,18.2715167 C0.870620018,18.2832818 0.911144374,18.2949162 0.951668729,18.3066814 Z" id="Fill-41"></path>
                </g>
                <g id="Group-47" transform="translate(38.734960, 22.897794)">
                    <path d="M0.7647338,4.185643 C0.785649596,4.18760385 0.80787263,4.18969543 0.828788426,4.19178701 C0.828788426,4.48369309 0.805258155,4.77769076 0.832710138,5.06685164 C0.941210831,6.18610818 1.76738478,7.07136926 2.88768712,7.29150802 C3.94785654,7.49975091 5.00279701,7.01842615 5.50216165,6.01433721 C6.12963553,4.75089239 6.16231647,3.44496236 5.56883075,2.15288905 C5.26947341,1.49927042 4.77141602,1.03598553 4.06681513,0.8314029 C2.71382456,0.438578102 1.32030964,1.26161468 0.954283203,2.70545824 C0.8314029,3.18403781 0.823559477,3.69137659 0.7647338,4.185643 Z M0.80787263,6.76887456 C0.80787263,8.14905566 0.80787263,9.45773089 0.80787263,10.8132052 C0.564726498,10.8270619 0.367333671,10.8383042 0.103271744,10.8534681 C0.103271744,7.33399323 0.103271744,3.85752644 0.103271744,0.340012413 C0.180398743,0.331776818 0.2771343,0.311906811 0.375177095,0.313214049 C0.475834364,0.314521286 0.576491634,0.336352148 0.705908123,0.352692614 C0.743818004,0.728915499 0.780420647,1.09049733 0.827481189,1.55129846 C0.968662813,1.38240341 1.04317534,1.29168114 1.1189951,1.20239684 C2.60401663,-0.531522672 5.31914843,-0.206151317 6.27996782,1.85941429 C6.96103844,3.32548088 6.91528513,4.83769295 6.17800331,6.27343163 C5.38843201,7.81126555 3.49555245,8.41337904 1.98569341,7.64040964 C1.58829328,7.43726497 1.25625501,7.10666467 0.80787263,6.76887456 Z" id="Fill-44"></path>
                    <path d="M13.1220477,21.0724033 C13.1377345,21.0718804 13.1521141,21.0712267 13.167801,21.0705731 C13.13512,20.6126479 13.1534214,20.1440034 13.0593003,19.6990198 C12.8632147,18.7698355 12.0658,18.0330766 11.1729569,17.9064053 C10.1219381,17.757511 9.25262536,18.0904643 8.69835676,19.0104979 C7.95846047,20.2368172 7.90747822,21.5483684 8.4225297,22.8678936 C8.88529169,24.0544729 9.89970781,24.6178922 11.1154385,24.4219373 C12.1573066,24.2538266 13.0240049,23.2761438 13.1168187,22.1380631 C13.1455779,21.785109 13.1220477,21.4278411 13.1220477,21.0724033 Z M13.1338128,18.2839355 C13.1338128,16.8551251 13.1338128,15.4263148 13.1338128,13.9501825 C13.3913385,13.9313583 13.5874241,13.9168479 13.8658657,13.896455 C13.8658657,17.5654779 13.8658657,21.1887474 13.8658657,24.8586853 C13.7194551,24.8586853 13.5272912,24.8586853 13.2880668,24.8586853 C13.2632293,24.4893907 13.239699,24.140097 13.2109398,23.7098852 C13.085445,23.8267522 12.9887095,23.889761 12.9272693,23.9772152 C11.9233111,25.3992279 9.29707143,25.5785808 8.06696116,23.7901495 C7.05123781,22.3148016 7.13620823,19.8277827 8.24474543,18.4238098 C9.44478924,16.9040158 11.8657927,16.8336864 13.1338128,18.2839355 Z" id="Fill-46"></path>
                </g>
                <path d="M2.79586982,26.3564819 C4.02035897,26.3564819 5.15412585,26.3564819 6.34436538,26.3564819 C5.7439513,24.6353733 5.16406085,22.9724368 4.57580408,21.2864929 C3.98440994,22.9711295 3.39981344,24.6362884 2.79586982,26.3564819 Z M8.69059482,30.6212127 C8.39476703,30.6212127 8.17253669,30.6212127 7.9224622,30.6212127 C7.48375338,29.4186852 7.04909698,28.2280535 6.6133948,27.0337615 C5.23530528,27.0337615 3.90192327,27.0337615 2.52840908,27.0337615 C2.10081177,28.2319752 1.67478314,29.4260057 1.2503232,30.6150687 C0.986130551,30.6150687 0.765730348,30.6150687 0.484151441,30.6150687 C1.74197514,27.1337652 2.98097462,23.7043589 4.22389581,20.264364 C4.47161727,20.264364 4.67554628,20.264364 4.96274631,20.264364 C6.19285658,23.6818744 7.4326404,27.1264446 8.69059482,30.6212127 Z" id="Fill-50"></path>
                <path d="M119.181034,30.631017 C118.92743,30.631017 118.741802,30.631017 118.507806,30.631017 C118.496041,30.4372844 118.473818,30.2551863 118.473818,30.0730881 C118.471204,28.8601027 118.482969,27.6467251 118.465975,26.4338703 C118.459439,26.0186918 118.426758,25.5933168 118.327408,25.1919949 C117.992755,23.8352134 116.659373,23.2516626 115.427955,23.9242362 C114.599167,24.376671 114.114182,25.0800954 114.105031,26.0505884 C114.094573,27.3473677 114.10111,28.6442778 114.099802,29.9410572 C114.099802,30.1472085 114.099802,30.3534905 114.099802,30.6048723 C113.844891,30.6048723 113.633119,30.6048723 113.395202,30.6048723 C113.395202,26.9682689 113.395202,23.3604248 113.395202,19.72356 C113.630504,19.72356 113.830512,19.72356 114.089344,19.72356 C114.089344,21.2440077 114.089344,22.7393564 114.089344,24.3803313 C114.307653,24.1560094 114.430533,24.033652 114.550799,23.907765 C115.095917,23.3325806 115.773066,23.0338769 116.556101,23.0017189 C117.722157,22.953874 118.686898,23.666449 119.025472,24.8314589 C119.130051,25.189119 119.200642,25.5693943 119.204564,25.940519 C119.22548,27.3833167 119.213715,28.8267681 119.212407,30.2699581 C119.212407,30.3711382 119.195413,30.4721877 119.181034,30.631017" id="Fill-51"></path>
                <g id="Group-55" transform="translate(38.604236, 19.629700)">
                    <path d="M91.8896291,10.9962184 C91.6190309,10.9962184 91.4347105,10.9962184 91.25039,10.9962184 C91.128817,10.5508427 91.101365,0.829180597 91.2229381,0.0945132542 C91.4177164,0.0945132542 91.6164165,0.0945132542 91.8870146,0.0945132542 C91.8870146,1.61561454 91.8870146,3.10887166 91.8870146,4.60225951 C91.9249245,4.6165084 91.9628343,4.63062656 92.0007442,4.64487545 C92.104016,4.52696265 92.2007515,4.40212149 92.3105595,4.29205211 C93.1354262,3.47359086 94.1106252,3.14782733 95.233542,3.51712186 C96.3407719,3.88092599 96.825757,4.76161174 96.9355649,5.85550788 C96.9996195,6.498015 96.9643241,7.15084929 96.9669386,7.79910825 C96.9708603,8.84241431 96.9682458,9.88585109 96.9682458,10.9749105 C96.7172563,10.9749105 96.5054838,10.9749105 96.2322713,10.9749105 C96.2322713,10.7392156 96.2322713,10.5343715 96.2322713,10.3295274 C96.230964,9.15811211 96.2505726,7.98630462 96.2231206,6.81554293 C96.2113555,6.31931566 96.1669094,5.80570214 96.0244205,5.33418166 C95.7472862,4.41911557 95.0008537,3.96903378 94.0452633,4.04537644 C92.9262682,4.13479147 91.9458403,5.10005547 91.9118521,6.22571747 C91.872635,7.56315192 91.8935508,8.90254722 91.8896291,10.2411582 C91.8883218,10.4684867 91.8896291,10.695946 91.8896291,10.9962184" id="Fill-52"></path>
                    <path d="M5.51523402,23.7799531 C5.42634189,23.3297406 5.39496819,22.9137777 5.25901552,22.5346789 C4.76095812,21.1367193 3.08246547,20.6645452 1.92033154,21.5877162 C1.22880303,22.1361022 0.938596356,22.8963914 0.819637765,23.7799531 C2.38440077,23.7799531 3.89948876,23.7799531 5.51523402,23.7799531 Z M6.20937701,24.4116101 C4.37270865,24.4116101 2.62231795,24.4116101 0.883692391,24.4116101 C0.529431092,25.7865623 1.47979258,27.2812574 2.85762066,27.5722484 C3.58967353,27.7267638 4.31257574,27.6602255 5.02763452,27.4681923 C5.20672603,27.4198245 5.38320306,27.359038 5.61589129,27.2871399 C5.68386763,27.456035 5.74792225,27.6139493 5.8093624,27.7651966 C4.55572187,28.5369895 2.47721462,28.4708433 1.37390637,27.6446693 C0.670612717,27.1175913 0.257525741,26.3969114 0.112422405,25.546815 C-0.0666691005,24.5010252 -0.00392171179,23.4634709 0.435310009,22.4757225 C1.06670561,21.0507031 2.33864747,20.336298 3.87595849,20.5453252 C4.5008179,20.6302956 5.03417071,20.9065149 5.4302636,21.4005198 C6.12179211,22.2619892 6.31264875,23.258104 6.20937701,24.4116101 Z" id="Fill-54"></path>
                </g>
                <path d="M79.9717591,26.8072173 C79.9835243,26.1501998 79.7887459,25.3893877 79.3233694,24.7151148 C78.3324836,23.2767616 76.2422112,23.2514012 75.2029576,24.6566813 C74.3022711,25.8752878 74.2918132,27.9122249 75.1820418,29.1423352 C76.1873072,30.5327128 78.0684217,30.6038265 79.166501,29.286262 C79.7246913,28.6168258 79.959994,27.8294768 79.9717591,26.8072173 Z M73.8042137,26.9460459 C73.7571532,26.2660211 73.8891841,25.6164549 74.1728546,24.9993081 C74.7781055,23.685404 76.0801138,22.9062906 77.5050024,23.0006731 C78.9508068,23.0966243 80.0515006,23.9544334 80.4985757,25.3649424 C80.8175416,26.3675934 80.8149272,27.3841011 80.5024974,28.3862292 C79.9992111,30.004066 78.4802014,31.0209659 76.8631489,30.8506329 C75.1990359,30.6753323 73.9741545,29.3912332 73.8068282,27.6345677 C73.7846051,27.4069777 73.8042137,27.1757275 73.8042137,26.9460459 Z" id="Fill-56"></path>
                <path d="M30.7189807,26.8652586 C30.7281314,27.0528472 30.7310073,27.2412201 30.7476092,27.428155 C30.7985914,28.000202 30.9818661,28.5306789 31.2916813,29.0120037 C32.295901,30.5724528 34.372186,30.666966 35.4541862,29.1590678 C36.4095152,27.8277774 36.4291238,26.3768748 35.6638671,24.9590452 C34.7059236,23.183817 32.2902799,23.1649928 31.2476274,24.8917225 C30.8821239,25.4969734 30.7248633,26.1609192 30.7189807,26.8652586 Z M36.9558097,26.844735 C36.9010364,27.2523316 36.8760682,27.6499931 36.7908363,28.0343209 C36.4062471,29.7707242 35.0051502,30.8970398 33.2999899,30.8613522 C31.6305172,30.8265797 30.3258944,29.6539879 30.038433,27.8706548 C29.8942447,26.9766352 29.9372528,26.0788247 30.2734742,25.2169631 C30.8346712,23.77861 32.2060938,22.895179 33.7149071,23.0014574 C35.2446361,23.1093045 36.3985344,24.08568 36.7695284,25.6163241 C36.8670483,26.0186918 36.8960689,26.4376613 36.9558097,26.844735 Z" id="Fill-57"></path>
                <g id="Group-62" transform="translate(21.740875, 22.897794)">
                    <path d="M0.82016066,3.96092891 C0.830880006,4.16930253 0.831010729,4.37911411 0.854410276,4.58604977 C0.920948653,5.17731319 1.11768786,5.72347692 1.46031475,6.21186076 C2.46453442,7.64289339 4.3707478,7.71727519 5.48229164,6.37108226 C6.41173734,5.2456817 6.53867008,3.40430729 5.77772726,2.06203606 C5.29574888,1.2115475 4.56944786,0.7415957 3.58797412,0.732183592 C2.58584603,0.72264076 1.82333454,1.17154604 1.32017891,2.04203533 C0.977944198,2.63421381 0.825651056,3.27828961 0.82016066,3.96092891 Z M7.06862406,4.01269551 C6.98875187,4.48369309 6.95267212,4.96724016 6.82155622,5.42346596 C6.35434962,7.04914623 4.8605696,8.08839985 3.23018328,7.95898336 C1.56946906,7.8269524 0.287984369,6.56507627 0.125625501,4.80292043 C0.0653618632,4.14838674 0.0933367407,3.45633533 0.239093696,2.81735775 C0.641853497,1.052326 2.15563425,-0.0413086976 3.86184033,0.106801285 C5.59772069,0.257395017 6.83449787,1.54515445 6.99528805,3.37750892 C7.01345865,3.58470603 6.99764108,3.79477906 6.99764108,4.00354485 C7.02130207,4.00655149 7.04496307,4.00955814 7.06862406,4.01269551 Z" id="Fill-58"></path>
                    <path d="M40.4825236,20.942856 C39.5243187,20.8910895 38.6576204,20.9659941 37.8379826,21.3190789 C37.5778424,21.4313706 37.3216239,21.6113772 37.1307673,21.8211888 C36.3791058,22.6456633 36.6810777,24.0977425 37.6837286,24.3701707 C39.1465271,24.7674401 40.3544144,23.7602138 40.473373,22.5831774 C40.5256624,22.0687795 40.4825236,21.5445774 40.4825236,20.942856 Z M36.4823776,17.8633972 C37.4196667,17.2759248 38.3948657,17.1242853 39.4105891,17.3210245 C40.3544144,17.5036455 40.8746948,18.1575256 41.0982324,19.0595193 C41.1675159,19.3417518 41.2184982,19.636926 41.2211127,19.9266098 C41.2328778,21.5539895 41.2263416,23.1816306 41.2263416,24.8575088 C41.0668587,24.8575088 40.876002,24.8575088 40.677302,24.8575088 C40.6250125,24.5729232 40.5766447,24.3099071 40.5152045,23.9799604 C40.3517999,24.1228414 40.2328413,24.2232372 40.1178044,24.3286006 C39.3831371,25.0022199 38.5059809,25.1951681 37.5543121,25.0283647 C36.8222593,24.9001247 36.281063,24.4654683 36.0666761,23.7441348 C35.8209155,22.9182223 35.8980425,22.0961008 36.5425105,21.4711106 C36.8915429,21.1337127 37.3425397,20.8346168 37.80138,20.6946117 C38.4916013,20.483885 39.2301903,20.4250594 39.9491708,20.3079309 C40.1086538,20.2819169 40.2733657,20.2819169 40.5269697,20.2633541 C40.4524572,19.8196778 40.4250052,19.4054143 40.3086611,19.0183413 C40.0916597,18.3030211 39.5687648,17.9303278 38.8223323,17.8831365 C38.1308038,17.8394748 37.8340609,17.9061439 36.7006862,18.3634155 C36.6614691,18.295047 36.617023,18.2269399 36.5843421,18.1534732 C36.5503539,18.0793528 36.5294381,18.0001342 36.4823776,17.8633972 Z" id="Fill-60"></path>
                    <path d="M57.7811943,20.9449476 C56.7746216,20.8926581 55.8307963,20.9666478 54.9549474,21.4218278 C54.7392532,21.533858 54.5353242,21.7074591 54.3836847,21.8985772 C53.7026141,22.7562556 54.0555681,24.1402277 55.0425323,24.3824587 C56.4360472,24.7243013 57.5824943,23.8451842 57.7655075,22.7277578 C57.8570141,22.1640771 57.7811943,21.5728137 57.7811943,20.9449476 Z M54.0124293,18.4238098 C53.9274589,18.1913831 53.8725549,18.0405279 53.8045786,17.8513706 C54.8529829,17.2403679 55.9340681,17.0525179 57.0674428,17.4240348 C57.8530924,17.6819527 58.2504925,18.3238062 58.4243551,19.0980828 C58.5027893,19.4418862 58.5380847,19.8008536 58.5446209,20.1539384 C58.5759946,21.6577841 58.589067,23.1621528 58.6047538,24.66626 C58.6060611,24.7246935 58.5786091,24.7833884 58.5576933,24.8720191 C58.3759873,24.8720191 58.1995103,24.8720191 58.0047319,24.8720191 C57.9459062,24.576322 57.8923095,24.3015408 57.8374055,24.0267595 C57.7838088,23.99434 57.7315193,23.9620512 57.6779226,23.9297625 C57.5890305,24.0715977 57.5249758,24.2418 57.40471,24.3508236 C56.6687354,25.0213056 55.7837358,25.2043188 54.8359888,25.0198676 C54.0542609,24.8677052 53.5117574,24.3735695 53.3405094,23.587397 C53.1405021,22.6688014 53.3405094,21.8381829 54.1065504,21.2175066 C54.7118012,20.7282077 55.4333962,20.5199648 56.1850576,20.4155165 C56.6988019,20.3442721 57.2190823,20.3121141 57.7798871,20.2582559 C57.8295621,19.681895 57.7524351,19.1383457 57.4622285,18.6408112 C57.1772507,18.1515123 56.7249466,17.9250988 56.1667563,17.8831365 C55.4150949,17.8265331 54.7170302,17.9924215 54.0124293,18.4238098 Z" id="Fill-61"></path>
                </g>
                <path d="M63.2574235,26.6868207 C62.6953114,26.7181944 62.2142481,26.7154492 61.7410282,26.7788502 C61.1828379,26.8537549 60.6311838,26.9919299 60.174958,27.3567798 C59.5932374,27.8234635 59.4206821,28.4326361 59.5971591,29.1467798 C59.7501059,29.7654952 60.1788797,30.1368813 60.8272694,30.2234204 C61.8259986,30.3568894 62.8992404,29.7171274 63.1881399,28.7522556 C63.3868399,28.0915779 63.277032,27.4067163 63.2574235,26.6868207 Z M63.222128,26.0976489 C63.3345505,25.4803715 63.2456583,24.9561693 62.9868253,24.4676547 C62.6691667,23.8693323 62.120127,23.6512851 61.4769663,23.6264476 C60.7932812,23.6000414 60.1645001,23.8054084 59.5239538,24.1634606 C59.4402906,23.9786173 59.3696998,23.8213566 59.2781932,23.6170355 C60.3501278,23.0307395 61.4129117,22.7954368 62.5567443,23.1906147 C63.2678813,23.436506 63.6770466,23.983977 63.8600598,24.6847869 C63.9646388,25.0837557 64.0077776,25.5071698 64.0169283,25.9209104 C64.0391513,27.0482718 64.0234645,28.1765483 64.0365369,29.3043019 C64.0404586,29.7197419 64.0822902,30.134659 64.1110494,30.6128464 C63.9084276,30.6256573 63.712342,30.6380761 63.4757321,30.6531093 C63.4286715,30.3506146 63.3881472,30.0902129 63.3358577,29.7584361 C63.1802965,29.8847153 63.0548017,29.9754375 62.9423793,30.0796243 C62.3606587,30.6167681 61.6678229,30.8736402 60.8860951,30.8563847 C60.0089388,30.8370376 59.2808077,30.5102283 58.9291609,29.6530728 C58.5657489,28.7640207 58.6977799,27.9100026 59.3683926,27.2154675 C59.662521,26.9106197 60.0573066,26.6387144 60.4573212,26.5147883 C61.1279339,26.3070683 61.8364565,26.220137 62.533214,26.1034007 C62.7528299,26.0666674 62.9815964,26.0976489 63.222128,26.0976489 Z" id="Fill-63"></path>
                <g id="Group-68" transform="translate(46.578383, 22.897794)">
                    <path d="M5.64465051,3.39659459 C5.5636018,2.96193819 5.52961363,2.60872269 5.42764912,2.27668442 C5.0655444,1.09768713 4.07465855,0.521849116 2.90991015,0.78682611 C1.78960782,1.04147593 0.884999628,2.29877673 1.04840429,3.39659459 C2.54126924,3.39659459 4.03544144,3.39659459 5.64465051,3.39659459 Z M6.31134151,3.99321767 C4.5112758,3.99321767 2.74258378,3.99321767 0.98434966,3.99321767 C0.603943616,5.55784996 1.79875848,7.13542389 3.39881689,7.23503537 C4.1779303,7.28353387 4.94135686,7.20915207 5.72177751,6.86678663 C5.7949828,7.03620458 5.86426637,7.19385739 5.92178481,7.32458112 C5.86818808,7.40536838 5.85250123,7.45569702 5.82112754,7.46981518 C4.81716932,7.92747895 3.75961437,8.00499812 2.69944495,7.78211416 C1.41181625,7.51151605 0.627473887,6.65566781 0.295435622,5.40804056 C-0.0222230335,4.21688597 0.0941210831,3.04024171 0.628781124,1.92869786 C1.30593003,0.517012338 2.72036075,-0.150724457 4.2132257,0.188765061 C4.8550792,0.335044911 5.3531366,0.686038117 5.72439198,1.22331263 C6.21722043,1.93627984 6.44860143,2.98023952 6.31134151,3.99321767 Z" id="Fill-65"></path>
                    <path d="M96.2126627,3.38626741 C96.330314,2.94023806 96.208741,2.5382626 96.0688666,2.14922879 C95.6008757,0.842645141 94.1250048,0.314129115 92.9393406,1.03938435 C92.0883291,1.56018768 91.7667488,2.39590446 91.6098803,3.38626741 C93.178565,3.38626741 94.6910385,3.38626741 96.2126627,3.38626741 Z M97.0035412,4.0055057 C95.1721018,4.0055057 93.4034098,4.0055057 91.6451757,4.0055057 C91.3863427,5.79184543 92.5432477,7.19098147 94.2504996,7.24444747 C94.9903959,7.26758557 95.7041474,7.15660113 96.4205134,6.87672163 C96.4884898,7.04940767 96.5486227,7.19882489 96.6244424,7.38942009 C96.5682312,7.42589201 96.5198635,7.46628564 96.4662667,7.49020808 C95.4753809,7.92525664 94.4361272,7.99806976 93.3968736,7.78865035 C92.2425831,7.55635429 91.4490901,6.83541293 91.079142,5.71942448 C90.6307596,4.3702249 90.7248807,3.03200611 91.3902644,1.77130649 C92.0804857,0.462761992 93.4609283,-0.136214123 94.8858169,0.187980719 C95.5525079,0.339620241 96.0714811,0.702247859 96.4335858,1.27520995 C96.9434083,2.08086028 97.1107347,2.9641605 97.0035412,4.0055057 Z" id="Fill-67"></path>
                </g>
                <path d="M20.5284126,29.730592 C20.5992649,29.8942581 20.6629273,30.0415837 20.7261976,30.1878636 C20.6695942,30.2532254 20.6386127,30.3234241 20.5890684,30.3409411 C19.0443061,30.8847518 17.4842492,31.0025338 15.9298133,30.4093096 C14.6157784,29.9077226 13.7722182,28.9325236 13.3316793,27.6120833 C12.9738884,26.5392336 12.9260436,25.4299121 13.1324563,24.3281725 C13.6169185,21.7416729 15.5109745,20.162661 18.1438811,20.1127245 C19.0033896,20.0965148 19.8479956,20.1885443 20.6868498,20.548296 C20.6212264,20.749872 20.5659303,20.9195514 20.5027907,21.1132839 C20.0093087,21.0041296 19.5490304,20.892753 19.0848305,20.8016386 C18.3738241,20.6621563 17.6646479,20.7279104 16.9715507,20.9034723 C15.5450934,21.2651849 14.5802216,22.1554135 14.113015,23.548667 C13.7035883,24.7693651 13.6788815,26.0133321 14.0453001,27.2510243 C14.5487172,28.9518707 15.8980475,30.0143932 17.6747136,30.1281228 C18.5380131,30.1835497 19.3868023,30.1145276 20.2064401,29.8119021 C20.301084,29.7769989 20.4030485,29.7617042 20.5284126,29.730592" id="Fill-69"></path>
                <path d="M44.8711313,3.90925718 C45.4986052,3.90925718 46.0750968,3.90925718 46.6908056,3.90925718 C46.6908056,6.37065423 46.6908056,8.80146192 46.6908056,11.2785458 C46.0947054,11.2785458 45.5038342,11.2785458 44.8711313,11.2785458 C44.8711313,8.83479647 44.8711313,6.40438095 44.8711313,3.90925718" id="Fill-73"></path>
                <path d="M10.1094701,3.90625053 C10.7279241,3.90625053 11.3041543,3.90625053 11.9230004,3.90625053 C11.9230004,6.36451021 11.9230004,8.7953179 11.9230004,11.2755392 C11.3367045,11.2755392 10.7449182,11.2755392 10.1094701,11.2755392 C10.1094701,8.84185555 10.1094701,6.41144003 10.1094701,3.90625053" id="Fill-74"></path>
                <path d="M82.571854,23.232577 C82.75356,23.232577 82.9365732,23.232577 83.1731832,23.232577 C83.1967135,23.5684062 83.2189365,23.8952156 83.2490029,24.3256888 C83.4045642,24.1693432 83.5117576,24.0688167 83.6111077,23.9608389 C84.2804131,23.2300932 85.1222739,22.9154412 86.0909368,23.0214582 C87.3746438,23.1619862 88.2125828,24.0935234 88.3537645,25.4752732 C88.3864454,25.7860035 88.3799092,26.1013092 88.3812164,26.4143925 C88.3838309,27.6054164 88.3812164,28.7964402 88.3812164,29.9874641 C88.3812164,30.1915238 88.3812164,30.3957143 88.3812164,30.6184675 C88.11454,30.6184675 87.91584,30.6184675 87.6452419,30.6184675 C87.6452419,30.3830341 87.6452419,30.1791051 87.6452419,29.9753068 C87.6452419,28.8262452 87.6596215,27.6766608 87.6387057,26.5279914 C87.629555,26.051242 87.607332,25.5601129 87.4857589,25.1032335 C87.1471845,23.8226639 85.9340683,23.268526 84.7301028,23.8302459 C83.8424887,24.2445093 83.3392023,24.9596989 83.3195938,25.9509769 C83.293449,27.2459261 83.3065214,28.5416597 83.3039069,29.8370011 C83.3025997,30.0832846 83.3039069,30.3295681 83.3039069,30.6131079 C83.0411522,30.6131079 82.8424522,30.6131079 82.571854,30.6131079 C82.571854,28.1735417 82.571854,25.7381586 82.571854,23.232577" id="Fill-76"></path>
                <path d="M22.674504,37.4268207 C22.674504,37.6099646 22.674504,37.7680096 22.674504,38.0021358 C21.5749867,38.0021358 20.4788683,38.0021358 19.3251007,38.0021358 C19.3251007,41.286308 19.3251007,44.4957062 19.3251007,47.7563481 C19.0729346,47.7771331 18.8755418,47.7934736 18.5857273,47.817396 C18.5802369,46.9731822 18.5730471,46.1675319 18.5704326,45.3617508 C18.5678181,44.5465577 18.5699097,43.7313645 18.5699097,42.9160406 C18.5699097,42.1217633 18.5699097,41.3276166 18.5699097,40.5332086 C18.5699097,39.72246 18.5699097,38.9117115 18.5699097,38.0404378 C17.4377115,38.0404378 16.3606787,38.0404378 15.2346246,38.0404378 C15.2083491,37.8138936 15.1883484,37.6422534 15.1635109,37.4268207 C17.6894854,37.4268207 20.1655235,37.4268207 22.674504,37.4268207" id="Fill-77"></path>
                <path d="M68.797495,47.7760874 C68.797495,44.2835416 68.797495,40.861848 68.797495,37.4244676 C69.0314905,37.4244676 69.2301905,37.4244676 69.4929452,37.4244676 C69.4929452,40.6695534 69.4929452,43.8815661 69.4929452,47.1627316 C71.0485575,47.1627316 72.5427297,47.1627316 74.0682756,47.1627316 C74.0682756,47.4060085 74.0682756,47.578956 74.0682756,47.7760874 C72.2995836,47.7760874 70.5740304,47.7760874 68.797495,47.7760874" id="Fill-78"></path>
                <path d="M69.2759438,30.1494308 C69.309932,30.2702195 69.3465346,30.4051264 69.3831373,30.5341507 C68.1726356,31.2081623 66.9268385,30.6518021 66.6902285,29.343519 C66.6418607,29.0784113 66.6418607,28.8021921 66.6405535,28.5310711 C66.6366318,27.1927216 66.637939,25.8542413 66.637939,24.5160225 C66.637939,24.3113092 66.637939,24.1067265 66.637939,23.8469785 C66.2157014,23.8277621 65.8483677,23.8111602 65.4405097,23.7927281 C65.4182867,23.6170355 65.3986781,23.4612128 65.3712261,23.2417276 C65.7908493,23.2189817 66.175177,23.1981966 66.6117943,23.1745356 C66.6117943,22.7341274 66.6117943,22.3235242 66.6117943,21.8669062 C66.8614766,21.7670333 67.0797852,21.6793177 67.3804498,21.5591826 C67.3804498,22.1422104 67.3804498,22.6353003 67.3804498,23.192837 C68.0955086,23.192837 68.7543562,23.192837 69.4524208,23.192837 C69.4524208,23.4134986 69.4524208,23.5681448 69.4524208,23.7942968 C68.7844226,23.7942968 68.125575,23.7942968 67.4340465,23.7942968 C67.4118235,24.0212332 67.3830643,24.1812391 67.3830643,24.3411142 C67.3791425,25.7422111 67.3752208,27.1434387 67.3856787,28.5445356 C67.386986,28.8342194 67.409209,29.1330538 67.4837215,29.4111032 C67.6222887,29.9278541 67.9072664,30.1302144 68.4353903,30.1478621 C68.7059884,30.156882 68.9765865,30.1494308 69.2759438,30.1494308" id="Fill-79"></path>
                <path d="M125.249229,23.8484165 C124.800847,23.8258013 124.430898,23.8072385 124.030884,23.7872378 C124.030884,23.5910214 124.030884,23.4344144 124.030884,23.237283 C124.412597,23.2181974 124.781238,23.1997653 125.217855,23.1779345 C125.217855,22.7353039 125.217855,22.3074452 125.217855,21.8552718 C125.477996,21.7573597 125.685846,21.6793177 125.970824,21.5721242 C125.970824,22.1288766 125.970824,22.617914 125.970824,23.1744049 C126.685883,23.1744049 127.34473,23.1744049 128.053253,23.1744049 C128.053253,23.4099691 128.053253,23.5778183 128.053253,23.7967806 C127.383947,23.7967806 126.740787,23.7967806 126.064945,23.7967806 C126.036186,23.9779637 125.995662,24.11457 125.995662,24.2515684 C125.990433,25.715282 125.993047,27.179257 125.994354,28.6431013 C125.994354,28.7475496 125.999583,28.8522593 126.007427,28.9564461 C126.07671,29.8555639 126.4362,30.1791051 127.334272,30.1474699 C127.498984,30.1415874 127.665003,30.1268156 127.862396,30.1141354 C127.910764,30.2540098 127.956517,30.3842106 127.999656,30.5085289 C126.974782,31.1812332 125.672774,30.7358574 125.374724,29.610849 C125.284524,29.2726668 125.25838,28.9099084 125.254458,28.5580002 C125.241386,27.2197814 125.249229,25.8813011 125.249229,24.5428209 C125.249229,24.3368003 125.249229,24.1305183 125.249229,23.8484165" id="Fill-80"></path>
                <path d="M108.856474,23.8227946 C108.421164,23.8227946 108.072131,23.8227946 107.661659,23.8227946 C107.64205,23.6148132 107.627671,23.4465717 107.608062,23.2350607 C108.034221,23.2158443 108.402862,23.1992424 108.823793,23.180026 C108.823793,22.7407943 108.823793,22.3313676 108.823793,21.8803708 C109.077397,21.7746153 109.297013,21.6831087 109.600292,21.5564374 C109.600292,22.1422104 109.600292,22.6362153 109.600292,23.1917912 C110.316658,23.1917912 110.975505,23.1917912 111.672263,23.1917912 C111.672263,23.4100998 111.672263,23.5652689 111.672263,23.7915516 C111.014722,23.7915516 110.355875,23.7915516 109.668268,23.7915516 C109.635587,23.9922126 109.59637,24.1285574 109.595063,24.265033 C109.591141,25.6856077 109.588527,27.1063132 109.597677,28.5268879 C109.598984,28.7960481 109.63428,29.0703064 109.694413,29.3330611 C109.822522,29.9014479 110.128416,30.1366199 110.711443,30.1490386 C110.961126,30.1543983 111.210808,30.1499537 111.514087,30.1499537 C111.537617,30.2744027 111.566377,30.4244735 111.599058,30.5985975 C111.023873,30.8376912 110.470912,30.8447503 109.921872,30.6831758 C109.363682,30.5185946 109.080011,30.0779249 108.968896,29.5390817 C108.894384,29.1737089 108.864317,28.7938258 108.861703,28.4198252 C108.84863,27.145661 108.856474,25.8712354 108.856474,24.5968098 C108.856474,24.369612 108.856474,24.1425448 108.856474,23.8227946" id="Fill-81"></path>
                <path d="M14.0332735,47.7780482 C13.7809767,47.7780482 13.5975713,47.7780482 13.3720729,47.7780482 C13.3720729,44.3215822 13.3720729,40.8903458 13.3720729,37.4421153 C13.4709,37.4226375 13.5493343,37.395447 13.6282914,37.3941397 C13.7505181,37.3921789 13.873137,37.4078657 14.0332735,37.4185851 C14.0332735,40.8674691 14.0332735,44.2996206 14.0332735,47.7780482" id="Fill-82"></path>
                <path d="M54.8283576,23.2476102 C55.0022201,23.2476102 55.1969985,23.2476102 55.4283795,23.2476102 C55.4506025,23.6338988 55.4715183,23.9979644 55.4924341,24.3618993 C55.9042138,23.835867 56.2924633,23.3208155 56.940853,23.1227691 C57.2258307,23.0353149 57.5356459,23.0247263 57.8846783,22.9716524 C57.8846783,23.264735 57.8846783,23.4626507 57.8846783,23.682528 C57.784021,23.7001758 57.7055868,23.7272356 57.6271526,23.7257976 C56.8728766,23.7123331 56.3669758,24.1088181 56.0061783,24.7230889 C55.7264296,25.1998383 55.5878624,25.7250863 55.5839407,26.2790934 C55.57479,27.491556 55.5721756,28.7040186 55.5669466,29.9163504 C55.5656394,30.1410645 55.5669466,30.3657786 55.5669466,30.6201669 C55.2950413,30.6201669 55.095034,30.6201669 54.8283576,30.6201669 C54.8283576,28.1586392 54.8283576,25.7229947 54.8283576,23.2476102" id="Fill-84"></path>
                <path d="M55.1630103,40.3512411 C55.3930841,40.3512411 55.5917841,40.3512411 55.8270868,40.3512411 C55.8270868,42.8302859 55.8270868,45.2843624 55.8270868,47.7709891 C55.5970131,47.7709891 55.3996203,47.7709891 55.1630103,47.7709891 C55.1630103,45.2915522 55.1630103,42.8377371 55.1630103,40.3512411" id="Fill-85"></path>
                <path d="M105.445892,23.2451265 C105.683809,23.2451265 105.882509,23.2451265 106.111275,23.2451265 C106.111275,25.7148898 106.111275,28.1475276 106.111275,30.6154609 C105.879894,30.6154609 105.681194,30.6154609 105.445892,30.6154609 C105.445892,28.1704043 105.445892,25.73659 105.445892,23.2451265" id="Fill-86"></path>
                <path d="M71.8381289,30.6253959 C71.6145913,30.6253959 71.4302708,30.6253959 71.2459504,30.6251344 C71.1217628,30.1865563 71.083853,24.1682974 71.205426,23.2447343 C71.3975899,23.2447343 71.5949827,23.2447343 71.8381289,23.2447343 C71.8381289,25.6874378 71.8381289,28.118507 71.8381289,30.6253959" id="Fill-87"></path>
                <path d="M45.7535165,0.676590147 C46.3600746,0.660641853 46.8071497,1.06523179 46.8359089,1.65388073 C46.8659754,2.27272685 46.4372016,2.72738397 45.8071132,2.74633891 C45.1900972,2.76490168 44.7064194,2.30802225 44.7090339,1.70800035 C44.7116484,1.13503826 45.1600308,0.692276994 45.7535165,0.676590147" id="Fill-88"></path>
                <path d="M12.0725483,1.70617022 C12.0783002,2.31691147 11.6199828,2.7573197 10.9892408,2.7468618 C10.3973238,2.73718825 9.94841851,2.29521133 9.94423536,1.71845825 C9.94031364,1.14471181 10.3835978,0.69842101 10.9785215,0.677113042 C11.6082177,0.654367114 12.0665351,1.08536324 12.0725483,1.70617022" id="Fill-89"></path>
                <path d="M56.0793836,38.2923424 C56.0715402,38.6522249 55.7904842,38.9260911 55.4453736,38.9098813 C55.1277149,38.8949788 54.8819543,38.626603 54.8780326,38.2894665 C54.8728036,37.9328522 55.144709,37.641469 55.4832834,37.6402925 C55.8270868,37.639116 56.0885343,37.9247473 56.0793836,38.2923424" id="Fill-95"></path>
                <path d="M70.8995325,21.1692337 C70.8890746,20.7962789 71.1544438,20.489601 71.486482,20.4880323 C71.7989117,20.4864637 72.0472868,20.7543166 72.0616664,21.1097544 C72.0773533,21.5011412 71.8394361,21.772393 71.4773314,21.7746153 C71.1413714,21.7767068 70.9086832,21.5332993 70.8995325,21.1692337" id="Fill-96"></path>
                <path d="M106.325662,21.1263563 C106.333506,21.5185275 106.09036,21.7807593 105.724333,21.7734387 C105.387066,21.7667718 105.163528,21.519704 105.160914,21.1526318 C105.159607,20.7786312 105.431512,20.479666 105.766165,20.4893396 C106.081209,20.498621 106.317819,20.7673889 106.325662,21.1263563" id="Fill-97"></path>
            </g>
        </g>
    </g>
</svg>