<?xml version="1.0" encoding="UTF-8"?>
<svg width="147px" height="43px" viewBox="0 0 147 43" version="1.1" xmlns="http://www.w3.org/2000/svg" xmlns:xlink="http://www.w3.org/1999/xlink">
    <!-- Generator: Sketch 49 (51002) - http://www.bohemiancoding.com/sketch -->
    <title>monash</title>
    <desc>Created with Sketch.</desc>
    <defs></defs>
    <g id="Page-1" stroke="none" stroke-width="1" fill="none" fill-rule="evenodd">
        <g id="monash" transform="translate(0.000000, -1.000000)" fill="#FFFFFF" fill-rule="nonzero">
            <path d="M56.72,21.68 L56.72,32 C56.72,36.25 54.98,38.23 51.23,38.23 C46.89,38.24 46,34.86 46,32 L46,21.68 L44.72,21.68 L44.72,32 C44.72,36.88 46.91,39.35 51.23,39.35 C55.71,39.36 58,36.89 58,32 L58,21.68 L56.72,21.68 Z M66.17,26.17 C64.3346283,26.1163344 62.6374381,27.1409054 61.83,28.79 L61.83,26.46 L60.71,26.46 L60.71,39 L61.83,39 L61.83,32.2 C61.83,29.14 63.52,27.2 66.14,27.2 C69.52,27.2 69.52,30.14 69.52,31.11 L69.52,39 L70.64,39 L70.64,31.25 C70.64,29.86 70.64,26.17 66.16,26.17 L66.17,26.17 Z M73.42,26.46 L73.42,38.96 L74.55,38.96 L74.55,26.46 L73.42,26.46 Z M73.42,22.63 L73.42,24.32 L74.55,24.32 L74.55,22.63 L73.42,22.63 Z M85.67,26.46 L81.56,37.56 L77.16,26.45 L75.88,26.45 L80.88,38.95 L82.15,38.95 L86.87,26.45 L85.67,26.45 L85.67,26.46 Z M93,27.17 C95.78,27.17 97.29,29.55 97.38,31.93 L88.62,31.93 C88.85,29.55 90.41,27.17 93.01,27.17 L93,27.17 Z M93.01,26.17 C91.6317482,26.134873 90.3001568,26.6704043 89.33,27.65 C88.0448551,29.0953584 87.3802818,30.9884942 87.48,32.92 C87.3813047,34.6908651 87.9973334,36.4272737 89.19,37.74 C90.2027109,38.7380239 91.5787138,39.2797574 93,39.24 C95.7465359,39.4768204 98.1665721,37.4459581 98.41,34.7 L98.41,34.58 L97.32,34.58 L97.32,34.67 C97.0267135,36.8019166 95.1489928,38.3536441 93,38.24 C91.8993673,38.2680426 90.8358407,37.8411849 90.06,37.06 C89.0729331,35.9426429 88.5505838,34.4900826 88.6,33 L98.52,33 L98.52,32.9 L98.52,32.43 C98.5985246,30.7262575 98.0184435,29.0576291 96.9,27.77 C95.8870727,26.7057567 94.4685024,26.1237791 93,26.17 L93.01,26.17 Z M101.65,28.94 L101.65,26.46 L100.53,26.46 L100.53,39 L101.65,39 L101.65,32.13 C101.574191,30.835029 102.067209,29.571442 103,28.67 C103.868248,27.8038481 105.080062,27.3742051 106.3,27.5 L106.42,27.5 L106.42,26.39 L106.32,26.39 C104.393718,26.2431111 102.560919,27.2417516 101.64,28.94 L101.65,28.94 Z M112.34,32 L111.96,31.92 C110.1,31.52 108.34,31.15 108.34,29.4 C108.34,27.65 110.11,27.14 111.77,27.14 C113.08,27.14 115.27,27.53 115.3,30.14 L115.3,30.25 L116.42,30.25 L116.42,30.2 C116.42,27.6 114.77,26.2 111.77,26.2 C110.7,26.2 107.22,26.44 107.22,29.46 C107.22,32.18 109.71,32.69 111.54,33.05 L111.86,33.12 C113.86,33.51 115.66,33.88 115.66,35.77 C115.66,38.03 113.01,38.27 111.87,38.27 C110.87182,38.3670472 109.877684,38.0491067 109.121063,37.3908468 C108.364443,36.7325868 107.912003,35.7920064 107.87,34.79 L107.87,34.69 L106.75,34.69 L106.75,34.8 C106.82,37.56 108.75,39.28 111.83,39.28 C112.98,39.28 116.74,39.03 116.74,35.78 C116.74,33.11 114.74,32.52 112.3,32.07 L112.34,32 Z M119.08,26.46 L119.08,38.96 L120.2,38.96 L120.2,26.46 L119.08,26.46 Z M125,26.46 L125,22.63 L123.88,22.63 L123.88,26.45 L121.61,26.45 L121.61,27.45 L123.88,27.45 L123.88,36.13 C123.81434,36.9091125 124.075096,37.680515 124.6,38.26 C125.464597,38.8881219 126.54907,39.1339356 127.6,38.94 L127.7,38.94 L127.7,38 L127.59,38 C126.59,38 125.91,38 125.51,37.58 C125.148021,37.1300821 124.982244,36.5534664 125.05,35.98 L125.05,27.46 L128.17,27.46 L132.93,38.78 C132.671311,39.7758639 132.256143,40.7243382 131.7,41.59 C131.031229,42.206083 130.119125,42.4855988 129.22,42.35 L129.11,42.35 L129.11,43.35 L129.22,43.35 C130.59,43.35 131.47,43.35 132.15,42.78 C132.825978,42.0401729 133.328201,41.1587202 133.62,40.2 L138.94,26.45 L137.68,26.45 L133.54,37.45 L129.05,26.45 L125,26.46 Z M119.08,22.63 L119.08,24.32 L120.2,24.32 L120.2,22.63 L119.08,22.63 Z M73.27,2.08 C69.48,2.08 66.84,4.87 66.84,9.55 C66.84,15.16 70.17,17.69 73.32,17.69 C77.11,17.69 79.62,14.78 79.62,10.17 C79.62,5.23 77.11,2.08 73.27,2.08 Z M73.09,18.87 C70.6697643,18.8705394 68.3513075,17.8962908 66.6579105,16.1671443 C64.9645135,14.4379978 64.0389061,12.0996964 64.09,9.68 C64.1721912,7.25801234 65.2276407,4.97151408 67.0175582,3.33781436 C68.8074758,1.70411464 71.1805917,0.861280834 73.6,1 C75.9884847,0.99617247 78.2764011,1.96120128 79.9406375,3.67444125 C81.6048739,5.38768121 82.50312,7.70263169 82.43,10.09 C82.3729116,12.5004517 81.351018,14.7871994 79.5933596,16.4377064 C77.8357012,18.0882135 75.4892774,18.964442 73.08,18.87 L73.09,18.87 Z M146.08,1.48 L146.08,1.23 L141.08,1.23 L141.08,1.48 C142.08,1.55 142.34,1.74 142.34,3.13 L142.34,9.19 L133.43,9.19 L133.43,3.13 C133.43,1.73 133.7,1.54 134.68,1.48 L134.68,1.23 L129.68,1.23 L129.68,1.48 C130.68,1.55 130.93,1.74 130.93,3.13 L130.93,16.73 C130.93,18.13 130.66,18.32 129.68,18.39 L129.68,18.63 L134.68,18.63 L134.68,18.39 C133.68,18.33 133.43,18.13 133.43,16.73 L133.43,10.24 L142.34,10.24 L142.34,16.73 C142.34,18.13 142.07,18.32 141.08,18.39 L141.08,18.63 L146.08,18.63 L146.08,18.39 C145.08,18.33 144.83,18.13 144.83,16.73 L144.83,3.13 C144.83,1.73 145.1,1.54 146.08,1.48 Z M83.75,1.23 L83.75,1.48 C84.7,1.53 85,1.63 85,2.64 L85,16.74 C85,18.14 84.73,18.33 83.75,18.4 L83.75,18.64 L87.5,18.64 L87.5,18.4 C86.5,18.34 86.24,18.14 86.24,16.74 L86.24,4.07 C86.24,4.3 95.93,16.07 98.02,18.63 L98.42,18.63 L98.42,2.63 C98.42,1.63 98.69,1.52 99.65,1.47 L99.65,1.23 L95.94,1.23 L95.94,1.48 C96.94,1.53 97.17,1.64 97.17,2.64 L97.17,13.7 L87.06,1.23 L83.75,1.23 Z M104.44,12.37 C105.57,9.61 107.31,5.2 107.31,5.2 C107.31,5.2 108.87,9.14 110.2,12.37 L104.44,12.37 Z M108.17,1.23 L107.82,1.23 C106.94,3.32 102.82,12.96 101.45,16.29 C101.207467,16.9275426 100.892039,17.5349082 100.51,18.1 C100.34047,18.2838558 100.100018,18.3858654 99.85,18.38 L99.85,18.62 L103.16,18.62 L103.16,18.38 C102.9,18.38 102.33,18.38 102.29,17.89 C102.29,17.7160498 102.32046,17.5434432 102.38,17.38 C102.48,17.07 103.15,15.38 103.99,13.46 L110.62,13.46 C111.27,15.08 111.87,16.46 112.15,17.08 C112.272025,17.3365053 112.356234,17.6093407 112.4,17.89 C112.4,18.37 111.97,18.38 111.49,18.38 L111.49,18.62 L116.12,18.62 L116.12,18.38 C115.55,18.38 115.37,18.2 114.96,17.26 L108.17,1.23 Z M43.82,1.23 L43.82,1.48 C44.36,1.48 44.67,1.56 44.82,1.77 C44.888323,1.83977244 44.9486924,1.91691116 45,2 C45.0299227,2.09047423 45.0467596,2.18476107 45.05,2.28 L45.05,16.71 C45.05,18.11 44.78,18.3 43.8,18.37 L43.8,18.61 L47.5,18.61 L47.5,18.37 C46.5,18.31 46.25,18.11 46.25,16.71 L46.25,4.66 C46.25,4.43 46.2,3.99 46.2,3.99 L46.43,4.66 L52.43,18.57 L52.8,18.57 L58.95,4.25 L59.13,3.66 C59.0992716,3.83842 59.0825539,4.01897125 59.08,4.2 L59.08,16.74 C59.08,18.14 58.81,18.33 57.83,18.4 L57.83,18.64 L62.83,18.64 L62.83,18.4 C61.83,18.34 61.58,18.14 61.58,16.74 L61.58,2.64 C61.58,1.64 61.85,1.53 62.81,1.48 L62.81,1.23 L58.89,1.23 L53.34,14.36 L47.71,1.23 L43.82,1.23 Z M117,17.47 C118.422528,18.3564282 120.054642,18.849858 121.73,18.9 L121.84,18.9 C124.56,18.9 127.42,16.9 127.42,13.68 C127.42,10.25 125.01,9.46 122.58,8.2 C120.15,6.94 119.1,6.38 119.1,4.77 C119.074768,4.02073166 119.370496,3.29630756 119.912877,2.77875352 C120.455259,2.26119949 121.192735,1.99971384 121.94,2.06 C122.577712,2.05733114 123.20625,2.2118898 123.77,2.51 C124.957605,3.17837487 125.736692,4.39195291 125.85,5.75 L126.11,5.75 L125.95,1.88 C125.108226,1.51645525 124.224925,1.25784633 123.32,1.11 C122.988406,1.0662945 122.654449,1.04291749 122.32,1.04 C119.86,1 117,2.5 117,5.57 C117,7.67 118.25,8.98 120.74,10.2 C123.23,11.42 125.06,11.94 125.06,14.4 C125.101245,15.3305496 124.746107,16.2349716 124.082714,16.8888326 C123.419322,17.5426935 122.509855,17.8847063 121.58,17.83 C120.595097,17.831915 119.642911,17.4766217 118.9,16.83 C117.933174,16.0085867 117.314741,14.8503663 117.17,13.59 L116.91,13.59 L117,17.47 Z M4.71,14.56 L4.71,1.16 L30.83,1.16 L30.83,14.56 C30.8009828,18.7612235 29.6365608,22.8764358 27.46,26.47 C25.2200073,30.1803765 21.8066112,33.0377761 17.76,34.59 C13.7235338,33.0293413 10.3189896,30.1734634 8.08,26.47 C5.90664729,22.8750416 4.74248021,18.76073 4.71,14.56 Z M32.4,20.85 L35.53,23.6 L35.48,23.77 C34.8179721,25.7950464 33.9536074,27.7482426 32.9,29.6 L32.73,29.91 L31.58,28.91 L31.44,29.15 C28.6800709,33.6779513 24.4784895,37.1469853 19.51,39 L17.73,39.63 L16,39 C11.0564867,37.1637622 6.86812745,33.7286037 4.1,29.24 C4.05,29.16 3.97,29.08 3.97,29 L2.8,30 L2.63,29.68 C1.58223876,27.8287901 0.718122078,25.8795036 0.05,23.86 L0,23.69 L2.79,21.17 L3.12,20.87 L3.24,21.3 C3.39,21.79 3.56,22.31 3.74,22.79 L4.54,22.07 L4.87,21.78 L5.01,22.19 C5.58326672,23.9441051 6.36555829,25.6228424 7.34,27.19 C9.65098743,30.9928847 13.1727865,33.9089343 17.34,35.47 L17.75,35.62 L18.17,35.47 C22.3380029,33.9102973 25.8602045,30.9939144 28.17,27.19 C29.1383197,25.6195356 29.9202637,23.9415442 30.5,22.19 L30.64,21.78 L31.77,22.78 C31.95,22.28 32.12,21.8 32.27,21.28 L32.4,20.85 Z M31,28.89 C31.8061536,27.5867131 32.4955039,26.2147051 33.06,24.79 C32.81,24.53 31.32,23.19 30.89,22.79 C30.3202703,24.4318529 29.5689465,26.0049372 28.65,27.48 C26.2809662,31.3930495 22.6632327,34.394324 18.38,36 L17.76,36.22 L17.16,36 C12.8626325,34.3676399 9.24098023,31.33433 6.88,27.39 C5.96675824,25.9132661 5.21891751,24.3404531 4.65,22.7 L2.48,24.7 C3.0478215,26.1573076 3.74738632,27.5597844 4.57,28.89 C7.27896993,33.3156828 11.3956896,36.7034367 16.26,38.51 L17.79,39.08 L19.34,38.52 C24.193921,36.7037361 28.2991617,33.3132156 31,28.89 Z M28.64,7 L28.62,7.03 C28.6242735,6.97675227 28.6242735,6.92324773 28.62,6.87 C28.4130945,6.97843792 28.2426805,7.14537412 28.13,7.35 C28.0428344,7.50933408 27.9980699,7.68839198 28,7.87 C27.9967579,7.91327269 27.9967579,7.95672731 28,8 C28.0979017,7.9099667 28.2092379,7.83574256 28.33,7.78 C28.4095085,7.70639781 28.4740272,7.61810906 28.52,7.52 C28.5995246,7.35822545 28.6405928,7.18026318 28.64,7 Z M26.52,10.59 L26.51,10.59 C26.276003,10.6323245 26.0600524,10.7437829 25.89,10.91 C26.1035119,11.0160189 26.343231,11.0577092 26.58,11.03 C26.8112398,10.9966959 27.0235205,10.8834795 27.18,10.71 C26.9776413,10.6028886 26.747111,10.560974 26.52,10.59 Z M25.4,10.94 L25.39,10.93 C25.6026738,10.8518229 25.7824929,10.7037366 25.9,10.51 C26.0107119,10.3367862 26.0696883,10.1355725 26.07,9.93 C26.0716696,9.91003484 26.0716696,9.88996516 26.07,9.87 C25.8639885,9.95505388 25.6893365,10.1017615 25.57,10.29 C25.4566402,10.4694132 25.3976006,10.6777883 25.4,10.89 C25.3990523,10.9066532 25.3990523,10.9233468 25.4,10.94 Z M26.26,9.73 L26.27,9.69 C26.3057589,9.93372178 26.2746517,10.1825795 26.18,10.41 L26.32,10.41 C26.4463154,10.2990442 26.5426168,10.1580315 26.6,10 C26.6359074,9.89693863 26.656133,9.78906894 26.66,9.68 C26.6496351,9.57415998 26.6261206,9.4700242 26.59,9.37 C26.4572234,9.46693804 26.3450482,9.58931095 26.26,9.73 Z M26.75,9.17 L26.78,9.2 C26.8751807,9.43086747 26.902921,9.6839981 26.86,9.93 L27,9.84 C27.090428,9.70219582 27.1453914,9.54417615 27.16,9.38 C27.1620794,9.35003603 27.1620794,9.31996397 27.16,9.29 C27.1547891,9.09596768 27.0996854,8.90654881 27,8.74 C26.887788,8.86447405 26.8026563,9.01090059 26.75,9.17 Z M27.1,8.51 L27.11,8.49 C27.2424702,8.69825484 27.3246389,8.93448982 27.35,9.18 L27.46,9.06 C27.499622,8.95448659 27.5199455,8.84270751 27.52,8.73 C27.5229788,8.68004437 27.5229788,8.62995563 27.52,8.58 C27.4788456,8.35936128 27.3705833,8.15680601 27.21,8 C27.1436241,8.16220751 27.1063867,8.33485362 27.1,8.51 Z M27.26,7.79 L27.28,7.81 C27.4675231,7.97813097 27.6087031,8.19162265 27.69,8.43 C27.7155608,8.37746703 27.745676,8.32727504 27.78,8.28 L27.78,8.22 C27.7884424,7.84640559 27.5878784,7.49927572 27.26,7.32 C27.2516457,7.40312395 27.2516457,7.48687605 27.26,7.57 C27.2519088,7.64311015 27.2519088,7.71688985 27.26,7.79 Z M27.27,7.06 L27.36,7.08 C27.581653,7.19512379 27.7681913,7.36784445 27.9,7.58 C27.8964405,7.52672606 27.8964405,7.47327394 27.9,7.42 C27.8778075,7.25750941 27.8159921,7.10297076 27.72,6.97 C27.5769426,6.79091515 27.3863292,6.65575289 27.17,6.58 C27.166448,6.74551807 27.2006465,6.90967057 27.27,7.06 Z M27.79,6.7 L27.84,6.7 C27.8371351,6.65004104 27.8371351,6.59995896 27.84,6.55 C27.7811512,6.39557925 27.6849505,6.25814958 27.56,6.15 C27.3898551,6.00949987 27.180105,5.92559985 26.96,5.91 C26.9993529,6.06637107 27.0708746,6.21282018 27.17,6.34 C27.4038831,6.40540596 27.6172556,6.52929964 27.79,6.7 Z M27.5,5.89 L27.5,5.88 C27.4974126,5.82669805 27.4974126,5.77330195 27.5,5.72 C27.4084825,5.58871975 27.2889341,5.47941832 27.15,5.4 C26.9424493,5.29791286 26.7092967,5.25963407 26.48,5.29 C26.5612135,5.43895227 26.6697754,5.57126197 26.8,5.68 C27.04853,5.68217897 27.2913122,5.75501362 27.5,5.89 Z M27.05,10.43 L27.04,10.51 C27.1466116,10.5048262 27.2515097,10.4811395 27.35,10.44 C27.5662588,10.3532667 27.7486685,10.1989201 27.87,10 C27.6451372,9.93125225 27.4048628,9.93125225 27.18,10 C26.9914069,10.0856302 26.8266193,10.2160871 26.7,10.38 C26.8184085,10.3805244 26.936181,10.397349 27.05,10.43 Z M27.68,9.67 L27.69,9.72 C27.7922155,9.68582757 27.8896654,9.63878281 27.98,9.58 C28.1697601,9.43235833 28.3094278,9.22984024 28.38,9 C28.1477398,8.97944574 27.9145962,9.0281623 27.71,9.14 C27.5315664,9.27531783 27.3961158,9.45939175 27.32,9.67 C27.4394454,9.65368434 27.5605546,9.65368434 27.68,9.67 Z M28.37,8.58 L28.34,8.59 C28.4841499,8.40655746 28.5679864,8.18299366 28.58,7.95 C28.3594408,8.00871023 28.1589708,8.12622717 28,8.29 C27.8720763,8.46929085 27.7959637,8.68033014 27.78,8.9 C27.8852234,8.85031357 27.9960095,8.81338487 28.11,8.79 C28.2078334,8.73508085 28.2957273,8.66408958 28.37,8.58 Z M28.49,6.29 L28.47,6.29 C28.4648067,6.14257506 28.4343654,5.9971331 28.38,5.86 C28.1985665,6.0113251 28.066283,6.21323147 28,6.44 C27.9894313,6.52634446 27.9894313,6.61365554 28,6.7 C28.0118937,6.83893884 28.0491776,6.97451657 28.11,7.1 C28.1805328,7.00478026 28.2647803,6.92053275 28.36,6.85 C28.4219033,6.7591144 28.4660155,6.6573171 28.49,6.55 C28.4999154,6.46361693 28.4999154,6.37638307 28.49,6.29 Z M27.68,5.56 C27.6849399,5.78172112 27.754445,5.99718698 27.88,6.18 C27.9314746,6.07296437 27.9952372,5.97228644 28.07,5.88 C28.1073464,5.77732715 28.1276149,5.6692281 28.13,5.56 C28.1232822,5.32621451 28.0466522,5.09980768 27.91,4.91 C27.771398,5.09950174 27.6914298,5.32549885 27.68,5.56 Z M27.22,4.11 C27.1688744,4.25114988 27.1418312,4.39988751 27.14,4.55 C27.1335604,4.63320893 27.1335604,4.71679107 27.14,4.8 C27.1926175,5.01736752 27.3114183,5.21303935 27.48,5.36 C27.503869,5.2384115 27.5442426,5.12065533 27.6,5.01 C27.6015139,4.98669122 27.6015139,4.96330878 27.6,4.94 C27.6080201,4.86020101 27.6080201,4.77979899 27.6,4.7 C27.5385245,4.46826815 27.4055553,4.261816 27.22,4.11 Z M27.09,5.14 L27.07,5.15 L27,5 C26.890241,4.90301572 26.7605173,4.8313263 26.62,4.79 C26.39654,4.74139103 26.1637699,4.75876193 25.95,4.84 C26.063954,4.96352188 26.1995119,5.0651903 26.35,5.14 C26.5923315,5.0745981 26.8476685,5.0745981 27.09,5.14 Z M26.38,3.48 L26.39,3.47 C26.3866223,3.52995246 26.3866223,3.59004754 26.39,3.65 C26.3871107,3.82618224 26.4247458,4.00067224 26.5,4.16 C26.6145174,4.35721894 26.7804141,4.51965953 26.98,4.63 C26.9643089,4.50716574 26.9643089,4.38283426 26.98,4.26 C26.9600035,4.15923724 26.9263603,4.06167181 26.88,3.97 C26.7705518,3.75700883 26.5951586,3.58512344 26.38,3.48 Z M26.13,3.93 L26.12,3.94 C25.9304863,3.80402399 25.7032479,3.7306085 25.47,3.73 C25.5423833,3.95359893 25.6778108,4.15153138 25.86,4.3 C26.0349778,4.41876217 26.2388726,4.48787907 26.45,4.5 C26.3882487,4.42594358 26.3346093,4.34548444 26.29,4.26 C26.2505992,4.17687841 26.2204193,4.08969209 26.2,4 L26.13,3.93 Z M23,8.92 C22.9283747,8.9226036 22.8607236,8.95357877 22.8119538,9.0061 C22.7631841,9.05862123 22.7372982,9.12837832 22.74,9.2 C22.74,9.38 22.88,9.57 23.19,9.57 L23.77,9.57 C23.6780552,9.84028686 23.6340599,10.1245643 23.64,10.41 C23.6290143,10.7553314 23.7010292,11.0982595 23.85,11.41 C23.4694043,11.3620856 23.1003414,11.246965 22.76,11.07 L22.68,11.26 C22.947866,11.3993589 23.2340022,11.5003481 23.53,11.56 L23.96,11.63 C23.8911112,11.6986494 23.870462,11.8020864 23.9077119,11.8919243 C23.9449618,11.9817623 24.0327459,12.0402391 24.13,12.04 C24.1944892,12.0428705 24.2572162,12.0185079 24.3028621,11.9728621 C24.3485079,11.9272162 24.3728705,11.8644892 24.37,11.8 C24.3713139,11.7360662 24.3459514,11.6744716 24.3,11.63 L24.7,11.56 C25.0062303,11.5028255 25.3026143,11.4017854 25.58,11.26 L25.5,11.07 C25.1691645,11.2442021 24.8104382,11.3592652 24.44,11.41 C24.5735125,11.0939064 24.6382783,10.7530338 24.63,10.41 C24.635331,10.1246051 24.5913519,9.84043207 24.5,9.57 L25.11,9.57 C25.44,9.57 25.58,9.38 25.58,9.2 C25.5800997,9.05470264 25.4651977,8.93538135 25.32,8.93 C25.176406,8.93 25.06,9.04640597 25.06,9.19 C25.0529785,9.22296357 25.0529785,9.25703643 25.06,9.29 C25.08,9.34 25.1,9.39 25,9.39 L24.64,9.39 L24.64,4.95 C24.6619517,4.26350056 24.5322026,3.58061012 24.26,2.95 L24.16,2.75 L24.06,2.95 C23.7739732,3.57682057 23.6370601,4.26138607 23.66,4.95 L23.66,9.38 L23.31,9.38 C23.25,9.38 23.25,9.28 23.25,9.28 C23.2570215,9.24703643 23.2570215,9.21296357 23.25,9.18 C23.2501034,9.04022226 23.1396744,8.92537603 23,8.92 Z M22.11,10.45 L22.11,10.43 C22.0138465,10.2029806 21.9826868,9.95370277 22.02,9.71 C21.9367265,9.57408975 21.8320448,9.45252391 21.71,9.35 C21.6782902,9.45071893 21.6581604,9.55472312 21.65,9.66 C21.6521441,9.77576907 21.672389,9.89048979 21.71,10 C21.7516172,10.1718705 21.8418862,10.3281053 21.97,10.45 L22.11,10.45 Z M21.5,5.67 L21.5,5.68 C21.627197,5.57338774 21.7295814,5.44028794 21.8,5.29 C21.5772413,5.26244769 21.351289,5.30068578 21.15,5.4 C21.0057199,5.47574197 20.8821352,5.58559506 20.79,5.72 C20.7939197,5.77326132 20.7939197,5.82673868 20.79,5.88 C21.002247,5.74470756 21.2483075,5.67192908 21.5,5.67 Z M21.47,9.9 L21.48,9.87 C21.4365214,9.62401614 21.4642789,9.37072909 21.56,9.14 C21.5132045,8.98050507 21.4311863,8.83355588 21.32,8.71 C21.2215292,8.87707603 21.1665188,9.06617427 21.16,9.26 L21.16,9.35 C21.1776075,9.51506681 21.236031,9.67315374 21.33,9.81 L21.47,9.9 Z M20.77,8.63 L20.83,8.6 C20.8265556,8.64994068 20.8265556,8.70005932 20.83,8.75 C20.8312782,8.86259351 20.8515635,8.97416253 20.89,9.08 L21,9.2 C21.0019027,8.94203784 21.0745388,8.68954122 21.21,8.47 C21.2017129,8.30568674 21.1573276,8.14521694 21.08,8 C20.9118107,8.17134387 20.803135,8.39220082 20.77,8.63 Z M20.61,8.4 L20.63,8.38 C20.712486,8.14220848 20.8534815,7.92899577 21.04,7.76 C21.0480912,7.68688985 21.0480912,7.61311015 21.04,7.54 C21.0474554,7.45683341 21.0474554,7.37316659 21.04,7.29 C20.7159836,7.47193894 20.5195742,7.81854378 20.53,8.19 C20.527995,8.20994975 20.527995,8.23005025 20.53,8.25 L20.61,8.4 Z M20.77,6.15 L20.81,6.15 C20.6804681,6.25807175 20.5835264,6.4000221 20.53,6.56 L20.53,6.71 C20.7077825,6.53344268 20.9282821,6.40596638 21.17,6.34 C21.2677002,6.21193533 21.339073,6.06579108 21.38,5.91 C21.157001,5.92614748 20.9442173,6.00986569 20.77,6.15 Z M20.57,7 C20.5050488,7.13409368 20.470883,7.28100673 20.47,7.43 L20.47,7.59 C20.6036539,7.37937433 20.7897307,7.20708099 21.01,7.09 C21.0818227,6.94014201 21.1193975,6.77617927 21.12,6.61 C20.9023692,6.68321404 20.7110921,6.81884688 20.57,7 Z M20.51,8.9 L20.5,8.9 C20.4780576,8.67696284 20.3988275,8.46338624 20.27,8.28 C20.1068612,8.11132118 19.8985368,7.99327069 19.67,7.94 C19.6883893,8.17508929 19.7792276,8.39869135 19.93,8.58 C20.0042727,8.66408958 20.0921666,8.73508085 20.19,8.79 C20.3010646,8.81234387 20.4086713,8.84933367 20.51,8.9 Z M20.58,9.17 L20.61,9.19 C20.4211084,9.05279594 20.1934619,8.97924861 19.96,8.9799943 C20.0287468,9.21071919 20.1687696,9.41375224 20.36,9.56 C20.4454048,9.62107685 20.5398957,9.66832229 20.64,9.7 C20.7594537,9.68380722 20.8805463,9.68380722 21,9.7 C20.9147047,9.48614168 20.7687084,9.30190832 20.58,9.17 Z M21.1,10 L21.1,9.97 C20.8754219,9.89937344 20.6345781,9.89937344 20.41,9.97 C20.5240034,10.17123 20.7042335,10.3267226 20.92,10.41 C21.0252422,10.4518527 21.1368296,10.4755227 21.25,10.48 C21.3637648,10.4470961 21.4815727,10.4302664 21.6,10.43 C21.4771705,10.2424253 21.3038476,10.0933676 21.1,10 Z M21.77,10.59 C21.5397278,10.5633205 21.306698,10.6050572 21.1,10.71 C21.2662415,10.8759712 21.4789558,10.987559 21.71,11.03 C21.9402149,11.0549339 22.1727499,11.0132859 22.38,10.91 C22.2133851,10.7445375 22.0008379,10.6330373 21.77,10.59 Z M22.38,10.52 L22.38,10.53 C22.5066182,10.7236134 22.6925754,10.8709757 22.91,10.95 L22.91,10.9 C22.9123994,10.6877883 22.8533598,10.4794132 22.74,10.3 C22.6085253,10.1108838 22.4241562,9.96478002 22.21,9.88 L22.21,9.94 C22.2108608,10.1454929 22.2697933,10.3465567 22.38,10.52 Z M22,4.25 C21.9509159,4.33824472 21.8940216,4.42191274 21.83,4.5 C22.0410318,4.48738907 22.2448001,4.41831504 22.42,4.3 C22.612746,4.15738739 22.7560962,3.95809563 22.83,3.72999939 C22.590434,3.72975547 22.3565669,3.80305711 22.16,3.94 L22.09,4 C22.0685506,4.08616826 22.0383955,4.16993235 22,4.25 Z M21.42,4 L21.42,4.01 C21.3727816,4.10130658 21.3390957,4.19899594 21.32,4.3 C21.3362523,4.42279792 21.3362523,4.54720208 21.32,4.67 C21.5180657,4.56442956 21.678713,4.40028994 21.78,4.2 C21.8601223,4.04201083 21.9012684,3.86713992 21.9,3.69 C21.903889,3.63006302 21.903889,3.56993698 21.9,3.51 C21.6938801,3.62070262 21.5264297,3.79164167 21.42,4 Z M21.28,5 C21.270737,5.02364233 21.260732,5.04698723 21.25,5.07 C21.4885706,5.00191347 21.7414294,5.00191347 21.98,5.07 C22.1272798,4.994735 22.2594751,4.89304635 22.37,4.77 C22.1550887,4.70308174 21.9249113,4.70308174 21.71,4.77 C21.5498832,4.81000851 21.4021577,4.88902446 21.28,5 Z M20.69,4.69 L20.67,4.69 C20.6603652,4.76970991 20.6603652,4.85029009 20.67,4.93 C20.6685907,4.95331205 20.6685907,4.97668795 20.67,5 C20.732846,5.11306317 20.7799484,5.23418345 20.81,5.36 C20.9743486,5.20951959 21.0923068,5.01523548 21.15,4.8 C21.1604577,4.71699476 21.1604577,4.63300524 21.15,4.55 C21.1468099,4.39910261 21.1163178,4.25003035 21.06,4.11 C20.878354,4.25926943 20.7487958,4.46236063 20.69,4.69 Z M20.17,5.56 L20.16,5.56 C20.1623851,5.6692281 20.1826536,5.77732715 20.22,5.88 C20.2944525,5.97058577 20.3551078,6.07167804 20.4,6.18 C20.5230394,5.99596002 20.5923018,5.78124682 20.6,5.56 C20.5892726,5.32695183 20.5130191,5.10165713 20.38,4.91 C20.2500343,5.10249389 20.1772264,5.32785187 20.17,5.56 Z M19.91,5.86 L19.95,5.86 C19.8956346,5.9971331 19.8651933,6.14257506 19.86,6.29 C19.8495298,6.37635044 19.8495298,6.46364956 19.86,6.55 C19.8896746,6.65708381 19.9369895,6.75847291 20,6.85 C20.0817333,6.92272788 20.1524715,7.00694003 20.21,7.1 C20.2591115,6.97215487 20.2861625,6.83689992 20.29,6.7 C20.3000936,6.61362722 20.3000936,6.52637278 20.29,6.44 C20.2226272,6.21373582 20.0905359,6.01212282 19.91,5.86 Z M19.67,6.89 L19.65,6.84 C19.6459691,6.89325717 19.6459691,6.94674283 19.65,7 C19.6415993,7.20075492 19.6938703,7.39938467 19.8,7.57 C19.8531696,7.66625923 19.9205996,7.75391828 20,7.83 C20.1120413,7.877886 20.2164792,7.94189632 20.31,8.02 C20.3128196,7.97671253 20.3128196,7.93328747 20.31,7.89 C20.3102062,7.70859906 20.2655471,7.52996264 20.18,7.37 C20.0645766,7.16045035 19.8861541,6.99252326 19.67,6.89 Z M13.43,9.73 C13.8986965,9.87839011 14.3884625,9.94932174 14.88,9.94 L14.88,3.8 C14.3648644,3.80786381 13.8517659,3.73359955 13.36,3.58 C12.9704281,3.46271188 12.5667498,3.39879615 12.16,3.39 C11.7980255,3.36498956 11.4402083,3.47949104 11.16,3.71 L11.16,9.79 C11.4461232,9.61620243 11.7752507,9.52612543 12.11,9.53 C12.5439201,9.53648092 12.9747855,9.60380364 13.39,9.73 L13.43,9.73 Z M10,9.53 C10.3348878,9.52504028 10.6643101,9.61519796 10.95,9.79 L10.95,3.71 C10.6713206,3.47670037 10.3123498,3.36182972 9.95,3.39 C9.54318355,3.39804818 9.13940423,3.46197991 8.75,3.58 C8.25808426,3.73293852 7.74509186,3.80718742 7.23,3.8 L7.23,9.94 C7.72150404,9.94878871 8.21118439,9.87786949 8.68,9.73 C9.10793297,9.59949735 9.5526153,9.53212124 10,9.53 Z M15.65,3.93 L15.26,3.93 L15.26,10.42 L11.38,10.42 C11.31,10.54 11.22,10.56 11.04,10.56 C10.86,10.56 10.8,10.56 10.73,10.42 L6.8,10.42 L6.8,3.97 L6.31,3.97 L6.31,10.97 L10.53,10.97 C10.6296004,11.1644487 10.8315809,11.2848602 11.05,11.28 C11.2707543,11.283975 11.4752541,11.1643619 11.58,10.97 L15.8,10.97 L15.8,3.97 L15.65,3.93 Z M14.15,25.63 L15.03,25.41 L14.34,24.83 L14.72,24.01 L13.82,24.19 L13.43,23.39 L13.02,24.19 L12.13,24.01 L12.5,24.83 L11.81,25.41 L12.68,25.63 L12.7,26.53 L13.43,25.98 L14.14,26.53 L14.15,25.63 Z M19.09,31.99 L18.76,31.08 L19.62,30.68 L18.76,30.28 L19.09,29.37 L18.19,29.71 L17.79,28.82 L17.4,29.71 L16.5,29.37 L16.83,30.28 L15.96,30.67 L16.83,31.08 L16.5,31.99 L17.4,31.65 L17.79,32.53 L18.19,31.65 L19.09,31.99 Z M16.47,19.88 L16.86,20.7 L16.16,21.29 L17.04,21.5 L17.05,22.41 L17.76,21.86 L18.49,22.41 L18.51,21.5 L19.38,21.29 L18.69,20.7 L19.07,19.88 L18.18,20.07 L17.76,19.26 L17.37,20.07 L16.47,19.88 Z M20.05,27.2 L19.93,26.42 L20.47,25.87 L19.71,25.75 L19.35,25.06 L19,25.75 L18.23,25.87 L18.79,26.42 L18.66,27.2 L19.35,26.85 L20.05,27.2 Z M22.9,24.36 L22.49,23.68 L22.9,22.99 L22.1,23 L21.72,22.31 L21.33,23 L20.53,22.99 L20.94,23.68 L20.53,24.36 L21.33,24.35 L21.72,25.04 L22.1,24.35 L22.9,24.36 Z M17.76,15.93 L27.76,24.87 C28.363498,23.7088669 28.8653706,22.4976809 29.26,21.25 L17.76,11 L6.33,21.24 C6.71684449,22.4922198 7.21551963,23.7071129 7.82,24.87 L17.76,15.93 Z M33.22,27.88 L33.22,27.85 C33.8781801,26.560062 34.4397223,25.223057 34.9,23.85 L32.66,21.85 C32.54,22.31 32.38,22.74 32.22,23.17 L33.76,24.55 L33.22,27.88 Z M32.47,29 L32.86,26.62 C32.54,27.26 32.21,27.86 31.86,28.46 L32.47,29 Z M0.65,23.86 L0.64,23.88 C1.09993225,25.2531872 1.66148501,26.5902176 2.32,27.88 L1.79,24.56 L3.34,23.17 C3.18,22.75 3.02,22.32 2.88,21.86 C2.43,22.27 0.87,23.66 0.65,23.86 Z M3.07,29 L3.7,28.45 C3.33584813,27.8504964 3.00209281,27.233049 2.7,26.6 L3.07,29 Z" id="Combined-Shape"></path>
            <path d="M24.43,4.95 C24.4410437,4.38078575 24.346095,3.8144844 24.15,3.28 L24.15,9.12 L24.43,9.12 L24.43,4.95 Z" id="Shape"></path>
            <path d="M12.15,4.87 C11.9496462,4.87579729 11.7510743,4.90945353 11.56,4.97 L11.56,5.28 C11.7526312,5.21074029 11.9553274,5.17357932 12.16,5.17 C12.5637514,5.18389144 12.9638901,5.25114165 13.35,5.37 C13.7225626,5.47766763 14.1041273,5.55130294 14.49,5.59 L14.49,5.29 C14.1276491,5.25295415 13.7694737,5.18265805 13.42,5.08 C13.0046333,4.95312097 12.5741333,4.88249207 12.14,4.87 M12.15,8.43 C11.9501162,8.4325543 11.7515546,8.46284336 11.56,8.52 L11.56,8.83 C11.7514882,8.75658566 11.9549222,8.71928941 12.16,8.72 C12.5635033,8.72845697 12.9639245,8.79238976 13.35,8.91 C13.7223096,9.01871618 14.1039719,9.0923703 14.49,9.13 L14.49,8.85 C14.1273879,8.81472341 13.7690469,8.74439481 13.42,8.64 C13.0047441,8.51264729 12.5741797,8.4420078 12.14,8.43 M12.15,7.71 C11.9501993,7.71354851 11.7517718,7.74381711 11.56,7.8 L11.56,8.12 C11.7520729,8.04868955 11.9551219,8.01146388 12.16,8.01 C12.567044,8.02371289 12.970511,8.09095739 13.36,8.21 C13.7322121,8.31911885 14.1139126,8.39278035 14.5,8.43 L14.5,8.13 C14.137624,8.09312291 13.7794332,8.02282377 13.43,7.92 C13.0153318,7.79015477 12.5844192,7.71945815 12.15,7.71 M12.15,5.58 C11.9501582,5.58306061 11.7516655,5.61333916 11.56,5.67 L11.56,6 C11.7526312,5.93074029 11.9553274,5.89357932 12.16,5.89 C12.5638468,5.90293942 12.9641112,5.97021075 13.35,6.09 C13.7224713,6.19804661 14.104071,6.27168865 14.49,6.31 L14.49,6 C14.1277715,5.96213559 13.7696698,5.89185395 13.42,5.79 C13.008571,5.66095018 12.5810712,5.59026122 12.15,5.58 M12.15,7 C11.9500184,7.00134205 11.7512866,7.03165707 11.56,7.09 L11.56,7.4 C11.7524708,7.33128563 11.9556473,7.29742288 12.16,7.3 C12.5638347,7.3130603 12.9640831,7.38032893 13.35,7.5 C13.7265279,7.60317418 14.1113081,7.6734384 14.5,7.71 L14.5,7.42 C14.1377954,7.38197674 13.7797077,7.31169786 13.43,7.21 C13.0151494,7.08092509 12.5843459,7.0102464 12.15,7 M13.43,4.36 C13.0141181,4.23674269 12.5836591,4.16948347 12.15,4.16 C11.9500841,4.16216183 11.7514682,4.19245918 11.56,4.25 L11.56,4.56 C11.7523366,4.48965303 11.9552171,4.45245826 12.16,4.45 C12.5672331,4.46179353 12.9709545,4.52908043 13.36,4.65 C13.7319717,4.75815605 14.1139052,4.82851224 14.5,4.86 L14.5,4.57 C14.1375039,4.53393389 13.7792379,4.46361999 13.43,4.36 M8.68,7.92 C8.32982272,8.01975421 7.9719047,8.0899998 7.61,8.13 L7.61,8.42 C7.99917105,8.38141148 8.38406549,8.3077795 8.76,8.2 C9.16207046,8.07620327 9.57939662,8.0088926 10,8 C10.2082781,7.99986263 10.4148889,8.03712033 10.61,8.11 L10.61,7.81 C10.4120103,7.74972302 10.2068722,7.71609382 10,7.71 C9.56551888,7.71878514 9.13451183,7.78949724 8.72,7.92 M8.69,7.21 C8.33651561,7.31011892 7.97524533,7.38036592 7.61,7.42 L7.61,7.71 C7.99833687,7.67089789 8.38290636,7.60067215 8.76,7.5 C9.16170533,7.37464562 9.5792535,7.30729914 10,7.3 C10.2050165,7.29996967 10.4083277,7.33724339 10.6,7.41 L10.6,7.09 C10.40538,7.03125236 10.2032913,7.00093906 10,7 C9.56897811,7.01078308 9.14155029,7.08146013 8.73,7.21 M12.15,6.29 C11.9501162,6.2925543 11.7515546,6.32284336 11.56,6.38 L11.56,6.7 C11.7525355,6.63038581 11.9552911,6.59321394 12.16,6.59 C12.5674697,6.59932449 12.9715315,6.66666812 13.36,6.79 C13.7302734,6.89085686 14.1082137,6.96109355 14.49,7 L14.49,6.71 C14.1275731,6.67346566 13.7693507,6.60316033 13.42,6.5 C13.0051494,6.37092509 12.5743459,6.3002464 12.14,6.29 M8.68,8.64 C8.33044656,8.74233157 7.97230129,8.81262177 7.61,8.85 L7.61,9.14 C7.99918671,9.10151963 8.38409084,9.02788579 8.76,8.92 C9.16164221,8.79437767 9.57922918,8.72702494 10,8.72 C10.2049763,8.72040948 10.4082093,8.75766885 10.6,8.83 L10.6,8.52 C10.4052892,8.46165732 10.2032593,8.43135283 10,8.43 C9.56572611,8.44101428 9.13502772,8.51167574 8.72,8.64 M8.68,4.36 C8.33067716,4.46327406 7.97244402,4.5335815 7.61,4.57 L7.61,4.86 C7.99930576,4.82798283 8.38450404,4.75764228 8.76,4.65 C9.1488992,4.52846585 9.55270589,4.46116473 9.96,4.45 C10.1646907,4.45339764 10.3674163,4.49056401 10.56,4.56 L10.56,4.25 C10.3783185,4.19457069 10.1899005,4.16428922 10,4.16 C9.56626648,4.16863927 9.13569528,4.23591602 8.72,4.36 M8.68,5.08 C8.33056682,5.18282377 7.97237598,5.25312291 7.61,5.29 L7.61,5.58 C7.99929057,5.54223932 8.38425996,5.46859301 8.76,5.36 C9.14915977,5.23956223 9.552815,5.17228636 9.96,5.16 C10.1647272,5.16302819 10.3675133,5.20020564 10.56,5.27 L10.56,5 C10.3688059,4.93995009 10.1703033,4.90630559 9.97,4.9 C9.53578525,4.9116392 9.10517136,4.98228679 8.69,5.11 M8.68,6.5 C8.33044656,6.60233157 7.97230129,6.67262177 7.61,6.71 L7.61,7 C7.99866442,6.96323961 8.38342759,6.89297851 8.76,6.79 C9.16148143,6.66369692 9.57916778,6.59632815 10,6.59 C10.2080726,6.59210013 10.4142999,6.62928865 10.61,6.7 L10.61,6.39 C10.4190508,6.32893807 10.2204056,6.2952694 10.02,6.29 C9.58560538,6.29972321 9.15472959,6.37041377 8.74,6.5 M8.69,5.79 C8.33668391,5.89082335 7.97535326,5.96108209 7.61,6 L7.61,6.29 C7.99918671,6.25151963 8.38409084,6.17788579 8.76,6.07 C9.16134964,5.94314083 9.57911804,5.87575883 10,5.87 C10.2045493,5.87479722 10.407052,5.91192272 10.6,5.98 L10.6,5.67 C10.4050071,5.61292811 10.2031561,5.58265045 10,5.58 C9.56885389,5.58946086 9.14124227,5.66016829 8.73,5.79" id="Shape"></path>
            <path d="M4.95,26.82 L5.58,26.69 L5.15,27.17 L4.95,26.82 Z M5.49,27.39 L5.94,26.89 L5.94,26.74 C5.85216432,26.657778 5.76871563,26.5709913 5.69,26.48 C5.22,26.56 4.48,26.68 4.15,26.7 L4,26.6 L3.91,26.6 L4.04,26.83 L4.18,27.11 L4.27,27.06 L4.27,26.93 L4.76,26.82 L5.02,27.28 C4.91060886,27.4100178 4.79374467,27.5335599 4.67,27.65 L4.58,27.54 L4.49,27.59 L4.69,27.93 L4.87,28.26 L4.97,28.21 L4.97,28.07 C5.15888601,27.8241606 5.35910227,27.587238 5.57,27.36 L5.49,27.39 Z M7.71,29.74 L7.8,29.68 L7.62,29.45 L7.45,29.21 L7.36,29.27 L7.43,29.41 C7.2,29.6 6.61,30.04 6.61,30.04 L7.09,28.72 L6.93,28.5 L6.79,28.28 L6.71,28.34 L6.77,28.48 C6.65588813,28.5806669 6.53565855,28.6741788 6.41,28.76 L6,29 C5.87798745,29.0902011 5.7511312,29.1736592 5.62,29.25 L5.51,29.14 L5.43,29.2 L5.6,29.44 L5.76,29.68 L5.85,29.62 L5.8,29.5 C6.03,29.31 6.36,29.07 6.63,28.88 C6.46,29.31 6.3,29.77 6.13,30.23 L6.25,30.38 C6.28564789,30.4249693 6.31902296,30.4716944 6.35,30.52 L6.84,30.15 L7.22,29.87 L7.61,29.62 L7.71,29.74 Z M7.82,31 C7.65672057,31.1548403 7.56424729,31.3699763 7.56424729,31.595 C7.56424729,31.8200237 7.65672057,32.0351597 7.82,32.19 C8.02444213,32.4264301 8.31768207,32.5676197 8.63,32.58 L8.63,32.39 C8.44675613,32.3764739 8.27535243,32.294343 8.15,32.16 C8.0280367,32.0482448 7.95859127,31.8904215 7.95859127,31.725 C7.95859127,31.5595785 8.0280367,31.4017552 8.15,31.29 C8.24856031,31.1814396 8.3883729,31.1195354 8.535,31.1195354 C8.6816271,31.1195354 8.82143969,31.1814396 8.92,31.29 C9.01447834,31.3985416 9.07985376,31.5292924 9.11,31.67 L9.02,31.77 L9.1,31.86 C9.20393328,31.7706856 9.32228341,31.6996755 9.45,31.65 C9.37448087,31.4600188 9.26235552,31.2867341 9.12,31.14 C8.96689036,30.9479903 8.74336836,30.825165 8.49919864,30.7988698 C8.25502891,30.7725746 8.01048074,30.8449923 7.82,31 Z M10.87,33.94 C10.7903639,34.0735074 10.657949,34.167079 10.5055132,34.1975662 C10.3530774,34.2280533 10.1948592,34.1926084 10.07,34.1 C9.9571361,33.9976417 9.89276714,33.8523663 9.89276714,33.7 C9.89276714,33.5476337 9.9571361,33.4023583 10.07,33.3 C10.1496361,33.1664926 10.282051,33.072921 10.4344868,33.0424338 C10.5869226,33.0119467 10.7451408,33.0473916 10.87,33.14 C10.9775018,33.2453298 11.0380816,33.3894975 11.0380816,33.54 C11.0380816,33.6905025 10.9775018,33.8346702 10.87,33.94 Z M11,33 C10.8350691,32.8177933 10.6007671,32.713845 10.355,32.713845 C10.1092329,32.713845 9.87493095,32.8177933 9.71,33 C9.54983385,33.1872043 9.47877286,33.4346928 9.51522582,33.678352 C9.55167878,33.9220113 9.69205895,34.1378668 9.9,34.27 C10.0631177,34.4517289 10.2958018,34.5555437 10.54,34.5555437 C10.7841982,34.5555437 11.0168823,34.4517289 11.18,34.27 C11.3515199,34.0885533 11.431025,33.8388448 11.395987,33.5916318 C11.3609489,33.3444187 11.2151854,33.1266381 11,33 Z M13.27,35.14 C13.17,35.3 13,35.3 12.8,35.14 L12.68,35.05 L12.75,34.93 L12.94,34.65 L13.14,34.76 C13.31,34.87 13.34,34.98 13.27,35.1 L13.27,35.14 Z M13.39,34.65 L13.09,34.47 L12.79,34.29 L12.54,34.13 L12.48,34.22 L12.59,34.32 C12.5207582,34.4542383 12.4439686,34.5844468 12.36,34.71 L12.13,35.11 C12.04,35.25 11.96,35.37 11.87,35.48 L11.73,35.42 L11.67,35.51 L12,35.71 L12.31,35.92 L12.36,35.83 L12.26,35.73 C12.3209304,35.5902114 12.3945731,35.4563155 12.48,35.33 L12.56,35.2 L12.67,35.27 C12.67,35.52 12.72,35.93 12.74,36.27 C12.894801,36.3406533 13.0450874,36.420806 13.19,36.51 L13.25,36.42 L13.25,36.35 C13.25,36.24 13.14,35.65 13.12,35.48 C13.3202824,35.5915612 13.5726631,35.5306417 13.7,35.34 C13.82,35.15 13.82,34.91 13.43,34.67 L13.39,34.65 Z M15.35,36.69 L15,36.52 L15.43,36.04 L15.35,36.69 Z M15.83,35.99 L15.71,35.89 L15.35,35.83 C14.9993642,36.2157043 14.6288616,36.5828691 14.24,36.93 L14.11,36.93 L14.11,37.03 L14.36,37.14 L14.65,37.28 L14.65,37.18 L14.53,37 L14.86,36.62 L15.33,36.84 C15.3165722,37.007904 15.2931978,37.1748638 15.26,37.34 L15.12,37.34 L15.12,37.44 L15.48,37.6 L15.82,37.76 L15.82,37.66 L15.71,37.58 C15.71,37.43 15.71,36.98 15.76,36.65 L15.83,35.99 Z M20.55,37.26 C20.4769021,37.1280738 20.4134044,36.9910524 20.36,36.85 L20.17,36.42 C20.1063782,36.2829167 20.0496409,36.1427422 20,36 L20.13,35.91 L20.13,35.81 L19.78,35.97 L19.42,36.12 L19.42,36.22 L19.57,36.22 C19.64,36.34 19.7,36.47 19.77,36.63 L20,37 C20.07,37.16 20.12,37.29 20.17,37.42 L20.04,37.51 L20.04,37.61 L20.39,37.45 L20.74,37.3 L20.74,37.2 L20.55,37.26 Z M23.53,35.64 C23.44,35.52 23.37,35.41 23.27,35.26 L23,34.85 C22.9185469,34.7212963 22.8450753,34.5877115 22.78,34.45 L22.9,34.35 L22.84,34.26 L22.55,34.44 L22.25,34.61 C22.31,34.82 22.47,35.61 22.51,35.81 C22.32,35.68 21.73,35.17 21.57,35.02 L21.28,35.2 L20.98,35.37 L21.04,35.46 L21.18,35.46 L21.3,35.65 C21.41,35.84 21.77,36.48 21.86,36.65 L21.75,36.75 L21.8,36.84 L22.05,36.69 L22.31,36.55 L22.25,36.46 L22.1,36.51 C22.02,36.4 21.94,36.28 21.84,36.13 L21.71,35.9 L21.48,35.48 L22.57,36.39 L22.79,36.26 L22.5,34.86 L22.76,35.27 L22.9,35.5 C22.9780713,35.6308027 23.044975,35.7679552 23.1,35.91 L23,36.01 L23,36.1 L23.32,35.9 L23.66,35.7 L23.61,35.61 L23.53,35.64 Z M25.14,34.46 C25.04,34.36 24.95,34.25 24.83,34.12 L24.61,33.85 C24.5100832,33.7283189 24.4166213,33.6014778 24.33,33.47 C24.3672527,33.4150378 24.4108906,33.3646864 24.46,33.32 C24.5131989,33.2562351 24.5919573,33.2193739 24.675,33.2193739 C24.7580427,33.2193739 24.8368011,33.2562351 24.89,33.32 C24.9537649,33.3731989 24.9906261,33.4519573 24.9906261,33.535 C24.9906261,33.6180427 24.9537649,33.6968011 24.89,33.75 L24.78,33.82 L24.86,34.02 C24.9342487,33.9800442 25.0045605,33.9331697 25.07,33.88 C25.217156,33.792471 25.3199071,33.6462425 25.3523832,33.4781309 C25.3848593,33.3100192 25.3439663,33.1360412 25.24,33 C25.05,32.77 24.79,32.76 24.5,33 L24.26,33.21 L23.99,33.44 L23.72,33.65 L23.79,33.73 L23.93,33.66 C24.03,33.76 24.12,33.86 24.24,34 L24.52,34.37 C24.63,34.51 24.71,34.62 24.8,34.73 L24.7,34.85 L24.77,34.94 L25.07,34.69 L25.42,34.42 L25.35,34.34 L25.14,34.46 Z M26.52,32.32 L26.22,31.75 L26.81,32.03 L26.52,32.32 Z M27.77,32 C27.4798671,31.8967341 27.1960457,31.7765274 26.92,31.64 L26.3,31.35 L26.16,31.43 C26.1,31.53 26.05,31.63 25.98,31.74 C26.2,32.17 26.53,32.84 26.65,33.16 L26.57,33.27 L26.65,33.34 L26.83,33.15 L27.05,32.93 L27,32.85 L26.88,32.93 L26.63,32.49 L27,32.11 C27.1510737,32.1779232 27.2979971,32.254724 27.44,32.34 L27.36,32.46 L27.44,32.54 L27.71,32.25 L28,32 L27.92,31.92 L27.77,32 Z M28.38,30 L28.28,30.11 L28.17,30 L27.91,29.79 L28.04,29.6 C28.16,29.44 28.28,29.42 28.4,29.51 C28.52,29.6 28.53,29.79 28.4,29.97 L28.38,30 Z M29.63,29.69 L28.74,29.69 C28.874729,29.4979833 28.835137,29.2340369 28.65,29.09 C28.49,28.95 28.25,28.93 27.96,29.3 L27.75,29.58 L27.55,29.85 L27.36,30.08 L27.45,30.15 L27.56,30.04 L27.94,30.3 L28.32,30.59 C28.4398137,30.6788004 28.5534122,30.7756933 28.66,30.88 L28.59,31.02 L28.68,31.08 L28.91,30.77 L29.15,30.47 L29,30.49 L28.89,30.59 C28.7585517,30.5105375 28.631684,30.4237334 28.51,30.33 L28.41,30.24 L28.48,30.14 L29.48,30.14 C29.5625727,29.9931175 29.6561749,29.8527142 29.76,29.72 L29.67,29.66 L29.63,29.69 Z M30.66,27.94 C30.5757226,28.0666445 30.4419367,28.151867 30.2915386,28.1747123 C30.1411405,28.1975576 29.9880825,28.1559063 29.87,28.06 C29.56,27.88 29.42,27.58 29.58,27.31 C29.7866423,27.0957454 30.1137215,27.0522455 30.3691799,27.205043 C30.6246382,27.3578406 30.7410254,27.6665914 30.65,27.95 L30.66,27.94 Z M30.6,26.81 C30.3909326,26.6720235 30.1307344,26.6358466 29.8919569,26.7115565 C29.6531795,26.7872664 29.4613659,26.9667642 29.37,27.2 C29.2228396,27.3970185 29.1670597,27.6476096 29.2167563,27.8884471 C29.266453,28.1292846 29.4168715,28.3373269 29.63,28.46 C29.8399868,28.5942302 30.0987368,28.6282851 30.3363041,28.5529589 C30.5738713,28.4776327 30.765724,28.3007038 30.86,28.07 C31.0071604,27.8729815 31.0629403,27.6223904 31.0132437,27.3815529 C30.963547,27.1407154 30.8131285,26.9326731 30.6,26.81 Z M17.76,37.06 C17.6645098,37.0626156 17.5739742,37.1030764 17.5083287,37.1724731 C17.4426832,37.2418697 17.4073107,37.3345118 17.41,37.43 C17.4042863,37.6306317 17.559576,37.799232 17.76,37.81 C17.9698682,37.81 18.14,37.6398682 18.14,37.43 C18.1400365,37.3301125 18.0996847,37.2344537 18.0281182,37.1647705 C17.9565516,37.0950873 17.8598511,37.0573003 17.76,37.06 Z M4.2,25.45 C4.35049432,25.4540689 4.48844832,25.3665468 4.54888133,25.2286593 C4.60931433,25.0907719 4.58017488,24.9300164 4.47518857,24.8221138 C4.37020226,24.7142112 4.2103053,24.6806793 4.07081421,24.7373126 C3.93132312,24.7939459 3.84005499,24.9294507 3.84,25.08 C3.83992676,25.280503 3.99957026,25.444581 4.2,25.45 Z M31.41,25.45 C31.6143454,25.45 31.78,25.2843454 31.78,25.08 C31.78,24.8756546 31.6143454,24.71 31.41,24.71 C31.2056546,24.71 31.04,24.8756546 31.04,25.08 C31.04,25.2843454 31.2056546,25.45 31.41,25.45 Z" id="Shape"></path>
        </g>
    </g>
</svg>