<?xml version="1.0" encoding="UTF-8"?>
<svg width="428px" height="57px" viewBox="0 0 428 57" version="1.1" xmlns="http://www.w3.org/2000/svg" xmlns:xlink="http://www.w3.org/1999/xlink">
    <!-- Generator: Sketch 54.1 (76490) - https://sketchapp.com -->
    <title>sfu</title>
    <desc>Created with Sketch.</desc>
    <defs>
        <polygon id="path-1" points="1.53741667 0.701416667 300.757333 0.701416667 300.757333 29.9899167 1.53741667 29.9899167"></polygon>
        <polygon id="path-3" points="0 0 113.998417 0 113.998417 56.905 0 56.905"></polygon>
    </defs>
    <g id="Page-1" stroke="none" stroke-width="1" fill="none" fill-rule="evenodd">
        <g id="Group-4" transform="translate(126.166667, 26.416667)">
            <mask id="mask-2" fill="white">
                <use xlink:href="#path-1"></use>
            </mask>
            <g id="Clip-2"></g>
            <path d="M289.26075,1.10833333 L289.26075,1.53583333 C290.668333,1.53583333 290.739583,1.63241667 291.384,2.61091667 L294.460417,7.26116667 L294.460417,9.43191667 C294.460417,10.887 294.436667,11.0548333 293.147833,11.0548333 L292.62375,11.0548333 L292.62375,11.4839167 L297.989667,11.4839167 L297.989667,11.0548333 L297.3215,11.0548333 C296.273333,11.0548333 296.154583,10.7429167 296.154583,9.36066667 L296.154583,7.26116667 L298.705333,2.84841667 C299.39725,1.70366667 299.4685,1.56116667 300.757333,1.53583333 L300.757333,1.10833333 L296.96525,1.10833333 L296.96525,1.53583333 C297.680917,1.53583333 298.22875,1.56116667 298.22875,1.9665 C298.22875,2.27683333 297.942167,2.77716667 297.680917,3.23158333 L295.818917,6.4505 L293.576917,3.06375 C293.363167,2.7075 293.029083,2.1565 293.029083,1.9665 C293.029083,1.8715 293.076583,1.75275 293.173167,1.67991667 C293.291917,1.58491667 293.363167,1.58491667 294.316333,1.53583333 L294.316333,1.10833333 L289.26075,1.10833333 Z M276.647917,3.42158333 L277.051667,3.42158333 C277.529833,1.75275 277.601083,1.70525 278.538417,1.70525 L280.683833,1.70525 L280.683833,9.64566667 C280.683833,10.9123333 280.509667,10.982 278.722083,11.0548333 L278.722083,11.4839167 L284.350833,11.4839167 L284.350833,11.0548333 C282.561667,10.95825 282.40175,10.9123333 282.40175,9.55066667 L282.40175,1.70525 L284.374583,1.70525 C285.473417,1.70525 285.6935,1.919 286.02125,3.42158333 L286.409167,3.42158333 L286.217583,0.7505 L285.877167,0.7505 C285.758417,1.03708333 285.638083,1.10833333 284.99525,1.10833333 L278.030167,1.10833333 C277.840167,1.10833333 277.697667,1.10833333 277.553583,1.05925 C277.411083,1.01333333 277.3145,0.918333333 277.19575,0.7505 L276.868,0.7505 L276.647917,3.42158333 Z M272.38875,1.10833333 L267.165333,1.10833333 L267.165333,1.53741667 C268.6505,1.634 268.97825,1.824 268.97825,3.35033333 L268.97825,9.19283333 C268.97825,10.8173333 268.72175,11.00575 267.236583,11.0548333 L267.236583,11.4823333 L272.48375,11.4823333 L272.48375,11.0548333 C271.0065,10.95825 270.67875,10.76825 270.67875,9.24191667 L270.67875,3.32658333 C270.67875,1.87308333 270.67875,1.61025 272.38875,1.53741667 L272.38875,1.10833333 Z M261.090083,1.05925 L260.662583,1.05925 C260.548583,1.22708333 260.44725,1.27616667 260.374417,1.27616667 C260.25725,1.27616667 259.761667,1.05925 259.65875,1.03708333 C259.205917,0.86925 258.688167,0.77425 258.134,0.77425 C256.702667,0.77425 255.3505,1.89366667 255.3505,3.44533333 C255.3505,4.35258333 255.724167,5.282 257.823667,6.59458333 C259.565333,7.6665 260.477333,8.3125 260.477333,9.52691667 C260.477333,10.9360833 259.13625,11.3635833 258.4665,11.3635833 C257.989917,11.3635833 256.512667,11.077 255.797,9.02816667 L255.320417,9.02816667 L255.605417,11.6026667 L255.987,11.6026667 C256.036083,11.4601667 256.10575,11.3889167 256.321083,11.3889167 C256.392333,11.3889167 256.512667,11.4126667 256.607667,11.4348333 C257.823667,11.7705 258.06275,11.84175 258.658083,11.84175 C260.6135,11.84175 261.854833,10.4816667 261.854833,8.88408333 C261.854833,7.14241667 260.39975,6.18766667 259.779083,5.78391667 C257.377167,4.2085 256.73275,3.781 256.73275,2.8025 C256.73275,2.014 257.393,1.27616667 258.373083,1.27616667 C258.87975,1.27616667 259.54,1.51366667 260.072,2.0615 C260.5185,2.51433333 260.716417,3.01625 260.876333,3.44533333 L261.329167,3.44533333 L261.090083,1.05925 Z M243.462833,6.97616667 L244.989167,6.97616667 C245.2045,7.334 246.2305,9.21816667 246.494917,9.6235 C247.494,11.1973333 248.49625,11.5789167 250.141333,11.6501667 L250.141333,11.2210833 C249.259417,11.077 248.805,10.7445 248.043417,9.09783333 C247.183667,7.26116667 247.039583,7.12025 246.58675,6.71333333 C247.3515,6.4505 248.8525,5.92641667 248.8525,3.971 C248.8525,1.46616667 246.3255,0.989583333 244.226,0.989583333 C242.533417,0.989583333 241.030833,1.178 240.028583,1.27616667 L240.028583,1.70366667 C241.220833,1.77491667 241.364917,1.77491667 241.554917,2.03775 C241.7465,2.27525 241.7465,2.65841667 241.7465,2.92125 L241.7465,9.66941667 C241.7465,10.57825 241.604,11.0548333 240.4355,11.0548333 L240.0555,11.0548333 L240.0555,11.4823333 L245.324833,11.4823333 L245.324833,11.0548333 L244.631333,11.0548333 C243.606917,11.0548333 243.462833,10.76825 243.462833,9.36066667 L243.462833,6.97616667 Z M243.462833,1.51366667 C243.701917,1.48991667 244.112,1.46616667 244.511,1.46616667 C245.562333,1.46616667 247.064917,2.01241667 247.064917,4.0185 C247.064917,5.97233333 245.801417,6.5455 244.53475,6.5455 L243.462833,6.5455 L243.462833,1.51366667 Z M229.559583,1.634 L232.159417,1.634 C233.3295,1.634 233.7095,1.79866667 233.972333,3.37408333 L234.403,3.37408333 L234.306417,1.10833333 L226.150667,1.10833333 L226.150667,1.53741667 C227.485417,1.51366667 227.84325,1.70525 227.84325,2.92125 L227.84325,9.69475 C227.84325,10.67325 227.675417,11.1260833 226.150667,11.077 L226.150667,11.4839167 L234.760833,11.4839167 L234.976167,8.95533333 L234.52175,8.95533333 C234.067333,10.7445 233.5195,10.887 232.447583,10.887 L230.633083,10.887 C229.608667,10.887 229.559583,10.887 229.559583,9.86258333 L229.559583,6.4505 L231.969417,6.4505 C233.137917,6.4505 233.3295,6.5455 233.377,7.8565 L233.853583,7.8565 L233.853583,4.63758333 L233.377,4.63758333 C233.280417,5.92641667 232.993833,5.92641667 232.13725,5.92641667 L229.559583,5.92641667 L229.559583,1.634 Z M211.394,1.10833333 L211.394,1.53583333 C212.25375,1.53583333 212.68125,1.56116667 213.183167,2.80091667 L216.617417,11.7214167 L217.619667,11.7214167 L220.719833,3.37408333 C221.338917,1.70366667 221.6255,1.53583333 222.67525,1.53583333 L222.67525,1.10833333 L218.549083,1.10833333 L218.549083,1.53583333 C219.408833,1.53583333 220.265417,1.51525 220.265417,2.13275 C220.265417,2.27683333 220.24325,2.37183333 219.956667,3.135 L217.619667,9.69475 L215.01825,3.06375 C214.8045,2.49058333 214.73325,2.32433333 214.73325,2.13275 C214.73325,1.51525 215.688,1.51525 216.427417,1.53583333 L216.427417,1.10833333 L211.394,1.10833333 Z M207.288417,1.10833333 L202.066583,1.10833333 L202.066583,1.53741667 C203.545417,1.634 203.871583,1.824 203.871583,3.35033333 L203.871583,9.19283333 C203.871583,10.8173333 203.615083,11.00575 202.1315,11.0548333 L202.1315,11.4823333 L207.378667,11.4823333 L207.378667,11.0548333 C205.899833,10.95825 205.573667,10.76825 205.573667,9.24191667 L205.573667,3.32658333 C205.573667,1.87308333 205.573667,1.61025 207.288417,1.53741667 L207.288417,1.10833333 Z M185.327583,1.10833333 L185.327583,1.53583333 C186.331417,1.58491667 186.998,1.63241667 186.998,2.9925 L186.998,9.671 C186.998,10.6716667 186.833333,11.1023333 185.305417,11.0548333 L185.305417,11.4839167 L189.740333,11.4839167 L189.740333,11.0548333 C188.049333,11.0310833 187.76275,10.9566667 187.76275,9.36066667 L187.76275,2.9925 L195.465667,11.5551667 L196.040417,11.5551667 L196.040417,2.92125 C196.040417,1.94275 196.181333,1.48991667 197.731417,1.53583333 L197.731417,1.10833333 L193.46275,1.10833333 L193.46275,1.53583333 C193.611583,1.53583333 194.32725,1.56116667 194.48875,1.58491667 C195.280417,1.65616667 195.280417,2.27683333 195.280417,2.92125 L195.280417,8.88408333 L188.263083,1.10833333 L185.327583,1.10833333 Z M169.5275,1.10833333 L169.5275,1.53583333 C171.267583,1.63241667 171.292917,1.84775 171.292917,3.11125 L171.292917,7.78683333 C171.292917,8.35841667 171.292917,9.33691667 171.649167,9.98133333 C172.603917,11.6976667 174.750917,11.8401667 175.656583,11.8401667 C176.872583,11.8401667 178.80425,11.4839167 179.54525,9.98133333 C179.97275,9.12316667 179.97275,7.92933333 179.97275,7.21366667 L179.97275,2.92125 C179.97275,1.94275 180.116833,1.48991667 181.690667,1.53583333 L181.690667,1.10833333 L177.422,1.10833333 L177.422,1.53583333 C179.257083,1.58491667 179.257083,1.84775 179.257083,3.46908333 L179.257083,6.99991667 C179.257083,7.69183333 179.257083,8.74158333 178.997417,9.36066667 C178.448,10.7429167 176.945417,11.0073333 175.966917,11.0073333 C174.321833,11.0073333 173.582417,10.2204167 173.319583,9.7185 C172.9855,9.09783333 172.9855,8.26341667 172.9855,7.49866667 L172.9855,3.16033333 C172.9855,1.94275 173.223,1.61025 174.798417,1.53583333 L174.798417,1.10833333 L169.5275,1.10833333 Z M152.354667,6.97616667 L153.879417,6.97616667 C154.09475,7.334 155.122333,9.21816667 155.383583,9.6235 C156.38425,11.1973333 157.388083,11.5789167 159.033167,11.6501667 L159.033167,11.2210833 C158.149667,11.077 157.696833,10.7445 156.93525,9.09783333 C156.0755,7.26116667 155.931417,7.12025 155.478583,6.71333333 C156.240167,6.4505 157.744333,5.92641667 157.744333,3.971 C157.744333,1.46616667 155.21575,0.989583333 153.117833,0.989583333 C151.42525,0.989583333 149.921083,1.178 148.920417,1.27616667 L148.920417,1.70366667 C150.112667,1.77491667 150.25675,1.77491667 150.44675,2.03775 C150.63675,2.27525 150.63675,2.65841667 150.63675,2.92125 L150.63675,9.66941667 C150.63675,10.57825 150.49425,11.0548333 149.32575,11.0548333 L148.944167,11.0548333 L148.944167,11.4823333 L154.2135,11.4823333 L154.2135,11.0548333 L153.523167,11.0548333 C152.497167,11.0548333 152.354667,10.76825 152.354667,9.36066667 L152.354667,6.97616667 Z M152.354667,1.51366667 C152.59375,1.48991667 152.999083,1.46616667 153.402833,1.46616667 C154.452583,1.46616667 155.95675,2.01241667 155.95675,4.0185 C155.95675,5.97233333 154.691667,6.5455 153.426583,6.5455 L152.354667,6.5455 L152.354667,1.51366667 Z M138.527417,1.634 L141.130417,1.634 C142.298917,1.634 142.6805,1.79866667 142.94175,3.37408333 L143.370833,3.37408333 L143.275833,1.10833333 L135.115333,1.10833333 L135.115333,1.53741667 C136.454833,1.51366667 136.812667,1.70525 136.812667,2.92125 L136.812667,9.69475 C136.812667,10.67325 136.644833,11.1260833 135.115333,11.077 L135.115333,11.4839167 L143.728667,11.4839167 L143.940833,8.95533333 L143.491167,8.95533333 C143.03675,10.7445 142.488917,10.887 141.415417,10.887 L139.6025,10.887 C138.573333,10.887 138.527417,10.887 138.527417,9.86258333 L138.527417,6.4505 L140.938833,6.4505 C142.10575,6.4505 142.298917,6.5455 142.344833,7.8565 L142.821417,7.8565 L142.821417,4.63758333 L142.344833,4.63758333 C142.249833,5.92641667 141.964833,5.92641667 141.105083,5.92641667 L138.527417,5.92641667 L138.527417,1.634 Z M129.155667,1.05925 L128.725,1.05925 C128.60625,1.22708333 128.51125,1.27616667 128.44,1.27616667 C128.319667,1.27616667 127.819333,1.05925 127.724333,1.03708333 C127.2715,0.86925 126.747417,0.77425 126.198,0.77425 C124.766667,0.77425 123.408167,1.89366667 123.408167,3.44533333 C123.408167,4.35258333 123.78975,5.282 125.887667,6.59458333 C127.629333,7.6665 128.535,8.3125 128.535,9.52691667 C128.535,10.9360833 127.20025,11.3635833 126.532083,11.3635833 C126.053917,11.3635833 124.575083,11.077 123.861,9.02816667 L123.382833,9.02816667 L123.669417,11.6026667 L124.051,11.6026667 C124.0985,11.4601667 124.171333,11.3889167 124.385083,11.3889167 C124.456333,11.3889167 124.575083,11.4126667 124.671667,11.4348333 C125.887667,11.7705 126.12675,11.84175 126.722083,11.84175 C128.679083,11.84175 129.918833,10.4816667 129.918833,8.88408333 C129.918833,7.14241667 128.46375,6.18766667 127.843083,5.78391667 C125.434833,4.2085 124.790417,3.781 124.790417,2.8025 C124.790417,2.014 125.458583,1.27616667 126.437083,1.27616667 C126.937417,1.27616667 127.604,1.51366667 128.129667,2.0615 C128.584083,2.51433333 128.774083,3.01625 128.940333,3.44533333 L129.393167,3.44533333 L129.155667,1.05925 Z M112.046167,0.77425 L112.28525,1.46458333 L109.327583,9.05033333 C108.77975,10.4104167 108.635667,10.8173333 107.419667,11.0548333 L107.419667,11.4839167 L111.522083,11.4839167 L111.522083,11.0548333 C110.663917,10.9566667 109.877,10.887 109.877,10.1475833 C109.877,9.55066667 110.162,8.835 110.32825,8.4075 L110.877667,7.02208333 L114.311917,7.02208333 L115.052917,9.02658333 C115.219167,9.481 115.385417,9.98133333 115.385417,10.3391667 C115.385417,11.00575 114.57475,11.0310833 113.764083,11.0548333 L113.764083,11.4839167 L118.748417,11.4839167 L118.748417,11.0548333 C117.508667,10.982 117.437417,10.792 117.032083,9.64566667 L113.764083,0.77425 L112.046167,0.77425 Z M112.643083,2.44466667 L114.074417,6.33016667 L111.1405,6.33016667 L112.643083,2.44466667 Z M96.9633333,6.97616667 L98.4896667,6.97616667 C98.7034167,7.334 99.7294167,9.21816667 99.99225,9.6235 C100.9945,11.1973333 101.99675,11.5789167 103.641833,11.6501667 L103.641833,11.2210833 C102.758333,11.077 102.3055,10.7445 101.542333,9.09783333 C100.684167,7.26116667 100.540083,7.12025 100.08725,6.71333333 C100.850417,6.4505 102.353,5.92641667 102.353,3.971 C102.353,1.46616667 99.8244167,0.989583333 97.7265,0.989583333 C96.0323333,0.989583333 94.52975,1.178 93.5275,1.27616667 L93.5275,1.70366667 C94.7213333,1.77491667 94.8638333,1.77491667 95.0554167,2.03775 C95.2454167,2.27525 95.2454167,2.65841667 95.2454167,2.92125 L95.2454167,9.66941667 C95.2454167,10.57825 95.1029167,11.0548333 93.9344167,11.0548333 L93.5528333,11.0548333 L93.5528333,11.4823333 L98.8221667,11.4823333 L98.8221667,11.0548333 L98.1318333,11.0548333 C97.1058333,11.0548333 96.9633333,10.76825 96.9633333,9.36066667 L96.9633333,6.97616667 Z M96.9633333,1.51366667 C97.2008333,1.48991667 97.6061667,1.46616667 98.0130833,1.46616667 C99.06125,1.46616667 100.565417,2.01241667 100.565417,4.0185 C100.565417,5.97233333 99.3003333,6.5455 98.03525,6.5455 L96.9633333,6.5455 L96.9633333,1.51366667 Z M80.7135833,1.10833333 L80.7135833,1.53583333 C81.9770833,1.67991667 82.0720833,1.80025 82.0720833,2.9925 L82.0720833,9.8135 C82.0720833,10.7429167 81.9533333,10.9360833 80.7135833,11.0548333 L80.7135833,11.4839167 L85.3638333,11.4839167 L85.3638333,11.0548333 C83.79,10.9360833 83.79,10.8173333 83.79,9.9085 L83.79,6.23675 L86.5085833,6.23675 C87.3905,6.23675 87.6295833,6.42675 87.7008333,7.49866667 L88.1299167,7.49866667 L88.1299167,4.59008333 L87.7008333,4.59008333 C87.6770833,5.49575 87.27175,5.71108333 86.412,5.71108333 L83.79,5.71108333 L83.79,1.65616667 L86.1745,1.65616667 C86.8426667,1.65616667 87.2005,1.75275 87.31925,1.8715 C87.438,1.99183333 87.533,2.08683333 87.7008333,3.20625 L88.1299167,3.20625 L88.1299167,1.10833333 L80.7135833,1.10833333 Z M57.0285,1.10833333 L57.0285,1.53583333 C58.0291667,1.58491667 58.6973333,1.63241667 58.6973333,2.9925 L58.6973333,9.671 C58.6973333,10.6716667 58.5310833,11.1023333 57.00475,11.0548333 L57.00475,11.4839167 L61.44125,11.4839167 L61.44125,11.0548333 C59.7470833,11.0310833 59.4605,10.9566667 59.4605,9.36066667 L59.4605,2.9925 L67.165,11.5551667 L67.7365833,11.5551667 L67.7365833,2.92125 C67.7365833,1.94275 67.8806667,1.48991667 69.43075,1.53583333 L69.43075,1.10833333 L65.1605,1.10833333 L65.1605,1.53583333 C65.3045833,1.53583333 66.02025,1.56116667 66.1865,1.58491667 C66.9734167,1.65616667 66.9734167,2.27683333 66.9734167,2.92125 L66.9734167,8.88408333 L59.9624167,1.10833333 L57.0285,1.10833333 Z M47.253,0.701416667 C44.6040833,0.701416667 41.5276667,2.49058333 41.5276667,6.1655 C41.5276667,10.1713333 44.6294167,11.7705 47.2276667,11.7705 C49.85125,11.7705 52.92925,10.1713333 52.92925,6.1655 C52.92925,2.49058333 49.9953333,0.701416667 47.253,0.701416667 L47.253,0.701416667 Z M47.1801667,1.10833333 C49.2321667,1.10833333 51.0688333,2.51433333 51.0688333,6.18766667 C51.0688333,10.0035 49.0168333,11.3651667 47.2055,11.3651667 C46.2745,11.3651667 45.4163333,11.0310833 44.7006667,10.3154167 C44.0325,9.64566667 43.3880833,8.5975 43.3880833,5.97233333 C43.3880833,3.46908333 44.7244167,1.10833333 47.1801667,1.10833333 L47.1801667,1.10833333 Z M33.6094167,1.10833333 L30.1751667,9.00283333 L26.8121667,1.10833333 L23.4016667,1.10833333 L23.4016667,1.53583333 C24.76175,1.63241667 24.928,1.67991667 24.85675,2.68216667 L24.3326667,9.00283333 C24.2835833,9.57441667 24.2360833,10.4104167 24.02075,10.6716667 C23.78325,10.982 22.9488333,11.0310833 22.4231667,11.0548333 L22.4231667,11.4839167 L26.4305833,11.4839167 L26.4305833,11.0548333 C25.5724167,11.0548333 24.9755,10.86325 24.9755,10.3154167 C24.9755,10.1713333 24.99925,9.83883333 25.023,9.59975 L25.6183333,2.46841667 L29.43575,11.4839167 L29.8901667,11.4839167 L33.82475,2.46841667 L34.25225,9.09783333 C34.2775833,9.386 34.3029167,9.9085 34.3029167,10.1713333 C34.3029167,10.91075 33.63475,10.982 32.6071667,11.0548333 L32.6071667,11.4839167 L37.5693333,11.4839167 L37.5693333,11.0548333 C35.9955,11.1023333 35.97175,10.6716667 35.8751667,9.24191667 L35.5173333,3.58783333 C35.4951667,3.06375 35.4698333,2.39558333 35.4698333,2.23091667 C35.4460833,1.63241667 35.8039167,1.53583333 36.9724167,1.53583333 L36.9724167,1.10833333 L33.6094167,1.10833333 Z M18.2463333,1.10833333 L13.0229167,1.10833333 L13.0229167,1.53741667 C14.50175,1.634 14.8358333,1.824 14.8358333,3.35033333 L14.8358333,9.19283333 C14.8358333,10.8173333 14.573,11.00575 13.0941667,11.0548333 L13.0941667,11.4823333 L18.3429167,11.4823333 L18.3429167,11.0548333 C16.8625,10.95825 16.53,10.76825 16.53,9.24191667 L16.53,3.32658333 C16.53,1.87308333 16.53,1.61025 18.2463333,1.53741667 L18.2463333,1.10833333 Z M7.54775,3.44533333 L7.09491667,3.44533333 C6.92866667,3.01625 6.73708333,2.51433333 6.28425,2.0615 C5.75858333,1.51366667 5.092,1.27616667 4.59008333,1.27616667 C3.61158333,1.27616667 2.945,2.014 2.945,2.8025 C2.945,3.781 3.58941667,4.2085 5.99766667,5.78391667 C6.61833333,6.18766667 8.07183333,7.14241667 8.07183333,8.88408333 C8.07183333,10.4816667 6.83208333,11.84175 4.87666667,11.84175 C4.27975,11.84175 4.04225,11.7705 2.82625,11.4348333 C2.72966667,11.4126667 2.61091667,11.3889167 2.53966667,11.3889167 C2.32591667,11.3889167 2.25308333,11.4601667 2.20558333,11.6026667 L1.824,11.6026667 L1.53741667,9.02816667 L2.014,9.02816667 C2.72966667,11.077 4.2085,11.3635833 4.68666667,11.3635833 C5.35483333,11.3635833 6.68958333,10.9360833 6.68958333,9.52691667 C6.68958333,8.3125 5.78391667,7.6665 4.04225,6.59458333 C1.94275,5.282 1.56116667,4.35258333 1.56116667,3.44533333 C1.56116667,1.89366667 2.92125,0.77425 4.35258333,0.77425 C4.90041667,0.77425 5.4245,0.86925 5.87733333,1.03708333 C5.97391667,1.05925 6.47583333,1.27616667 6.593,1.27616667 C6.66583333,1.27616667 6.76083333,1.22708333 6.87958333,1.05925 L7.30866667,1.05925 L7.54775,3.44533333 L7.54775,3.44533333 Z" id="Fill-1" fill="#FFFFFE" mask="url(#mask-2)"></path>
            <path d="M152.595333,29.83475 C152.595333,29.906 152.644417,29.9519167 152.715667,29.9519167 L155.43425,29.9519167 C156.799083,29.9519167 157.703167,29.3708333 158.0705,28.2308333 C158.213,27.79225 158.28425,27.3520833 158.28425,25.9144167 C158.28425,24.4783333 158.213,24.03975 158.0705,23.5995833 C157.703167,22.4595833 156.799083,21.8785 155.43425,21.8785 L152.715667,21.8785 C152.644417,21.8785 152.595333,21.926 152.595333,21.9956667 L152.595333,29.83475 Z M153.72425,28.9670833 C153.67675,28.9670833 153.653,28.9433333 153.653,28.8958333 L153.653,22.9345833 C153.653,22.8870833 153.67675,22.8633333 153.72425,22.8633333 L155.207833,22.8633333 C156.183167,22.8633333 156.788,23.1831667 157.04925,23.9685 C157.155333,24.2645833 157.2155,24.65725 157.2155,25.9144167 C157.2155,27.1731667 157.155333,27.5658333 157.04925,27.8619167 C156.788,28.6456667 156.183167,28.9670833 155.207833,28.9670833 L153.72425,28.9670833 L153.72425,28.9670833 Z M143.803083,29.83475 C143.803083,29.906 143.852167,29.9519167 143.923417,29.9519167 L148.7795,29.9519167 C148.85075,29.9519167 148.89825,29.906 148.89825,29.83475 L148.89825,29.0858333 C148.89825,29.0145833 148.85075,28.9670833 148.7795,28.9670833 L144.932,28.9670833 C144.8845,28.9670833 144.859167,28.9433333 144.859167,28.8958333 L144.859167,21.9956667 C144.859167,21.926 144.81325,21.8785 144.742,21.8785 L143.923417,21.8785 C143.852167,21.8785 143.803083,21.926 143.803083,21.9956667 L143.803083,29.83475 Z M139.859,29.9519167 C139.941333,29.9519167 139.976167,29.8806667 139.93025,29.8094167 L138.207583,26.4020833 C139.181333,26.0933333 139.798833,25.2985 139.798833,24.206 C139.798833,22.8031667 138.777583,21.8785 137.268667,21.8785 L134.349,21.8785 C134.27775,21.8785 134.228667,21.9244167 134.228667,21.9956667 L134.228667,29.83475 C134.228667,29.9044167 134.27775,29.9519167 134.349,29.9519167 L135.167583,29.9519167 C135.238833,29.9519167 135.286333,29.9044167 135.286333,29.83475 L135.286333,26.6031667 C135.286333,26.5556667 135.310083,26.5319167 135.357583,26.5319167 L137.138833,26.5319167 L138.753833,29.83475 C138.788667,29.9170833 138.825083,29.9519167 138.909,29.9519167 L139.859,29.9519167 Z M138.74275,24.206 C138.74275,25.0483333 138.183833,25.5470833 137.244917,25.5470833 L135.357583,25.5470833 C135.310083,25.5470833 135.286333,25.5233333 135.286333,25.4758333 L135.286333,22.9345833 C135.286333,22.8870833 135.310083,22.8633333 135.357583,22.8633333 L137.244917,22.8633333 C138.183833,22.8633333 138.74275,23.3620833 138.74275,24.206 L138.74275,24.206 Z M124.505417,28.196 C124.921833,29.4420833 125.894,30.0833333 127.249333,30.0833333 C128.614167,30.0833333 129.5895,29.4420833 130.004333,28.196 C130.157917,27.7320833 130.218083,27.2444167 130.218083,25.916 C130.218083,24.5844167 130.157917,24.0983333 130.004333,23.636 C129.5895,22.3883333 128.614167,21.7470833 127.249333,21.7470833 C125.894,21.7470833 124.921833,22.3883333 124.505417,23.636 C124.351833,24.0983333 124.29325,24.5844167 124.29325,25.916 C124.29325,27.2444167 124.351833,27.7320833 124.505417,28.196 L124.505417,28.196 Z M128.970417,27.8983333 C128.721833,28.6694167 128.151833,29.0969167 127.249333,29.0969167 C126.357917,29.0969167 125.7895,28.6694167 125.539333,27.8983333 C125.444333,27.6006667 125.362,27.07975 125.362,25.916 C125.362,24.7506667 125.444333,24.22975 125.539333,23.9320833 C125.7895,23.161 126.357917,22.7319167 127.249333,22.7319167 C128.151833,22.7319167 128.721833,23.161 128.970417,23.9320833 C129.065417,24.22975 129.149333,24.7506667 129.149333,25.916 C129.149333,27.07975 129.065417,27.6006667 128.970417,27.8983333 L128.970417,27.8983333 Z M118.914667,29.9519167 C118.985917,29.9519167 119.0445,29.9044167 119.057167,29.83475 L121.003083,21.9956667 C121.01575,21.9244167 120.992,21.8785 120.908083,21.8785 L120.137,21.8785 C120.053083,21.8785 120.007167,21.9133333 119.981833,21.9956667 L118.582167,27.9933333 L118.556833,27.9933333 L116.846833,21.9956667 C116.824667,21.9244167 116.78825,21.8785 116.705917,21.8785 L116.0995,21.8785 C116.02825,21.8785 115.98075,21.9244167 115.957,21.9956667 L114.283417,27.9933333 L114.259667,27.9933333 L112.823583,21.9956667 C112.810917,21.9133333 112.763417,21.8785 112.6795,21.8785 L111.89575,21.8785 C111.813417,21.8785 111.778583,21.9244167 111.80075,21.9956667 L113.749833,29.83475 C113.760917,29.9044167 113.808417,29.9519167 113.879667,29.9519167 L114.532,29.9519167 C114.60325,29.9519167 114.65075,29.9044167 114.6745,29.83475 L116.3845,23.8133333 L116.40825,23.8133333 L118.129333,29.83475 C118.153083,29.9044167 118.1895,29.9519167 118.26075,29.9519167 L118.914667,29.9519167 Z M98.2759167,29.83475 C98.2759167,29.906 98.3234167,29.9519167 98.3946667,29.9519167 L103.25075,29.9519167 C103.322,29.9519167 103.3695,29.906 103.3695,29.83475 L103.3695,29.0858333 C103.3695,29.0145833 103.322,28.9670833 103.25075,28.9670833 L99.40325,28.9670833 C99.35575,28.9670833 99.332,28.9433333 99.332,28.8958333 L99.332,26.4385 C99.332,26.391 99.35575,26.36725 99.40325,26.36725 L102.669667,26.36725 C102.740917,26.36725 102.786833,26.3181667 102.786833,26.2469167 L102.786833,25.498 C102.786833,25.4283333 102.740917,25.3808333 102.669667,25.3808333 L99.40325,25.3808333 C99.35575,25.3808333 99.332,25.3570833 99.332,25.3095833 L99.332,22.9345833 C99.332,22.8870833 99.35575,22.8633333 99.40325,22.8633333 L103.25075,22.8633333 C103.322,22.8633333 103.3695,22.8158333 103.3695,22.7445833 L103.3695,21.9956667 C103.3695,21.926 103.322,21.8785 103.25075,21.8785 L98.3946667,21.8785 C98.3234167,21.8785 98.2759167,21.926 98.2759167,21.9956667 L98.2759167,29.83475 Z M88.2708333,29.83475 C88.2708333,29.906 88.3199167,29.9519167 88.3911667,29.9519167 L89.20975,29.9519167 C89.281,29.9519167 89.3285,29.906 89.3285,29.83475 L89.3285,26.4385 C89.3285,26.391 89.35225,26.36725 89.39975,26.36725 L92.9020833,26.36725 C92.9511667,26.36725 92.9733333,26.391 92.9733333,26.4385 L92.9733333,29.83475 C92.9733333,29.906 93.0208333,29.9519167 93.0920833,29.9519167 L93.91225,29.9519167 C93.9835,29.9519167 94.031,29.906 94.031,29.83475 L94.031,21.9956667 C94.031,21.926 93.9835,21.8785 93.91225,21.8785 L93.0920833,21.8785 C93.0208333,21.8785 92.9733333,21.926 92.9733333,21.9956667 L92.9733333,25.3095833 C92.9733333,25.3570833 92.9511667,25.3808333 92.9020833,25.3808333 L89.39975,25.3808333 C89.35225,25.3808333 89.3285,25.3570833 89.3285,25.3095833 L89.3285,21.9956667 C89.3285,21.926 89.281,21.8785 89.20975,21.8785 L88.3911667,21.8785 C88.3199167,21.8785 88.2708333,21.926 88.2708333,21.9956667 L88.2708333,29.83475 Z M82.0736667,29.9519167 C82.1449167,29.9519167 82.1924167,29.9044167 82.1924167,29.83475 L82.1924167,22.9345833 C82.1924167,22.8870833 82.2161667,22.8633333 82.26525,22.8633333 L84.4724167,22.8633333 C84.5436667,22.8633333 84.5911667,22.8158333 84.5911667,22.7445833 L84.5911667,21.9956667 C84.5911667,21.9244167 84.5436667,21.8785 84.4724167,21.8785 L78.8563333,21.8785 C78.7850833,21.8785 78.7375833,21.9244167 78.7375833,21.9956667 L78.7375833,22.7445833 C78.7375833,22.8158333 78.7850833,22.8633333 78.8563333,22.8633333 L81.0635,22.8633333 C81.1125833,22.8633333 81.13475,22.8870833 81.13475,22.9345833 L81.13475,29.83475 C81.13475,29.9044167 81.1838333,29.9519167 81.2550833,29.9519167 L82.0736667,29.9519167 Z M64.2849167,25.9144167 C64.2849167,27.246 64.3561667,27.7320833 64.4986667,28.1944167 C64.9024167,29.4420833 65.8999167,30.0833333 67.2663333,30.0833333 C68.6074167,30.0833333 69.616,29.3945833 70.0086667,28.1706667 C70.1274167,27.7795833 70.20975,27.1145833 70.20975,26.3894167 L70.20975,25.7845833 C70.20975,25.7133333 70.1638333,25.6658333 70.0925833,25.6658333 L67.5149167,25.6658333 C67.4436667,25.6658333 67.3961667,25.7133333 67.3961667,25.7845833 L67.3961667,26.4733333 C67.3961667,26.5445833 67.4436667,26.5920833 67.5149167,26.5920833 L69.0824167,26.5920833 C69.1299167,26.5920833 69.1536667,26.6158333 69.1536667,26.6633333 C69.1536667,27.26975 69.0824167,27.6608333 68.9985,27.93475 C68.7499167,28.6931667 68.0849167,29.0969167 67.2663333,29.0969167 C66.3511667,29.0969167 65.7685,28.671 65.5199167,27.8983333 C65.4138333,27.60225 65.3536667,27.1494167 65.3536667,25.9144167 C65.3536667,24.6794167 65.4138333,24.2281667 65.5199167,23.9320833 C65.7685,23.1594167 66.3511667,22.7335 67.2663333,22.7335 C68.1213333,22.7335 68.64225,23.0770833 69.0349167,23.80225 C69.06975,23.8719167 69.1299167,23.8956667 69.2011667,23.8608333 L69.9136667,23.5156667 C69.9738333,23.4808333 69.9849167,23.42225 69.9485,23.3494167 C69.54475,22.4595833 68.68025,21.7470833 67.2663333,21.7470833 C65.8999167,21.7470833 64.9024167,22.3883333 64.4986667,23.6344167 C64.3561667,24.0983333 64.2849167,24.5844167 64.2849167,25.9144167 L64.2849167,25.9144167 Z M54.511,29.83475 C54.511,29.906 54.5600833,29.9519167 54.6313333,29.9519167 L55.3786667,29.9519167 C55.4499167,29.9519167 55.4958333,29.906 55.4958333,29.83475 L55.4958333,23.8006667 L55.53225,23.8006667 L59.2024167,29.83475 C59.2483333,29.9281667 59.3211667,29.9519167 59.4035,29.9519167 L60.1635,29.9519167 C60.23475,29.9519167 60.28225,29.906 60.28225,29.83475 L60.28225,21.9956667 C60.28225,21.926 60.23475,21.8785 60.1635,21.8785 L59.4161667,21.8785 C59.3433333,21.8785 59.2958333,21.926 59.2958333,21.9956667 L59.2958333,28.0519167 L59.2483333,28.0519167 L55.5924167,21.9956667 C55.5433333,21.90225 55.48475,21.8785 55.38975,21.8785 L54.6313333,21.8785 C54.5600833,21.8785 54.511,21.926 54.511,21.9956667 L54.511,29.83475 Z M49.2258333,29.83475 C49.2258333,29.906 49.2733333,29.9519167 49.3445833,29.9519167 L50.16475,29.9519167 C50.236,29.9519167 50.2819167,29.906 50.2819167,29.83475 L50.2819167,21.9956667 C50.2819167,21.926 50.236,21.8785 50.16475,21.8785 L49.3445833,21.8785 C49.2733333,21.8785 49.2258333,21.926 49.2258333,21.9956667 L49.2258333,29.83475 Z M39.3553333,25.9144167 C39.3553333,27.246 39.4265833,27.7320833 39.5675,28.1944167 C39.97125,29.4420833 40.96875,30.0833333 42.3351667,30.0833333 C43.6778333,30.0833333 44.6864167,29.3945833 45.0775,28.1706667 C45.19625,27.7795833 45.2801667,27.1145833 45.2801667,26.3894167 L45.2801667,25.7845833 C45.2801667,25.7133333 45.2326667,25.6658333 45.1614167,25.6658333 L42.5853333,25.6658333 C42.5140833,25.6658333 42.4665833,25.7133333 42.4665833,25.7845833 L42.4665833,26.4733333 C42.4665833,26.5445833 42.5140833,26.5920833 42.5853333,26.5920833 L44.1528333,26.5920833 C44.19875,26.5920833 44.2240833,26.6158333 44.2240833,26.6633333 C44.2240833,27.26975 44.1528333,27.6608333 44.0689167,27.93475 C43.8203333,28.6931667 43.1553333,29.0969167 42.3351667,29.0969167 C41.42,29.0969167 40.8389167,28.671 40.58875,27.8983333 C40.4826667,27.60225 40.4240833,27.1494167 40.4240833,25.9144167 C40.4240833,24.6794167 40.4826667,24.2281667 40.58875,23.9320833 C40.8389167,23.1594167 41.42,22.7335 42.3351667,22.7335 C43.1901667,22.7335 43.7126667,23.0770833 44.10375,23.80225 C44.1401667,23.8719167 44.19875,23.8956667 44.27,23.8608333 L44.9840833,23.5156667 C45.0426667,23.4808333 45.0553333,23.42225 45.0189167,23.3494167 C44.6151667,22.4595833 43.7490833,21.7470833 42.3351667,21.7470833 C40.96875,21.7470833 39.97125,22.3883333 39.5675,23.6344167 C39.4265833,24.0983333 39.3553333,24.5844167 39.3553333,25.9144167 L39.3553333,25.9144167 Z M29.5196667,29.83475 C29.4959167,29.906 29.53075,29.9519167 29.602,29.9519167 L30.43325,29.9519167 C30.5045,29.9519167 30.552,29.9170833 30.5868333,29.83475 L31.2059167,28.0756667 L34.47075,28.0756667 L35.08825,29.83475 C35.112,29.9170833 35.1595,29.9519167 35.2434167,29.9519167 L36.0746667,29.9519167 C36.1443333,29.9519167 36.18075,29.906 36.157,29.83475 L33.3893333,21.9956667 C33.3671667,21.926 33.3196667,21.8785 33.23575,21.8785 L32.4646667,21.8785 C32.38075,21.8785 32.3443333,21.926 32.3221667,21.9956667 L29.5196667,29.83475 Z M31.5495,27.1035 L32.832,23.4333333 L32.8573333,23.4333333 L34.1255833,27.1035 L31.5495,27.1035 Z M20.3949167,25.9144167 C20.3949167,27.246 20.4661667,27.7320833 20.6086667,28.1944167 C21.0124167,29.4420833 22.0099167,30.0833333 23.3763333,30.0833333 C24.7174167,30.0833333 25.726,29.3945833 26.1186667,28.1706667 C26.2374167,27.7795833 26.31975,27.1145833 26.31975,26.3894167 L26.31975,25.7845833 C26.31975,25.7133333 26.27225,25.6658333 26.201,25.6658333 L23.6249167,25.6658333 C23.5536667,25.6658333 23.5061667,25.7133333 23.5061667,25.7845833 L23.5061667,26.4733333 C23.5061667,26.5445833 23.5536667,26.5920833 23.6249167,26.5920833 L25.1924167,26.5920833 C25.2399167,26.5920833 25.2636667,26.6158333 25.2636667,26.6633333 C25.2636667,27.26975 25.1924167,27.6608333 25.1085,27.93475 C24.8599167,28.6931667 24.1949167,29.0969167 23.3763333,29.0969167 C22.4611667,29.0969167 21.8785,28.671 21.6299167,27.8983333 C21.5238333,27.60225 21.4636667,27.1494167 21.4636667,25.9144167 C21.4636667,24.6794167 21.5238333,24.2281667 21.6299167,23.9320833 C21.8785,23.1594167 22.4611667,22.7335 23.3763333,22.7335 C24.22975,22.7335 24.75225,23.0770833 25.1449167,23.80225 C25.17975,23.8719167 25.2399167,23.8956667 25.3095833,23.8608333 L26.0236667,23.5156667 C26.0838333,23.4808333 26.0949167,23.42225 26.0585,23.3494167 C25.65475,22.4595833 24.7886667,21.7470833 23.3763333,21.7470833 C22.0099167,21.7470833 21.0124167,22.3883333 20.6086667,23.6344167 C20.4661667,24.0983333 20.3949167,24.5844167 20.3949167,25.9144167 L20.3949167,25.9144167 Z M10.621,29.83475 C10.621,29.906 10.6700833,29.9519167 10.73975,29.9519167 L11.4886667,29.9519167 C11.5599167,29.9519167 11.6058333,29.906 11.6058333,29.83475 L11.6058333,23.8006667 L11.64225,23.8006667 L15.3124167,29.83475 C15.3583333,29.9281667 15.4311667,29.9519167 15.5135,29.9519167 L16.2735,29.9519167 C16.34475,29.9519167 16.39225,29.906 16.39225,29.83475 L16.39225,21.9956667 C16.39225,21.926 16.34475,21.8785 16.2735,21.8785 L15.5261667,21.8785 C15.4533333,21.8785 15.4058333,21.926 15.4058333,21.9956667 L15.4058333,28.0519167 L15.3583333,28.0519167 L11.7024167,21.9956667 C11.6533333,21.90225 11.59475,21.8785 11.49975,21.8785 L10.73975,21.8785 C10.6700833,21.8785 10.621,21.926 10.621,21.9956667 L10.621,29.83475 Z M1.6815,21.9956667 C1.6815,21.926 1.73058333,21.8785 1.80025,21.8785 L6.65791667,21.8785 C6.72758333,21.8785 6.77508333,21.926 6.77508333,21.9956667 L6.77508333,22.7445833 C6.77508333,22.8158333 6.72758333,22.8633333 6.65791667,22.8633333 L2.81041667,22.8633333 C2.76291667,22.8633333 2.73758333,22.8870833 2.73758333,22.9345833 L2.73758333,25.3095833 C2.73758333,25.3570833 2.76291667,25.3808333 2.81041667,25.3808333 L6.07525,25.3808333 C6.1465,25.3808333 6.194,25.4283333 6.194,25.498 L6.194,26.2469167 C6.194,26.3181667 6.1465,26.36725 6.07525,26.36725 L2.81041667,26.36725 C2.76291667,26.36725 2.73758333,26.391 2.73758333,26.4385 L2.73758333,28.8958333 C2.73758333,28.9433333 2.76291667,28.9670833 2.81041667,28.9670833 L6.65791667,28.9670833 C6.72758333,28.9670833 6.77508333,29.0145833 6.77508333,29.0858333 L6.77508333,29.83475 C6.77508333,29.906 6.72758333,29.9519167 6.65791667,29.9519167 L1.80025,29.9519167 C1.73058333,29.9519167 1.6815,29.906 1.6815,29.83475 L1.6815,21.9956667 L1.6815,21.9956667 Z" id="Fill-3" fill="#FFFFFE" mask="url(#mask-2)"></path>
        </g>
        <g id="SFU_StdBlock-Horz_Rev_W" transform="translate(-0.500000, -0.500000)">
            <mask id="mask-4" fill="white">
                <use xlink:href="#path-3"></use>
            </mask>
            <g id="Clip-2"></g>
            <path d="M0,57 L113.998417,57 L113.998417,0 L0,0 L0,57 Z M63.6341667,32.47575 C63.8130833,31.6935833 63.88275,31.4434167 64.1329167,30.6929167 C64.34825,30.0865 64.4179167,29.9091667 64.7741667,29.2710833 C63.7054167,28.8768333 63.2763333,28.7359167 62.45775,28.557 C61.3193333,28.30525 60.2125833,28.1643333 59.0361667,28.1643333 C56.506,28.1643333 54.796,28.77075 53.4406667,30.1245 C52.2294167,31.33575 51.51375,33.0473333 51.51375,34.865 C51.51375,36.9676667 52.2975,38.5019167 53.97425,39.6751667 C54.8308333,40.28475 55.5085,40.6394167 57.3261667,41.4595833 C59.1770833,42.3161667 59.7154167,42.56475 60.5324167,43.1363333 C61.7816667,43.9881667 62.3865,44.9856667 62.3865,46.16525 C62.3865,48.5893333 60.42475,50.2280833 57.5763333,50.2280833 C56.3286667,50.2280833 55.0445833,49.9430833 53.8665833,49.3366667 C53.0448333,48.944 52.5476667,48.5893333 51.40925,47.6250833 C51.1226667,49.3034167 50.98175,49.8005833 50.3389167,51.1923333 C52.0125,52.0093333 52.6933333,52.2246667 54.4365833,52.47325 C55.3264167,52.6141667 56.0785,52.687 56.8258333,52.687 C60.0336667,52.687 62.4213333,51.6530833 63.954,49.6565 C64.9879167,48.26475 65.48825,46.83975 65.48825,45.31025 C65.48825,44.1670833 65.2016667,43.0270833 64.6680833,42.2069167 C63.9888333,41.1365833 62.9565,40.3544167 60.56725,39.178 C57.2185,37.5028333 56.7181667,37.2526667 55.936,36.6478333 C55.0445833,35.93375 54.54425,34.9695 54.54425,33.9023333 C54.54425,31.8329167 56.0056667,30.48075 58.2175833,30.48075 C58.8224167,30.48075 59.7470833,30.6565 60.4991667,30.8718333 C61.6724167,31.2629167 62.2788333,31.5510833 63.6341667,32.47575 L63.6341667,32.47575 Z M83.7979167,31.8329167 C83.7266667,31.084 83.6934167,30.5155833 83.6934167,30.1245 C83.6934167,29.6241667 83.7266667,29.2315 83.8691667,28.34325 C82.479,28.519 81.9818333,28.519 81.1600833,28.519 L77.52475,28.519 L73.3194167,28.4841667 L70.89375,28.4113333 C71.0378333,31.2280833 71.07425,32.3696667 71.1439167,34.1540833 L71.1439167,43.9185 C71.1439167,46.4850833 71.1106667,48.1618333 71.07425,48.97725 C71.0014167,49.6913333 70.9301667,50.8329167 70.7876667,52.2943333 C71.6078333,52.2246667 72.2158333,52.18825 72.64175,52.18825 C73.1420833,52.18825 73.8894167,52.2246667 74.8885,52.3323333 C74.6351667,49.229 74.6351667,48.6954167 74.6351667,44.41725 L74.6351667,41.38675 L78.3829167,41.38675 C79.8775833,41.38675 80.8038333,41.4595833 83.049,41.7445833 C82.9793333,40.9956667 82.9413333,40.42725 82.9413333,40.033 C82.9413333,39.5706667 82.9793333,39.1431667 83.1234167,38.2153333 C81.1965,38.5019167 80.5204167,38.5351667 78.8800833,38.5351667 L74.6731667,38.5351667 L74.6731667,32.87 L74.7111667,31.4434167 L78.52225,31.4434167 C79.4865,31.4434167 81.0175833,31.5115 82.3016667,31.6571667 C82.6215,31.6935833 83.1234167,31.7284167 83.7979167,31.8329167 L83.7979167,31.8329167 Z M93.49425,28.3765 C92.6028333,28.4841667 91.9251667,28.519 91.46125,28.519 C90.9973333,28.519 90.3196667,28.4493333 89.3965833,28.34325 C89.5359167,29.697 89.5739167,30.19575 89.60875,31.3025 L89.60875,34.9014167 L89.6435833,43.3849167 C89.6435833,46.7700833 89.7496667,47.4841667 90.5698333,48.8363333 C91.0701667,49.6565 91.78425,50.407 92.6756667,51.01025 C94.34925,52.18825 96.1669167,52.6141667 99.4824167,52.6141667 C102.582583,52.6141667 104.5095,52.15025 106.217917,50.9405833 C108.711667,49.1925833 109.246833,47.6266667 109.246833,41.85225 L109.212,36.2551667 C109.212,35.7896667 109.246833,34.58 109.28325,32.61825 C109.28325,31.1235833 109.32125,30.0516667 109.356083,29.48325 C109.3925,29.2315 109.42575,28.8768333 109.462167,28.3765 C108.642,28.4493333 108.035583,28.519 107.6445,28.519 C107.251833,28.519 106.647,28.4493333 105.864833,28.3765 C106.004167,29.6241667 106.077,30.1245 106.11025,31.1948333 C106.217917,32.61825 106.254333,34.3298333 106.254333,36.21875 L106.254333,41.781 C106.254333,45.6981667 106.146667,46.55475 105.399333,47.6615 C105.111167,48.05575 104.617167,48.48325 103.971167,48.8711667 C102.7615,49.6216667 101.439417,49.90825 99.65975,49.90825 C97.128,49.90825 94.77675,48.97725 93.8853333,47.6615 C93.17125,46.5895833 93.138,46.1636667 93.1015833,42.4570833 L93.1015833,35.1864167 C93.1015833,34.7921667 93.138,34.1160833 93.17125,33.2230833 C93.17125,32.3348333 93.20925,31.76325 93.20925,31.5526667 C93.2789167,30.3034167 93.3153333,29.7666667 93.49425,28.3765 L93.49425,28.3765 Z" id="Fill-1" fill="#FFFFFE" mask="url(#mask-4)"></path>
        </g>
    </g>
</svg>