<svg xmlns="http://www.w3.org/2000/svg" width="619" height="341" viewBox="0 0 619 341" xmlns:xlink="http://www.w3.org/1999/xlink">
  <defs>
    <polygon id="a" points="218.096 49.717 324.33 .087 518.967 115.619 303.236 216.403 401.051 274.465 292.644 325.113 .188 151.52 108.599 100.874 206.4 158.924 315.897 107.77"/>
  </defs>
  <g fill="#ffffff" fill-rule="evenodd">
    <g transform="translate(.283)">
      <path stroke="#000000" stroke-width="2" d="M220.232425,49.8224291 L318.033979,107.875313 L206.344319,160.054258 L108.542752,102.00418 L2.32499327,151.625282 L292.699451,323.983185 L398.914484,274.359314 L301.098841,216.297962 L516.830056,115.513538 L324.273966,1.21694799 L220.232425,49.8224291 Z"/>
    </g>
    <path fill="#000000" d="M292.736698,340.654649 L0.28251044,167.065092 L0.473457815,151.518678 L292.92621,325.111863 L292.831906,332.903029 L292.927614,325.110738 L401.335178,274.465325 L401.147039,290.008926 L292.736667,340.657152 L292.736698,340.654649 Z M519.248552,115.618446 L519.057604,131.162047 L317.614414,225.275302 L303.517331,216.402873 L519.248552,115.618446 Z M316.179108,107.768998 L301.70752,114.685246 L218.189408,65.2625246 L218.377547,49.7161105 L316.179108,107.768998 Z"/>
  </g>
</svg>
