<svg xmlns="http://www.w3.org/2000/svg" width="619" height="341" viewBox="0 0 619 341" xmlns:xlink="http://www.w3.org/1999/xlink">
  <defs>
    <polygon id="a" points=".203 51.433 109.984 .163 305.144 115.959 293.433 225.414 184.743 276.17 86.67 217.982 98.819 109.364"/>
  </defs>
  <g fill="#ffffff" fill-rule="evenodd" transform="translate(108 49)">
    <path stroke="#000000" stroke-width="2" d="M2.34911995,51.5337142 L99.8845676,108.830723 L87.7359881,217.451389 L184.798882,275.040638 L292.498251,224.746716 L304.081747,116.491355 L109.928593,1.29281158 L2.34911995,51.5337142 Z"/>
    <path fill="#000000" d="M184.742859,276.17146 L184.551415,291.74908 L86.4815049,233.563498 L86.6701334,217.983059 L184.742859,276.17146 Z M293.431988,225.414077 L293.24336,240.991697 L184.551133,291.750771 L184.742577,276.170332 L293.431988,225.414077 Z M305.144408,115.958249 L304.952964,131.535869 L293.241107,240.99367 L293.432551,225.413231 L305.144408,115.958249 Z M98.8194958,109.36518 L98.6308673,124.94562 L0.0119641141,67.0109716 L0.20340793,51.4333519 L98.8194958,109.36518 Z"/>
  </g>
</svg>
