<svg xmlns="http://www.w3.org/2000/svg" width="619" height="341" viewBox="0 0 619 341" xmlns:xlink="http://www.w3.org/1999/xlink">
  <defs>
    <polygon id="a" points="218.138 .197 423.291 8.121 618.921 124.263 293.674 276.242 194.883 217.593 303.301 166.932 206.459 109.439 98.041 160.1 .219 102.024"/>
  </defs>
  <g fill="#ffffff" fill-rule="evenodd" transform="translate(0 49)">
    <path stroke="#000000" stroke-width="2" d="M218.341812,1.2056523 L2.35578918,102.12985 L98.0970258,158.969854 L206.51446,108.309437 L305.437115,167.037538 L197.019685,217.697953 L293.72974,275.112022 L616.784163,124.157969 L422.998526,9.11071736 L218.341812,1.2056523 Z"/>
    <path fill="#000000" d="M97.968278,166.223241 L98.0435043,160.097447 L206.458134,109.439844 L303.299755,166.933213 L288.302032,173.565451 L206.269701,124.990563 L97.8542561,175.646804 L97.8542294,175.649011 L0.0294455282,117.573707 L0.220405347,102.02355 L98.042381,160.098854 L97.968278,166.223241 Z M293.673976,276.240739 L293.483016,291.788081 L194.695009,233.141536 L194.88316,217.591379 L293.673976,276.240739 Z M618.921514,124.262863 L618.730555,139.813019 L293.483859,291.788644 L293.674819,276.241302 L618.921514,124.262863 Z"/>
  </g>
</svg>
