<svg xmlns="http://www.w3.org/2000/svg" width="619" height="341" viewBox="0 0 619 341" xmlns:xlink="http://www.w3.org/1999/xlink">
  <defs>
    <polygon id="a" points="314.082 51.026 422.592 .263 520.502 58.456 401.391 218.173 292.879 268.936 194.971 210.743 303.481 159.98 97.061 152.55 .135 94.94 108.647 44.177"/>
  </defs>
  <g fill="#ffffff" fill-rule="evenodd" transform="translate(0 56)">
    <g transform="translate(.283)">
      <path stroke="#000000" stroke-width="2" d="M108.853279,45.1842048 L2.26942235,95.0455316 L97.352505,151.559554 L307.657935,159.129384 L197.10588,210.848425 L292.934438,267.806171 L400.739244,217.373668 L519.036265,58.7481065 L422.535795,1.39264294 L314.288854,52.0332942 L108.853279,45.1842048 Z"/>
    </g>
    <path fill="#000000" d="M293.162238,268.935734 L292.973922,284.517483 L195.06381,226.324192 L195.254936,210.742443 L293.162238,268.935734 Z M401.673963,218.173804 L401.482837,233.755552 L292.973641,284.516073 L293.161957,268.934324 L401.673963,218.173804 Z M520.785051,58.4566523 L520.596736,74.0384008 L401.482837,233.755552 L401.673963,218.173804 L520.785051,58.4566523 Z M97.153709,168.128204 L0.227603637,110.521573 L0.418730024,94.9398248 L97.3451041,152.549434 L303.764131,159.980231 L272.289187,174.435422 L97.1536967,168.129209 Z"/>
  </g>
</svg>
