<svg xmlns="http://www.w3.org/2000/svg" width="619" height="341" viewBox="0 0 619 341" xmlns:xlink="http://www.w3.org/1999/xlink">
  <defs>
    <polygon id="a" points=".065 151.479 324.621 .054 355.785 18.527 519.526 115.589 401.461 274.429 292.914 325.075 194.97 267.014 314.015 108.758 98.009 209.538"/>
  </defs>
  <g fill="#ffffff" fill-rule="evenodd">
    <g transform="translate(.284)">
      <path stroke="#000000" stroke-width="2" d="M2.20416635,151.584651 L98.0650963,208.408231 L317.222366,106.158411 L196.439817,266.722946 L292.969593,323.945771 L400.809134,273.630101 L518.060813,115.882792 L324.565317,1.1832738 L2.20416635,151.584651 Z"/>
    </g>
    <path fill="#000000" d="M401.554045,289.971708 L401.554016,289.974006 L293.006946,340.616981 L293.19814,325.074128 L401.744347,274.428742 L519.808916,115.589102 L519.617723,131.134769 L401.554045,289.971708 Z M314.299391,108.758124 L295.484771,132.991347 L98.1021715,225.083368 L98.2933646,209.537702 L314.299391,108.758124 Z M98.2928023,209.538264 L98.1016092,225.081117 L0.160132885,167.025396 L0.34851432,151.47973 L98.2928023,209.538264 Z M293.196734,325.073847 L293.005541,340.6167 L195.064064,282.558166 L195.252446,267.015313 L293.196734,325.073847 Z"/>
  </g>
</svg>
