<svg xmlns="http://www.w3.org/2000/svg" width="186" height="53" viewBox="0 0 186 53">
  <path fill="#FFFFFF" fill-rule="evenodd" stroke="#3228D9" stroke-width="1.75" d="M41.1,39.324 L41.1,50 L4.04,50 L4.04,41.568 L21.856,24.908 C23.5786753,23.2759918 24.7346637,21.8820058 25.324,20.726 C25.9133363,19.5699942 26.208,18.4026726 26.208,17.224 C26.208,15.682659 25.6866719,14.4813376 24.644,13.62 C23.6013281,12.7586624 22.0826766,12.328 20.088,12.328 C18.3199912,12.328 16.6993407,12.7246627 15.226,13.518 C13.7526593,14.3113373 12.5400048,15.4559925 11.588,16.952 L1.592,11.376 C3.45067596,8.29331792 6.05731656,5.86800884 9.412,4.1 C12.7666834,2.33199116 16.7333104,1.448 21.312,1.448 C24.9386848,1.448 28.1459861,2.03732744 30.934,3.216 C33.7220139,4.39467256 35.8979922,6.08332234 37.462,8.282 C39.0260078,10.4806777 39.808,13.0306522 39.808,15.932 C39.808,18.5160129 39.2526722,20.9526552 38.142,23.242 C37.0313278,25.5313448 34.8893492,28.1266522 31.716,31.028 L22.74,39.324 L41.1,39.324 Z M63.3079998,48.028 C60.1346506,46.0786569 57.6526754,43.2340187 55.8619998,39.494 C54.0713242,35.7539813 53.1759998,31.3226923 53.1759998,26.2 C53.1759998,21.0773077 54.0713242,16.6460187 55.8619998,12.906 C57.6526754,9.1659813 60.1346506,6.32134308 63.3079998,4.372 C66.481349,2.42265692 70.1079794,1.448 74.1879998,1.448 C78.2226866,1.448 81.8266506,2.42265692 84.9999998,4.372 C88.173349,6.32134308 90.6553242,9.1659813 92.4459998,12.906 C94.2366754,16.6460187 95.1319998,21.0773077 95.1319998,26.2 C95.1319998,31.3226923 94.2366754,35.7539813 92.4459998,39.494 C90.6553242,43.2340187 88.173349,46.0786569 84.9999998,48.028 C81.8266506,49.9773431 78.2226866,50.952 74.1879998,50.952 C70.1079794,50.952 66.481349,49.9773431 63.3079998,48.028 Z M79.5939998,36.638 C80.9313398,34.4393223 81.5999998,30.9600238 81.5999998,26.2 C81.5999998,21.4399762 80.9313398,17.9606777 79.5939998,15.762 C78.2566598,13.5633223 76.4546778,12.464 74.1879998,12.464 C71.8759882,12.464 70.0513398,13.5633223 68.7139998,15.762 C67.3766598,17.9606777 66.7079998,21.4399762 66.7079998,26.2 C66.7079998,30.9600238 67.3766598,34.4393223 68.7139998,36.638 C70.0513398,38.8366777 71.8759882,39.936 74.1879998,39.936 C76.4546778,39.936 78.2566598,38.8366777 79.5939998,36.638 Z M127.812,2.4 L127.812,50 L114.348,50 L114.348,12.804 L105.508,12.804 L105.508,2.4 L127.812,2.4 Z M182.455999,29.6 C183.634672,31.458676 184.223999,33.5893213 184.223999,35.992 C184.223999,38.984015 183.362675,41.613322 181.639999,43.88 C179.917324,46.146678 177.492015,47.8919939 174.363999,49.116 C171.235984,50.3400061 167.63202,50.952 163.551999,50.952 C159.471979,50.952 155.868015,50.3400061 152.739999,49.116 C149.611984,47.8919939 147.186675,46.146678 145.463999,43.88 C143.741324,41.613322 142.879999,38.984015 142.879999,35.992 C142.879999,33.5893213 143.469327,31.458676 144.647999,29.6 C145.826672,27.741324 147.503989,26.1773397 149.679999,24.908 C148.047991,23.774661 146.790004,22.3920082 145.905999,20.76 C145.021995,19.1279918 144.579999,17.3146766 144.579999,15.32 C144.579999,12.5546528 145.373325,10.1180105 146.959999,8.01 C148.546674,5.90198946 150.779318,4.281339 153.657999,3.148 C156.53668,2.014661 159.834648,1.448 163.551999,1.448 C167.269351,1.448 170.567318,2.014661 173.445999,3.148 C176.32468,4.281339 178.557325,5.90198946 180.143999,8.01 C181.730674,10.1180105 182.523999,12.5546528 182.523999,15.32 C182.523999,17.3146766 182.082004,19.1279918 181.197999,20.76 C180.313995,22.3920082 179.056008,23.774661 177.423999,24.908 C179.60001,26.1773397 181.277327,27.741324 182.455999,29.6 Z M159.471999,12.226 C158.429328,13.1100044 157.907999,14.3453254 157.907999,15.932 C157.907999,17.473341 158.417994,18.6859956 159.437999,19.57 C160.458005,20.4540044 161.829324,20.896 163.551999,20.896 C165.274675,20.896 166.657328,20.4540044 167.699999,19.57 C168.742671,18.6859956 169.263999,17.473341 169.263999,15.932 C169.263999,14.3453254 168.742671,13.1100044 167.699999,12.226 C166.657328,11.3419956 165.274675,10.9 163.551999,10.9 C161.874658,10.9 160.514671,11.3419956 159.471999,12.226 Z M168.753999,39.902 C170.046006,38.8366613 170.691999,37.3973424 170.691999,35.584 C170.691999,33.7706576 170.046006,32.3313387 168.753999,31.266 C167.461993,30.2006613 165.72801,29.668 163.551999,29.668 C161.375989,29.668 159.642006,30.2006613 158.349999,31.266 C157.057993,32.3313387 156.411999,33.7706576 156.411999,35.584 C156.411999,37.3973424 157.057993,38.8366613 158.349999,39.902 C159.642006,40.9673387 161.375989,41.5 163.551999,41.5 C165.72801,41.5 167.461993,40.9673387 168.753999,39.902 Z"/>
</svg>
