<svg width="186" height="53" viewBox="0 0 186 53" fill="none" xmlns="http://www.w3.org/2000/svg">
<path fill-rule="evenodd" clip-rule="evenodd" d="M41.0998 39.3242V50.0002H4.0398V41.5682L21.8558 24.9082C23.5785 23.2762 24.7345 21.8822 25.3238 20.7262C25.9131 19.5702 26.2078 18.4029 26.2078 17.2242C26.2078 15.6829 25.6865 14.4816 24.6438 13.6202C23.6011 12.7589 22.0825 12.3282 20.0878 12.3282C18.3198 12.3282 16.6991 12.7249 15.2258 13.5182C13.7525 14.3116 12.5398 15.4562 11.5878 16.9522L1.5918 11.3762C3.45047 8.29356 6.05711 5.86825 9.4118 4.10024C12.7665 2.33223 16.7331 1.44824 21.3118 1.44824C24.9385 1.44824 28.1458 2.03757 30.9338 3.21624C33.7218 4.39491 35.8978 6.08356 37.4618 8.28224C39.0258 10.4809 39.8078 13.0309 39.8078 15.9322C39.8078 18.5163 39.2525 20.9529 38.1418 23.2422C37.0311 25.5316 34.8891 28.1269 31.7158 31.0282L22.7398 39.3242H41.0998ZM60.3078 48.0282C57.1344 46.0789 54.6525 43.2343 52.8618 39.4942C51.0711 35.7542 50.1758 31.3229 50.1758 26.2002C50.1758 21.0776 51.0711 16.6463 52.8618 12.9062C54.6525 9.16622 57.1344 6.32159 60.3078 4.37224C63.4811 2.4229 67.1078 1.44824 71.1878 1.44824C75.2225 1.44824 78.8264 2.4229 81.9998 4.37224C85.1731 6.32159 87.6551 9.16622 89.4458 12.9062C91.2365 16.6463 92.1318 21.0776 92.1318 26.2002C92.1318 31.3229 91.2365 35.7542 89.4458 39.4942C87.6551 43.2343 85.1731 46.0789 81.9998 48.0282C78.8264 49.9776 75.2225 50.9522 71.1878 50.9522C67.1078 50.9522 63.4811 49.9776 60.3078 48.0282ZM76.5938 36.6382C77.9311 34.4396 78.5998 30.9603 78.5998 26.2002C78.5998 21.4402 77.9311 17.9609 76.5938 15.7622C75.2565 13.5636 73.4545 12.4642 71.1878 12.4642C68.8758 12.4642 67.0511 13.5636 65.7138 15.7622C64.3765 17.9609 63.7078 21.4402 63.7078 26.2002C63.7078 30.9603 64.3765 34.4396 65.7138 36.6382C67.0511 38.8369 68.8758 39.9362 71.1878 39.9362C73.4545 39.9362 75.2565 38.8369 76.5938 36.6382Z" fill="white"/>
<path d="M138.5 50.0002V39.3242H120.14L129.116 31.0282C132.289 28.1269 134.431 25.5316 135.542 23.2422C136.653 20.9529 137.208 18.5163 137.208 15.9322C137.208 13.0309 136.426 10.4809 134.862 8.28224C133.298 6.08356 131.122 4.39491 128.334 3.21624C125.546 2.03757 122.339 1.44824 118.712 1.44824C114.133 1.44824 110.167 2.33223 106.812 4.10024C103.457 5.86825 100.851 8.29356 98.992 11.3762L108.988 16.9522C109.94 15.4562 111.153 14.3116 112.626 13.5182C114.099 12.7249 115.72 12.3282 117.488 12.3282C119.483 12.3282 121.001 12.7589 122.044 13.6202C123.087 14.4816 123.608 15.6829 123.608 17.2242C123.608 18.4029 123.313 19.5702 122.724 20.7262C122.135 21.8822 120.979 23.2762 119.256 24.9082L101.44 41.5682V50.0002H138.5Z" fill="white"/>
<path d="M185.008 50.0002V39.3242H166.648L175.624 31.0282C178.797 28.1269 180.939 25.5316 182.05 23.2422C183.161 20.9529 183.716 18.5163 183.716 15.9322C183.716 13.0309 182.934 10.4809 181.37 8.28224C179.806 6.08356 177.63 4.39491 174.842 3.21624C172.054 2.03757 168.847 1.44824 165.22 1.44824C160.641 1.44824 156.675 2.33223 153.32 4.10024C149.965 5.86825 147.359 8.29356 145.5 11.3762L155.496 16.9522C156.448 15.4562 157.661 14.3116 159.134 13.5182C160.607 12.7249 162.228 12.3282 163.996 12.3282C165.991 12.3282 167.509 12.7589 168.552 13.6202C169.595 14.4816 170.116 15.6829 170.116 17.2242C170.116 18.4029 169.821 19.5702 169.232 20.7262C168.643 21.8822 167.487 23.2762 165.764 24.9082L147.948 41.5682V50.0002H185.008Z" fill="white"/>
<path fill-rule="evenodd" clip-rule="evenodd" d="M41.0998 39.3242V50.0002H4.0398V41.5682L21.8558 24.9082C23.5785 23.2762 24.7345 21.8822 25.3238 20.7262C25.9131 19.5702 26.2078 18.4029 26.2078 17.2242C26.2078 15.6829 25.6865 14.4816 24.6438 13.6202C23.6011 12.7589 22.0825 12.3282 20.0878 12.3282C18.3198 12.3282 16.6991 12.7249 15.2258 13.5182C13.7525 14.3116 12.5398 15.4562 11.5878 16.9522L1.5918 11.3762C3.45047 8.29356 6.05711 5.86825 9.4118 4.10024C12.7665 2.33223 16.7331 1.44824 21.3118 1.44824C24.9385 1.44824 28.1458 2.03757 30.9338 3.21624C33.7218 4.39491 35.8978 6.08356 37.4618 8.28224C39.0258 10.4809 39.8078 13.0309 39.8078 15.9322C39.8078 18.5163 39.2525 20.9529 38.1418 23.2422C37.0311 25.5316 34.8891 28.1269 31.7158 31.0282L22.7398 39.3242H41.0998ZM60.3078 48.0282C57.1344 46.0789 54.6525 43.2343 52.8618 39.4942C51.0711 35.7542 50.1758 31.3229 50.1758 26.2002C50.1758 21.0776 51.0711 16.6463 52.8618 12.9062C54.6525 9.16622 57.1344 6.32159 60.3078 4.37224C63.4811 2.4229 67.1078 1.44824 71.1878 1.44824C75.2225 1.44824 78.8264 2.4229 81.9998 4.37224C85.1731 6.32159 87.6551 9.16622 89.4458 12.9062C91.2365 16.6463 92.1318 21.0776 92.1318 26.2002C92.1318 31.3229 91.2365 35.7542 89.4458 39.4942C87.6551 43.2343 85.1731 46.0789 81.9998 48.0282C78.8264 49.9776 75.2225 50.9522 71.1878 50.9522C67.1078 50.9522 63.4811 49.9776 60.3078 48.0282ZM76.5938 36.6382C77.9311 34.4396 78.5998 30.9603 78.5998 26.2002C78.5998 21.4402 77.9311 17.9609 76.5938 15.7622C75.2565 13.5636 73.4545 12.4642 71.1878 12.4642C68.8758 12.4642 67.0511 13.5636 65.7138 15.7622C64.3765 17.9609 63.7078 21.4402 63.7078 26.2002C63.7078 30.9603 64.3765 34.4396 65.7138 36.6382C67.0511 38.8369 68.8758 39.9362 71.1878 39.9362C73.4545 39.9362 75.2565 38.8369 76.5938 36.6382Z" stroke="#3228D9" stroke-width="1.75"/>
<path d="M138.5 50.0002V39.3242H120.14L129.116 31.0282C132.289 28.1269 134.431 25.5316 135.542 23.2422C136.653 20.9529 137.208 18.5163 137.208 15.9322C137.208 13.0309 136.426 10.4809 134.862 8.28224C133.298 6.08356 131.122 4.39491 128.334 3.21624C125.546 2.03757 122.339 1.44824 118.712 1.44824C114.133 1.44824 110.167 2.33223 106.812 4.10024C103.457 5.86825 100.851 8.29356 98.992 11.3762L108.988 16.9522C109.94 15.4562 111.153 14.3116 112.626 13.5182C114.099 12.7249 115.72 12.3282 117.488 12.3282C119.483 12.3282 121.001 12.7589 122.044 13.6202C123.087 14.4816 123.608 15.6829 123.608 17.2242C123.608 18.4029 123.313 19.5702 122.724 20.7262C122.135 21.8822 120.979 23.2762 119.256 24.9082L101.44 41.5682V50.0002H138.5Z" stroke="#3228D9" stroke-width="1.75"/>
<path d="M185.008 50.0002V39.3242H166.648L175.624 31.0282C178.797 28.1269 180.939 25.5316 182.05 23.2422C183.161 20.9529 183.716 18.5163 183.716 15.9322C183.716 13.0309 182.934 10.4809 181.37 8.28224C179.806 6.08356 177.63 4.39491 174.842 3.21624C172.054 2.03757 168.847 1.44824 165.22 1.44824C160.641 1.44824 156.675 2.33223 153.32 4.10024C149.965 5.86825 147.359 8.29356 145.5 11.3762L155.496 16.9522C156.448 15.4562 157.661 14.3116 159.134 13.5182C160.607 12.7249 162.228 12.3282 163.996 12.3282C165.991 12.3282 167.509 12.7589 168.552 13.6202C169.595 14.4816 170.116 15.6829 170.116 17.2242C170.116 18.4029 169.821 19.5702 169.232 20.7262C168.643 21.8822 167.487 23.2762 165.764 24.9082L147.948 41.5682V50.0002H185.008Z" stroke="#3228D9" stroke-width="1.75"/>
</svg>
