<svg xmlns="http://www.w3.org/2000/svg" width="1270" height="764" viewBox="0 0 1270 764">
  <g fill="#FFFFFF" fill-rule="evenodd">
    <polygon points=".873 0 314.157 0 314.157 208.507 105.65 313.284 .873 313.284 .873 208.507 209.38 104.777 .873 104.777"/>
    <polygon points="477.609 0 477.609 103.729 582.386 208.507 477.609 208.507 477.609 313.284 582.386 313.284 791.941 208.507 791.941 103.729 687.163 103.729 582.386 0"/>
    <polygon points="955.218 0 955.218 104.777 1059.995 104.777 1059.995 208.507 955.218 208.507 955.218 314.331 1269.55 314.331 1269.55 104.777 1165.82 0"/>
    <polygon points="0 450.542 0 763.825 104.777 763.825 104.777 659.048 313.284 659.048 313.284 450.542 210.602 450.542 210.602 555.319 104.777 555.319 104.777 450.542"/>
    <polygon points="582.386 450.542 688.211 450.542 688.211 659.048 582.386 763.825 477.609 763.825 477.609 659.048 582.91 555.319"/>
  </g>
</svg>
