<svg width="1534" height="1383" viewBox="0 0 1534 1383" fill="none" xmlns="http://www.w3.org/2000/svg">
<path d="M1529 888.433C1371.79 895.931 1134 833 1127.5 770.5C1121 708 1218.5 696.5 1112 635.5" stroke="url(#paint0_linear_803_77)" stroke-width="3"/>
<path d="M189.44 772H194.48L182.24 744H177.4L165.04 772H169.96L172.64 765.68H186.76L189.44 772ZM174.4 761.48L179.68 749.04L184.96 761.48H174.4ZM202.731 742.32H198.131V772H202.731V742.32ZM220.608 767.12C219.368 767.72 218.368 768.04 217.408 768.04C215.968 768.04 215.128 767.36 215.128 765.16V754.96H221.408V751.52H215.128V745.68H210.568V751.52H207.568V754.96H210.568V766C210.568 770.36 213.328 772.2 216.528 772.2C218.328 772.2 220.088 771.64 221.768 770.64L220.608 767.12ZM234.543 750.56C228.223 750.6 223.783 754.96 223.783 761.4C223.783 767.8 228.103 772.16 234.663 772.16C238.343 772.16 241.383 770.84 243.463 768.56L241.023 765.96C239.463 767.56 237.343 768.44 235.023 768.44C231.663 768.44 229.143 766.4 228.423 763.12H244.503C245.063 755.44 242.023 750.56 234.543 750.56ZM228.343 759.76C228.823 756.36 231.223 754.24 234.583 754.24C238.063 754.24 240.343 756.32 240.503 759.76H228.343ZM253.898 754.96V750.72H249.298V772H253.898V760.88C254.258 757.24 256.978 754.72 261.258 754.96V750.56C257.898 750.56 255.338 752.08 253.898 754.96ZM305.233 744H299.673L290.473 762.6L281.233 744H275.633V772H280.073V751.08L288.913 769.08H291.993L300.833 751.08L300.873 772H305.233V744ZM329.625 772L329.585 758.04C329.545 753.36 326.465 750.56 320.985 750.56C316.945 750.56 314.785 751.48 311.825 753.24L313.705 756.44C315.825 755 317.945 754.28 319.985 754.28C323.345 754.28 325.065 755.88 325.065 758.56V759.2H318.625C313.505 759.24 310.585 761.72 310.585 765.6C310.585 769.36 313.465 772.2 318.065 772.2C321.145 772.2 323.585 771.28 325.105 769.4V772H329.625ZM319.025 768.56C316.465 768.56 314.905 767.32 314.905 765.4C314.905 763.36 316.305 762.56 319.305 762.56H325.065V764.52C324.825 766.84 322.305 768.56 319.025 768.56ZM340.383 754.96V750.72H335.783V772H340.383V760.88C340.743 757.24 343.463 754.72 347.743 754.96V750.56C344.383 750.56 341.823 752.08 340.383 754.96ZM366.165 772H371.605L363.125 758.96L371.005 750.72H365.725L356.325 760.24V742.32H351.725V772H356.325V766.04L359.925 762.24L366.165 772ZM386.194 767.12C384.954 767.72 383.954 768.04 382.994 768.04C381.554 768.04 380.714 767.36 380.714 765.16V754.96H386.994V751.52H380.714V745.68H376.154V751.52H373.154V754.96H376.154V766C376.154 770.36 378.914 772.2 382.114 772.2C383.914 772.2 385.674 771.64 387.354 770.64L386.194 767.12ZM414.276 739.36H410.356L397.676 776.68H401.596L414.276 739.36ZM430.47 744H425.75V772H442.59V767.72H430.47V744ZM464.118 772L464.078 758.04C464.038 753.36 460.958 750.56 455.478 750.56C451.438 750.56 449.278 751.48 446.318 753.24L448.198 756.44C450.318 755 452.438 754.28 454.478 754.28C457.838 754.28 459.558 755.88 459.558 758.56V759.2H453.118C447.998 759.24 445.078 761.72 445.078 765.6C445.078 769.36 447.958 772.2 452.558 772.2C455.638 772.2 458.078 771.28 459.598 769.4V772H464.118ZM453.518 768.56C450.958 768.56 449.398 767.32 449.398 765.4C449.398 763.36 450.798 762.56 453.798 762.56H459.558V764.52C459.318 766.84 456.798 768.56 453.518 768.56ZM482.715 750.56C479.115 750.56 476.395 751.84 474.875 754.8V750.72H470.275V772H474.875V760.68C475.195 757.36 477.395 754.92 480.915 754.88C484.115 754.88 486.035 756.84 486.035 760.04V772H490.635V758.76C490.635 753.68 487.675 750.56 482.715 750.56ZM512.478 742.32V754.4C510.918 751.92 508.358 750.52 504.918 750.52C498.918 750.52 494.798 754.88 494.798 761.28C494.798 767.76 498.878 772.2 504.998 772.2C508.398 772.2 510.958 770.84 512.478 768.36V772H517.078V742.32H512.478ZM505.958 768.36C502.078 768.36 499.438 765.48 499.398 761.44C499.438 757.36 502.118 754.44 505.958 754.44C509.798 754.44 512.478 757.32 512.478 761.44C512.478 765.48 509.798 768.36 505.958 768.36ZM534.944 767.12C533.704 767.72 532.704 768.04 531.744 768.04C530.304 768.04 529.464 767.36 529.464 765.16V754.96H535.744V751.52H529.464V745.68H524.904V751.52H521.904V754.96H524.904V766C524.904 770.36 527.664 772.2 530.864 772.2C532.664 772.2 534.424 771.64 536.104 770.64L534.944 767.12ZM557.633 772L557.593 758.04C557.553 753.36 554.473 750.56 548.993 750.56C544.953 750.56 542.793 751.48 539.833 753.24L541.713 756.44C543.833 755 545.953 754.28 547.993 754.28C551.353 754.28 553.073 755.88 553.073 758.56V759.2H546.633C541.513 759.24 538.593 761.72 538.593 765.6C538.593 769.36 541.473 772.2 546.073 772.2C549.153 772.2 551.593 771.28 553.113 769.4V772H557.633ZM547.033 768.56C544.473 768.56 542.913 767.32 542.913 765.4C542.913 763.36 544.313 762.56 547.313 762.56H553.073V764.52C552.833 766.84 550.313 768.56 547.033 768.56ZM578.431 750.72V754.16C576.951 751.84 574.511 750.52 571.231 750.56C565.591 750.6 561.791 754.68 561.791 760.68C561.791 766.8 565.631 770.96 571.391 770.96C574.591 770.96 576.991 769.68 578.431 767.36V770.04C578.431 773.72 575.791 776.08 571.751 776.08C569.151 776.08 567.071 775.24 565.071 773.76L563.111 777.08C565.711 778.84 568.631 779.88 571.951 779.88C578.631 779.88 582.991 776.04 582.991 769.92V750.72H578.431ZM572.311 767.36C568.631 767.36 566.151 764.64 566.111 760.8C566.151 757 568.671 754.28 572.311 754.28C575.911 754.28 578.431 756.96 578.431 760.8C578.431 764.64 575.911 767.36 572.311 767.36Z" fill="black"/>
<path d="M670.84 430H665.96L659.2 452.76L652.4 430H647.76L641 452.76L634.2 430H629.12L638.4 458H643.28L650 436.16L656.64 458H661.48L670.84 430ZM676.125 427.84C674.605 427.84 673.445 429 673.445 430.64C673.445 432.24 674.605 433.4 676.125 433.4C677.645 433.4 678.805 432.24 678.805 430.64C678.805 429 677.645 427.84 676.125 427.84ZM678.405 436.72H673.845V458H678.405V436.72ZM691.573 436.52C687.493 436.52 683.733 438.36 683.733 442.68C683.693 450.36 694.893 447.92 694.893 452.28C694.893 453.88 693.373 454.56 691.413 454.56C689.093 454.56 686.133 453.56 684.293 451.92L682.653 455.2C684.773 457.12 688.093 458.16 691.213 458.16C695.493 458.16 699.373 456.2 699.373 451.84C699.413 444.12 688.093 446.24 688.093 442.32C688.093 440.8 689.413 440.2 691.213 440.2C693.093 440.2 695.453 440.92 697.333 442.08L699.013 438.68C697.093 437.32 694.253 436.52 691.573 436.52ZM710.362 436.52C706.282 436.52 702.522 438.36 702.522 442.68C702.482 450.36 713.682 447.92 713.682 452.28C713.682 453.88 712.162 454.56 710.202 454.56C707.882 454.56 704.922 453.56 703.082 451.92L701.442 455.2C703.562 457.12 706.882 458.16 710.002 458.16C714.282 458.16 718.162 456.2 718.162 451.84C718.202 444.12 706.882 446.24 706.882 442.32C706.882 440.8 708.202 440.2 710.002 440.2C711.882 440.2 714.242 440.92 716.122 442.08L717.802 438.68C715.882 437.32 713.042 436.52 710.362 436.52ZM731.551 436.56C725.231 436.6 720.791 440.96 720.791 447.4C720.791 453.8 725.111 458.16 731.671 458.16C735.351 458.16 738.391 456.84 740.471 454.56L738.031 451.96C736.471 453.56 734.351 454.44 732.031 454.44C728.671 454.44 726.151 452.4 725.431 449.12H741.511C742.071 441.44 739.031 436.56 731.551 436.56ZM725.351 445.76C725.831 442.36 728.231 440.24 731.591 440.24C735.071 440.24 737.351 442.32 737.511 445.76H725.351ZM758.746 436.56C755.146 436.56 752.426 437.84 750.906 440.8V436.72H746.306V458H750.906V446.68C751.226 443.36 753.426 440.92 756.946 440.88C760.146 440.88 762.066 442.84 762.066 446.04V458H766.666V444.76C766.666 439.68 763.706 436.56 758.746 436.56ZM779.19 436.52C775.11 436.52 771.35 438.36 771.35 442.68C771.31 450.36 782.51 447.92 782.51 452.28C782.51 453.88 780.99 454.56 779.03 454.56C776.71 454.56 773.75 453.56 771.91 451.92L770.27 455.2C772.39 457.12 775.71 458.16 778.83 458.16C783.11 458.16 786.99 456.2 786.99 451.84C787.03 444.12 775.71 446.24 775.71 442.32C775.71 440.8 777.03 440.2 778.83 440.2C780.71 440.2 783.07 440.92 784.95 442.08L786.63 438.68C784.71 437.32 781.87 436.52 779.19 436.52ZM800.339 436.56C794.019 436.56 789.619 440.96 789.619 447.4C789.619 453.8 794.019 458.16 800.339 458.16C804.379 458.16 807.459 456.72 809.379 454.2L806.819 451.64C805.379 453.32 803.219 454.2 800.539 454.2C796.859 454.2 794.219 451.44 794.219 447.4C794.219 443.36 796.859 440.6 800.539 440.6C803.099 440.56 805.139 441.48 806.619 443L809.139 440.04C807.179 437.8 804.179 436.56 800.339 436.56ZM826.877 436.56C823.237 436.56 820.517 437.88 818.997 440.88V428.32H814.397V458H818.997V447.52C818.997 443.76 821.277 440.92 825.077 440.88C828.277 440.88 830.197 442.84 830.197 446.04V458H834.797V444.76C834.797 439.68 831.837 436.56 826.877 436.56ZM858.235 458L858.195 444.04C858.155 439.36 855.075 436.56 849.595 436.56C845.555 436.56 843.395 437.48 840.435 439.24L842.315 442.44C844.435 441 846.555 440.28 848.595 440.28C851.955 440.28 853.675 441.88 853.675 444.56V445.2H847.235C842.115 445.24 839.195 447.72 839.195 451.6C839.195 455.36 842.075 458.2 846.675 458.2C849.755 458.2 852.195 457.28 853.715 455.4V458H858.235ZM847.635 454.56C845.075 454.56 843.515 453.32 843.515 451.4C843.515 449.36 844.915 448.56 847.915 448.56H853.675V450.52C853.435 452.84 850.915 454.56 847.635 454.56ZM872.712 432.12C873.672 432.12 874.752 432.48 875.632 433.12L877.392 429.6C876.032 428.6 874.312 428.12 872.592 428.12C868.912 428.12 865.272 430.48 865.272 435.44V437.52H862.472V440.96H865.272V458H869.832V440.96H875.392V437.52H869.832V435C869.832 433 871.152 432.12 872.712 432.12ZM889.335 453.12C888.095 453.72 887.095 454.04 886.135 454.04C884.695 454.04 883.855 453.36 883.855 451.16V440.96H890.135V437.52H883.855V431.68H879.295V437.52H876.295V440.96H879.295V452C879.295 456.36 882.055 458.2 885.255 458.2C887.055 458.2 888.815 457.64 890.495 456.64L889.335 453.12ZM901.104 436.52C897.024 436.52 893.264 438.36 893.264 442.68C893.224 450.36 904.424 447.92 904.424 452.28C904.424 453.88 902.904 454.56 900.944 454.56C898.624 454.56 895.664 453.56 893.824 451.92L892.184 455.2C894.304 457.12 897.624 458.16 900.744 458.16C905.024 458.16 908.904 456.2 908.904 451.84C908.944 444.12 897.624 446.24 897.624 442.32C897.624 440.8 898.944 440.2 900.744 440.2C902.624 440.2 904.984 440.92 906.864 442.08L908.544 438.68C906.624 437.32 903.784 436.52 901.104 436.52ZM922.293 436.56C915.973 436.6 911.533 440.96 911.533 447.4C911.533 453.8 915.853 458.16 922.413 458.16C926.093 458.16 929.133 456.84 931.213 454.56L928.773 451.96C927.213 453.56 925.093 454.44 922.773 454.44C919.413 454.44 916.893 452.4 916.173 449.12H932.253C932.813 441.44 929.773 436.56 922.293 436.56ZM916.093 445.76C916.573 442.36 918.973 440.24 922.333 440.24C925.813 440.24 928.093 442.32 928.253 445.76H916.093ZM947.928 453.12C946.688 453.72 945.688 454.04 944.728 454.04C943.288 454.04 942.448 453.36 942.448 451.16V440.96H948.728V437.52H942.448V431.68H937.888V437.52H934.888V440.96H937.888V452C937.888 456.36 940.648 458.2 943.848 458.2C945.648 458.2 947.408 457.64 949.088 456.64L947.928 453.12ZM970.618 458L970.578 444.04C970.538 439.36 967.458 436.56 961.978 436.56C957.938 436.56 955.778 437.48 952.818 439.24L954.698 442.44C956.818 441 958.938 440.28 960.978 440.28C964.338 440.28 966.058 441.88 966.058 444.56V445.2H959.618C954.498 445.24 951.578 447.72 951.578 451.6C951.578 455.36 954.458 458.2 959.058 458.2C962.138 458.2 964.578 457.28 966.098 455.4V458H970.618ZM960.018 454.56C957.458 454.56 955.898 453.32 955.898 451.4C955.898 449.36 957.298 448.56 960.298 448.56H966.058V450.52C965.818 452.84 963.298 454.56 960.018 454.56ZM991.415 436.72V440.16C989.935 437.84 987.495 436.52 984.215 436.56C978.575 436.6 974.775 440.68 974.775 446.68C974.775 452.8 978.615 456.96 984.375 456.96C987.575 456.96 989.975 455.68 991.415 453.36V456.04C991.415 459.72 988.775 462.08 984.735 462.08C982.135 462.08 980.055 461.24 978.055 459.76L976.095 463.08C978.695 464.84 981.615 465.88 984.935 465.88C991.615 465.88 995.975 462.04 995.975 455.92V436.72H991.415ZM985.295 453.36C981.615 453.36 979.135 450.64 979.095 446.8C979.135 443 981.655 440.28 985.295 440.28C988.895 440.28 991.415 442.96 991.415 446.8C991.415 450.64 988.895 453.36 985.295 453.36ZM1011.12 436.56C1004.8 436.6 1000.36 440.96 1000.36 447.4C1000.36 453.8 1004.68 458.16 1011.24 458.16C1014.92 458.16 1017.96 456.84 1020.04 454.56L1017.6 451.96C1016.04 453.56 1013.92 454.44 1011.6 454.44C1008.24 454.44 1005.72 452.4 1005 449.12H1021.08C1021.64 441.44 1018.6 436.56 1011.12 436.56ZM1004.92 445.76C1005.4 442.36 1007.8 440.24 1011.16 440.24C1014.64 440.24 1016.92 442.32 1017.08 445.76H1004.92ZM649.68 507L649.64 493.04C649.6 488.36 646.52 485.56 641.04 485.56C637 485.56 634.84 486.48 631.88 488.24L633.76 491.44C635.88 490 638 489.28 640.04 489.28C643.4 489.28 645.12 490.88 645.12 493.56V494.2H638.68C633.56 494.24 630.64 496.72 630.64 500.6C630.64 504.36 633.52 507.2 638.12 507.2C641.2 507.2 643.64 506.28 645.16 504.4V507H649.68ZM639.08 503.56C636.52 503.56 634.96 502.32 634.96 500.4C634.96 498.36 636.36 497.56 639.36 497.56H645.12V499.52C644.88 501.84 642.36 503.56 639.08 503.56ZM666.718 502.12C665.478 502.72 664.478 503.04 663.518 503.04C662.078 503.04 661.238 502.36 661.238 500.16V489.96H667.518V486.52H661.238V480.68H656.678V486.52H653.678V489.96H656.678V501C656.678 505.36 659.438 507.2 662.638 507.2C664.438 507.2 666.198 506.64 667.878 505.64L666.718 502.12ZM694.879 479H682.719V507H695.159C701.479 507 705.359 504.12 705.359 499.32C705.359 495.56 703.119 492.88 699.359 492.24C702.399 491.52 704.279 489.16 704.279 486C704.279 481.64 700.679 479 694.879 479ZM694.639 483.2C697.639 483.2 699.439 484.48 699.439 486.84C699.439 489.2 697.639 490.6 694.639 490.6H687.439V483.2H694.639ZM694.639 494.76C698.319 494.76 700.519 496.24 700.519 498.72C700.519 501.36 698.319 502.8 694.639 502.8H687.439V494.76H694.639ZM712.961 476.84C711.441 476.84 710.281 478 710.281 479.64C710.281 481.24 711.441 482.4 712.961 482.4C714.481 482.4 715.641 481.24 715.641 479.64C715.641 478 714.481 476.84 712.961 476.84ZM715.241 485.72H710.681V507H715.241V485.72ZM726.848 477.32H722.248V507H726.848V477.32ZM749.525 477.32V489.4C747.965 486.92 745.405 485.52 741.965 485.52C735.965 485.52 731.845 489.88 731.845 496.28C731.845 502.76 735.925 507.2 742.045 507.2C745.445 507.2 748.005 505.84 749.525 503.36V507H754.125V477.32H749.525ZM743.005 503.36C739.125 503.36 736.485 500.48 736.445 496.44C736.485 492.36 739.165 489.44 743.005 489.44C746.845 489.44 749.525 492.32 749.525 496.44C749.525 500.48 746.845 503.36 743.005 503.36ZM775.831 485.72V496.2C775.831 499.92 773.671 502.76 769.991 502.84C766.911 502.84 765.031 500.88 765.031 497.68V485.72H760.431V498.96C760.431 504.04 763.351 507.16 768.231 507.16C771.711 507.12 774.391 505.8 775.831 502.84V507H780.431V485.72H775.831ZM799.684 485.56C796.084 485.56 793.364 486.84 791.844 489.8V485.72H787.244V507H791.844V495.68C792.164 492.36 794.364 489.92 797.884 489.88C801.084 489.88 803.004 491.84 803.004 495.04V507H807.604V493.76C807.604 488.68 804.644 485.56 799.684 485.56ZM828.407 485.72V489.16C826.927 486.84 824.487 485.52 821.207 485.56C815.567 485.6 811.767 489.68 811.767 495.68C811.767 501.8 815.607 505.96 821.367 505.96C824.567 505.96 826.967 504.68 828.407 502.36V505.04C828.407 508.72 825.767 511.08 821.727 511.08C819.127 511.08 817.047 510.24 815.047 508.76L813.087 512.08C815.687 513.84 818.607 514.88 821.927 514.88C828.607 514.88 832.967 511.04 832.967 504.92V485.72H828.407ZM822.287 502.36C818.607 502.36 816.127 499.64 816.087 495.8C816.127 492 818.647 489.28 822.287 489.28C825.887 489.28 828.407 491.96 828.407 495.8C828.407 499.64 825.887 502.36 822.287 502.36ZM845.713 485.52C841.633 485.52 837.873 487.36 837.873 491.68C837.833 499.36 849.033 496.92 849.033 501.28C849.033 502.88 847.513 503.56 845.553 503.56C843.233 503.56 840.273 502.56 838.433 500.92L836.793 504.2C838.913 506.12 842.233 507.16 845.353 507.16C849.633 507.16 853.513 505.2 853.513 500.84C853.553 493.12 842.233 495.24 842.233 491.32C842.233 489.8 843.553 489.2 845.353 489.2C847.233 489.2 849.593 489.92 851.473 491.08L853.153 487.68C851.233 486.32 848.393 485.52 845.713 485.52ZM866.462 481.12C867.422 481.12 868.502 481.48 869.382 482.12L871.142 478.6C869.782 477.6 868.062 477.12 866.342 477.12C862.662 477.12 859.022 479.48 859.022 484.44V486.52H856.222V489.96H859.022V507H863.582V489.96H869.142V486.52H863.582V484C863.582 482 864.902 481.12 866.462 481.12ZM880.583 485.56C873.983 485.56 869.463 489.92 869.463 496.36C869.463 502.76 873.983 507.16 880.583 507.16C887.143 507.16 891.663 502.76 891.663 496.36C891.663 489.92 887.143 485.56 880.583 485.56ZM880.583 489.52C884.383 489.52 887.063 492.32 887.063 496.4C887.063 500.52 884.383 503.32 880.583 503.32C876.743 503.32 874.063 500.52 874.063 496.4C874.063 492.32 876.743 489.52 880.583 489.52ZM901.063 489.96V485.72H896.463V507H901.063V495.88C901.423 492.24 904.143 489.72 908.423 489.96V485.56C905.063 485.56 902.503 487.08 901.063 489.96ZM926.925 485.72V496.2C926.925 499.92 924.765 502.76 921.085 502.84C918.005 502.84 916.125 500.88 916.125 497.68V485.72H911.525V498.96C911.525 504.04 914.445 507.16 919.325 507.16C922.805 507.12 925.485 505.8 926.925 502.84V507H931.525V485.72H926.925ZM966.098 485.56C962.218 485.56 959.378 487.12 958.018 490.68C957.018 487.44 954.418 485.56 950.618 485.56C947.098 485.56 944.378 486.84 942.898 489.84V485.72H938.338V507H942.898V496.48C942.898 492.76 945.138 489.96 948.818 489.84C951.938 489.84 953.818 491.8 953.818 495.04V507H958.418V496.48C958.418 492.76 960.618 489.96 964.258 489.84C967.378 489.84 969.298 491.8 969.298 495.04V507H973.898V493.76C973.898 488.68 970.978 485.56 966.098 485.56ZM1001.81 479H990.649V507H995.369V498.56H1001.81C1008.85 498.56 1012.89 494.88 1012.89 488.56C1012.89 482.48 1008.85 479 1001.81 479ZM1001.61 483.24C1005.93 483.24 1008.37 485 1008.37 488.68C1008.37 492.48 1005.93 494.32 1001.61 494.32H995.369V483.24H1001.61ZM1026.4 485.56C1019.8 485.56 1015.28 489.92 1015.28 496.36C1015.28 502.76 1019.8 507.16 1026.4 507.16C1032.96 507.16 1037.48 502.76 1037.48 496.36C1037.48 489.92 1032.96 485.56 1026.4 485.56ZM1026.4 489.52C1030.2 489.52 1032.88 492.32 1032.88 496.4C1032.88 500.52 1030.2 503.32 1026.4 503.32C1022.56 503.32 1019.88 500.52 1019.88 496.4C1019.88 492.32 1022.56 489.52 1026.4 489.52ZM1053.16 502.12C1051.92 502.72 1050.92 503.04 1049.96 503.04C1048.52 503.04 1047.68 502.36 1047.68 500.16V489.96H1053.96V486.52H1047.68V480.68H1043.12V486.52H1040.12V489.96H1043.12V501C1043.12 505.36 1045.88 507.2 1049.08 507.2C1050.88 507.2 1052.64 506.64 1054.32 505.64L1053.16 502.12ZM1064.93 485.52C1060.85 485.52 1057.09 487.36 1057.09 491.68C1057.05 499.36 1068.25 496.92 1068.25 501.28C1068.25 502.88 1066.73 503.56 1064.77 503.56C1062.45 503.56 1059.49 502.56 1057.65 500.92L1056.01 504.2C1058.13 506.12 1061.45 507.16 1064.57 507.16C1068.85 507.16 1072.73 505.2 1072.73 500.84C1072.77 493.12 1061.45 495.24 1061.45 491.32C1061.45 489.8 1062.77 489.2 1064.57 489.2C1066.45 489.2 1068.81 489.92 1070.69 491.08L1072.37 487.68C1070.45 486.32 1067.61 485.52 1064.93 485.52ZM1093.04 477.32V489.4C1091.48 486.92 1088.92 485.52 1085.48 485.52C1079.48 485.52 1075.36 489.88 1075.36 496.28C1075.36 502.76 1079.44 507.2 1085.56 507.2C1088.96 507.2 1091.52 505.84 1093.04 503.36V507H1097.64V477.32H1093.04ZM1086.52 503.36C1082.64 503.36 1080 500.48 1079.96 496.44C1080 492.36 1082.68 489.44 1086.52 489.44C1090.36 489.44 1093.04 492.32 1093.04 496.44C1093.04 500.48 1090.36 503.36 1086.52 503.36ZM1121.91 507L1121.87 493.04C1121.83 488.36 1118.75 485.56 1113.27 485.56C1109.23 485.56 1107.07 486.48 1104.11 488.24L1105.99 491.44C1108.11 490 1110.23 489.28 1112.27 489.28C1115.63 489.28 1117.35 490.88 1117.35 493.56V494.2H1110.91C1105.79 494.24 1102.87 496.72 1102.87 500.6C1102.87 504.36 1105.75 507.2 1110.35 507.2C1113.43 507.2 1115.87 506.28 1117.39 504.4V507H1121.91ZM1111.31 503.56C1108.75 503.56 1107.19 502.32 1107.19 500.4C1107.19 498.36 1108.59 497.56 1111.59 497.56H1117.35V499.52C1117.11 501.84 1114.59 503.56 1111.31 503.56ZM1155.82 485.56C1151.94 485.56 1149.1 487.12 1147.74 490.68C1146.74 487.44 1144.14 485.56 1140.34 485.56C1136.82 485.56 1134.1 486.84 1132.62 489.84V485.72H1128.06V507H1132.62V496.48C1132.62 492.76 1134.86 489.96 1138.54 489.84C1141.66 489.84 1143.54 491.8 1143.54 495.04V507H1148.14V496.48C1148.14 492.76 1150.34 489.96 1153.98 489.84C1157.1 489.84 1159.02 491.8 1159.02 495.04V507H1163.62V493.76C1163.62 488.68 1160.7 485.56 1155.82 485.56Z" fill="black"/>
<line x1="569" y1="477.929" x2="595.929" y2="451" stroke="#F53E63" stroke-width="10" stroke-linecap="round"/>
<line x1="569.071" y1="451" x2="596" y2="477.929" stroke="#F53E63" stroke-width="10" stroke-linecap="round"/>
<path d="M580 1012C700.5 920.5 706.5 855 828.5 761.5C950.5 668 1018 702 1148.5 610.5C1279 519 1279 519 1279 519" stroke="#473DDC" stroke-width="8"/>
<path d="M316 1208.5C316 1208.5 459.5 1103.5 580 1012C700.5 920.5 804 938.5 928.5 845C1053 751.5 1018 702 1148.5 610.5C1279 519 1205.5 574.5 1279 519C1493 357.408 1529.5 56 1529.5 56" stroke="url(#paint1_linear_803_77)" stroke-width="8"/>
<path d="M1179.33 1196.35L1166.2 1195.54L1165 1215.11L1168.3 1215.31L1168.79 1207.29L1177.68 1207.83L1177.86 1204.9L1168.97 1204.35L1169.31 1198.71L1179.12 1199.31L1179.33 1196.35ZM1184.82 1204.37L1185 1201.41L1181.79 1201.21L1180.88 1216.08L1184.09 1216.28L1184.57 1208.51C1184.98 1205.98 1186.98 1204.33 1189.96 1204.69L1190.15 1201.61C1187.8 1201.47 1185.95 1202.42 1184.82 1204.37ZM1194.76 1195.78C1193.7 1195.71 1192.84 1196.47 1192.77 1197.62C1192.7 1198.74 1193.46 1199.6 1194.52 1199.66C1195.59 1199.73 1196.45 1198.97 1196.51 1197.85C1196.58 1196.7 1195.82 1195.84 1194.76 1195.78ZM1195.97 1202.08L1192.79 1201.88L1191.88 1216.75L1195.06 1216.95L1195.97 1202.08ZM1206.86 1202.63C1202.44 1202.39 1199.15 1205.25 1198.88 1209.75C1198.6 1214.22 1201.43 1217.45 1206.02 1217.73C1208.59 1217.89 1210.77 1217.1 1212.32 1215.59L1210.73 1213.67C1209.57 1214.72 1208.05 1215.25 1206.43 1215.15C1204.08 1215 1202.41 1213.47 1202.04 1211.15L1213.28 1211.84C1214 1206.49 1212.08 1202.95 1206.86 1202.63ZM1202.13 1208.8C1202.61 1206.44 1204.38 1205.06 1206.73 1205.21C1209.16 1205.36 1210.66 1206.91 1210.63 1209.32L1202.13 1208.8ZM1228.48 1198.18L1227.96 1206.62C1226.97 1204.82 1225.25 1203.73 1222.84 1203.58C1218.65 1203.33 1215.59 1206.2 1215.31 1210.67C1215.03 1215.2 1217.7 1218.47 1221.97 1218.74C1224.35 1218.88 1226.19 1218.04 1227.36 1216.37L1227.21 1218.92L1230.42 1219.11L1231.69 1198.38L1228.48 1198.18ZM1222.81 1216.09C1220.1 1215.93 1218.37 1213.8 1218.52 1210.98C1218.72 1208.13 1220.72 1206.2 1223.4 1206.37C1226.08 1206.53 1227.83 1208.66 1227.66 1211.54C1227.48 1214.36 1225.49 1216.26 1222.81 1216.09ZM1239.24 1207.7L1239.42 1204.74L1236.21 1204.54L1235.3 1219.41L1238.51 1219.61L1238.99 1211.84C1239.4 1209.31 1241.41 1207.67 1244.39 1208.02L1244.57 1204.94C1242.23 1204.8 1240.37 1205.75 1239.24 1207.7ZM1249.18 1199.11C1248.12 1199.04 1247.26 1199.81 1247.19 1200.95C1247.12 1202.07 1247.88 1202.93 1248.94 1202.99C1250.01 1203.06 1250.87 1202.3 1250.94 1201.18C1251.01 1200.03 1250.24 1199.17 1249.18 1199.11ZM1250.4 1205.41L1247.21 1205.22L1246.3 1220.08L1249.49 1220.28L1250.4 1205.41ZM1261.25 1205.96C1256.84 1205.69 1253.57 1208.58 1253.3 1213.08C1253.02 1217.55 1255.91 1220.79 1260.33 1221.06C1263.15 1221.23 1265.36 1220.35 1266.81 1218.68L1265.13 1216.78C1264.06 1217.89 1262.51 1218.41 1260.64 1218.3C1258.07 1218.14 1256.34 1216.1 1256.51 1213.28C1256.68 1210.45 1258.65 1208.64 1261.22 1208.8C1263.01 1208.88 1264.39 1209.61 1265.36 1210.73L1267.25 1208.77C1265.98 1207.12 1263.93 1206.13 1261.25 1205.96ZM1279.79 1207.1C1277.25 1206.94 1275.29 1207.75 1274.1 1209.78L1274.64 1201L1271.43 1200.81L1270.16 1221.55L1273.37 1221.74L1273.82 1214.42C1273.98 1211.79 1275.69 1209.91 1278.35 1210.04C1280.59 1210.18 1281.84 1211.63 1281.71 1213.86L1281.2 1222.22L1284.41 1222.42L1284.98 1213.17C1285.19 1209.62 1283.26 1207.31 1279.79 1207.1ZM1295.51 1213.45L1288.63 1213.03L1288.49 1215.23L1295.37 1215.66L1295.51 1213.45ZM1314.37 1204.62L1300.4 1203.76L1299.2 1223.32L1313.51 1224.2L1313.69 1221.24L1302.68 1220.56L1303.01 1215.17L1312.56 1215.75L1312.75 1212.79L1303.19 1212.21L1303.51 1206.92L1314.19 1207.58L1314.37 1204.62ZM1326.95 1209.99C1324.44 1209.83 1322.48 1210.61 1321.29 1212.61L1321.47 1209.76L1318.25 1209.57L1317.34 1224.43L1320.56 1224.63L1321.04 1216.72C1321.41 1214.42 1323.05 1212.81 1325.51 1212.93C1327.74 1213.06 1329 1214.52 1328.87 1216.75L1328.35 1225.11L1331.57 1225.31L1332.13 1216.05C1332.35 1212.51 1330.42 1210.2 1326.95 1209.99ZM1347.01 1211.33L1346.87 1213.73C1345.93 1212.05 1344.28 1211.02 1341.99 1210.91C1338.05 1210.69 1335.22 1213.38 1334.96 1217.57C1334.7 1221.85 1337.2 1224.92 1341.23 1225.17C1343.46 1225.3 1345.2 1224.51 1346.3 1222.95L1346.19 1224.83C1346.03 1227.4 1344.08 1228.93 1341.26 1228.76C1339.44 1228.65 1338.03 1227.97 1336.69 1226.85L1335.18 1229.09C1336.92 1230.43 1338.92 1231.28 1341.24 1231.42C1345.91 1231.71 1349.12 1229.21 1349.38 1224.94L1350.2 1211.52L1347.01 1211.33ZM1342.03 1222.69C1339.45 1222.53 1337.84 1220.53 1337.97 1217.84C1338.16 1215.19 1340.04 1213.4 1342.58 1213.55C1345.1 1213.71 1346.75 1215.69 1346.58 1218.37C1346.42 1221.05 1344.54 1222.85 1342.03 1222.69ZM1360.79 1212.06C1356.37 1211.82 1353.08 1214.67 1352.81 1219.17C1352.53 1223.64 1355.36 1226.87 1359.95 1227.15C1362.52 1227.31 1364.7 1226.52 1366.25 1225.02L1364.66 1223.1C1363.5 1224.15 1361.98 1224.67 1360.36 1224.57C1358.01 1224.43 1356.34 1222.89 1355.98 1220.57L1367.21 1221.26C1367.93 1215.92 1366.01 1212.38 1360.79 1212.06ZM1356.06 1218.22C1356.54 1215.87 1358.31 1214.49 1360.66 1214.63C1363.09 1214.78 1364.59 1216.33 1364.56 1218.74L1356.06 1218.22ZM1374.8 1207.14L1371.59 1206.94L1370.32 1227.68L1373.53 1227.87L1374.8 1207.14ZM1383.79 1213.44C1380.94 1213.26 1378.23 1214.39 1378.04 1217.41C1377.69 1222.77 1385.62 1221.55 1385.43 1224.59C1385.36 1225.71 1384.27 1226.12 1382.9 1226.04C1381.28 1225.94 1379.26 1225.11 1378.04 1223.89L1376.75 1226.11C1378.15 1227.54 1380.43 1228.41 1382.61 1228.54C1385.6 1228.73 1388.39 1227.52 1388.58 1224.48C1388.94 1219.08 1380.94 1220.08 1381.11 1217.34C1381.17 1216.28 1382.12 1215.92 1383.38 1215.99C1384.69 1216.07 1386.31 1216.68 1387.57 1217.57L1388.89 1215.27C1387.61 1214.23 1385.66 1213.55 1383.79 1213.44ZM1398.34 1219.74L1391.47 1219.32L1391.33 1221.53L1398.21 1221.95L1398.34 1219.74ZM1409.67 1210.31C1405.42 1210.05 1402.42 1211.97 1402.21 1215.32C1401.78 1222.28 1412.5 1220.5 1412.23 1224.86C1412.14 1226.37 1410.72 1227.15 1408.42 1227.01C1406.33 1226.88 1403.87 1225.72 1401.97 1223.75L1400.37 1226.52C1402.27 1228.48 1405.1 1229.92 1408.18 1230.11C1412.48 1230.37 1415.69 1228.41 1415.9 1224.91C1416.36 1217.87 1405.66 1219.52 1405.92 1215.24C1406 1213.93 1407.3 1213.28 1409.23 1213.4C1410.71 1213.49 1412.8 1214.15 1414.85 1215.56L1416.39 1212.74C1414.65 1211.43 1412.21 1210.47 1409.67 1210.31ZM1427.04 1227.73C1426.14 1228.09 1425.43 1228.27 1424.76 1228.23C1423.75 1228.17 1423.2 1227.66 1423.29 1226.12L1423.73 1219L1428.12 1219.27L1428.26 1216.86L1423.87 1216.59L1424.12 1212.51L1420.94 1212.32L1420.69 1216.4L1418.59 1216.27L1418.45 1218.67L1420.54 1218.8L1420.07 1226.52C1419.88 1229.56 1421.73 1230.97 1423.97 1231.1C1425.23 1231.18 1426.48 1230.86 1427.7 1230.24L1427.04 1227.73ZM1434.55 1219.66L1434.73 1216.7L1431.52 1216.5L1430.61 1231.37L1433.82 1231.57L1434.3 1223.8C1434.7 1221.27 1436.71 1219.62 1439.69 1219.97L1439.88 1216.9C1437.53 1216.76 1435.68 1217.71 1434.55 1219.66ZM1442.49 1228.65C1441.48 1228.58 1440.68 1229.29 1440.61 1230.35C1440.55 1231.44 1441.25 1232.27 1442.26 1232.33C1443.27 1232.4 1444.07 1231.66 1444.14 1230.57C1444.2 1229.51 1443.49 1228.71 1442.49 1228.65Z" fill="black"/>
<path d="M748.19 1327.25L741.869 1332.95L754.994 1347.51L761.461 1341.67C764.746 1338.71 765.414 1335.4 763.164 1332.9C761.401 1330.95 758.98 1330.6 756.726 1332.03C757.968 1330.23 757.84 1328.13 756.358 1326.48C754.315 1324.22 751.206 1324.53 748.19 1327.25ZM750.034 1329.55C751.594 1328.14 753.13 1327.96 754.236 1329.19C755.342 1330.41 755.063 1331.99 753.503 1333.39L749.76 1336.77L746.291 1332.92L750.034 1329.55ZM755.453 1335.56C757.366 1333.83 759.204 1333.57 760.366 1334.86C761.604 1336.23 761.135 1338.01 759.222 1339.74L755.479 1343.11L751.71 1338.93L755.453 1335.56ZM767.208 1316.44L772.121 1321.88C773.864 1323.82 774.073 1326.31 772.197 1328.07C770.596 1329.52 768.7 1329.38 767.2 1327.72L761.593 1321.5L759.202 1323.65L765.408 1330.54C767.789 1333.18 770.77 1333.43 773.307 1331.14C775.097 1329.49 775.872 1327.55 775.233 1325.34L777.183 1327.5L779.574 1325.34L769.599 1314.28L767.208 1316.44ZM779.534 1305.17C777.662 1306.86 776.848 1308.8 777.445 1311.05L775.533 1308.93L773.141 1311.09L783.116 1322.15L785.508 1319.99L780.202 1314.11C778.812 1312.23 778.812 1309.93 780.623 1308.26C782.286 1306.76 784.203 1306.88 785.703 1308.54L791.31 1314.76L793.701 1312.61L787.495 1305.72C785.114 1303.08 782.112 1302.85 779.534 1305.17ZM791.144 1286.94L796.807 1293.22C794.833 1292.66 792.846 1293.13 791.058 1294.74C787.939 1297.56 787.841 1301.75 790.841 1305.08C793.878 1308.45 798.08 1308.85 801.262 1305.98C803.03 1304.38 803.723 1302.48 803.351 1300.47L805.057 1302.37L807.448 1300.21L793.536 1284.78L791.144 1286.94ZM799.961 1303.53C797.944 1305.35 795.222 1305.09 793.307 1303.01C791.415 1300.87 791.44 1298.09 793.436 1296.29C795.432 1294.49 798.176 1294.73 800.107 1296.88C802.001 1298.98 801.957 1301.73 799.961 1303.53ZM805.584 1281.68C802.317 1284.67 802.053 1289.01 805.072 1292.36C808.072 1295.69 812.361 1295.93 815.772 1292.86C817.685 1291.13 818.646 1289.02 818.659 1286.86L816.172 1286.65C816.111 1288.21 815.421 1289.67 814.215 1290.75C812.468 1292.33 810.202 1292.45 808.29 1291.08L816.65 1283.54C813.341 1279.29 809.473 1278.18 805.584 1281.68ZM806.673 1289.37C805.329 1287.38 805.583 1285.15 807.33 1283.58C809.139 1281.95 811.3 1281.96 812.995 1283.67L806.673 1289.37ZM816.543 1271.76C814.422 1273.68 813.33 1276.4 815.355 1278.64C818.934 1282.65 823.613 1276.13 825.657 1278.4C826.407 1279.23 825.935 1280.3 824.916 1281.22C823.71 1282.31 821.702 1283.17 819.977 1283.18L820.662 1285.66C822.664 1285.66 824.878 1284.65 826.5 1283.18C828.725 1281.18 829.823 1278.34 827.779 1276.07C824.181 1272.04 819.29 1278.45 817.453 1276.41C816.74 1275.62 817.145 1274.69 818.081 1273.85C819.058 1272.96 820.623 1272.23 822.144 1271.95L821.423 1269.4C819.788 1269.59 817.936 1270.51 816.543 1271.76ZM826.311 1262.96C824.19 1264.87 823.098 1267.59 825.123 1269.83C828.702 1273.85 833.381 1267.33 835.425 1269.59C836.175 1270.43 835.703 1271.49 834.684 1272.41C833.478 1273.5 831.47 1274.37 829.745 1274.38L830.43 1276.85C832.432 1276.85 834.646 1275.84 836.268 1274.38C838.493 1272.37 839.591 1269.53 837.547 1267.27C833.949 1263.23 829.058 1269.64 827.221 1267.6C826.508 1266.81 826.913 1265.88 827.849 1265.04C828.826 1264.16 830.391 1263.43 831.912 1263.15L831.191 1260.59C829.556 1260.79 827.704 1261.7 826.311 1262.96ZM846.21 1260.66C845.847 1261.55 845.477 1262.19 844.978 1262.64C844.229 1263.31 843.474 1263.35 842.442 1262.21L837.661 1256.91L840.926 1253.96L839.314 1252.18L836.049 1255.12L833.311 1252.08L830.941 1254.22L833.678 1257.26L832.118 1258.66L833.731 1260.45L835.291 1259.05L840.466 1264.78C842.509 1267.05 844.807 1266.71 846.47 1265.21C847.406 1264.37 848.059 1263.25 848.463 1261.95L846.21 1260.66ZM845.714 1249.65L843.726 1247.44L841.335 1249.6L851.31 1260.66L853.701 1258.51L848.489 1252.72C846.97 1250.66 847.202 1248.08 849.54 1246.2L847.477 1243.91C845.731 1245.48 845.112 1247.48 845.714 1249.65ZM857.687 1250.28C856.938 1250.95 856.883 1252.02 857.595 1252.81C858.326 1253.62 859.413 1253.7 860.162 1253.02C860.91 1252.35 860.947 1251.26 860.215 1250.45C859.503 1249.66 858.435 1249.6 857.687 1250.28ZM860.638 1225.63C858.725 1227.36 857.545 1229.86 857.085 1232.61L859.79 1233.6C860.025 1231.35 860.945 1229.28 862.255 1228.1C863.856 1226.65 865.432 1226.48 866.5 1227.66C867.25 1228.49 867.552 1230.33 867.443 1232.43L867.066 1243.18L868.697 1244.98L879.365 1235.37L877.378 1233.16L869.933 1239.87L870.288 1232.24C870.39 1229.13 870.052 1226.46 868.739 1225C866.714 1222.76 863.487 1223.07 860.638 1225.63Z" fill="black"/>
<path d="M1271.74 992.4H1258.58V1012H1261.88V1003.96H1270.78V1001.02H1261.88V995.368H1271.71L1271.74 992.4ZM1277.71 1000.07V997.104H1274.49V1012H1277.71V1004.22C1277.96 1001.67 1279.86 999.904 1282.86 1000.07V996.992C1280.51 996.992 1278.71 998.056 1277.71 1000.07ZM1287.1 990.888C1286.04 990.888 1285.23 991.7 1285.23 992.848C1285.23 993.968 1286.04 994.78 1287.1 994.78C1288.17 994.78 1288.98 993.968 1288.98 992.848C1288.98 991.7 1288.17 990.888 1287.1 990.888ZM1288.7 997.104H1285.51V1012H1288.7V997.104ZM1299.59 996.992C1295.17 997.02 1292.06 1000.07 1292.06 1004.58C1292.06 1009.06 1295.09 1012.11 1299.68 1012.11C1302.25 1012.11 1304.38 1011.19 1305.84 1009.59L1304.13 1007.77C1303.04 1008.89 1301.55 1009.51 1299.93 1009.51C1297.58 1009.51 1295.81 1008.08 1295.31 1005.78H1306.57C1306.96 1000.41 1304.83 996.992 1299.59 996.992ZM1295.25 1003.43C1295.59 1001.05 1297.27 999.568 1299.62 999.568C1302.06 999.568 1303.65 1001.02 1303.77 1003.43H1295.25ZM1320.9 991.224V999.68C1319.81 997.944 1318.01 996.964 1315.61 996.964C1311.41 996.964 1308.52 1000.02 1308.52 1004.5C1308.52 1009.03 1311.38 1012.14 1315.66 1012.14C1318.04 1012.14 1319.83 1011.19 1320.9 1009.45V1012H1324.12V991.224H1320.9ZM1316.33 1009.45C1313.62 1009.45 1311.77 1007.44 1311.74 1004.61C1311.77 1001.75 1313.65 999.708 1316.33 999.708C1319.02 999.708 1320.9 1001.72 1320.9 1004.61C1320.9 1007.44 1319.02 1009.45 1316.33 1009.45ZM1332.23 1000.07V997.104H1329.01V1012H1332.23V1004.22C1332.48 1001.67 1334.38 999.904 1337.38 1000.07V996.992C1335.03 996.992 1333.24 998.056 1332.23 1000.07ZM1341.62 990.888C1340.56 990.888 1339.75 991.7 1339.75 992.848C1339.75 993.968 1340.56 994.78 1341.62 994.78C1342.69 994.78 1343.5 993.968 1343.5 992.848C1343.5 991.7 1342.69 990.888 1341.62 990.888ZM1343.22 997.104H1340.03V1012H1343.22V997.104ZM1354.09 996.992C1349.67 996.992 1346.59 1000.07 1346.59 1004.58C1346.59 1009.06 1349.67 1012.11 1354.09 1012.11C1356.92 1012.11 1359.07 1011.1 1360.42 1009.34L1358.63 1007.55C1357.62 1008.72 1356.11 1009.34 1354.23 1009.34C1351.65 1009.34 1349.81 1007.41 1349.81 1004.58C1349.81 1001.75 1351.65 999.82 1354.23 999.82C1356.02 999.792 1357.45 1000.44 1358.49 1001.5L1360.25 999.428C1358.88 997.86 1356.78 996.992 1354.09 996.992ZM1372.67 996.992C1370.12 996.992 1368.21 997.916 1367.15 1000.02V991.224H1363.93V1012H1367.15V1004.66C1367.15 1002.03 1368.75 1000.04 1371.41 1000.02C1373.65 1000.02 1374.99 1001.39 1374.99 1003.63V1012H1378.21V1002.73C1378.21 999.176 1376.14 996.992 1372.67 996.992ZM1388.74 1002.37H1381.85V1004.58H1388.74V1002.37ZM1396.33 992.4H1393.03V1012H1404.81V1009H1396.33V992.4ZM1409.38 990.888C1408.32 990.888 1407.51 991.7 1407.51 992.848C1407.51 993.968 1408.32 994.78 1409.38 994.78C1410.45 994.78 1411.26 993.968 1411.26 992.848C1411.26 991.7 1410.45 990.888 1409.38 990.888ZM1410.98 997.104H1407.79V1012H1410.98V997.104ZM1420.2 996.964C1417.34 996.964 1414.71 998.252 1414.71 1001.28C1414.68 1006.65 1422.52 1004.94 1422.52 1008C1422.52 1009.12 1421.46 1009.59 1420.08 1009.59C1418.46 1009.59 1416.39 1008.89 1415.1 1007.74L1413.95 1010.04C1415.44 1011.38 1417.76 1012.11 1419.94 1012.11C1422.94 1012.11 1425.66 1010.74 1425.66 1007.69C1425.68 1002.28 1417.76 1003.77 1417.76 1001.02C1417.76 999.96 1418.68 999.54 1419.94 999.54C1421.26 999.54 1422.91 1000.04 1424.23 1000.86L1425.4 998.476C1424.06 997.524 1422.07 996.964 1420.2 996.964ZM1436.51 1008.58C1435.64 1009 1434.94 1009.23 1434.27 1009.23C1433.26 1009.23 1432.68 1008.75 1432.68 1007.21V1000.07H1437.07V997.664H1432.68V993.576H1429.48V997.664H1427.38V1000.07H1429.48V1007.8C1429.48 1010.85 1431.42 1012.14 1433.66 1012.14C1434.92 1012.14 1436.15 1011.75 1437.32 1011.05L1436.51 1008.58ZM1446.51 1002.37H1439.63V1004.58H1446.51V1002.37ZM1457.24 992.26C1452.99 992.26 1450.1 994.36 1450.1 997.72C1450.1 1004.69 1460.69 1002.26 1460.69 1006.62C1460.69 1008.14 1459.31 1009 1457.02 1009C1454.92 1009 1452.4 1008 1450.38 1006.15L1448.95 1009C1450.97 1010.85 1453.88 1012.11 1456.96 1012.11C1461.27 1012.11 1464.35 1009.96 1464.35 1006.46C1464.38 999.4 1453.8 1001.7 1453.8 997.412C1453.8 996.096 1455.06 995.368 1456.99 995.368C1458.47 995.368 1460.6 995.9 1462.73 997.188L1464.1 994.276C1462.28 993.072 1459.79 992.26 1457.24 992.26ZM1475.64 1008.58C1474.77 1009 1474.07 1009.23 1473.4 1009.23C1472.39 1009.23 1471.8 1008.75 1471.8 1007.21V1000.07H1476.2V997.664H1471.8V993.576H1468.61V997.664H1466.51V1000.07H1468.61V1007.8C1468.61 1010.85 1470.54 1012.14 1472.78 1012.14C1474.04 1012.14 1475.28 1011.75 1476.45 1011.05L1475.64 1008.58ZM1482.65 1000.07V997.104H1479.43V1012H1482.65V1004.22C1482.9 1001.67 1484.8 999.904 1487.8 1000.07V996.992C1485.45 996.992 1483.65 998.056 1482.65 1000.07ZM1491.12 1008.56C1490.11 1008.56 1489.35 1009.31 1489.35 1010.38C1489.35 1011.47 1490.11 1012.25 1491.12 1012.25C1492.13 1012.25 1492.88 1011.47 1492.88 1010.38C1492.88 1009.31 1492.13 1008.56 1491.12 1008.56Z" fill="black"/>
<path d="M1098.09 894.4H1089.58V914H1098.28C1102.71 914 1105.42 911.984 1105.42 908.624C1105.42 905.992 1103.86 904.116 1101.22 903.668C1103.35 903.164 1104.67 901.512 1104.67 899.3C1104.67 896.248 1102.15 894.4 1098.09 894.4ZM1097.92 897.34C1100.02 897.34 1101.28 898.236 1101.28 899.888C1101.28 901.54 1100.02 902.52 1097.92 902.52H1092.88V897.34H1097.92ZM1097.92 905.432C1100.5 905.432 1102.04 906.468 1102.04 908.204C1102.04 910.052 1100.5 911.06 1097.92 911.06H1092.88V905.432H1097.92ZM1121.25 914L1121.22 904.228C1121.19 900.952 1119.03 898.992 1115.2 898.992C1112.37 898.992 1110.86 899.636 1108.79 900.868L1110.1 903.108C1111.59 902.1 1113.07 901.596 1114.5 901.596C1116.85 901.596 1118.05 902.716 1118.05 904.592V905.04H1113.55C1109.96 905.068 1107.92 906.804 1107.92 909.52C1107.92 912.152 1109.93 914.14 1113.15 914.14C1115.31 914.14 1117.02 913.496 1118.08 912.18V914H1121.25ZM1113.83 911.592C1112.03 911.592 1110.94 910.724 1110.94 909.38C1110.94 907.952 1111.92 907.392 1114.02 907.392H1118.05V908.764C1117.89 910.388 1116.12 911.592 1113.83 911.592ZM1134.12 898.992C1131.8 898.992 1130.01 899.944 1128.92 901.68V893.224H1125.7V914H1128.92V911.424C1130.01 913.16 1131.8 914.112 1134.18 914.112C1138.44 914.112 1141.24 911.06 1141.24 906.608C1141.24 902.072 1138.35 898.992 1134.12 898.992ZM1133.45 911.368C1130.79 911.368 1128.92 909.38 1128.92 906.496C1128.92 903.696 1130.79 901.68 1133.45 901.68C1136.11 901.68 1137.99 903.724 1137.99 906.496C1137.99 909.352 1136.11 911.368 1133.45 911.368ZM1150.72 898.992C1146.3 899.02 1143.19 902.072 1143.19 906.58C1143.19 911.06 1146.21 914.112 1150.8 914.112C1153.38 914.112 1155.51 913.188 1156.96 911.592L1155.26 909.772C1154.16 910.892 1152.68 911.508 1151.06 911.508C1148.7 911.508 1146.94 910.08 1146.44 907.784H1157.69C1158.08 902.408 1155.96 898.992 1150.72 898.992ZM1146.38 905.432C1146.72 903.052 1148.4 901.568 1150.75 901.568C1153.18 901.568 1154.78 903.024 1154.89 905.432H1146.38ZM1164.41 893.224H1161.19V914H1164.41V893.224ZM1173.76 898.964C1170.9 898.964 1168.27 900.252 1168.27 903.276C1168.24 908.652 1176.08 906.944 1176.08 909.996C1176.08 911.116 1175.02 911.592 1173.65 911.592C1172.02 911.592 1169.95 910.892 1168.66 909.744L1167.51 912.04C1169 913.384 1171.32 914.112 1173.51 914.112C1176.5 914.112 1179.22 912.74 1179.22 909.688C1179.25 904.284 1171.32 905.768 1171.32 903.024C1171.32 901.96 1172.25 901.54 1173.51 901.54C1174.82 901.54 1176.47 902.044 1177.79 902.856L1178.97 900.476C1177.62 899.524 1175.63 898.964 1173.76 898.964ZM1191.03 898.992C1188.7 898.992 1186.91 899.944 1185.82 901.68V893.224H1182.6V914H1185.82V911.424C1186.91 913.16 1188.7 914.112 1191.08 914.112C1195.34 914.112 1198.14 911.06 1198.14 906.608C1198.14 902.072 1195.25 898.992 1191.03 898.992ZM1190.35 911.368C1187.69 911.368 1185.82 909.38 1185.82 906.496C1185.82 903.696 1187.69 901.68 1190.35 901.68C1193.01 901.68 1194.89 903.724 1194.89 906.496C1194.89 909.352 1193.01 911.368 1190.35 911.368ZM1207.62 898.992C1203.2 899.02 1200.09 902.072 1200.09 906.58C1200.09 911.06 1203.11 914.112 1207.71 914.112C1210.28 914.112 1212.41 913.188 1213.87 911.592L1212.16 909.772C1211.07 910.892 1209.58 911.508 1207.96 911.508C1205.61 911.508 1203.84 910.08 1203.34 907.784H1214.59C1214.99 902.408 1212.86 898.992 1207.62 898.992ZM1203.28 905.432C1203.62 903.052 1205.3 901.568 1207.65 901.568C1210.09 901.568 1211.68 903.024 1211.79 905.432H1203.28ZM1221.17 902.072V899.104H1217.95V914H1221.17V906.216C1221.42 903.668 1223.33 901.904 1226.32 902.072V898.992C1223.97 898.992 1222.18 900.056 1221.17 902.072ZM1239.22 899.104V901.512C1238.18 899.888 1236.47 898.964 1234.18 898.992C1230.23 899.02 1227.57 901.876 1227.57 906.076C1227.57 910.36 1230.26 913.272 1234.29 913.272C1236.53 913.272 1238.21 912.376 1239.22 910.752V912.628C1239.22 915.204 1237.37 916.856 1234.54 916.856C1232.72 916.856 1231.27 916.268 1229.87 915.232L1228.49 917.556C1230.31 918.788 1232.36 919.516 1234.68 919.516C1239.36 919.516 1242.41 916.828 1242.41 912.544V899.104H1239.22ZM1234.93 910.752C1232.36 910.752 1230.62 908.848 1230.59 906.16C1230.62 903.5 1232.39 901.596 1234.93 901.596C1237.45 901.596 1239.22 903.472 1239.22 906.16C1239.22 908.848 1237.45 910.752 1234.93 910.752ZM1253.01 898.992C1248.59 899.02 1245.48 902.072 1245.48 906.58C1245.48 911.06 1248.5 914.112 1253.1 914.112C1255.67 914.112 1257.8 913.188 1259.26 911.592L1257.55 909.772C1256.46 910.892 1254.97 911.508 1253.35 911.508C1251 911.508 1249.23 910.08 1248.73 907.784H1259.98C1260.38 902.408 1258.25 898.992 1253.01 898.992ZM1248.67 905.432C1249.01 903.052 1250.69 901.568 1253.04 901.568C1255.48 901.568 1257.07 903.024 1257.18 905.432H1248.67ZM1266.56 902.072V899.104H1263.34V914H1266.56V906.216C1266.81 903.668 1268.72 901.904 1271.71 902.072V898.992C1269.36 898.992 1267.57 900.056 1266.56 902.072ZM1288.22 894.26C1283.96 894.26 1281.08 896.36 1281.08 899.72C1281.08 906.692 1291.66 904.256 1291.66 908.624C1291.66 910.136 1290.29 911.004 1287.99 911.004C1285.89 911.004 1283.37 909.996 1281.36 908.148L1279.93 911.004C1281.94 912.852 1284.86 914.112 1287.94 914.112C1292.25 914.112 1295.33 911.956 1295.33 908.456C1295.36 901.4 1284.77 903.696 1284.77 899.412C1284.77 898.096 1286.03 897.368 1287.96 897.368C1289.45 897.368 1291.58 897.9 1293.7 899.188L1295.08 896.276C1293.26 895.072 1290.76 894.26 1288.22 894.26ZM1306.61 910.584C1305.75 911.004 1305.05 911.228 1304.37 911.228C1303.37 911.228 1302.78 910.752 1302.78 909.212V902.072H1307.17V899.664H1302.78V895.576H1299.59V899.664H1297.49V902.072H1299.59V909.8C1299.59 912.852 1301.52 914.14 1303.76 914.14C1305.02 914.14 1306.25 913.748 1307.43 913.048L1306.61 910.584ZM1313.62 902.072V899.104H1310.4V914H1313.62V906.216C1313.87 903.668 1315.78 901.904 1318.77 902.072V898.992C1316.42 898.992 1314.63 900.056 1313.62 902.072ZM1322.09 910.556C1321.08 910.556 1320.33 911.312 1320.33 912.376C1320.33 913.468 1321.08 914.252 1322.09 914.252C1323.1 914.252 1323.86 913.468 1323.86 912.376C1323.86 911.312 1323.1 910.556 1322.09 910.556Z" fill="black"/>
<path d="M38 837.502C38 837.502 907.983 682.503 891 1108C885.552 1244.5 1113.5 1220.5 1464 1250.5" stroke="white" stroke-width="14" stroke-linecap="round"/>
<path d="M204.613 837.842L196.125 838.482L197.598 858.026L206.281 857.372C210.693 857.039 213.25 854.825 212.997 851.475C212.799 848.85 211.095 847.097 208.436 846.848C210.521 846.186 211.709 844.44 211.542 842.234C211.313 839.19 208.661 837.537 204.613 837.842ZM204.666 840.786C206.76 840.629 208.084 841.427 208.208 843.075C208.332 844.722 207.15 845.794 205.056 845.952L200.03 846.331L199.64 841.165L204.666 840.786ZM205.274 848.856C207.843 848.662 209.457 849.579 209.587 851.31C209.726 853.153 208.266 854.274 205.697 854.468L200.672 854.846L200.249 849.234L205.274 848.856ZM219.431 844.419L219.207 841.46L215.997 841.702L217.116 856.555L220.327 856.313L219.742 848.551C219.802 845.992 221.568 844.09 224.568 844.032L224.336 840.961C221.991 841.137 220.284 842.333 219.431 844.419ZM233.091 840.301C228.682 840.661 225.812 843.938 226.151 848.433C226.487 852.901 229.732 855.717 234.311 855.372C236.88 855.178 238.933 854.097 240.264 852.396L238.425 850.709C237.42 851.908 235.986 852.634 234.367 852.756C232.022 852.933 230.155 851.642 229.48 849.39L240.704 848.544C240.691 843.154 238.312 839.907 233.091 840.301ZM229.247 847.049C229.404 844.65 230.967 843.044 233.313 842.867C235.742 842.684 237.443 844.016 237.735 846.409L229.247 847.049ZM244.524 833.318C243.463 833.398 242.714 834.269 242.8 835.413C242.884 836.53 243.755 837.279 244.816 837.199C245.877 837.119 246.626 836.248 246.542 835.131C246.455 833.987 245.585 833.238 244.524 833.318ZM246.582 839.396L243.399 839.636L244.519 854.49L247.702 854.25L246.582 839.396ZM259.791 849.913C258.957 850.397 258.276 850.673 257.606 850.724C256.601 850.8 255.979 850.369 255.863 848.834L255.326 841.714L259.71 841.383L259.529 838.982L255.145 839.313L254.838 835.236L251.655 835.476L251.962 839.552L249.868 839.71L250.049 842.111L252.143 841.954L252.724 849.66C252.953 852.703 254.977 853.842 257.21 853.674C258.467 853.579 259.666 853.096 260.786 852.309L259.791 849.913ZM268.647 837.621C264.237 837.981 261.367 841.258 261.706 845.754C262.043 850.221 265.288 853.037 269.867 852.692C272.435 852.498 274.488 851.417 275.82 849.716L273.98 848.03C272.975 849.229 271.542 849.954 269.922 850.076C267.577 850.253 265.711 848.962 265.035 846.71L276.26 845.864C276.246 840.474 273.868 837.228 268.647 837.621ZM264.803 844.369C264.959 841.971 266.523 840.364 268.868 840.188C271.297 840.005 272.998 841.337 273.291 843.729L264.803 844.369ZM292.406 831.085C288.162 831.405 285.444 833.716 285.697 837.066C286.221 844.018 296.592 840.794 296.92 845.15C297.034 846.657 295.731 847.626 293.441 847.798C291.347 847.956 288.759 847.141 286.609 845.449L285.4 848.404C287.549 850.096 290.548 851.133 293.619 850.902C297.919 850.578 300.828 848.196 300.565 844.706C300.063 837.668 289.681 840.753 289.359 836.481C289.26 835.169 290.462 834.348 292.389 834.203C293.868 834.092 296.03 834.462 298.249 835.587L299.398 832.58C297.493 831.516 294.947 830.893 292.406 831.085ZM311.979 845.98C311.145 846.464 310.464 846.74 309.794 846.791C308.789 846.866 308.166 846.436 308.051 844.9L307.514 837.78L311.898 837.45L311.717 835.049L307.333 835.379L307.026 831.303L303.843 831.543L304.15 835.619L302.056 835.777L302.237 838.178L304.331 838.02L304.912 845.727C305.141 848.77 307.165 849.909 309.398 849.741C310.655 849.646 311.854 849.163 312.974 848.376L311.979 845.98ZM318.326 836.966L318.103 834.006L314.892 834.248L316.011 849.102L319.222 848.86L318.637 841.098C318.697 838.538 320.463 836.636 323.463 836.578L323.232 833.507C320.886 833.684 319.179 834.88 318.326 836.966ZM327.411 844.789C326.406 844.865 325.709 845.675 325.789 846.736C325.871 847.825 326.684 848.55 327.689 848.474C328.694 848.399 329.389 847.56 329.307 846.471C329.227 845.41 328.416 844.713 327.411 844.789Z" fill="black"/>
<path d="M360.349 37.9541L357.536 25.0983L338.389 29.2879L339.095 32.5155L346.945 30.7978L348.848 39.496L351.72 38.8675L349.817 30.1693L355.342 28.9603L357.443 38.5612L360.349 37.9541ZM354.13 45.4255L357.029 44.7911L356.341 41.6455L341.789 44.8296L342.478 47.9752L350.082 46.3113C352.625 46.0128 354.755 47.4958 355.231 50.4584L358.24 49.8001C357.737 47.5024 356.315 45.9793 354.13 45.4255ZM365.11 52.6408C364.883 51.6014 363.916 50.9817 362.794 51.2271C361.7 51.4665 361.08 52.4333 361.308 53.4727C361.535 54.5121 362.502 55.1318 363.596 54.8924C364.718 54.647 365.337 53.6802 365.11 52.6408ZM359.379 55.5286L358.696 52.4104L344.145 55.5945L344.827 58.7127L359.379 55.5286ZM361.818 66.1498C360.844 61.834 357.199 59.4503 352.795 60.4139C348.418 61.3715 346.083 64.978 347.065 69.4639C347.616 71.9803 348.973 73.8616 350.843 74.9428L352.256 72.8853C350.929 72.0579 350.01 70.7399 349.663 69.1534C349.16 66.8558 350.178 64.8273 352.313 63.8442L354.719 74.84C360.055 74.0738 362.937 71.2648 361.818 66.1498ZM354.599 63.2867C356.995 63.1062 358.804 64.4302 359.307 66.7278C359.828 69.1075 358.747 70.9778 356.418 71.602L354.599 63.2867ZM372.006 85.7294L363.746 87.5369C365.208 86.0991 365.782 84.139 365.268 81.7867C364.37 77.6837 360.772 75.5188 356.396 76.4764C351.964 77.446 349.539 80.9003 350.454 85.0853C350.963 87.4103 352.276 88.9574 354.2 89.6257L351.71 90.1704L352.399 93.3159L372.695 88.875L372.006 85.7294ZM353.224 85.1672C352.643 82.514 354.218 80.2778 356.974 79.6459C359.77 79.0628 362.168 80.4585 362.743 83.0844C363.317 85.7102 361.749 87.9738 358.932 88.5903C356.169 89.1948 353.799 87.7931 353.224 85.1672ZM365.785 98.6888L368.684 98.0543L367.996 94.9088L353.444 98.0929L354.132 101.238L361.736 99.5746C364.279 99.2761 366.41 100.759 366.886 103.722L369.895 103.063C369.392 100.766 367.969 99.2425 365.785 98.6888ZM376.765 105.904C376.537 104.865 375.57 104.245 374.449 104.49C373.355 104.73 372.735 105.697 372.963 106.736C373.19 107.775 374.157 108.395 375.251 108.156C376.372 107.91 376.992 106.943 376.765 105.904ZM371.033 108.792L370.351 105.674L355.799 108.858L356.482 111.976L371.033 108.792ZM373.466 119.386C372.521 115.064 368.853 112.714 364.45 113.677C360.073 114.635 357.75 118.296 358.696 122.618C359.3 125.38 360.746 127.271 362.756 128.207L364.124 126.073C362.759 125.34 361.835 123.995 361.434 122.162C360.883 119.645 362.375 117.427 365.138 116.823C367.9 116.218 370.183 117.611 370.733 120.127C371.144 121.872 370.82 123.404 370.002 124.644L372.403 125.924C373.642 124.249 374.041 122.012 373.466 119.386ZM377.437 137.533C376.892 135.044 375.583 133.381 373.304 132.791L381.893 130.912L381.204 127.766L360.909 132.207L361.597 135.353L368.763 133.784C371.334 133.222 373.618 134.356 374.214 136.949C374.692 139.137 373.639 140.743 371.451 141.222L363.273 143.011L363.961 146.157L373.015 144.176C376.489 143.416 378.179 140.925 377.437 137.533ZM375.62 154.381L374.148 147.652L371.987 148.125L373.46 154.854L375.62 154.381ZM389.267 170.116L386.275 156.44L367.128 160.63L370.192 174.634L373.092 174L370.733 163.223L376.013 162.068L378.059 171.422L380.959 170.788L378.912 161.433L384.082 160.302L386.368 170.751L389.267 170.116ZM387.506 183.55C387.009 181.28 385.696 179.733 383.767 179.037L392.028 177.23L391.339 174.084L371.044 178.525L371.732 181.671L374.248 181.12C372.786 182.558 372.239 184.512 372.748 186.837C373.657 190.995 377.237 193.078 381.587 192.126C386.018 191.156 388.41 187.681 387.506 183.55ZM375.273 185.539C374.704 182.941 376.245 180.683 379.062 180.067C381.798 179.468 384.168 180.87 384.737 183.468C385.305 186.067 383.71 188.337 381.002 188.929C378.212 189.54 375.841 188.138 375.273 185.539ZM391.054 199.762C390.081 195.446 386.435 193.062 382.031 194.026C377.655 194.984 375.319 198.59 376.301 203.076C376.852 205.593 378.209 207.474 380.08 208.555L381.492 206.497C380.165 205.67 379.246 204.352 378.899 202.766C378.396 200.468 379.414 198.44 381.549 197.456L383.955 208.452C389.291 207.686 392.173 204.877 391.054 199.762ZM383.835 196.899C386.232 196.718 388.04 198.042 388.543 200.34C389.064 202.72 387.983 204.59 385.654 205.214L383.835 196.899ZM390.941 213.656L393.84 213.022L393.152 209.876L378.6 213.06L379.289 216.206L386.893 214.542C389.436 214.244 391.566 215.726 392.042 218.689L395.051 218.031C394.548 215.733 393.126 214.21 390.941 213.656ZM385.921 230.535C385.325 229.777 384.957 229.141 384.813 228.484C384.597 227.5 384.937 226.823 386.441 226.494L393.416 224.968L394.356 229.262L396.708 228.748L395.768 224.453L399.762 223.58L399.08 220.461L395.086 221.335L394.637 219.284L392.285 219.798L392.734 221.85L385.184 223.502C382.203 224.154 381.358 226.317 381.837 228.505C382.106 229.736 382.752 230.856 383.687 231.855L385.921 230.535ZM394.131 238.977L392.659 232.249L390.498 232.721L391.97 239.45L394.131 238.977ZM406.299 247.297C405.389 243.14 402.721 240.771 399.439 241.489C392.628 242.98 397.27 252.798 393.003 253.732C391.526 254.055 390.385 252.901 389.894 250.658C389.445 248.606 389.891 245.929 391.266 243.565L388.17 242.78C386.796 245.144 386.188 248.258 386.846 251.267C387.768 255.48 390.532 258.028 393.951 257.279C400.85 255.799 396.345 245.95 400.53 245.034C401.815 244.753 402.796 245.828 403.209 247.716C403.526 249.165 403.461 251.358 402.658 253.712L405.796 254.43C406.583 252.394 406.844 249.786 406.299 247.297ZM394.285 268.759C393.689 268.001 393.321 267.365 393.177 266.709C392.961 265.724 393.301 265.048 394.805 264.719L401.78 263.193L402.72 267.487L405.072 266.972L404.132 262.678L408.126 261.804L407.444 258.686L403.45 259.56L403.001 257.508L400.649 258.023L401.098 260.074L393.548 261.726C390.567 262.379 389.722 264.541 390.201 266.73C390.47 267.96 391.116 269.08 392.051 270.079L394.285 268.759ZM404.098 273.784L406.997 273.15L406.309 270.004L391.757 273.188L392.445 276.334L400.05 274.67C402.593 274.372 404.723 275.855 405.199 278.817L408.208 278.159C407.705 275.861 406.283 274.338 404.098 273.784ZM397.621 283.874C397.405 282.889 396.505 282.312 395.466 282.539C394.399 282.773 393.795 283.679 394.01 284.664C394.226 285.648 395.153 286.219 396.22 285.986C397.259 285.758 397.836 284.858 397.621 283.874Z" fill="black"/>
<path d="M38.6417 427.961L35.2834 427.854L29.4955 437.223L24.2009 427.503L20.8706 427.397L27.757 440.81L27.5537 447.219L30.8281 447.323L31.0349 440.802L38.6417 427.961ZM45.7727 432.781C41.155 432.635 37.8959 435.585 37.753 440.091C37.611 444.568 40.6758 447.747 45.2935 447.894C49.8832 448.039 53.1432 445.061 53.2852 440.583C53.4281 436.077 50.3624 432.927 45.7727 432.781ZM45.6848 435.552C48.3435 435.636 50.1564 437.654 50.0659 440.509C49.9745 443.392 48.0373 445.291 45.3787 445.207C42.692 445.122 40.8791 443.103 40.9705 440.221C41.061 437.366 42.9982 435.467 45.6848 435.552ZM60.0039 436.314L60.0979 433.347L56.8796 433.245L56.4075 448.134L59.6258 448.236L59.8725 440.456C60.2052 437.917 62.1641 436.214 65.1533 436.477L65.2509 433.399C62.9001 433.324 61.0753 434.331 60.0039 436.314ZM73.998 433.676C69.5763 433.536 66.4002 436.517 66.2573 441.022C66.1153 445.5 69.0971 448.648 73.5188 448.789C76.3454 448.878 78.5323 447.939 79.9315 446.218L78.1972 444.371C77.1524 445.514 75.6217 446.082 73.7466 446.022C71.1719 445.941 69.3861 443.951 69.4757 441.125C69.5653 438.298 71.4736 436.425 74.0483 436.507C75.8403 436.536 77.2472 437.225 78.249 438.321L80.0777 436.306C78.7561 434.695 76.6847 433.761 73.998 433.676ZM93.461 449.309L97.2671 449.43L91.6234 440.118L97.3195 434.528L93.6253 434.411L86.8374 440.863L87.235 428.325L84.0166 428.223L83.3581 448.988L86.5765 449.091L86.7087 444.921L89.3118 442.342L93.461 449.309ZM104.543 434.617C101.688 434.526 99.0164 435.73 98.9206 438.753C98.7222 444.125 106.612 442.666 106.516 445.717C106.48 446.836 105.402 447.278 104.03 447.235C102.407 447.183 100.358 446.418 99.1074 445.23L97.8872 447.488C99.3279 448.879 101.628 449.68 103.811 449.749C106.805 449.844 109.563 448.559 109.66 445.508C109.859 440.108 101.892 441.34 101.979 438.597C102.013 437.534 102.95 437.143 104.209 437.183C105.524 437.225 107.16 437.781 108.449 438.634L109.7 436.293C108.387 435.299 106.418 434.676 104.543 434.617ZM120.482 446.748C119.602 447.14 118.895 447.342 118.223 447.321C117.216 447.289 116.643 446.794 116.692 445.255L116.918 438.119L121.312 438.258L121.388 435.851L116.994 435.712L117.124 431.626L113.934 431.525L113.804 435.611L111.705 435.544L111.629 437.951L113.728 438.017L113.483 445.742C113.386 448.792 115.276 450.141 117.515 450.212C118.774 450.252 120.018 449.899 121.216 449.236L120.482 446.748ZM127.755 438.462L127.849 435.496L124.631 435.394L124.159 450.282L127.377 450.384L127.624 442.604C127.956 440.065 129.915 438.363 132.904 438.626L133.002 435.547C130.651 435.473 128.826 436.479 127.755 438.462ZM135.953 447.211C134.946 447.179 134.166 447.91 134.133 448.974C134.098 450.065 134.829 450.873 135.836 450.905C136.844 450.937 137.624 450.177 137.659 449.086C137.693 448.022 136.961 447.242 135.953 447.211Z" fill="black"/>
<path d="M951.112 305.122L954.57 304.423L942.29 286.908L938.97 287.579L934.37 308.504L937.746 307.822L938.709 303.114L948.397 301.157L951.112 305.122ZM939.334 299.988L941.233 290.721L946.58 298.524L939.334 299.988ZM973.013 285.386C970.351 285.924 968.619 287.388 968.179 290.019C967.044 287.934 964.999 287.005 962.392 287.532C959.977 288.02 958.288 289.275 957.688 291.538L957.117 288.712L953.988 289.344L956.938 303.945L960.067 303.313L958.609 296.094C958.093 293.542 959.242 291.31 961.75 290.718C963.891 290.285 965.453 291.37 965.902 293.593L967.559 301.799L970.716 301.161L969.257 293.943C968.742 291.391 969.863 289.165 972.344 288.578C974.485 288.145 976.074 289.224 976.523 291.447L978.181 299.653L981.337 299.016L979.502 289.931C978.798 286.446 976.362 284.709 973.013 285.386ZM1009.55 293.317L999.39 283.914L1005.17 274.205L1001.36 274.976L994.195 286.763L992.188 276.827L988.95 277.482L992.831 296.694L996.069 296.039L995.082 291.154L997.622 286.899L1005.65 294.104L1009.55 293.317ZM1024.19 290.358L1022.23 280.785C1021.56 277.579 1019.05 276.085 1015.29 276.844C1012.52 277.404 1011.17 278.335 1009.38 279.953L1011.11 281.888C1012.37 280.606 1013.72 279.818 1015.12 279.535C1017.43 279.07 1018.83 279.929 1019.2 281.768L1019.29 282.207L1014.87 283.1C1011.37 283.837 1009.71 285.943 1010.24 288.605C1010.76 291.185 1013.13 292.735 1016.29 292.097C1018.4 291.67 1019.95 290.701 1020.73 289.2L1021.09 290.984L1024.19 290.358ZM1016.44 289.467C1014.69 289.821 1013.45 289.187 1013.18 287.869C1012.9 286.47 1013.75 285.727 1015.81 285.311L1019.76 284.512L1020.03 285.857C1020.19 287.482 1018.7 289.012 1016.44 289.467ZM1033.98 273.069C1031.51 273.568 1029.82 274.823 1029.19 277.065L1028.63 274.265L1025.47 274.903L1028.42 289.504L1031.58 288.866L1030.01 281.099C1029.77 278.777 1030.94 276.798 1033.35 276.282C1035.54 275.839 1037.13 276.918 1037.58 279.113L1039.23 287.32L1042.39 286.682L1040.55 277.597C1039.85 274.112 1037.39 272.381 1033.98 273.069ZM1058.47 283.432L1056.51 273.859C1055.84 270.654 1053.33 269.16 1049.57 269.919C1046.8 270.479 1045.45 271.41 1043.66 273.028L1045.39 274.963C1046.65 273.681 1048 272.893 1049.4 272.61C1051.71 272.144 1053.11 273.004 1053.48 274.843L1053.57 275.282L1049.15 276.174C1045.65 276.912 1043.99 279.018 1044.52 281.68C1045.04 284.26 1047.41 285.81 1050.57 285.172C1052.68 284.745 1054.23 283.776 1055.01 282.275L1055.37 284.059L1058.47 283.432ZM1050.73 282.541C1048.97 282.896 1047.73 282.262 1047.46 280.944C1047.18 279.544 1048.03 278.802 1050.09 278.386L1054.04 277.587L1054.31 278.932C1054.47 280.557 1052.98 282.087 1050.73 282.541ZM1061.88 261.549L1058.72 262.187L1062.84 282.551L1065.99 281.913L1061.88 261.549Z" fill="black"/>
<path d="M1507 930C1507 930 963.338 930 872.818 930C782.298 930 774.569 1026 872.818 1026C971.067 1026 1507 1026 1507 1026" stroke="white" stroke-width="10" stroke-linecap="round"/>
<rect x="960" y="904" width="106" height="200" fill="white"/>
<circle cx="924.5" cy="1072.5" r="10.5" fill="black"/>
<path d="M976.28 1057H970.72L961.52 1075.6L952.28 1057H946.68V1085H951.12V1064.08L959.96 1082.08H963.04L971.88 1064.08L971.92 1085H976.28V1057ZM1000.67 1085L1000.63 1071.04C1000.59 1066.36 997.512 1063.56 992.032 1063.56C987.992 1063.56 985.832 1064.48 982.872 1066.24L984.752 1069.44C986.872 1068 988.992 1067.28 991.032 1067.28C994.392 1067.28 996.112 1068.88 996.112 1071.56V1072.2H989.672C984.552 1072.24 981.632 1074.72 981.632 1078.6C981.632 1082.36 984.512 1085.2 989.112 1085.2C992.192 1085.2 994.632 1084.28 996.152 1082.4V1085H1000.67ZM990.072 1081.56C987.512 1081.56 985.952 1080.32 985.952 1078.4C985.952 1076.36 987.352 1075.56 990.352 1075.56H996.112V1077.52C995.872 1079.84 993.352 1081.56 990.072 1081.56ZM1009.11 1054.84C1007.59 1054.84 1006.43 1056 1006.43 1057.64C1006.43 1059.24 1007.59 1060.4 1009.11 1060.4C1010.63 1060.4 1011.79 1059.24 1011.79 1057.64C1011.79 1056 1010.63 1054.84 1009.11 1054.84ZM1011.39 1063.72H1006.83V1085H1011.39V1063.72ZM1030.64 1063.56C1027.04 1063.56 1024.32 1064.84 1022.8 1067.8V1063.72H1018.2V1085H1022.8V1073.68C1023.12 1070.36 1025.32 1067.92 1028.84 1067.88C1032.04 1067.88 1033.96 1069.84 1033.96 1073.04V1085H1038.56V1071.76C1038.56 1066.68 1035.6 1063.56 1030.64 1063.56ZM1064.51 1056.8C1058.43 1056.8 1054.31 1059.8 1054.31 1064.6C1054.31 1074.56 1069.43 1071.08 1069.43 1077.32C1069.43 1079.48 1067.47 1080.72 1064.19 1080.72C1061.19 1080.72 1057.59 1079.28 1054.71 1076.64L1052.67 1080.72C1055.55 1083.36 1059.71 1085.16 1064.11 1085.16C1070.27 1085.16 1074.67 1082.08 1074.67 1077.08C1074.71 1067 1059.59 1070.28 1059.59 1064.16C1059.59 1062.28 1061.39 1061.24 1064.15 1061.24C1066.27 1061.24 1069.31 1062 1072.35 1063.84L1074.31 1059.68C1071.71 1057.96 1068.15 1056.8 1064.51 1056.8ZM1090.8 1080.12C1089.56 1080.72 1088.56 1081.04 1087.6 1081.04C1086.16 1081.04 1085.32 1080.36 1085.32 1078.16V1067.96H1091.6V1064.52H1085.32V1058.68H1080.76V1064.52H1077.76V1067.96H1080.76V1079C1080.76 1083.36 1083.52 1085.2 1086.72 1085.2C1088.52 1085.2 1090.28 1084.64 1091.96 1083.64L1090.8 1080.12ZM1113.48 1085L1113.44 1071.04C1113.4 1066.36 1110.32 1063.56 1104.84 1063.56C1100.8 1063.56 1098.64 1064.48 1095.68 1066.24L1097.56 1069.44C1099.68 1068 1101.8 1067.28 1103.84 1067.28C1107.2 1067.28 1108.92 1068.88 1108.92 1071.56V1072.2H1102.48C1097.36 1072.24 1094.44 1074.72 1094.44 1078.6C1094.44 1082.36 1097.32 1085.2 1101.92 1085.2C1105 1085.2 1107.44 1084.28 1108.96 1082.4V1085H1113.48ZM1102.88 1081.56C1100.32 1081.56 1098.76 1080.32 1098.76 1078.4C1098.76 1076.36 1100.16 1075.56 1103.16 1075.56H1108.92V1077.52C1108.68 1079.84 1106.16 1081.56 1102.88 1081.56ZM1130.52 1080.12C1129.28 1080.72 1128.28 1081.04 1127.32 1081.04C1125.88 1081.04 1125.04 1080.36 1125.04 1078.16V1067.96H1131.32V1064.52H1125.04V1058.68H1120.48V1064.52H1117.48V1067.96H1120.48V1079C1120.48 1083.36 1123.24 1085.2 1126.44 1085.2C1128.24 1085.2 1130 1084.64 1131.68 1083.64L1130.52 1080.12ZM1138.21 1054.84C1136.69 1054.84 1135.53 1056 1135.53 1057.64C1135.53 1059.24 1136.69 1060.4 1138.21 1060.4C1139.73 1060.4 1140.89 1059.24 1140.89 1057.64C1140.89 1056 1139.73 1054.84 1138.21 1054.84ZM1140.49 1063.72H1135.93V1085H1140.49V1063.72ZM1156.42 1063.56C1149.82 1063.56 1145.3 1067.92 1145.3 1074.36C1145.3 1080.76 1149.82 1085.16 1156.42 1085.16C1162.98 1085.16 1167.5 1080.76 1167.5 1074.36C1167.5 1067.92 1162.98 1063.56 1156.42 1063.56ZM1156.42 1067.52C1160.22 1067.52 1162.9 1070.32 1162.9 1074.4C1162.9 1078.52 1160.22 1081.32 1156.42 1081.32C1152.58 1081.32 1149.9 1078.52 1149.9 1074.4C1149.9 1070.32 1152.58 1067.52 1156.42 1067.52ZM1184.74 1063.56C1181.14 1063.56 1178.42 1064.84 1176.9 1067.8V1063.72H1172.3V1085H1176.9V1073.68C1177.22 1070.36 1179.42 1067.92 1182.94 1067.88C1186.14 1067.88 1188.06 1069.84 1188.06 1073.04V1085H1192.66V1071.76C1192.66 1066.68 1189.7 1063.56 1184.74 1063.56ZM1220.57 1057H1209.41V1085H1214.13V1076.56H1220.57C1227.61 1076.56 1231.65 1072.88 1231.65 1066.56C1231.65 1060.48 1227.61 1057 1220.57 1057ZM1220.37 1061.24C1224.69 1061.24 1227.13 1063 1227.13 1066.68C1227.13 1070.48 1224.69 1072.32 1220.37 1072.32H1214.13V1061.24H1220.37ZM1245.17 1063.56C1238.57 1063.56 1234.05 1067.92 1234.05 1074.36C1234.05 1080.76 1238.57 1085.16 1245.17 1085.16C1251.73 1085.16 1256.25 1080.76 1256.25 1074.36C1256.25 1067.92 1251.73 1063.56 1245.17 1063.56ZM1245.17 1067.52C1248.97 1067.52 1251.65 1070.32 1251.65 1074.4C1251.65 1078.52 1248.97 1081.32 1245.17 1081.32C1241.33 1081.32 1238.65 1078.52 1238.65 1074.4C1238.65 1070.32 1241.33 1067.52 1245.17 1067.52ZM1271.93 1080.12C1270.69 1080.72 1269.69 1081.04 1268.73 1081.04C1267.29 1081.04 1266.45 1080.36 1266.45 1078.16V1067.96H1272.73V1064.52H1266.45V1058.68H1261.89V1064.52H1258.89V1067.96H1261.89V1079C1261.89 1083.36 1264.65 1085.2 1267.85 1085.2C1269.65 1085.2 1271.41 1084.64 1273.09 1083.64L1271.93 1080.12ZM1283.7 1063.52C1279.62 1063.52 1275.86 1065.36 1275.86 1069.68C1275.82 1077.36 1287.02 1074.92 1287.02 1079.28C1287.02 1080.88 1285.5 1081.56 1283.54 1081.56C1281.22 1081.56 1278.26 1080.56 1276.42 1078.92L1274.78 1082.2C1276.9 1084.12 1280.22 1085.16 1283.34 1085.16C1287.62 1085.16 1291.5 1083.2 1291.5 1078.84C1291.54 1071.12 1280.22 1073.24 1280.22 1069.32C1280.22 1067.8 1281.54 1067.2 1283.34 1067.2C1285.22 1067.2 1287.58 1067.92 1289.46 1069.08L1291.14 1065.68C1289.22 1064.32 1286.38 1063.52 1283.7 1063.52ZM1311.81 1055.32V1067.4C1310.25 1064.92 1307.69 1063.52 1304.25 1063.52C1298.25 1063.52 1294.13 1067.88 1294.13 1074.28C1294.13 1080.76 1298.21 1085.2 1304.33 1085.2C1307.73 1085.2 1310.29 1083.84 1311.81 1081.36V1085H1316.41V1055.32H1311.81ZM1305.29 1081.36C1301.41 1081.36 1298.77 1078.48 1298.73 1074.44C1298.77 1070.36 1301.45 1067.44 1305.29 1067.44C1309.13 1067.44 1311.81 1070.32 1311.81 1074.44C1311.81 1078.48 1309.13 1081.36 1305.29 1081.36ZM1340.67 1085L1340.63 1071.04C1340.59 1066.36 1337.51 1063.56 1332.03 1063.56C1327.99 1063.56 1325.83 1064.48 1322.87 1066.24L1324.75 1069.44C1326.87 1068 1328.99 1067.28 1331.03 1067.28C1334.39 1067.28 1336.11 1068.88 1336.11 1071.56V1072.2H1329.67C1324.55 1072.24 1321.63 1074.72 1321.63 1078.6C1321.63 1082.36 1324.51 1085.2 1329.11 1085.2C1332.19 1085.2 1334.63 1084.28 1336.15 1082.4V1085H1340.67ZM1330.07 1081.56C1327.51 1081.56 1325.95 1080.32 1325.95 1078.4C1325.95 1076.36 1327.35 1075.56 1330.35 1075.56H1336.11V1077.52C1335.87 1079.84 1333.35 1081.56 1330.07 1081.56ZM1374.59 1063.56C1370.71 1063.56 1367.87 1065.12 1366.51 1068.68C1365.51 1065.44 1362.91 1063.56 1359.11 1063.56C1355.59 1063.56 1352.87 1064.84 1351.39 1067.84V1063.72H1346.83V1085H1351.39V1074.48C1351.39 1070.76 1353.63 1067.96 1357.31 1067.84C1360.43 1067.84 1362.31 1069.8 1362.31 1073.04V1085H1366.91V1074.48C1366.91 1070.76 1369.11 1067.96 1372.75 1067.84C1375.87 1067.84 1377.79 1069.8 1377.79 1073.04V1085H1382.39V1071.76C1382.39 1066.68 1379.47 1063.56 1374.59 1063.56Z" fill="black"/>
<path d="M892.5 1107.5C891.333 1148.17 851.2 1231.2 700 1238" stroke="white" stroke-width="14" stroke-linecap="round"/>
<path d="M892.5 1130.5C897.167 1182.67 928 1299.4 1014 1349" stroke="white" stroke-width="14" stroke-linecap="round"/>
<path d="M890.5 1146.5C907.333 1197.33 930.9 1314.3 890.5 1375.5" stroke="white" stroke-width="14" stroke-linecap="round"/>
<path d="M528.5 704L376.5 13" stroke="white" stroke-width="10" stroke-linecap="round"/>
<path d="M5.5 409C5.5 409 299.5 427 462.5 409C625.5 391 1088.5 291.5 1088.5 291.5" stroke="white" stroke-width="10" stroke-linecap="round"/>
<path d="M486.84 229H475.68V257H480.4V248.56H486.84C493.88 248.56 497.92 244.88 497.92 238.56C497.92 232.48 493.88 229 486.84 229ZM486.64 233.24C490.96 233.24 493.4 235 493.4 238.68C493.4 242.48 490.96 244.32 486.64 244.32H480.4V233.24H486.64ZM507.114 227.32H502.514V257H507.114V227.32ZM531.391 257L531.351 243.04C531.311 238.36 528.231 235.56 522.751 235.56C518.711 235.56 516.551 236.48 513.591 238.24L515.471 241.44C517.591 240 519.711 239.28 521.751 239.28C525.111 239.28 526.831 240.88 526.831 243.56V244.2H520.391C515.271 244.24 512.351 246.72 512.351 250.6C512.351 254.36 515.231 257.2 519.831 257.2C522.911 257.2 525.351 256.28 526.871 254.4V257H531.391ZM520.791 253.56C518.231 253.56 516.671 252.32 516.671 250.4C516.671 248.36 518.071 247.56 521.071 247.56H526.831V249.52C526.591 251.84 524.071 253.56 520.791 253.56ZM548.428 252.12C547.188 252.72 546.188 253.04 545.228 253.04C543.788 253.04 542.948 252.36 542.948 250.16V239.96H549.228V236.52H542.948V230.68H538.388V236.52H535.388V239.96H538.388V251C538.388 255.36 541.148 257.2 544.348 257.2C546.148 257.2 547.908 256.64 549.588 255.64L548.428 252.12ZM570.078 235.76L552.598 235.72V239.48H564.398L552.238 253.88V257L570.438 257.04V253.28L557.918 253.24L570.078 238.84V235.76ZM601.314 227.32V239.4C599.754 236.92 597.194 235.52 593.754 235.52C587.754 235.52 583.634 239.88 583.634 246.28C583.634 252.76 587.714 257.2 593.834 257.2C597.234 257.2 599.794 255.84 601.314 253.36V257H605.914V227.32H601.314ZM594.794 253.36C590.914 253.36 588.274 250.48 588.234 246.44C588.274 242.36 590.954 239.44 594.794 239.44C598.634 239.44 601.314 242.32 601.314 246.44C601.314 250.48 598.634 253.36 594.794 253.36ZM621.66 235.56C615.34 235.6 610.9 239.96 610.9 246.4C610.9 252.8 615.22 257.16 621.78 257.16C625.46 257.16 628.5 255.84 630.58 253.56L628.14 250.96C626.58 252.56 624.46 253.44 622.14 253.44C618.78 253.44 616.26 251.4 615.54 248.12H631.62C632.18 240.44 629.14 235.56 621.66 235.56ZM615.46 244.76C615.94 241.36 618.34 239.24 621.7 239.24C625.18 239.24 627.46 241.32 627.62 244.76H615.46ZM641.016 239.96V235.72H636.416V257H641.016V245.88C641.376 242.24 644.096 239.72 648.376 239.96V235.56C645.016 235.56 642.456 237.08 641.016 239.96ZM682.75 229H662.75V257H683.23V252.76H667.47V245.04H681.15V240.8H667.47V233.24H682.75V229ZM691 226.84C689.48 226.84 688.32 228 688.32 229.64C688.32 231.24 689.48 232.4 691 232.4C692.52 232.4 693.68 231.24 693.68 229.64C693.68 228 692.52 226.84 691 226.84ZM693.28 235.72H688.72V257H693.28V235.72ZM712.528 235.56C708.928 235.56 706.208 236.84 704.688 239.8V235.72H700.088V257H704.688V245.68C705.008 242.36 707.208 239.92 710.728 239.88C713.928 239.88 715.848 241.84 715.848 245.04V257H720.448V243.76C720.448 238.68 717.488 235.56 712.528 235.56ZM739.291 235.56C735.651 235.56 732.931 236.88 731.411 239.88V227.32H726.811V257H731.411V246.52C731.411 242.76 733.691 239.92 737.491 239.88C740.691 239.88 742.611 241.84 742.611 245.04V257H747.211V243.76C747.211 238.68 744.251 235.56 739.291 235.56ZM762.129 235.56C755.809 235.6 751.369 239.96 751.369 246.4C751.369 252.8 755.689 257.16 762.249 257.16C765.929 257.16 768.969 255.84 771.049 253.56L768.609 250.96C767.049 252.56 764.929 253.44 762.609 253.44C759.249 253.44 756.729 251.4 756.009 248.12H772.089C772.649 240.44 769.609 235.56 762.129 235.56ZM755.929 244.76C756.409 241.36 758.809 239.24 762.169 239.24C765.649 239.24 767.929 241.32 768.089 244.76H755.929ZM779.164 226.84C777.644 226.84 776.484 228 776.484 229.64C776.484 231.24 777.644 232.4 779.164 232.4C780.684 232.4 781.844 231.24 781.844 229.64C781.844 228 780.684 226.84 779.164 226.84ZM781.444 235.72H776.884V257H781.444V235.72ZM799.132 252.12C797.892 252.72 796.892 253.04 795.932 253.04C794.492 253.04 793.652 252.36 793.652 250.16V239.96H799.932V236.52H793.652V230.68H789.092V236.52H786.092V239.96H789.092V251C789.092 255.36 791.852 257.2 795.052 257.2C796.852 257.2 798.612 256.64 800.292 255.64L799.132 252.12Z" fill="black"/>
<circle cx="451.5" cy="242.5" r="10.5" fill="black"/>
<circle cx="610.5" cy="762.5" r="10.5" fill="black"/>
<path d="M399 1.5C399 1.5 502 477 526 567.5C550 658 559.763 763.401 695 809C868.5 867.5 918 994.5 924 1068.5C931.338 1159 1013 1147 1307.5 1147" stroke="black" stroke-width="3" stroke-linecap="round"/>
<path d="M602.96 617.4H587.252V620.368H593.44V637H596.744V620.368H602.96V617.4ZM607.748 625.072V622.104H604.528V637H607.748V629.216C608 626.668 609.904 624.904 612.9 625.072V621.992C610.548 621.992 608.756 623.056 607.748 625.072ZM627.042 637L627.014 627.228C626.986 623.952 624.83 621.992 620.994 621.992C618.166 621.992 616.654 622.636 614.582 623.868L615.898 626.108C617.382 625.1 618.866 624.596 620.294 624.596C622.646 624.596 623.85 625.716 623.85 627.592V628.04H619.342C615.758 628.068 613.714 629.804 613.714 632.52C613.714 635.152 615.73 637.14 618.95 637.14C621.106 637.14 622.814 636.496 623.878 635.18V637H627.042ZM619.622 634.592C617.83 634.592 616.738 633.724 616.738 632.38C616.738 630.952 617.718 630.392 619.818 630.392H623.85V631.764C623.682 633.388 621.918 634.592 619.622 634.592ZM650.785 621.992C648.069 621.992 646.081 623.084 645.129 625.576C644.429 623.308 642.609 621.992 639.949 621.992C637.485 621.992 635.581 622.888 634.545 624.988V622.104H631.353V637H634.545V629.636C634.545 627.032 636.113 625.072 638.689 624.988C640.873 624.988 642.189 626.36 642.189 628.628V637H645.409V629.636C645.409 627.032 646.949 625.072 649.497 624.988C651.681 624.988 653.025 626.36 653.025 628.628V637H656.245V627.732C656.245 624.176 654.201 621.992 650.785 621.992ZM665.008 621.964C662.152 621.964 659.52 623.252 659.52 626.276C659.492 631.652 667.332 629.944 667.332 632.996C667.332 634.116 666.268 634.592 664.896 634.592C663.272 634.592 661.2 633.892 659.912 632.744L658.764 635.04C660.248 636.384 662.572 637.112 664.756 637.112C667.752 637.112 670.468 635.74 670.468 632.688C670.496 627.284 662.572 628.768 662.572 626.024C662.572 624.96 663.496 624.54 664.756 624.54C666.072 624.54 667.724 625.044 669.04 625.856L670.216 623.476C668.872 622.524 666.884 621.964 665.008 621.964ZM696.915 635.852L693.723 632.744C694.507 631.68 695.179 630.42 695.767 629.02L693.667 627.452C693.163 628.796 692.575 629.972 691.903 630.98C690.223 629.328 688.851 627.928 687.787 626.724C690.195 625.464 692.547 624.064 692.547 621.376C692.547 618.968 690.531 617.26 687.591 617.26C684.539 617.26 682.495 619.08 682.495 621.684C682.495 623.084 683.083 624.484 684.371 626.22C682.159 627.396 680.143 628.88 680.143 631.652C680.143 634.816 682.803 637.14 686.303 637.14C688.459 637.14 690.475 636.188 692.211 634.536C693.135 635.46 694.171 636.44 695.263 637.532L696.915 635.852ZM685.043 621.656C685.043 620.312 686.051 619.276 687.619 619.276C689.075 619.276 689.999 620.116 689.999 621.404C689.999 623.14 688.403 624.148 686.499 625.128C685.519 623.784 685.043 622.692 685.043 621.656ZM686.415 634.704C684.399 634.704 682.803 633.36 682.803 631.4C682.803 629.804 684.063 628.768 685.687 627.844C686.919 629.244 688.487 630.84 690.447 632.8C689.215 634.004 687.843 634.704 686.415 634.704ZM715.42 617.4H706.908V637H715.616C720.04 637 722.756 634.984 722.756 631.624C722.756 628.992 721.188 627.116 718.556 626.668C720.684 626.164 722 624.512 722 622.3C722 619.248 719.48 617.4 715.42 617.4ZM715.252 620.34C717.352 620.34 718.612 621.236 718.612 622.888C718.612 624.54 717.352 625.52 715.252 625.52H710.212V620.34H715.252ZM715.252 628.432C717.828 628.432 719.368 629.468 719.368 631.204C719.368 633.052 717.828 634.06 715.252 634.06H710.212V628.432H715.252ZM736.786 622.104V629.44C736.786 632.044 735.274 634.032 732.698 634.088C730.542 634.088 729.226 632.716 729.226 630.476V622.104H726.006V631.372C726.006 634.928 728.05 637.112 731.466 637.112C733.902 637.084 735.778 636.16 736.786 634.088V637H740.006V622.104H736.786ZM749.227 621.964C746.371 621.964 743.739 623.252 743.739 626.276C743.711 631.652 751.551 629.944 751.551 632.996C751.551 634.116 750.487 634.592 749.115 634.592C747.491 634.592 745.419 633.892 744.131 632.744L742.983 635.04C744.467 636.384 746.791 637.112 748.975 637.112C751.971 637.112 754.687 635.74 754.687 632.688C754.715 627.284 746.791 628.768 746.791 626.024C746.791 624.96 747.715 624.54 748.975 624.54C750.291 624.54 751.943 625.044 753.259 625.856L754.435 623.476C753.091 622.524 751.103 621.964 749.227 621.964ZM764.059 621.992C759.635 622.02 756.527 625.072 756.527 629.58C756.527 634.06 759.551 637.112 764.143 637.112C766.719 637.112 768.847 636.188 770.303 634.592L768.595 632.772C767.503 633.892 766.019 634.508 764.395 634.508C762.043 634.508 760.279 633.08 759.775 630.784H771.031C771.423 625.408 769.295 621.992 764.059 621.992ZM759.719 628.432C760.055 626.052 761.735 624.568 764.087 624.568C766.523 624.568 768.119 626.024 768.231 628.432H759.719ZM778.84 621.964C775.984 621.964 773.352 623.252 773.352 626.276C773.324 631.652 781.164 629.944 781.164 632.996C781.164 634.116 780.1 634.592 778.728 634.592C777.104 634.592 775.032 633.892 773.744 632.744L772.596 635.04C774.08 636.384 776.404 637.112 778.588 637.112C781.584 637.112 784.3 635.74 784.3 632.688C784.328 627.284 776.404 628.768 776.404 626.024C776.404 624.96 777.328 624.54 778.588 624.54C779.904 624.54 781.556 625.044 782.872 625.856L784.048 623.476C782.704 622.524 780.716 621.964 778.84 621.964Z" fill="black"/>
<mask id="mask0_803_77" style="mask-type:alpha" maskUnits="userSpaceOnUse" x="546" y="640" width="48" height="28">
<rect x="546" y="640" width="48" height="28" fill="#D9D9D9"/>
</mask>
<g mask="url(#mask0_803_77)">
<line x1="550.399" y1="662.626" x2="598.399" y2="641.626" stroke="black" stroke-width="3" stroke-dasharray="4 4"/>
</g>
<defs>
<linearGradient id="paint0_linear_803_77" x1="1290.79" y1="842.946" x2="1516.63" y2="874.709" gradientUnits="userSpaceOnUse">
<stop stop-color="#473DDC"/>
<stop offset="1" stop-color="#473DDC" stop-opacity="0"/>
</linearGradient>
<linearGradient id="paint1_linear_803_77" x1="407.998" y1="1073" x2="1492" y2="68.4997" gradientUnits="userSpaceOnUse">
<stop stop-color="#473DDC" stop-opacity="0"/>
<stop offset="0.104508" stop-color="#473DDC"/>
<stop offset="0.810121" stop-color="#473DDC"/>
<stop offset="1" stop-color="#473DDC" stop-opacity="0"/>
</linearGradient>
</defs>
</svg>
