<svg xmlns="http://www.w3.org/2000/svg" width="25" height="23" viewBox="0 0 25 23">
  <g fill="#FFFFFF" fill-rule="evenodd">
    <path fill-rule="nonzero" d="M11.259538,13.9120586 L12.5099451,11.7462901 L15.7238798,17.3004878 L20.3703704,17.3004878 L20.3703704,19.32 L14.3888416,19.32 L11.259538,13.9120586 Z M9.23654068,10.4159928 L5.97499297,4.7795122 L0,4.7795122 L0,2.76 L6.64251208,2.76 L7.31003118,2.76 L10.4869477,8.25022428 L9.23654068,10.4159928 Z"/>
    <polygon fill-rule="nonzero" points="15.724 4.78 7.31 19.32 6.643 19.32 0 19.32 0 17.3 5.975 17.3 14.389 2.76 20.37 2.76 20.37 4.78"/>
    <polygon points="18.519 0 25 3.68 18.519 7.36"/>
    <polygon points="18.519 15.64 25 19.32 18.519 23"/>
  </g>
</svg>
